%TF.GenerationSoftware,KiCad,Pcbnew,10.0.4*%
%TF.CreationDate,2026-09-13T16:48:49-04:00*%
%TF.ProjectId,sensor-board,73656e73-6f72-42d6-926f-6172642e6b69,rev?*%
%TF.SameCoordinates,Original*%
%TF.FileFunction,Paste,Top*%
%TF.FilePolarity,Positive*%
%FSLAX46Y46*%
G04 Gerber Fmt 4.6, Leading zero omitted, Abs format (unit mm)*
G04 Created by KiCad (PCBNEW 10.0.4) date 2026-09-13 16:48:49*
%MOMM*%
%LPD*%
G01*
G04 APERTURE LIST*
G04 Aperture macros list*
%AMRoundRect*
0 Rectangle with rounded corners*
0 $1 Rounding radius*
0 $2 $3 $4 $5 $6 $7 $8 $9 X,Y pos of 4 corners*
0 Add a 4 corners polygon primitive as box body*
4,1,4,$2,$3,$4,$5,$6,$7,$8,$9,$2,$3,0*
0 Add four circle primitives for the rounded corners*
1,1,$1+$1,$2,$3*
1,1,$1+$1,$4,$5*
1,1,$1+$1,$6,$7*
1,1,$1+$1,$8,$9*
0 Add four rect primitives between the rounded corners*
20,1,$1+$1,$2,$3,$4,$5,0*
20,1,$1+$1,$4,$5,$6,$7,0*
20,1,$1+$1,$6,$7,$8,$9,0*
20,1,$1+$1,$8,$9,$2,$3,0*%
G04 Aperture macros list end*
%ADD10C,0.000000*%
%ADD11RoundRect,0.140000X0.170000X-0.140000X0.170000X0.140000X-0.170000X0.140000X-0.170000X-0.140000X0*%
%ADD12RoundRect,0.140000X-0.170000X0.140000X-0.170000X-0.140000X0.170000X-0.140000X0.170000X0.140000X0*%
%ADD13RoundRect,0.112500X-0.112500X0.187500X-0.112500X-0.187500X0.112500X-0.187500X0.112500X0.187500X0*%
%ADD14RoundRect,0.135000X-0.135000X-0.185000X0.135000X-0.185000X0.135000X0.185000X-0.135000X0.185000X0*%
%ADD15RoundRect,0.140000X-0.140000X-0.170000X0.140000X-0.170000X0.140000X0.170000X-0.140000X0.170000X0*%
%ADD16RoundRect,0.150000X-0.150000X0.587500X-0.150000X-0.587500X0.150000X-0.587500X0.150000X0.587500X0*%
%ADD17R,1.800000X1.000000*%
%ADD18RoundRect,0.140000X0.140000X0.170000X-0.140000X0.170000X-0.140000X-0.170000X0.140000X-0.170000X0*%
%ADD19RoundRect,0.150000X0.512500X0.150000X-0.512500X0.150000X-0.512500X-0.150000X0.512500X-0.150000X0*%
%ADD20RoundRect,0.150000X-0.625000X0.150000X-0.625000X-0.150000X0.625000X-0.150000X0.625000X0.150000X0*%
%ADD21RoundRect,0.250000X-0.650000X0.350000X-0.650000X-0.350000X0.650000X-0.350000X0.650000X0.350000X0*%
%ADD22R,0.300000X0.300000*%
%ADD23R,0.939800X0.457200*%
%ADD24R,0.508000X0.355600*%
%ADD25RoundRect,0.218750X0.381250X-0.218750X0.381250X0.218750X-0.381250X0.218750X-0.381250X-0.218750X0*%
%ADD26RoundRect,0.150000X0.625000X-0.150000X0.625000X0.150000X-0.625000X0.150000X-0.625000X-0.150000X0*%
%ADD27RoundRect,0.250000X0.650000X-0.350000X0.650000X0.350000X-0.650000X0.350000X-0.650000X-0.350000X0*%
%ADD28RoundRect,0.135000X-0.185000X0.135000X-0.185000X-0.135000X0.185000X-0.135000X0.185000X0.135000X0*%
%ADD29RoundRect,0.218750X-0.218750X-0.256250X0.218750X-0.256250X0.218750X0.256250X-0.218750X0.256250X0*%
%ADD30R,0.381000X0.355600*%
%ADD31R,0.355600X0.381000*%
%ADD32RoundRect,0.135000X0.135000X0.185000X-0.135000X0.185000X-0.135000X-0.185000X0.135000X-0.185000X0*%
%ADD33RoundRect,0.200000X0.250000X0.200000X-0.250000X0.200000X-0.250000X-0.200000X0.250000X-0.200000X0*%
%ADD34RoundRect,0.243750X-0.243750X-0.456250X0.243750X-0.456250X0.243750X0.456250X-0.243750X0.456250X0*%
%ADD35R,0.500000X0.300000*%
%ADD36RoundRect,0.218750X0.256250X-0.218750X0.256250X0.218750X-0.256250X0.218750X-0.256250X-0.218750X0*%
%ADD37R,0.530000X0.200000*%
%ADD38RoundRect,0.050000X0.215000X0.050000X-0.215000X0.050000X-0.215000X-0.050000X0.215000X-0.050000X0*%
%ADD39RoundRect,0.150000X0.470000X-0.150000X0.470000X0.150000X-0.470000X0.150000X-0.470000X-0.150000X0*%
%ADD40RoundRect,0.075000X0.545000X-0.075000X0.545000X0.075000X-0.545000X0.075000X-0.545000X-0.075000X0*%
%ADD41RoundRect,0.062500X0.062500X-0.127500X0.062500X0.127500X-0.062500X0.127500X-0.062500X-0.127500X0*%
%ADD42RoundRect,0.125000X0.125000X-0.125000X0.125000X0.125000X-0.125000X0.125000X-0.125000X-0.125000X0*%
%ADD43RoundRect,0.250000X-0.250000X-0.475000X0.250000X-0.475000X0.250000X0.475000X-0.250000X0.475000X0*%
%ADD44RoundRect,0.150000X0.150000X0.625000X-0.150000X0.625000X-0.150000X-0.625000X0.150000X-0.625000X0*%
%ADD45RoundRect,0.250000X0.350000X0.650000X-0.350000X0.650000X-0.350000X-0.650000X0.350000X-0.650000X0*%
%ADD46R,0.249999X0.599999*%
%ADD47R,0.599999X0.249999*%
%ADD48RoundRect,0.250000X-0.315000X0.315000X-0.315000X-0.315000X0.315000X-0.315000X0.315000X0.315000X0*%
%ADD49RoundRect,0.062500X-0.062500X0.375000X-0.062500X-0.375000X0.062500X-0.375000X0.062500X0.375000X0*%
%ADD50RoundRect,0.062500X-0.375000X0.062500X-0.375000X-0.062500X0.375000X-0.062500X0.375000X0.062500X0*%
%ADD51RoundRect,0.150000X-0.587500X-0.150000X0.587500X-0.150000X0.587500X0.150000X-0.587500X0.150000X0*%
%ADD52RoundRect,0.135000X0.185000X-0.135000X0.185000X0.135000X-0.185000X0.135000X-0.185000X-0.135000X0*%
%ADD53RoundRect,0.200000X0.200000X0.275000X-0.200000X0.275000X-0.200000X-0.275000X0.200000X-0.275000X0*%
%ADD54RoundRect,0.150000X0.150000X-0.587500X0.150000X0.587500X-0.150000X0.587500X-0.150000X-0.587500X0*%
%ADD55RoundRect,0.147500X0.147500X0.172500X-0.147500X0.172500X-0.147500X-0.172500X0.147500X-0.172500X0*%
%ADD56RoundRect,0.250000X-0.750000X0.275000X-0.750000X-0.275000X0.750000X-0.275000X0.750000X0.275000X0*%
G04 APERTURE END LIST*
D10*
%TO.C,MIC1*%
G36*
X174271000Y-44235700D02*
G01*
X173201000Y-44235700D01*
X173201000Y-44080100D01*
X174271000Y-44080100D01*
X174271000Y-44235700D01*
G37*
G36*
X175541000Y-44235700D02*
G01*
X174471000Y-44235700D01*
X174471000Y-44080100D01*
X175541000Y-44080100D01*
X175541000Y-44235700D01*
G37*
G36*
X176911000Y-45567600D02*
G01*
X173101000Y-45567600D01*
X173431200Y-45212000D01*
X176580800Y-45212000D01*
X176911000Y-45567600D01*
G37*
G36*
X176811000Y-44235700D02*
G01*
X175741000Y-44235700D01*
X175741000Y-44080100D01*
X176811000Y-44080100D01*
X176811000Y-44235700D01*
G37*
G36*
X176911000Y-45567600D02*
G01*
X176580800Y-45212000D01*
X176580800Y-43103800D01*
X176911000Y-42748200D01*
X176911000Y-45567600D01*
G37*
%TO.C,U9*%
G36*
X179974000Y-69950000D02*
G01*
X178825998Y-69950000D01*
X178825999Y-68801999D01*
X179974001Y-68801999D01*
X179974000Y-69950000D01*
G37*
G36*
X179974001Y-68602002D02*
G01*
X178825999Y-68602002D01*
X178825999Y-67454000D01*
X179974001Y-67454000D01*
X179974001Y-68602002D01*
G37*
G36*
X181321999Y-69950000D02*
G01*
X180173998Y-69950000D01*
X180173998Y-68801999D01*
X181321999Y-68801999D01*
X181321999Y-69950000D01*
G37*
G36*
X181321999Y-68602001D02*
G01*
X180173998Y-68602002D01*
X180173998Y-67454000D01*
X181321999Y-67453999D01*
X181321999Y-68602001D01*
G37*
%TD*%
D11*
%TO.C,C19*%
X186602000Y-82692000D03*
X186602000Y-81732000D03*
%TD*%
D12*
%TO.C,C22*%
X176276000Y-68834000D03*
X176276000Y-69794000D03*
%TD*%
D13*
%TO.C,D2*%
X183600000Y-88000000D03*
X183600000Y-90100000D03*
%TD*%
D14*
%TO.C,R17*%
X177066000Y-83400000D03*
X178086000Y-83400000D03*
%TD*%
D11*
%TO.C,C32*%
X178903000Y-44638900D03*
X178903000Y-43678900D03*
%TD*%
D15*
%TO.C,C27*%
X178364000Y-73660000D03*
X179324000Y-73660000D03*
%TD*%
D16*
%TO.C,Q2*%
X183302000Y-91674000D03*
X181402000Y-91674000D03*
X182352000Y-93549000D03*
%TD*%
D17*
%TO.C,Y2*%
X180217000Y-49350000D03*
X180217000Y-51850000D03*
%TD*%
D14*
%TO.C,R13*%
X173988000Y-72390000D03*
X175008000Y-72390000D03*
%TD*%
%TO.C,R8*%
X180950000Y-83200000D03*
X181970000Y-83200000D03*
%TD*%
D18*
%TO.C,C21*%
X180060000Y-83400000D03*
X179100000Y-83400000D03*
%TD*%
D16*
%TO.C,U3*%
X185650000Y-48925000D03*
X183750000Y-48925000D03*
X184700000Y-50800000D03*
%TD*%
D19*
%TO.C,U6*%
X176773000Y-64892000D03*
X176773000Y-63942000D03*
X176773000Y-62992000D03*
X174498000Y-62992000D03*
X174498000Y-63942000D03*
X174498000Y-64892000D03*
%TD*%
D12*
%TO.C,C6*%
X177150000Y-59070000D03*
X177150000Y-60030000D03*
%TD*%
D20*
%TO.C,J9*%
X186197000Y-76230000D03*
X186197000Y-77230000D03*
D21*
X188722000Y-74930000D03*
X188722000Y-78530000D03*
%TD*%
D22*
%TO.C,U1*%
X168626002Y-55750000D03*
X169213001Y-55750000D03*
X169800000Y-55750000D03*
X168626002Y-55250000D03*
X169213001Y-55250000D03*
X169800000Y-55250000D03*
%TD*%
D20*
%TO.C,J7*%
X185875000Y-89600000D03*
X185875000Y-90600000D03*
D21*
X188400000Y-88300000D03*
X188400000Y-91900000D03*
%TD*%
D11*
%TO.C,C25*%
X180852000Y-73175000D03*
X180852000Y-72215000D03*
%TD*%
D23*
%TO.C,MIC1*%
X175681000Y-43732900D03*
X174331000Y-43732900D03*
X174331000Y-44582900D03*
X175681000Y-44582900D03*
D24*
X175006000Y-42926000D03*
%TD*%
D15*
%TO.C,C12*%
X179094000Y-55897000D03*
X180054000Y-55897000D03*
%TD*%
D25*
%TO.C,L2*%
X173950000Y-61475000D03*
X173950000Y-59350000D03*
%TD*%
D18*
%TO.C,C17*%
X180030000Y-64262000D03*
X179070000Y-64262000D03*
%TD*%
D26*
%TO.C,J5*%
X172197000Y-72404000D03*
X172197000Y-71404000D03*
D27*
X169672000Y-73704000D03*
X169672000Y-70104000D03*
%TD*%
D14*
%TO.C,R2*%
X174750000Y-49022000D03*
X175770000Y-49022000D03*
%TD*%
D28*
%TO.C,R21*%
X177200000Y-60950000D03*
X177200000Y-61970000D03*
%TD*%
D11*
%TO.C,C10*%
X169866000Y-57856000D03*
X169866000Y-56896000D03*
%TD*%
D29*
%TO.C,L5*%
X178059000Y-74930000D03*
X179634000Y-74930000D03*
%TD*%
D11*
%TO.C,C31*%
X177949000Y-44638900D03*
X177949000Y-43678900D03*
%TD*%
%TO.C,C7*%
X178054000Y-49474000D03*
X178054000Y-48514000D03*
%TD*%
D30*
%TO.C,U8*%
X173224200Y-40238899D03*
X173224200Y-40738900D03*
X173224200Y-41238900D03*
X173224200Y-41738901D03*
D31*
X173825100Y-41839800D03*
X174325100Y-41839800D03*
D30*
X174926000Y-41738901D03*
X174926000Y-41238900D03*
X174926000Y-40738900D03*
X174926000Y-40238899D03*
D31*
X174325100Y-40138000D03*
X173825100Y-40138000D03*
%TD*%
D32*
%TO.C,R15*%
X175008000Y-71374000D03*
X173988000Y-71374000D03*
%TD*%
D33*
%TO.C,Y1*%
X171600000Y-60150000D03*
X170200000Y-60150000D03*
X170200000Y-61250000D03*
X171600000Y-61250000D03*
%TD*%
D34*
%TO.C,D1*%
X173814500Y-37084000D03*
X175689500Y-37084000D03*
%TD*%
D32*
%TO.C,R6*%
X178056000Y-47498000D03*
X177036000Y-47498000D03*
%TD*%
%TO.C,R16*%
X175008000Y-66294000D03*
X173988000Y-66294000D03*
%TD*%
D35*
%TO.C,U4*%
X182900000Y-79700000D03*
X182900000Y-80500000D03*
X184300000Y-80500000D03*
X184300000Y-79700000D03*
%TD*%
D11*
%TO.C,C3*%
X181995000Y-52068000D03*
X181995000Y-51108000D03*
%TD*%
D15*
%TO.C,C28*%
X173920000Y-73700000D03*
X174880000Y-73700000D03*
%TD*%
D18*
%TO.C,C15*%
X177010000Y-66294000D03*
X176050000Y-66294000D03*
%TD*%
D29*
%TO.C,L6*%
X173600000Y-74900000D03*
X175175000Y-74900000D03*
%TD*%
D32*
%TO.C,R11*%
X175008000Y-68326000D03*
X173988000Y-68326000D03*
%TD*%
D36*
%TO.C,L3*%
X182122000Y-73457000D03*
X182122000Y-71882000D03*
%TD*%
D37*
%TO.C,U7*%
X184570000Y-83200000D03*
D38*
X184570000Y-82700000D03*
X184570000Y-82200000D03*
X184570000Y-81700000D03*
X182900000Y-83200000D03*
X182900000Y-82700000D03*
X182900000Y-82200000D03*
X182900000Y-81700000D03*
%TD*%
D11*
%TO.C,C9*%
X168850000Y-57856000D03*
X168850000Y-56896000D03*
%TD*%
D14*
%TO.C,R4*%
X185674000Y-55118000D03*
X186694000Y-55118000D03*
%TD*%
%TO.C,R1*%
X174748000Y-38608000D03*
X175768000Y-38608000D03*
%TD*%
D11*
%TO.C,C4*%
X169672000Y-54046000D03*
X169672000Y-53086000D03*
%TD*%
D28*
%TO.C,R10*%
X172974000Y-69088000D03*
X172974000Y-70108000D03*
%TD*%
D20*
%TO.C,J3*%
X186600000Y-51592000D03*
X186600000Y-52592000D03*
D21*
X189125000Y-50292000D03*
X189125000Y-53892000D03*
%TD*%
D39*
%TO.C,J1*%
X182788000Y-64162000D03*
X182788000Y-63362000D03*
D40*
X182788000Y-62212000D03*
X182788000Y-61212000D03*
X182788000Y-60712000D03*
X182788000Y-59712000D03*
D39*
X182788000Y-58562000D03*
X182788000Y-57762000D03*
X182788000Y-57762000D03*
X182788000Y-58562000D03*
D40*
X182788000Y-59212000D03*
X182788000Y-60212000D03*
X182788000Y-61712000D03*
X182788000Y-62712000D03*
D39*
X182788000Y-63362000D03*
X182788000Y-64162000D03*
%TD*%
D41*
%TO.C,U5*%
X178506000Y-62776000D03*
D42*
X178381000Y-62636000D03*
X178381000Y-61836000D03*
X178381000Y-61036000D03*
X178381000Y-60236000D03*
X178381000Y-59436000D03*
X179181000Y-59436000D03*
X179981000Y-59436000D03*
X179981000Y-60236000D03*
X179981000Y-61036000D03*
X179981000Y-61836000D03*
X179981000Y-62636000D03*
X179181000Y-62636000D03*
%TD*%
D43*
%TO.C,C11*%
X183550000Y-46900000D03*
X185450000Y-46900000D03*
%TD*%
D28*
%TO.C,R12*%
X182100000Y-89180000D03*
X182100000Y-90200000D03*
%TD*%
D44*
%TO.C,J10*%
X178054000Y-78994000D03*
X177054000Y-78994000D03*
D45*
X179354000Y-81519000D03*
X175754000Y-81519000D03*
%TD*%
D14*
%TO.C,R3*%
X169162000Y-37084000D03*
X170182000Y-37084000D03*
%TD*%
D46*
%TO.C,U9*%
X180823999Y-66802000D03*
X180324000Y-66802000D03*
X179823998Y-66802000D03*
X179324000Y-66802000D03*
D47*
X178173999Y-67952001D03*
X178173999Y-68451999D03*
X178173999Y-68952001D03*
X178173999Y-69452000D03*
D46*
X179324000Y-70602000D03*
X179823998Y-70602000D03*
X180324001Y-70602000D03*
X180823999Y-70602000D03*
D47*
X181973999Y-69452000D03*
X181973999Y-68952002D03*
X181973999Y-68451999D03*
X181973999Y-67952001D03*
%TD*%
D15*
%TO.C,C30*%
X185540000Y-83600000D03*
X186500000Y-83600000D03*
%TD*%
D44*
%TO.C,J11*%
X172200000Y-79000000D03*
X171200000Y-79000000D03*
D45*
X173500000Y-81525000D03*
X169900000Y-81525000D03*
%TD*%
D26*
%TO.C,J6*%
X172212000Y-66532000D03*
X172212000Y-65532000D03*
D27*
X169687000Y-67832000D03*
X169687000Y-64232000D03*
%TD*%
D12*
%TO.C,C13*%
X183600000Y-51220000D03*
X183600000Y-52180000D03*
%TD*%
D32*
%TO.C,R7*%
X178054000Y-46482000D03*
X177034000Y-46482000D03*
%TD*%
D48*
%TO.C,U2*%
X176594000Y-52391500D03*
X175194000Y-52391500D03*
X173794000Y-52391500D03*
X172394000Y-52391500D03*
X176594000Y-53791500D03*
X175194000Y-53791500D03*
X173794000Y-53791500D03*
X172394000Y-53791500D03*
X176594000Y-55191500D03*
X175194000Y-55191500D03*
X173794000Y-55191500D03*
X172394000Y-55191500D03*
X176594000Y-56591500D03*
X175194000Y-56591500D03*
X173794000Y-56591500D03*
X172394000Y-56591500D03*
D49*
X177244000Y-51054000D03*
X176744000Y-51054000D03*
X176244000Y-51054000D03*
X175744000Y-51054000D03*
X175244000Y-51054000D03*
X174744000Y-51054000D03*
X174244000Y-51054000D03*
X173744000Y-51054000D03*
X173244000Y-51054000D03*
X172744000Y-51054000D03*
X172244000Y-51054000D03*
X171744000Y-51054000D03*
D50*
X171056500Y-51741500D03*
X171056500Y-52241500D03*
X171056500Y-52741500D03*
X171056500Y-53241500D03*
X171056500Y-53741500D03*
X171056500Y-54241500D03*
X171056500Y-54741500D03*
X171056500Y-55241500D03*
X171056500Y-55741500D03*
X171056500Y-56241500D03*
X171056500Y-56741500D03*
X171056500Y-57241500D03*
D49*
X171744000Y-57929000D03*
X172244000Y-57929000D03*
X172744000Y-57929000D03*
X173244000Y-57929000D03*
X173744000Y-57929000D03*
X174244000Y-57929000D03*
X174744000Y-57929000D03*
X175244000Y-57929000D03*
X175744000Y-57929000D03*
X176244000Y-57929000D03*
X176744000Y-57929000D03*
X177244000Y-57929000D03*
D50*
X177931500Y-57241500D03*
X177931500Y-56741500D03*
X177931500Y-56241500D03*
X177931500Y-55741500D03*
X177931500Y-55241500D03*
X177931500Y-54741500D03*
X177931500Y-54241500D03*
X177931500Y-53741500D03*
X177931500Y-53241500D03*
X177931500Y-52741500D03*
X177931500Y-52241500D03*
X177931500Y-51741500D03*
%TD*%
D12*
%TO.C,C5*%
X181995000Y-49104000D03*
X181995000Y-50064000D03*
%TD*%
D18*
%TO.C,C14*%
X176230000Y-59100000D03*
X175270000Y-59100000D03*
%TD*%
D11*
%TO.C,C16*%
X185586000Y-82692000D03*
X185586000Y-81732000D03*
%TD*%
D12*
%TO.C,C24*%
X177264000Y-68862000D03*
X177264000Y-69822000D03*
%TD*%
D51*
%TO.C,U11*%
X185133000Y-84936000D03*
X185133000Y-86836000D03*
X187008000Y-85886000D03*
%TD*%
D18*
%TO.C,C20*%
X180058000Y-65278000D03*
X179098000Y-65278000D03*
%TD*%
D52*
%TO.C,R5*%
X181102000Y-56900000D03*
X181102000Y-55880000D03*
%TD*%
D28*
%TO.C,R20*%
X178150000Y-64150000D03*
X178150000Y-65170000D03*
%TD*%
D11*
%TO.C,C18*%
X185440000Y-80660000D03*
X185440000Y-79700000D03*
%TD*%
D20*
%TO.C,J8*%
X186197000Y-70388000D03*
X186197000Y-71388000D03*
D21*
X188722000Y-69088000D03*
X188722000Y-72688000D03*
%TD*%
D14*
%TO.C,R19*%
X188890000Y-45500000D03*
X189910000Y-45500000D03*
%TD*%
D53*
%TO.C,R18*%
X189700000Y-44200000D03*
X188050000Y-44200000D03*
%TD*%
D54*
%TO.C,Q1*%
X186950000Y-47825000D03*
X188850000Y-47825000D03*
X187900000Y-45950000D03*
%TD*%
D15*
%TO.C,C1*%
X175270000Y-60050000D03*
X176230000Y-60050000D03*
%TD*%
D11*
%TO.C,C26*%
X180848000Y-76169500D03*
X180848000Y-75209500D03*
%TD*%
D55*
%TO.C,L1*%
X176250000Y-61000000D03*
X175280000Y-61000000D03*
%TD*%
D36*
%TO.C,L4*%
X182118000Y-76505000D03*
X182118000Y-74930000D03*
%TD*%
D52*
%TO.C,R9*%
X181100000Y-90200000D03*
X181100000Y-89180000D03*
%TD*%
D12*
%TO.C,C23*%
X175950000Y-40900000D03*
X175950000Y-41860000D03*
%TD*%
D11*
%TO.C,C8*%
X173736000Y-49931500D03*
X173736000Y-48971500D03*
%TD*%
D12*
%TO.C,C29*%
X176873100Y-40900000D03*
X176873100Y-41860000D03*
%TD*%
D56*
%TO.C,SW1*%
X169418000Y-45466000D03*
X169418000Y-49916000D03*
%TD*%
D11*
%TO.C,C2*%
X177038000Y-49474000D03*
X177038000Y-48514000D03*
%TD*%
D14*
%TO.C,R14*%
X173988000Y-67310000D03*
X175008000Y-67310000D03*
%TD*%
M02*
