%TF.GenerationSoftware,KiCad,Pcbnew,10.0.4*%
%TF.CreationDate,2026-09-06T11:08:35-04:00*%
%TF.ProjectId,sensor-board,73656e73-6f72-42d6-926f-6172642e6b69,rev?*%
%TF.SameCoordinates,Original*%
%TF.FileFunction,Copper,L2,Inr*%
%TF.FilePolarity,Positive*%
%FSLAX46Y46*%
G04 Gerber Fmt 4.6, Leading zero omitted, Abs format (unit mm)*
G04 Created by KiCad (PCBNEW 10.0.4) date 2026-09-06 11:08:35*
%MOMM*%
%LPD*%
G01*
G04 APERTURE LIST*
%TA.AperFunction,Conductor*%
%ADD10C,0.050000*%
%TD*%
%TA.AperFunction,Conductor*%
%ADD11C,0.200000*%
%TD*%
%TA.AperFunction,ComponentPad*%
%ADD12C,0.500000*%
%TD*%
%TA.AperFunction,ComponentPad*%
%ADD13O,1.800000X1.000000*%
%TD*%
%TA.AperFunction,ComponentPad*%
%ADD14O,2.100000X1.000000*%
%TD*%
%TA.AperFunction,ComponentPad*%
%ADD15C,1.700000*%
%TD*%
%TA.AperFunction,ComponentPad*%
%ADD16R,1.700000X1.700000*%
%TD*%
%TA.AperFunction,ComponentPad*%
%ADD17C,2.300000*%
%TD*%
%TA.AperFunction,ComponentPad*%
%ADD18C,0.499999*%
%TD*%
%TA.AperFunction,ComponentPad*%
%ADD19C,1.192000*%
%TD*%
%TA.AperFunction,ComponentPad*%
%ADD20R,1.303000X1.303000*%
%TD*%
%TA.AperFunction,ComponentPad*%
%ADD21C,1.303000*%
%TD*%
%TA.AperFunction,ViaPad*%
%ADD22C,0.250000*%
%TD*%
%TA.AperFunction,ViaPad*%
%ADD23C,0.400000*%
%TD*%
G04 APERTURE END LIST*
%TO.N,GND*%
D10*
X178566500Y-52400000D02*
X179033500Y-52400000D01*
X179033500Y-53200000D01*
X178566500Y-53200000D01*
X178566500Y-52400000D01*
%TA.AperFunction,Conductor*%
G36*
X178566500Y-52400000D02*
G01*
X179033500Y-52400000D01*
X179033500Y-53200000D01*
X178566500Y-53200000D01*
X178566500Y-52400000D01*
G37*
%TD.AperFunction*%
D11*
X168868000Y-59049000D02*
X172678000Y-59049000D01*
X172678000Y-62351000D01*
X168868000Y-62351000D01*
X168868000Y-59049000D01*
%TA.AperFunction,Conductor*%
G36*
X168868000Y-59049000D02*
G01*
X172678000Y-59049000D01*
X172678000Y-62351000D01*
X168868000Y-62351000D01*
X168868000Y-59049000D01*
G37*
%TD.AperFunction*%
X178900000Y-48400000D02*
X182667000Y-48400000D01*
X182667000Y-52800000D01*
X178900000Y-52800000D01*
X178900000Y-48400000D01*
%TA.AperFunction,Conductor*%
G36*
X178900000Y-48400000D02*
G01*
X182667000Y-48400000D01*
X182667000Y-52800000D01*
X178900000Y-52800000D01*
X178900000Y-48400000D01*
G37*
%TD.AperFunction*%
%TD*%
D12*
%TO.N,GND*%
%TO.C,AE1*%
X167476200Y-59915600D03*
X167476200Y-59153600D03*
%TD*%
D13*
%TO.N,GND*%
%TO.C,J1*%
X187588000Y-56642000D03*
D14*
X183388000Y-56642000D03*
D13*
X187588000Y-65282000D03*
D14*
X183388000Y-65282000D03*
%TD*%
D15*
%TO.N,hp4*%
%TO.C,J2*%
X185180000Y-105900000D03*
%TO.N,hp3*%
X182640000Y-105900000D03*
%TO.N,hp2*%
X180100000Y-105900000D03*
%TO.N,hp1*%
X177560000Y-105900000D03*
%TO.N,+3V0*%
X175020000Y-105900000D03*
D16*
%TO.N,GND*%
X172480000Y-105900000D03*
%TD*%
D17*
%TO.N,Net-(BT1-+)*%
%TO.C,BT1*%
X178976000Y-37338000D03*
X188976000Y-37338000D03*
%TO.N,Net-(BT1--)*%
X183976000Y-41138000D03*
%TD*%
D18*
%TO.N,GND*%
%TO.C,U9*%
X180074001Y-67651999D03*
X181123998Y-68701999D03*
X180074001Y-68701999D03*
X179023998Y-68701999D03*
X180074001Y-69751999D03*
%TD*%
D19*
%TO.N,+3V0*%
%TO.C,U10*%
X176140000Y-90440000D03*
%TO.N,motion*%
X173600000Y-87900000D03*
%TO.N,GND*%
X171060000Y-90440000D03*
%TD*%
D20*
%TO.N,Net-(J7-Pin_1)*%
%TO.C,K1*%
X171740000Y-100500000D03*
D21*
%TO.N,+3V0*%
X176820000Y-100500000D03*
%TO.N,Net-(D2-A)*%
X181900000Y-100500000D03*
%TO.N,Net-(J7-Pin_2)*%
X186980000Y-100500000D03*
%TD*%
D22*
%TO.N,GND*%
X185600000Y-38800000D03*
D23*
X188850000Y-47825000D03*
D22*
%TO.N,Net-(Q1-G)*%
X186900000Y-47800000D03*
X188890000Y-45500000D03*
D23*
%TO.N,+3V0*%
X182738000Y-54356000D03*
%TO.N,GND*%
X183600000Y-52200000D03*
%TO.N,+3V0*%
X183600000Y-51220000D03*
%TO.N,GND*%
X185400000Y-46900000D03*
X185700000Y-48900000D03*
D22*
X176700000Y-70700000D03*
X178000000Y-72400000D03*
X179900000Y-72800000D03*
%TO.N,Net-(U9-IN1B)*%
X180900000Y-73900000D03*
%TO.N,GND*%
X171600000Y-61250000D03*
X170200000Y-60150000D03*
X188400000Y-76600000D03*
X185300000Y-78700000D03*
X185586000Y-81732000D03*
X186602000Y-81732000D03*
X186500000Y-83600000D03*
X187008000Y-85886000D03*
X185100000Y-88200000D03*
X185400000Y-92300000D03*
X174000000Y-76000000D03*
X173800000Y-77800000D03*
X173800000Y-79400000D03*
X178000000Y-81800000D03*
X180400000Y-78000000D03*
X177000000Y-67600000D03*
X176200000Y-61900000D03*
X177100000Y-37000000D03*
X175800000Y-39700000D03*
X188600000Y-70900000D03*
X186400000Y-67300000D03*
X186197000Y-71388000D03*
X185000000Y-74000000D03*
X184000000Y-38000000D03*
X171000000Y-36300000D03*
X168000000Y-65000000D03*
X188000000Y-62000000D03*
X188000000Y-59000000D03*
X186000000Y-63000000D03*
X186000000Y-60000000D03*
X182000000Y-104000000D03*
X188000000Y-104000000D03*
X185000000Y-103000000D03*
X170000000Y-102000000D03*
X170000000Y-104000000D03*
X175000000Y-102000000D03*
X179000000Y-100000000D03*
X179000000Y-102000000D03*
X185000000Y-100000000D03*
X185000000Y-96000000D03*
X183000000Y-85000000D03*
X170000000Y-85000000D03*
X179000000Y-87000000D03*
X179000000Y-89000000D03*
X179000000Y-92000000D03*
X179000000Y-95000000D03*
X175000000Y-95000000D03*
X174000000Y-93000000D03*
X171000000Y-93000000D03*
X171000000Y-96000000D03*
X170000000Y-88000000D03*
X171000000Y-86000000D03*
X173600000Y-83940000D03*
X171000000Y-83000000D03*
X171000000Y-80000000D03*
X170000000Y-78000000D03*
X171000000Y-75000000D03*
X170000000Y-72000000D03*
X170000000Y-69000000D03*
X181000000Y-44000000D03*
X184000000Y-44000000D03*
X182100000Y-47200000D03*
X180000000Y-46000000D03*
X185000000Y-45000000D03*
X180000000Y-47500000D03*
X182500000Y-45000000D03*
X187500000Y-40000000D03*
X187500000Y-42500000D03*
X182500000Y-42500000D03*
X180000000Y-42500000D03*
X180000000Y-40000000D03*
X190000000Y-52500000D03*
X190000000Y-55000000D03*
X190000000Y-57500000D03*
X190000000Y-60000000D03*
X190000000Y-62500000D03*
X190000000Y-65000000D03*
X190000000Y-67500000D03*
X190000000Y-70000000D03*
X190000000Y-72500000D03*
X190000000Y-75000000D03*
X190000000Y-77500000D03*
X190000000Y-80000000D03*
X190000000Y-82500000D03*
X190000000Y-85000000D03*
X190000000Y-87500000D03*
X190000000Y-90000000D03*
X190000000Y-92500000D03*
X190000000Y-95000000D03*
X190000000Y-97500000D03*
X190000000Y-100000000D03*
X190000000Y-102500000D03*
X190000000Y-105000000D03*
X190000000Y-107500000D03*
D23*
X179098000Y-65278000D03*
X179070000Y-64262000D03*
X176050000Y-66294000D03*
D22*
X175240000Y-57910000D03*
X177150000Y-60030000D03*
X184590000Y-79700000D03*
D23*
X183890000Y-77480000D03*
X186200000Y-77230000D03*
X177054000Y-78994000D03*
X170710000Y-76700000D03*
X171200000Y-79000000D03*
X181102000Y-55880000D03*
X174498000Y-63942000D03*
D22*
X175006000Y-42926000D03*
D23*
X174957999Y-41854000D03*
D22*
X180070000Y-52800000D03*
X181480000Y-52800000D03*
X182667000Y-51560000D03*
X182667000Y-50510000D03*
X182667000Y-49410000D03*
X181720000Y-48400000D03*
X180740000Y-48390000D03*
X179800000Y-48400000D03*
X178900000Y-51690000D03*
X178900000Y-50800000D03*
X178900000Y-52800000D03*
X182667000Y-52800000D03*
X182667000Y-48400000D03*
X178900000Y-48400000D03*
X178900000Y-49600000D03*
X169213001Y-55920000D03*
X172678000Y-59850000D03*
X172678000Y-60610000D03*
X172678000Y-61470000D03*
X171490000Y-62351000D03*
X170430000Y-62351000D03*
X169680000Y-62351000D03*
X168884000Y-60880000D03*
X168880000Y-61490000D03*
X168862000Y-60270000D03*
X168872000Y-59660000D03*
X169850000Y-59050000D03*
X168850000Y-59050000D03*
X168868000Y-62351000D03*
X172678000Y-62351000D03*
X172678000Y-59049000D03*
X171250000Y-59050000D03*
D23*
X171314721Y-39678000D03*
D22*
%TO.N,Net-(J4-SWO)*%
X169928000Y-40052702D03*
%TO.N,GND*%
X169800000Y-55250000D03*
X169200000Y-55250000D03*
X168626002Y-55250000D03*
D23*
X179200000Y-62650000D03*
X174500000Y-70550000D03*
D22*
%TO.N,water1*%
X179000000Y-54150000D03*
X177850000Y-61150000D03*
%TO.N,water2*%
X177200000Y-60950000D03*
%TO.N,GND*%
X176620066Y-52309436D03*
X176602816Y-55160024D03*
X176589878Y-56604724D03*
X173795354Y-56565911D03*
X172398092Y-55194524D03*
X172385154Y-56596099D03*
X175192616Y-56583161D03*
X173765166Y-55164336D03*
X175162428Y-55164336D03*
X172350654Y-53801574D03*
X173765166Y-53810199D03*
X173773791Y-52387062D03*
X172381556Y-52397056D03*
X175200000Y-53800000D03*
%TO.N,scl*%
X175244000Y-51054000D03*
D23*
%TO.N,+3V0*%
X168500000Y-37500000D03*
X178000000Y-51054000D03*
X176773000Y-64892000D03*
X176244000Y-59086000D03*
X178054000Y-49474000D03*
X177264000Y-68862000D03*
X169000000Y-54000000D03*
X176000000Y-72500000D03*
X183600000Y-86469000D03*
X175681000Y-43732900D03*
X180500000Y-55287000D03*
X171864122Y-49864122D03*
X180030000Y-63500000D03*
X168850000Y-57856000D03*
X177949000Y-44638900D03*
X171323000Y-42708752D03*
X177150000Y-59070000D03*
X177000000Y-40000000D03*
X172500000Y-47000000D03*
X185440000Y-80660000D03*
D22*
%TO.N,GND*%
X167350000Y-43720000D03*
X167350000Y-48800000D03*
X167350000Y-44990000D03*
X167350000Y-39910000D03*
X167350000Y-46260000D03*
D23*
X171056500Y-56241500D03*
D22*
X167350000Y-53880000D03*
X167350000Y-51340000D03*
X167350000Y-47530000D03*
D23*
X176530000Y-76708000D03*
D22*
X167350000Y-57690000D03*
D23*
X169500000Y-58468000D03*
D22*
X167350000Y-52610000D03*
D23*
X178054000Y-48514000D03*
X178112050Y-42887950D03*
D22*
X167350000Y-50070000D03*
D23*
X178086000Y-83400000D03*
D22*
X167350000Y-41180000D03*
X167350000Y-42450000D03*
D23*
X168510000Y-51924000D03*
X173000000Y-48000000D03*
D22*
X167350000Y-36100000D03*
D23*
X180783500Y-50600000D03*
X176276000Y-69794000D03*
D22*
X167350000Y-37370000D03*
X167350000Y-38640000D03*
D23*
%TO.N,Net-(BT1-+)*%
X184738000Y-57404000D03*
X186600000Y-49874000D03*
X188468000Y-49276000D03*
X184658000Y-59690000D03*
D22*
%TO.N,Net-(D2-A)*%
X183300000Y-92900000D03*
X183300000Y-95100000D03*
%TO.N,motion*%
X177000000Y-80100000D03*
X172244000Y-51054000D03*
%TO.N,Net-(J10-Pin_1)*%
X178364000Y-73660000D03*
X182100000Y-69596000D03*
%TO.N,Net-(U9-IN2B)*%
X181973999Y-68952002D03*
X179324000Y-73660000D03*
%TO.N,color_int*%
X170928331Y-62726000D03*
X171056500Y-54741500D03*
%TO.N,water1*%
X177931500Y-52741500D03*
%TO.N,Net-(U6-IN2)*%
X173482000Y-65024000D03*
X174879000Y-68961000D03*
%TO.N,Net-(J9-Pin_1)*%
X180848000Y-76169500D03*
X180230000Y-71530000D03*
%TO.N,Net-(J8-Pin_1)*%
X182880000Y-72898000D03*
X182880000Y-70612000D03*
%TO.N,sai1_ck1*%
X172720000Y-44450000D03*
X174331000Y-44582900D03*
%TO.N,sai1_d1*%
X177546000Y-57658000D03*
X175681000Y-44582900D03*
%TO.N,Net-(JP1-B)*%
X175744000Y-51054000D03*
X175768000Y-49022000D03*
X175006000Y-47244000D03*
%TO.N,scl*%
X181800000Y-66200000D03*
X179324000Y-60960000D03*
X181940000Y-77660000D03*
X173228000Y-39624000D03*
X177292000Y-45212000D03*
%TO.N,sda*%
X179070000Y-60452000D03*
X182700000Y-77500000D03*
X176190868Y-47837132D03*
X183600000Y-81700000D03*
X174744000Y-50292000D03*
X173228000Y-42164000D03*
X180594000Y-61214000D03*
X180340000Y-66040000D03*
%TO.N,led*%
X171056500Y-52741500D03*
X172720000Y-37592000D03*
%TO.N,Net-(J11-Pin_1)*%
X175710000Y-73190000D03*
X182300000Y-68451999D03*
%TO.N,Net-(U9-IN3B)*%
X181973999Y-67952001D03*
X176100000Y-73700000D03*
%TO.N,dist_shut*%
X177800000Y-58166000D03*
X173244000Y-51054000D03*
%TO.N,dist_int*%
X172744000Y-51054000D03*
X178308000Y-58420000D03*
%TO.N,hp1*%
X170300000Y-54200000D03*
X168500000Y-68500000D03*
X168500000Y-63100000D03*
%TO.N,hp2*%
X173244000Y-57929000D03*
X167900000Y-67000000D03*
%TO.N,hp3*%
X172200000Y-63400000D03*
X167700000Y-67900000D03*
X173744000Y-57929000D03*
%TO.N,hp4*%
X172600000Y-63800000D03*
X167420200Y-68800000D03*
%TO.N,relay*%
X171056500Y-53741500D03*
X180800000Y-80600000D03*
%TO.N,/~{reset}*%
X171958000Y-40640000D03*
X172466000Y-44958000D03*
%TO.N,cap_int*%
X180300000Y-53350000D03*
X178650000Y-66150000D03*
%TO.N,cap_shut*%
X179850000Y-53850000D03*
X177546000Y-65532000D03*
%TO.N,Net-(U9-IN1B)*%
X180848000Y-71374000D03*
%TO.N,button*%
X170000000Y-51000000D03*
X169500000Y-47000000D03*
%TO.N,Net-(U2-VLXSMPS)*%
X175768000Y-60518000D03*
X175768000Y-58420000D03*
%TO.N,Net-(J4-SWDIO)*%
X177931500Y-56241500D03*
X169418000Y-44150000D03*
%TO.N,Net-(J4-SWCLK)*%
X169490000Y-41830000D03*
X177931500Y-55241500D03*
%TO.N,mag*%
X180800000Y-60100000D03*
X180100000Y-54800000D03*
%TO.N,Net-(J4-SWO)*%
X177931500Y-54241500D03*
%TO.N,water2*%
X177931500Y-52241500D03*
%TD*%
%TO.N,scl*%
D11*
X179324000Y-60960000D02*
X179676669Y-60607331D01*
X179676669Y-60607331D02*
X179676669Y-58676669D01*
X179676669Y-58676669D02*
X177500000Y-56500000D01*
X177500000Y-56500000D02*
X177500000Y-55075736D01*
X177500000Y-55075736D02*
X175244000Y-52819736D01*
X175244000Y-52819736D02*
X175244000Y-51054000D01*
%TO.N,sda*%
X174744000Y-51084331D02*
X174744000Y-50292000D01*
X177200000Y-55200000D02*
X174944000Y-52944000D01*
X179376669Y-59891331D02*
X179376669Y-58800933D01*
X177200000Y-56624264D02*
X177200000Y-55200000D01*
X179070000Y-60198000D02*
X179376669Y-59891331D01*
X174944000Y-51284331D02*
X174744000Y-51084331D01*
X179376669Y-58800933D02*
X177200000Y-56624264D01*
X179070000Y-60452000D02*
X179070000Y-60198000D01*
X174944000Y-52944000D02*
X174944000Y-51284331D01*
%TO.N,Net-(U2-VLXSMPS)*%
X175768000Y-58420000D02*
X175768000Y-60518000D01*
%TD*%
%TA.AperFunction,Conductor*%
%TO.N,GND*%
G36*
X190267539Y-35019685D02*
G01*
X190313294Y-35072489D01*
X190324500Y-35124000D01*
X190324500Y-36429744D01*
X190304815Y-36496783D01*
X190252011Y-36542538D01*
X190182853Y-36552482D01*
X190119297Y-36523457D01*
X190100182Y-36502629D01*
X190044247Y-36425641D01*
X190044243Y-36425636D01*
X189888363Y-36269756D01*
X189888358Y-36269752D01*
X189710025Y-36140187D01*
X189710024Y-36140186D01*
X189710022Y-36140185D01*
X189647096Y-36108122D01*
X189513606Y-36040104D01*
X189513603Y-36040103D01*
X189303952Y-35971985D01*
X189195086Y-35954742D01*
X189086222Y-35937500D01*
X188865778Y-35937500D01*
X188793201Y-35948995D01*
X188648047Y-35971985D01*
X188438396Y-36040103D01*
X188438393Y-36040104D01*
X188241974Y-36140187D01*
X188063641Y-36269752D01*
X188063636Y-36269756D01*
X187907756Y-36425636D01*
X187907752Y-36425641D01*
X187778187Y-36603974D01*
X187678104Y-36800393D01*
X187678103Y-36800396D01*
X187609985Y-37010047D01*
X187575500Y-37227778D01*
X187575500Y-37448221D01*
X187609985Y-37665952D01*
X187678103Y-37875603D01*
X187678104Y-37875606D01*
X187737102Y-37991393D01*
X187775899Y-38067536D01*
X187778187Y-38072025D01*
X187907752Y-38250358D01*
X187907756Y-38250363D01*
X188063636Y-38406243D01*
X188063641Y-38406247D01*
X188219192Y-38519260D01*
X188241978Y-38535815D01*
X188370375Y-38601237D01*
X188438393Y-38635895D01*
X188438396Y-38635896D01*
X188543221Y-38669955D01*
X188648049Y-38704015D01*
X188865778Y-38738500D01*
X188865779Y-38738500D01*
X189086221Y-38738500D01*
X189086222Y-38738500D01*
X189303951Y-38704015D01*
X189513606Y-38635895D01*
X189710022Y-38535815D01*
X189888365Y-38406242D01*
X190044242Y-38250365D01*
X190100181Y-38173370D01*
X190155511Y-38130704D01*
X190225124Y-38124725D01*
X190286919Y-38157330D01*
X190321277Y-38218168D01*
X190324500Y-38246255D01*
X190324500Y-107675535D01*
X190304815Y-107742574D01*
X190252011Y-107788329D01*
X190200500Y-107799535D01*
X172939882Y-107799500D01*
X172860118Y-107799500D01*
X172860116Y-107799500D01*
X172786425Y-107830024D01*
X172730024Y-107886425D01*
X172699500Y-107960116D01*
X172699500Y-108376000D01*
X172679815Y-108443039D01*
X172627011Y-108488794D01*
X172575500Y-108500000D01*
X167424500Y-108500000D01*
X167357461Y-108480315D01*
X167311706Y-108427511D01*
X167300500Y-108376000D01*
X167300500Y-107960116D01*
X167298118Y-107948142D01*
X167300412Y-107947685D01*
X167295700Y-107923866D01*
X167295700Y-105002155D01*
X171130000Y-105002155D01*
X171130000Y-105650000D01*
X172046988Y-105650000D01*
X172014075Y-105707007D01*
X171980000Y-105834174D01*
X171980000Y-105965826D01*
X172014075Y-106092993D01*
X172046988Y-106150000D01*
X171130000Y-106150000D01*
X171130000Y-106797844D01*
X171136401Y-106857372D01*
X171136403Y-106857379D01*
X171186645Y-106992086D01*
X171186649Y-106992093D01*
X171272809Y-107107187D01*
X171272812Y-107107190D01*
X171387906Y-107193350D01*
X171387913Y-107193354D01*
X171522620Y-107243596D01*
X171522627Y-107243598D01*
X171582155Y-107249999D01*
X171582172Y-107250000D01*
X172230000Y-107250000D01*
X172230000Y-106333012D01*
X172287007Y-106365925D01*
X172414174Y-106400000D01*
X172545826Y-106400000D01*
X172672993Y-106365925D01*
X172730000Y-106333012D01*
X172730000Y-107250000D01*
X173377828Y-107250000D01*
X173377844Y-107249999D01*
X173437372Y-107243598D01*
X173437379Y-107243596D01*
X173572086Y-107193354D01*
X173572093Y-107193350D01*
X173687187Y-107107190D01*
X173687190Y-107107187D01*
X173773350Y-106992093D01*
X173773354Y-106992086D01*
X173823596Y-106857379D01*
X173823598Y-106857372D01*
X173829999Y-106797844D01*
X173830000Y-106797827D01*
X173830000Y-106505050D01*
X173849685Y-106438011D01*
X173902489Y-106392256D01*
X173971647Y-106382312D01*
X174035203Y-106411337D01*
X174064485Y-106448756D01*
X174078766Y-106476786D01*
X174109357Y-106518890D01*
X174180586Y-106616928D01*
X174303072Y-106739414D01*
X174443212Y-106841232D01*
X174597555Y-106919873D01*
X174762299Y-106973402D01*
X174933389Y-107000500D01*
X174933390Y-107000500D01*
X175106610Y-107000500D01*
X175106611Y-107000500D01*
X175277701Y-106973402D01*
X175442445Y-106919873D01*
X175596788Y-106841232D01*
X175736928Y-106739414D01*
X175859414Y-106616928D01*
X175961232Y-106476788D01*
X176039873Y-106322445D01*
X176093402Y-106157701D01*
X176120500Y-105986611D01*
X176120500Y-105813389D01*
X176459500Y-105813389D01*
X176459500Y-105986611D01*
X176486598Y-106157701D01*
X176540127Y-106322445D01*
X176618768Y-106476788D01*
X176720586Y-106616928D01*
X176843072Y-106739414D01*
X176983212Y-106841232D01*
X177137555Y-106919873D01*
X177302299Y-106973402D01*
X177473389Y-107000500D01*
X177473390Y-107000500D01*
X177646610Y-107000500D01*
X177646611Y-107000500D01*
X177817701Y-106973402D01*
X177982445Y-106919873D01*
X178136788Y-106841232D01*
X178276928Y-106739414D01*
X178399414Y-106616928D01*
X178501232Y-106476788D01*
X178579873Y-106322445D01*
X178633402Y-106157701D01*
X178660500Y-105986611D01*
X178660500Y-105813389D01*
X178999500Y-105813389D01*
X178999500Y-105986611D01*
X179026598Y-106157701D01*
X179080127Y-106322445D01*
X179158768Y-106476788D01*
X179260586Y-106616928D01*
X179383072Y-106739414D01*
X179523212Y-106841232D01*
X179677555Y-106919873D01*
X179842299Y-106973402D01*
X180013389Y-107000500D01*
X180013390Y-107000500D01*
X180186610Y-107000500D01*
X180186611Y-107000500D01*
X180357701Y-106973402D01*
X180522445Y-106919873D01*
X180676788Y-106841232D01*
X180816928Y-106739414D01*
X180939414Y-106616928D01*
X181041232Y-106476788D01*
X181119873Y-106322445D01*
X181173402Y-106157701D01*
X181200500Y-105986611D01*
X181200500Y-105813389D01*
X181539500Y-105813389D01*
X181539500Y-105986611D01*
X181566598Y-106157701D01*
X181620127Y-106322445D01*
X181698768Y-106476788D01*
X181800586Y-106616928D01*
X181923072Y-106739414D01*
X182063212Y-106841232D01*
X182217555Y-106919873D01*
X182382299Y-106973402D01*
X182553389Y-107000500D01*
X182553390Y-107000500D01*
X182726610Y-107000500D01*
X182726611Y-107000500D01*
X182897701Y-106973402D01*
X183062445Y-106919873D01*
X183216788Y-106841232D01*
X183356928Y-106739414D01*
X183479414Y-106616928D01*
X183581232Y-106476788D01*
X183659873Y-106322445D01*
X183713402Y-106157701D01*
X183740500Y-105986611D01*
X183740500Y-105813389D01*
X184079500Y-105813389D01*
X184079500Y-105986611D01*
X184106598Y-106157701D01*
X184160127Y-106322445D01*
X184238768Y-106476788D01*
X184340586Y-106616928D01*
X184463072Y-106739414D01*
X184603212Y-106841232D01*
X184757555Y-106919873D01*
X184922299Y-106973402D01*
X185093389Y-107000500D01*
X185093390Y-107000500D01*
X185266610Y-107000500D01*
X185266611Y-107000500D01*
X185437701Y-106973402D01*
X185602445Y-106919873D01*
X185756788Y-106841232D01*
X185896928Y-106739414D01*
X186019414Y-106616928D01*
X186121232Y-106476788D01*
X186199873Y-106322445D01*
X186253402Y-106157701D01*
X186280500Y-105986611D01*
X186280500Y-105813389D01*
X186253402Y-105642299D01*
X186199873Y-105477555D01*
X186121232Y-105323212D01*
X186019414Y-105183072D01*
X185896928Y-105060586D01*
X185756788Y-104958768D01*
X185602445Y-104880127D01*
X185437701Y-104826598D01*
X185437699Y-104826597D01*
X185437698Y-104826597D01*
X185306271Y-104805781D01*
X185266611Y-104799500D01*
X185093389Y-104799500D01*
X185053728Y-104805781D01*
X184922302Y-104826597D01*
X184757552Y-104880128D01*
X184603211Y-104958768D01*
X184523256Y-105016859D01*
X184463072Y-105060586D01*
X184463070Y-105060588D01*
X184463069Y-105060588D01*
X184340588Y-105183069D01*
X184340588Y-105183070D01*
X184340586Y-105183072D01*
X184296859Y-105243256D01*
X184238768Y-105323211D01*
X184160128Y-105477552D01*
X184106597Y-105642302D01*
X184105378Y-105650000D01*
X184079500Y-105813389D01*
X183740500Y-105813389D01*
X183713402Y-105642299D01*
X183659873Y-105477555D01*
X183581232Y-105323212D01*
X183479414Y-105183072D01*
X183356928Y-105060586D01*
X183216788Y-104958768D01*
X183062445Y-104880127D01*
X182897701Y-104826598D01*
X182897699Y-104826597D01*
X182897698Y-104826597D01*
X182766271Y-104805781D01*
X182726611Y-104799500D01*
X182553389Y-104799500D01*
X182513728Y-104805781D01*
X182382302Y-104826597D01*
X182217552Y-104880128D01*
X182063211Y-104958768D01*
X181983256Y-105016859D01*
X181923072Y-105060586D01*
X181923070Y-105060588D01*
X181923069Y-105060588D01*
X181800588Y-105183069D01*
X181800588Y-105183070D01*
X181800586Y-105183072D01*
X181756859Y-105243256D01*
X181698768Y-105323211D01*
X181620128Y-105477552D01*
X181566597Y-105642302D01*
X181565378Y-105650000D01*
X181539500Y-105813389D01*
X181200500Y-105813389D01*
X181173402Y-105642299D01*
X181119873Y-105477555D01*
X181041232Y-105323212D01*
X180939414Y-105183072D01*
X180816928Y-105060586D01*
X180676788Y-104958768D01*
X180522445Y-104880127D01*
X180357701Y-104826598D01*
X180357699Y-104826597D01*
X180357698Y-104826597D01*
X180226271Y-104805781D01*
X180186611Y-104799500D01*
X180013389Y-104799500D01*
X179973728Y-104805781D01*
X179842302Y-104826597D01*
X179677552Y-104880128D01*
X179523211Y-104958768D01*
X179443256Y-105016859D01*
X179383072Y-105060586D01*
X179383070Y-105060588D01*
X179383069Y-105060588D01*
X179260588Y-105183069D01*
X179260588Y-105183070D01*
X179260586Y-105183072D01*
X179216859Y-105243256D01*
X179158768Y-105323211D01*
X179080128Y-105477552D01*
X179026597Y-105642302D01*
X179025378Y-105650000D01*
X178999500Y-105813389D01*
X178660500Y-105813389D01*
X178633402Y-105642299D01*
X178579873Y-105477555D01*
X178501232Y-105323212D01*
X178399414Y-105183072D01*
X178276928Y-105060586D01*
X178136788Y-104958768D01*
X177982445Y-104880127D01*
X177817701Y-104826598D01*
X177817699Y-104826597D01*
X177817698Y-104826597D01*
X177686271Y-104805781D01*
X177646611Y-104799500D01*
X177473389Y-104799500D01*
X177433728Y-104805781D01*
X177302302Y-104826597D01*
X177137552Y-104880128D01*
X176983211Y-104958768D01*
X176903256Y-105016859D01*
X176843072Y-105060586D01*
X176843070Y-105060588D01*
X176843069Y-105060588D01*
X176720588Y-105183069D01*
X176720588Y-105183070D01*
X176720586Y-105183072D01*
X176676859Y-105243256D01*
X176618768Y-105323211D01*
X176540128Y-105477552D01*
X176486597Y-105642302D01*
X176485378Y-105650000D01*
X176459500Y-105813389D01*
X176120500Y-105813389D01*
X176093402Y-105642299D01*
X176039873Y-105477555D01*
X175961232Y-105323212D01*
X175859414Y-105183072D01*
X175736928Y-105060586D01*
X175596788Y-104958768D01*
X175442445Y-104880127D01*
X175277701Y-104826598D01*
X175277699Y-104826597D01*
X175277698Y-104826597D01*
X175146271Y-104805781D01*
X175106611Y-104799500D01*
X174933389Y-104799500D01*
X174893728Y-104805781D01*
X174762302Y-104826597D01*
X174597552Y-104880128D01*
X174443211Y-104958768D01*
X174363256Y-105016859D01*
X174303072Y-105060586D01*
X174303070Y-105060588D01*
X174303069Y-105060588D01*
X174180588Y-105183069D01*
X174180588Y-105183070D01*
X174180586Y-105183072D01*
X174136859Y-105243256D01*
X174078768Y-105323211D01*
X174064485Y-105351244D01*
X174016510Y-105402040D01*
X173948689Y-105418835D01*
X173882554Y-105396297D01*
X173839103Y-105341582D01*
X173830000Y-105294949D01*
X173830000Y-105002172D01*
X173829999Y-105002155D01*
X173823598Y-104942627D01*
X173823596Y-104942620D01*
X173773354Y-104807913D01*
X173773350Y-104807906D01*
X173687190Y-104692812D01*
X173687187Y-104692809D01*
X173572093Y-104606649D01*
X173572086Y-104606645D01*
X173437379Y-104556403D01*
X173437372Y-104556401D01*
X173377844Y-104550000D01*
X172730000Y-104550000D01*
X172730000Y-105466988D01*
X172672993Y-105434075D01*
X172545826Y-105400000D01*
X172414174Y-105400000D01*
X172287007Y-105434075D01*
X172230000Y-105466988D01*
X172230000Y-104550000D01*
X171582155Y-104550000D01*
X171522627Y-104556401D01*
X171522620Y-104556403D01*
X171387913Y-104606645D01*
X171387906Y-104606649D01*
X171272812Y-104692809D01*
X171272809Y-104692812D01*
X171186649Y-104807906D01*
X171186645Y-104807913D01*
X171136403Y-104942620D01*
X171136401Y-104942627D01*
X171130000Y-105002155D01*
X167295700Y-105002155D01*
X167295700Y-99823821D01*
X170838000Y-99823821D01*
X170838000Y-101176178D01*
X170852532Y-101249235D01*
X170852533Y-101249239D01*
X170852534Y-101249240D01*
X170907899Y-101332101D01*
X170990760Y-101387466D01*
X170990764Y-101387467D01*
X171063821Y-101401999D01*
X171063824Y-101402000D01*
X171063826Y-101402000D01*
X172416176Y-101402000D01*
X172416177Y-101401999D01*
X172489240Y-101387466D01*
X172572101Y-101332101D01*
X172627466Y-101249240D01*
X172642000Y-101176174D01*
X172642000Y-100588841D01*
X175917999Y-100588841D01*
X175952662Y-100763098D01*
X175952665Y-100763108D01*
X176020654Y-100927250D01*
X176020661Y-100927263D01*
X176119370Y-101074990D01*
X176119373Y-101074994D01*
X176245005Y-101200626D01*
X176245009Y-101200629D01*
X176392736Y-101299338D01*
X176392749Y-101299345D01*
X176556891Y-101367334D01*
X176556896Y-101367336D01*
X176556900Y-101367336D01*
X176556901Y-101367337D01*
X176731158Y-101402000D01*
X176731161Y-101402000D01*
X176908841Y-101402000D01*
X177026077Y-101378679D01*
X177083104Y-101367336D01*
X177247257Y-101299342D01*
X177394991Y-101200629D01*
X177520629Y-101074991D01*
X177619342Y-100927257D01*
X177687336Y-100763104D01*
X177722000Y-100588841D01*
X180997999Y-100588841D01*
X181032662Y-100763098D01*
X181032665Y-100763108D01*
X181100654Y-100927250D01*
X181100661Y-100927263D01*
X181199370Y-101074990D01*
X181199373Y-101074994D01*
X181325005Y-101200626D01*
X181325009Y-101200629D01*
X181472736Y-101299338D01*
X181472749Y-101299345D01*
X181636891Y-101367334D01*
X181636896Y-101367336D01*
X181636900Y-101367336D01*
X181636901Y-101367337D01*
X181811158Y-101402000D01*
X181811161Y-101402000D01*
X181988841Y-101402000D01*
X182106077Y-101378679D01*
X182163104Y-101367336D01*
X182327257Y-101299342D01*
X182474991Y-101200629D01*
X182600629Y-101074991D01*
X182699342Y-100927257D01*
X182767336Y-100763104D01*
X182802000Y-100588841D01*
X186077999Y-100588841D01*
X186112662Y-100763098D01*
X186112665Y-100763108D01*
X186180654Y-100927250D01*
X186180661Y-100927263D01*
X186279370Y-101074990D01*
X186279373Y-101074994D01*
X186405005Y-101200626D01*
X186405009Y-101200629D01*
X186552736Y-101299338D01*
X186552749Y-101299345D01*
X186716891Y-101367334D01*
X186716896Y-101367336D01*
X186716900Y-101367336D01*
X186716901Y-101367337D01*
X186891158Y-101402000D01*
X186891161Y-101402000D01*
X187068841Y-101402000D01*
X187186077Y-101378679D01*
X187243104Y-101367336D01*
X187407257Y-101299342D01*
X187554991Y-101200629D01*
X187680629Y-101074991D01*
X187779342Y-100927257D01*
X187847336Y-100763104D01*
X187882000Y-100588839D01*
X187882000Y-100411161D01*
X187882000Y-100411158D01*
X187847337Y-100236901D01*
X187847336Y-100236900D01*
X187847336Y-100236896D01*
X187847334Y-100236891D01*
X187779345Y-100072749D01*
X187779338Y-100072736D01*
X187680629Y-99925009D01*
X187680626Y-99925005D01*
X187554994Y-99799373D01*
X187554990Y-99799370D01*
X187407263Y-99700661D01*
X187407250Y-99700654D01*
X187243108Y-99632665D01*
X187243098Y-99632662D01*
X187068841Y-99598000D01*
X187068839Y-99598000D01*
X186891161Y-99598000D01*
X186891159Y-99598000D01*
X186716901Y-99632662D01*
X186716891Y-99632665D01*
X186552749Y-99700654D01*
X186552736Y-99700661D01*
X186405009Y-99799370D01*
X186405005Y-99799373D01*
X186279373Y-99925005D01*
X186279370Y-99925009D01*
X186180661Y-100072736D01*
X186180654Y-100072749D01*
X186112665Y-100236891D01*
X186112662Y-100236901D01*
X186078000Y-100411158D01*
X186078000Y-100411161D01*
X186078000Y-100588839D01*
X186078000Y-100588841D01*
X186077999Y-100588841D01*
X182802000Y-100588841D01*
X182802000Y-100588839D01*
X182802000Y-100411161D01*
X182802000Y-100411158D01*
X182767337Y-100236901D01*
X182767336Y-100236900D01*
X182767336Y-100236896D01*
X182767334Y-100236891D01*
X182699345Y-100072749D01*
X182699338Y-100072736D01*
X182600629Y-99925009D01*
X182600626Y-99925005D01*
X182474994Y-99799373D01*
X182474990Y-99799370D01*
X182327263Y-99700661D01*
X182327250Y-99700654D01*
X182163108Y-99632665D01*
X182163098Y-99632662D01*
X181988841Y-99598000D01*
X181988839Y-99598000D01*
X181811161Y-99598000D01*
X181811159Y-99598000D01*
X181636901Y-99632662D01*
X181636891Y-99632665D01*
X181472749Y-99700654D01*
X181472736Y-99700661D01*
X181325009Y-99799370D01*
X181325005Y-99799373D01*
X181199373Y-99925005D01*
X181199370Y-99925009D01*
X181100661Y-100072736D01*
X181100654Y-100072749D01*
X181032665Y-100236891D01*
X181032662Y-100236901D01*
X180998000Y-100411158D01*
X180998000Y-100411161D01*
X180998000Y-100588839D01*
X180998000Y-100588841D01*
X180997999Y-100588841D01*
X177722000Y-100588841D01*
X177722000Y-100588839D01*
X177722000Y-100411161D01*
X177722000Y-100411158D01*
X177687337Y-100236901D01*
X177687336Y-100236900D01*
X177687336Y-100236896D01*
X177687334Y-100236891D01*
X177619345Y-100072749D01*
X177619338Y-100072736D01*
X177520629Y-99925009D01*
X177520626Y-99925005D01*
X177394994Y-99799373D01*
X177394990Y-99799370D01*
X177247263Y-99700661D01*
X177247250Y-99700654D01*
X177083108Y-99632665D01*
X177083098Y-99632662D01*
X176908841Y-99598000D01*
X176908839Y-99598000D01*
X176731161Y-99598000D01*
X176731159Y-99598000D01*
X176556901Y-99632662D01*
X176556891Y-99632665D01*
X176392749Y-99700654D01*
X176392736Y-99700661D01*
X176245009Y-99799370D01*
X176245005Y-99799373D01*
X176119373Y-99925005D01*
X176119370Y-99925009D01*
X176020661Y-100072736D01*
X176020654Y-100072749D01*
X175952665Y-100236891D01*
X175952662Y-100236901D01*
X175918000Y-100411158D01*
X175918000Y-100411161D01*
X175918000Y-100588839D01*
X175918000Y-100588841D01*
X175917999Y-100588841D01*
X172642000Y-100588841D01*
X172642000Y-99823826D01*
X172642000Y-99823823D01*
X172641999Y-99823821D01*
X172627467Y-99750764D01*
X172627466Y-99750760D01*
X172593989Y-99700658D01*
X172572101Y-99667899D01*
X172489240Y-99612534D01*
X172489239Y-99612533D01*
X172489235Y-99612532D01*
X172416177Y-99598000D01*
X172416174Y-99598000D01*
X171063826Y-99598000D01*
X171063823Y-99598000D01*
X170990764Y-99612532D01*
X170990760Y-99612533D01*
X170907899Y-99667899D01*
X170852533Y-99750760D01*
X170852532Y-99750764D01*
X170838000Y-99823821D01*
X167295700Y-99823821D01*
X167295700Y-95050565D01*
X182924500Y-95050565D01*
X182924500Y-95149435D01*
X182950090Y-95244938D01*
X182999525Y-95330562D01*
X183069438Y-95400475D01*
X183155062Y-95449910D01*
X183250565Y-95475500D01*
X183250567Y-95475500D01*
X183349432Y-95475500D01*
X183349435Y-95475500D01*
X183444938Y-95449910D01*
X183530562Y-95400475D01*
X183600475Y-95330562D01*
X183649910Y-95244938D01*
X183675500Y-95149435D01*
X183675500Y-95050565D01*
X183649910Y-94955062D01*
X183600475Y-94869438D01*
X183530562Y-94799525D01*
X183444938Y-94750090D01*
X183349435Y-94724500D01*
X183250565Y-94724500D01*
X183155062Y-94750090D01*
X183155060Y-94750091D01*
X183155059Y-94750091D01*
X183069436Y-94799526D01*
X182999526Y-94869436D01*
X182950091Y-94955059D01*
X182950091Y-94955060D01*
X182950090Y-94955062D01*
X182924500Y-95050565D01*
X167295700Y-95050565D01*
X167295700Y-92850565D01*
X182924500Y-92850565D01*
X182924500Y-92949435D01*
X182950090Y-93044938D01*
X182999525Y-93130562D01*
X183069438Y-93200475D01*
X183155062Y-93249910D01*
X183250565Y-93275500D01*
X183250567Y-93275500D01*
X183349432Y-93275500D01*
X183349435Y-93275500D01*
X183444938Y-93249910D01*
X183530562Y-93200475D01*
X183600475Y-93130562D01*
X183649910Y-93044938D01*
X183675500Y-92949435D01*
X183675500Y-92850565D01*
X183649910Y-92755062D01*
X183600475Y-92669438D01*
X183530562Y-92599525D01*
X183444938Y-92550090D01*
X183349435Y-92524500D01*
X183250565Y-92524500D01*
X183155062Y-92550090D01*
X183155060Y-92550091D01*
X183155059Y-92550091D01*
X183069436Y-92599526D01*
X182999526Y-92669436D01*
X182950091Y-92755059D01*
X182950091Y-92755060D01*
X182950090Y-92755062D01*
X182924500Y-92850565D01*
X167295700Y-92850565D01*
X167295700Y-91373426D01*
X170480125Y-91373426D01*
X170485571Y-91377383D01*
X170639277Y-91455701D01*
X170803352Y-91509013D01*
X170973738Y-91536000D01*
X171146262Y-91536000D01*
X171316647Y-91509013D01*
X171480722Y-91455701D01*
X171634423Y-91377385D01*
X171639872Y-91373425D01*
X171060001Y-90793554D01*
X171060000Y-90793554D01*
X170480125Y-91373426D01*
X167295700Y-91373426D01*
X167295700Y-90353737D01*
X169964000Y-90353737D01*
X169964000Y-90526262D01*
X169990986Y-90696647D01*
X170044300Y-90860727D01*
X170122613Y-91014423D01*
X170122623Y-91014438D01*
X170126570Y-91019872D01*
X170126573Y-91019872D01*
X170706446Y-90440000D01*
X170663659Y-90397213D01*
X170735000Y-90397213D01*
X170735000Y-90482787D01*
X170757149Y-90565445D01*
X170799936Y-90639554D01*
X170860446Y-90700064D01*
X170934555Y-90742851D01*
X171017213Y-90765000D01*
X171102787Y-90765000D01*
X171185445Y-90742851D01*
X171259554Y-90700064D01*
X171320064Y-90639554D01*
X171362851Y-90565445D01*
X171385000Y-90482787D01*
X171385000Y-90439999D01*
X171413554Y-90439999D01*
X171413554Y-90440000D01*
X171993425Y-91019872D01*
X171997385Y-91014423D01*
X172075701Y-90860722D01*
X172129013Y-90696647D01*
X172156000Y-90526262D01*
X172156000Y-90356622D01*
X175293500Y-90356622D01*
X175293500Y-90523377D01*
X175326028Y-90686907D01*
X175326030Y-90686915D01*
X175389839Y-90840965D01*
X175389844Y-90840974D01*
X175482479Y-90979611D01*
X175482482Y-90979615D01*
X175600384Y-91097517D01*
X175600388Y-91097520D01*
X175739025Y-91190155D01*
X175739031Y-91190158D01*
X175739032Y-91190159D01*
X175893085Y-91253970D01*
X176056622Y-91286499D01*
X176056626Y-91286500D01*
X176056627Y-91286500D01*
X176223374Y-91286500D01*
X176223375Y-91286499D01*
X176386915Y-91253970D01*
X176540968Y-91190159D01*
X176679612Y-91097520D01*
X176797520Y-90979612D01*
X176890159Y-90840968D01*
X176953970Y-90686915D01*
X176986500Y-90523373D01*
X176986500Y-90356627D01*
X176953970Y-90193085D01*
X176890159Y-90039032D01*
X176890158Y-90039031D01*
X176890155Y-90039025D01*
X176797520Y-89900388D01*
X176797517Y-89900384D01*
X176679615Y-89782482D01*
X176679611Y-89782479D01*
X176540974Y-89689844D01*
X176540965Y-89689839D01*
X176386915Y-89626030D01*
X176386907Y-89626028D01*
X176223377Y-89593500D01*
X176223373Y-89593500D01*
X176056627Y-89593500D01*
X176056622Y-89593500D01*
X175893092Y-89626028D01*
X175893084Y-89626030D01*
X175739034Y-89689839D01*
X175739025Y-89689844D01*
X175600388Y-89782479D01*
X175600384Y-89782482D01*
X175482482Y-89900384D01*
X175482479Y-89900388D01*
X175389844Y-90039025D01*
X175389839Y-90039034D01*
X175326030Y-90193084D01*
X175326028Y-90193092D01*
X175293500Y-90356622D01*
X172156000Y-90356622D01*
X172156000Y-90353737D01*
X172129013Y-90183352D01*
X172075701Y-90019277D01*
X171997383Y-89865571D01*
X171993426Y-89860125D01*
X171413554Y-90439999D01*
X171385000Y-90439999D01*
X171385000Y-90397213D01*
X171362851Y-90314555D01*
X171320064Y-90240446D01*
X171259554Y-90179936D01*
X171185445Y-90137149D01*
X171102787Y-90115000D01*
X171017213Y-90115000D01*
X170934555Y-90137149D01*
X170860446Y-90179936D01*
X170799936Y-90240446D01*
X170757149Y-90314555D01*
X170735000Y-90397213D01*
X170663659Y-90397213D01*
X170126572Y-89860126D01*
X170122616Y-89865571D01*
X170122614Y-89865575D01*
X170044298Y-90019277D01*
X169990986Y-90183352D01*
X169964000Y-90353737D01*
X167295700Y-90353737D01*
X167295700Y-89506572D01*
X170480126Y-89506572D01*
X171060000Y-90086446D01*
X171060001Y-90086446D01*
X171639872Y-89506573D01*
X171639872Y-89506570D01*
X171634438Y-89502623D01*
X171634423Y-89502613D01*
X171480727Y-89424300D01*
X171316647Y-89370986D01*
X171146262Y-89344000D01*
X170973738Y-89344000D01*
X170803352Y-89370986D01*
X170639277Y-89424298D01*
X170485575Y-89502614D01*
X170485571Y-89502616D01*
X170480126Y-89506572D01*
X167295700Y-89506572D01*
X167295700Y-87816622D01*
X172753500Y-87816622D01*
X172753500Y-87983377D01*
X172786028Y-88146907D01*
X172786030Y-88146915D01*
X172849839Y-88300965D01*
X172849844Y-88300974D01*
X172942479Y-88439611D01*
X172942482Y-88439615D01*
X173060384Y-88557517D01*
X173060388Y-88557520D01*
X173199025Y-88650155D01*
X173199031Y-88650158D01*
X173199032Y-88650159D01*
X173353085Y-88713970D01*
X173516622Y-88746499D01*
X173516626Y-88746500D01*
X173516627Y-88746500D01*
X173683374Y-88746500D01*
X173683375Y-88746499D01*
X173846915Y-88713970D01*
X174000968Y-88650159D01*
X174139612Y-88557520D01*
X174257520Y-88439612D01*
X174350159Y-88300968D01*
X174413970Y-88146915D01*
X174446500Y-87983373D01*
X174446500Y-87816627D01*
X174413970Y-87653085D01*
X174350159Y-87499032D01*
X174350158Y-87499031D01*
X174350155Y-87499025D01*
X174257520Y-87360388D01*
X174257517Y-87360384D01*
X174139615Y-87242482D01*
X174139611Y-87242479D01*
X174000974Y-87149844D01*
X174000965Y-87149839D01*
X173846915Y-87086030D01*
X173846907Y-87086028D01*
X173683377Y-87053500D01*
X173683373Y-87053500D01*
X173516627Y-87053500D01*
X173516622Y-87053500D01*
X173353092Y-87086028D01*
X173353084Y-87086030D01*
X173199034Y-87149839D01*
X173199025Y-87149844D01*
X173060388Y-87242479D01*
X173060384Y-87242482D01*
X172942482Y-87360384D01*
X172942479Y-87360388D01*
X172849844Y-87499025D01*
X172849839Y-87499034D01*
X172786030Y-87653084D01*
X172786028Y-87653092D01*
X172753500Y-87816622D01*
X167295700Y-87816622D01*
X167295700Y-86409691D01*
X183149500Y-86409691D01*
X183149500Y-86528309D01*
X183180201Y-86642886D01*
X183239511Y-86745613D01*
X183323387Y-86829489D01*
X183426114Y-86888799D01*
X183540691Y-86919500D01*
X183540694Y-86919500D01*
X183659306Y-86919500D01*
X183659309Y-86919500D01*
X183773886Y-86888799D01*
X183876613Y-86829489D01*
X183960489Y-86745613D01*
X184019799Y-86642886D01*
X184050500Y-86528309D01*
X184050500Y-86409691D01*
X184019799Y-86295114D01*
X183960489Y-86192387D01*
X183876613Y-86108511D01*
X183773886Y-86049201D01*
X183659309Y-86018500D01*
X183540691Y-86018500D01*
X183426114Y-86049201D01*
X183426112Y-86049201D01*
X183426112Y-86049202D01*
X183323387Y-86108511D01*
X183323384Y-86108513D01*
X183239513Y-86192384D01*
X183239511Y-86192387D01*
X183180201Y-86295114D01*
X183149500Y-86409691D01*
X167295700Y-86409691D01*
X167295700Y-81650565D01*
X183224500Y-81650565D01*
X183224500Y-81749435D01*
X183250090Y-81844938D01*
X183299525Y-81930562D01*
X183369438Y-82000475D01*
X183455062Y-82049910D01*
X183550565Y-82075500D01*
X183550567Y-82075500D01*
X183649432Y-82075500D01*
X183649435Y-82075500D01*
X183744938Y-82049910D01*
X183830562Y-82000475D01*
X183900475Y-81930562D01*
X183949910Y-81844938D01*
X183975500Y-81749435D01*
X183975500Y-81650565D01*
X183949910Y-81555062D01*
X183900475Y-81469438D01*
X183830562Y-81399525D01*
X183744938Y-81350090D01*
X183649435Y-81324500D01*
X183550565Y-81324500D01*
X183455062Y-81350090D01*
X183455060Y-81350091D01*
X183455059Y-81350091D01*
X183369436Y-81399526D01*
X183299526Y-81469436D01*
X183250091Y-81555059D01*
X183250091Y-81555060D01*
X183250090Y-81555062D01*
X183224500Y-81650565D01*
X167295700Y-81650565D01*
X167295700Y-80550565D01*
X180424500Y-80550565D01*
X180424500Y-80649435D01*
X180450090Y-80744938D01*
X180499525Y-80830562D01*
X180569438Y-80900475D01*
X180655062Y-80949910D01*
X180750565Y-80975500D01*
X180750567Y-80975500D01*
X180849432Y-80975500D01*
X180849435Y-80975500D01*
X180944938Y-80949910D01*
X181030562Y-80900475D01*
X181100475Y-80830562D01*
X181149910Y-80744938D01*
X181175500Y-80649435D01*
X181175500Y-80600691D01*
X184989500Y-80600691D01*
X184989500Y-80719309D01*
X185020201Y-80833886D01*
X185079511Y-80936613D01*
X185163387Y-81020489D01*
X185266114Y-81079799D01*
X185380691Y-81110500D01*
X185380694Y-81110500D01*
X185499306Y-81110500D01*
X185499309Y-81110500D01*
X185613886Y-81079799D01*
X185716613Y-81020489D01*
X185800489Y-80936613D01*
X185859799Y-80833886D01*
X185890500Y-80719309D01*
X185890500Y-80600691D01*
X185859799Y-80486114D01*
X185800489Y-80383387D01*
X185716613Y-80299511D01*
X185613886Y-80240201D01*
X185499309Y-80209500D01*
X185380691Y-80209500D01*
X185266114Y-80240201D01*
X185266112Y-80240201D01*
X185266112Y-80240202D01*
X185163387Y-80299511D01*
X185163384Y-80299513D01*
X185079513Y-80383384D01*
X185079511Y-80383387D01*
X185041104Y-80449910D01*
X185020201Y-80486114D01*
X184989500Y-80600691D01*
X181175500Y-80600691D01*
X181175500Y-80550565D01*
X181149910Y-80455062D01*
X181100475Y-80369438D01*
X181030562Y-80299525D01*
X180944938Y-80250090D01*
X180849435Y-80224500D01*
X180750565Y-80224500D01*
X180655062Y-80250090D01*
X180655060Y-80250091D01*
X180655059Y-80250091D01*
X180569436Y-80299526D01*
X180499526Y-80369436D01*
X180450091Y-80455059D01*
X180450091Y-80455060D01*
X180450090Y-80455062D01*
X180424500Y-80550565D01*
X167295700Y-80550565D01*
X167295700Y-80050565D01*
X176624500Y-80050565D01*
X176624500Y-80149435D01*
X176650090Y-80244938D01*
X176650091Y-80244939D01*
X176650091Y-80244940D01*
X176653065Y-80250091D01*
X176699525Y-80330562D01*
X176769438Y-80400475D01*
X176855062Y-80449910D01*
X176950565Y-80475500D01*
X176950567Y-80475500D01*
X177049432Y-80475500D01*
X177049435Y-80475500D01*
X177144938Y-80449910D01*
X177230562Y-80400475D01*
X177300475Y-80330562D01*
X177349910Y-80244938D01*
X177375500Y-80149435D01*
X177375500Y-80050565D01*
X177349910Y-79955062D01*
X177300475Y-79869438D01*
X177230562Y-79799525D01*
X177144938Y-79750090D01*
X177049435Y-79724500D01*
X176950565Y-79724500D01*
X176855062Y-79750090D01*
X176855060Y-79750091D01*
X176855059Y-79750091D01*
X176769436Y-79799526D01*
X176699526Y-79869436D01*
X176650091Y-79955059D01*
X176650091Y-79955060D01*
X176650090Y-79955062D01*
X176624500Y-80050565D01*
X167295700Y-80050565D01*
X167295700Y-77610565D01*
X181564500Y-77610565D01*
X181564500Y-77709435D01*
X181590090Y-77804938D01*
X181639525Y-77890562D01*
X181709438Y-77960475D01*
X181795062Y-78009910D01*
X181890565Y-78035500D01*
X181890567Y-78035500D01*
X181989432Y-78035500D01*
X181989435Y-78035500D01*
X182084938Y-78009910D01*
X182170562Y-77960475D01*
X182240475Y-77890562D01*
X182276455Y-77828241D01*
X182327021Y-77780026D01*
X182395628Y-77766802D01*
X182460493Y-77792770D01*
X182467489Y-77798980D01*
X182469434Y-77800472D01*
X182469436Y-77800473D01*
X182469438Y-77800475D01*
X182555062Y-77849910D01*
X182650565Y-77875500D01*
X182650567Y-77875500D01*
X182749432Y-77875500D01*
X182749435Y-77875500D01*
X182844938Y-77849910D01*
X182930562Y-77800475D01*
X183000475Y-77730562D01*
X183049910Y-77644938D01*
X183075500Y-77549435D01*
X183075500Y-77450565D01*
X183049910Y-77355062D01*
X183000475Y-77269438D01*
X182930562Y-77199525D01*
X182844938Y-77150090D01*
X182749435Y-77124500D01*
X182650565Y-77124500D01*
X182555062Y-77150090D01*
X182555060Y-77150091D01*
X182555059Y-77150091D01*
X182469436Y-77199526D01*
X182399525Y-77269437D01*
X182363543Y-77331759D01*
X182312976Y-77379974D01*
X182244369Y-77393196D01*
X182179504Y-77367228D01*
X182172508Y-77361018D01*
X182170565Y-77359527D01*
X182170562Y-77359525D01*
X182084938Y-77310090D01*
X181989435Y-77284500D01*
X181890565Y-77284500D01*
X181795062Y-77310090D01*
X181795060Y-77310091D01*
X181795059Y-77310091D01*
X181709436Y-77359526D01*
X181639526Y-77429436D01*
X181590091Y-77515059D01*
X181590091Y-77515060D01*
X181590090Y-77515062D01*
X181564500Y-77610565D01*
X167295700Y-77610565D01*
X167295700Y-76120065D01*
X180472500Y-76120065D01*
X180472500Y-76218935D01*
X180498090Y-76314438D01*
X180547525Y-76400062D01*
X180617438Y-76469975D01*
X180703062Y-76519410D01*
X180798565Y-76545000D01*
X180798567Y-76545000D01*
X180897432Y-76545000D01*
X180897435Y-76545000D01*
X180992938Y-76519410D01*
X181078562Y-76469975D01*
X181148475Y-76400062D01*
X181197910Y-76314438D01*
X181223500Y-76218935D01*
X181223500Y-76120065D01*
X181197910Y-76024562D01*
X181148475Y-75938938D01*
X181078562Y-75869025D01*
X180992938Y-75819590D01*
X180897435Y-75794000D01*
X180798565Y-75794000D01*
X180703062Y-75819590D01*
X180703060Y-75819591D01*
X180703059Y-75819591D01*
X180617436Y-75869026D01*
X180547526Y-75938936D01*
X180498091Y-76024559D01*
X180498091Y-76024560D01*
X180498090Y-76024562D01*
X180472500Y-76120065D01*
X167295700Y-76120065D01*
X167295700Y-73140565D01*
X175334500Y-73140565D01*
X175334500Y-73239435D01*
X175360090Y-73334938D01*
X175409525Y-73420562D01*
X175479438Y-73490475D01*
X175565062Y-73539910D01*
X175632595Y-73558005D01*
X175692253Y-73594368D01*
X175722783Y-73657215D01*
X175724500Y-73677779D01*
X175724500Y-73749435D01*
X175750090Y-73844938D01*
X175799525Y-73930562D01*
X175869438Y-74000475D01*
X175955062Y-74049910D01*
X176050565Y-74075500D01*
X176050567Y-74075500D01*
X176149432Y-74075500D01*
X176149435Y-74075500D01*
X176244938Y-74049910D01*
X176330562Y-74000475D01*
X176400475Y-73930562D01*
X176449910Y-73844938D01*
X176475500Y-73749435D01*
X176475500Y-73650565D01*
X176464782Y-73610565D01*
X177988500Y-73610565D01*
X177988500Y-73709435D01*
X178014090Y-73804938D01*
X178063525Y-73890562D01*
X178133438Y-73960475D01*
X178219062Y-74009910D01*
X178314565Y-74035500D01*
X178314567Y-74035500D01*
X178413432Y-74035500D01*
X178413435Y-74035500D01*
X178508938Y-74009910D01*
X178594562Y-73960475D01*
X178664475Y-73890562D01*
X178713910Y-73804938D01*
X178724225Y-73766438D01*
X178760590Y-73706779D01*
X178823437Y-73676250D01*
X178892812Y-73684545D01*
X178946690Y-73729030D01*
X178963773Y-73766437D01*
X178974090Y-73804938D01*
X179023525Y-73890562D01*
X179093438Y-73960475D01*
X179179062Y-74009910D01*
X179274565Y-74035500D01*
X179274567Y-74035500D01*
X179373432Y-74035500D01*
X179373435Y-74035500D01*
X179468938Y-74009910D01*
X179554562Y-73960475D01*
X179624475Y-73890562D01*
X179647567Y-73850565D01*
X180524500Y-73850565D01*
X180524500Y-73949435D01*
X180550090Y-74044938D01*
X180550091Y-74044939D01*
X180550091Y-74044940D01*
X180563337Y-74067882D01*
X180599525Y-74130562D01*
X180669438Y-74200475D01*
X180755062Y-74249910D01*
X180850565Y-74275500D01*
X180850567Y-74275500D01*
X180949432Y-74275500D01*
X180949435Y-74275500D01*
X181044938Y-74249910D01*
X181130562Y-74200475D01*
X181200475Y-74130562D01*
X181249910Y-74044938D01*
X181275500Y-73949435D01*
X181275500Y-73850565D01*
X181249910Y-73755062D01*
X181200475Y-73669438D01*
X181130562Y-73599525D01*
X181044938Y-73550090D01*
X180949435Y-73524500D01*
X180850565Y-73524500D01*
X180755062Y-73550090D01*
X180755060Y-73550091D01*
X180755059Y-73550091D01*
X180669436Y-73599526D01*
X180599526Y-73669436D01*
X180550091Y-73755059D01*
X180550091Y-73755060D01*
X180550090Y-73755062D01*
X180524500Y-73850565D01*
X179647567Y-73850565D01*
X179673910Y-73804938D01*
X179699500Y-73709435D01*
X179699500Y-73610565D01*
X179673910Y-73515062D01*
X179624475Y-73429438D01*
X179554562Y-73359525D01*
X179468938Y-73310090D01*
X179373435Y-73284500D01*
X179274565Y-73284500D01*
X179179062Y-73310090D01*
X179179060Y-73310091D01*
X179179059Y-73310091D01*
X179093436Y-73359526D01*
X179023526Y-73429436D01*
X178974091Y-73515059D01*
X178974090Y-73515060D01*
X178971561Y-73524500D01*
X178963774Y-73553561D01*
X178927410Y-73613220D01*
X178864563Y-73643749D01*
X178795187Y-73635454D01*
X178741309Y-73590969D01*
X178724226Y-73553562D01*
X178713910Y-73515062D01*
X178664475Y-73429438D01*
X178594562Y-73359525D01*
X178508938Y-73310090D01*
X178413435Y-73284500D01*
X178314565Y-73284500D01*
X178219062Y-73310090D01*
X178219060Y-73310091D01*
X178219059Y-73310091D01*
X178133436Y-73359526D01*
X178063526Y-73429436D01*
X178014091Y-73515059D01*
X178014091Y-73515060D01*
X178014090Y-73515062D01*
X177988500Y-73610565D01*
X176464782Y-73610565D01*
X176449910Y-73555062D01*
X176400475Y-73469438D01*
X176330562Y-73399525D01*
X176244940Y-73350091D01*
X176244939Y-73350090D01*
X176204452Y-73339241D01*
X176177405Y-73331994D01*
X176160125Y-73321461D01*
X176140803Y-73315451D01*
X176130900Y-73303647D01*
X176117746Y-73295629D01*
X176108904Y-73277428D01*
X176095897Y-73261923D01*
X176091755Y-73242125D01*
X176087217Y-73232782D01*
X176086496Y-73227904D01*
X176085500Y-73220092D01*
X176085500Y-73140565D01*
X176066152Y-73068360D01*
X176065093Y-73060049D01*
X176069344Y-73033494D01*
X176069985Y-73006609D01*
X176074785Y-72999515D01*
X176076140Y-72991058D01*
X176094073Y-72971017D01*
X176109147Y-72948746D01*
X176118162Y-72944098D01*
X176122732Y-72938992D01*
X176134232Y-72935813D01*
X176156001Y-72924591D01*
X176173886Y-72919799D01*
X176276613Y-72860489D01*
X176288537Y-72848565D01*
X182504500Y-72848565D01*
X182504500Y-72947435D01*
X182530090Y-73042938D01*
X182530091Y-73042939D01*
X182530091Y-73042940D01*
X182531315Y-73045060D01*
X182579525Y-73128562D01*
X182649438Y-73198475D01*
X182735062Y-73247910D01*
X182830565Y-73273500D01*
X182830567Y-73273500D01*
X182929432Y-73273500D01*
X182929435Y-73273500D01*
X183024938Y-73247910D01*
X183110562Y-73198475D01*
X183180475Y-73128562D01*
X183229910Y-73042938D01*
X183255500Y-72947435D01*
X183255500Y-72848565D01*
X183229910Y-72753062D01*
X183180475Y-72667438D01*
X183110562Y-72597525D01*
X183024938Y-72548090D01*
X182929435Y-72522500D01*
X182830565Y-72522500D01*
X182735062Y-72548090D01*
X182735060Y-72548091D01*
X182735059Y-72548091D01*
X182649436Y-72597526D01*
X182579526Y-72667436D01*
X182530091Y-72753059D01*
X182530091Y-72753060D01*
X182530090Y-72753062D01*
X182504500Y-72848565D01*
X176288537Y-72848565D01*
X176360489Y-72776613D01*
X176419799Y-72673886D01*
X176450500Y-72559309D01*
X176450500Y-72440691D01*
X176419799Y-72326114D01*
X176360489Y-72223387D01*
X176276613Y-72139511D01*
X176173886Y-72080201D01*
X176059309Y-72049500D01*
X175940691Y-72049500D01*
X175826114Y-72080201D01*
X175826112Y-72080201D01*
X175826112Y-72080202D01*
X175723387Y-72139511D01*
X175723384Y-72139513D01*
X175639513Y-72223384D01*
X175639511Y-72223387D01*
X175580201Y-72326114D01*
X175549500Y-72440691D01*
X175549500Y-72559309D01*
X175580201Y-72673886D01*
X175580202Y-72673887D01*
X175586384Y-72684595D01*
X175602857Y-72752495D01*
X175580005Y-72818522D01*
X175540999Y-72853982D01*
X175479436Y-72889526D01*
X175409526Y-72959436D01*
X175360091Y-73045059D01*
X175360091Y-73045060D01*
X175360090Y-73045062D01*
X175334500Y-73140565D01*
X167295700Y-73140565D01*
X167295700Y-71480565D01*
X179854500Y-71480565D01*
X179854500Y-71579435D01*
X179880090Y-71674938D01*
X179929525Y-71760562D01*
X179999438Y-71830475D01*
X180085062Y-71879910D01*
X180180565Y-71905500D01*
X180180567Y-71905500D01*
X180279432Y-71905500D01*
X180279435Y-71905500D01*
X180374938Y-71879910D01*
X180460562Y-71830475D01*
X180530475Y-71760562D01*
X180530477Y-71760557D01*
X180535421Y-71754116D01*
X180537777Y-71755923D01*
X180578042Y-71717520D01*
X180646647Y-71704287D01*
X180696879Y-71720340D01*
X180701339Y-71722915D01*
X180703058Y-71723908D01*
X180703062Y-71723910D01*
X180798565Y-71749500D01*
X180798567Y-71749500D01*
X180897432Y-71749500D01*
X180897435Y-71749500D01*
X180992938Y-71723910D01*
X181078562Y-71674475D01*
X181148475Y-71604562D01*
X181197910Y-71518938D01*
X181223500Y-71423435D01*
X181223500Y-71324565D01*
X181197910Y-71229062D01*
X181148475Y-71143438D01*
X181078562Y-71073525D01*
X180992938Y-71024090D01*
X180897435Y-70998500D01*
X180798565Y-70998500D01*
X180703062Y-71024090D01*
X180703060Y-71024091D01*
X180703059Y-71024091D01*
X180617436Y-71073526D01*
X180547524Y-71143438D01*
X180542579Y-71149884D01*
X180540232Y-71148083D01*
X180499887Y-71186515D01*
X180431274Y-71199705D01*
X180381121Y-71183660D01*
X180374938Y-71180090D01*
X180279435Y-71154500D01*
X180180565Y-71154500D01*
X180085062Y-71180090D01*
X180085060Y-71180091D01*
X180085059Y-71180091D01*
X179999436Y-71229526D01*
X179929526Y-71299436D01*
X179880091Y-71385059D01*
X179880091Y-71385060D01*
X179880090Y-71385062D01*
X179854500Y-71480565D01*
X167295700Y-71480565D01*
X167295700Y-70562565D01*
X182504500Y-70562565D01*
X182504500Y-70661435D01*
X182530090Y-70756938D01*
X182579525Y-70842562D01*
X182649438Y-70912475D01*
X182735062Y-70961910D01*
X182830565Y-70987500D01*
X182830567Y-70987500D01*
X182929432Y-70987500D01*
X182929435Y-70987500D01*
X183024938Y-70961910D01*
X183110562Y-70912475D01*
X183180475Y-70842562D01*
X183229910Y-70756938D01*
X183255500Y-70661435D01*
X183255500Y-70562565D01*
X183229910Y-70467062D01*
X183180475Y-70381438D01*
X183110562Y-70311525D01*
X183024938Y-70262090D01*
X182929435Y-70236500D01*
X182830565Y-70236500D01*
X182735062Y-70262090D01*
X182735060Y-70262091D01*
X182735059Y-70262091D01*
X182649436Y-70311526D01*
X182579526Y-70381436D01*
X182530091Y-70467059D01*
X182530091Y-70467060D01*
X182530090Y-70467062D01*
X182504500Y-70562565D01*
X167295700Y-70562565D01*
X167295700Y-70429575D01*
X179749974Y-70429575D01*
X179855233Y-70473175D01*
X179855241Y-70473177D01*
X180000128Y-70501997D01*
X180000132Y-70501998D01*
X180147870Y-70501998D01*
X180147873Y-70501997D01*
X180292760Y-70473177D01*
X180292768Y-70473175D01*
X180373158Y-70439877D01*
X180398026Y-70429576D01*
X180398026Y-70429575D01*
X180074002Y-70105551D01*
X180074001Y-70105551D01*
X179749974Y-70429575D01*
X167295700Y-70429575D01*
X167295700Y-69379575D01*
X178699971Y-69379575D01*
X178805230Y-69423175D01*
X178805238Y-69423177D01*
X178950125Y-69451997D01*
X178950129Y-69451998D01*
X179097867Y-69451998D01*
X179097869Y-69451997D01*
X179198138Y-69432053D01*
X179267729Y-69438280D01*
X179322907Y-69481143D01*
X179346151Y-69547033D01*
X179343946Y-69577861D01*
X179324002Y-69678126D01*
X179324002Y-69825871D01*
X179352821Y-69970758D01*
X179352824Y-69970767D01*
X179396422Y-70076023D01*
X179720449Y-69751999D01*
X179720449Y-69751998D01*
X179700241Y-69731790D01*
X179972401Y-69731790D01*
X179972401Y-69772208D01*
X179987869Y-69809551D01*
X180016449Y-69838131D01*
X180053792Y-69853599D01*
X180094210Y-69853599D01*
X180131553Y-69838131D01*
X180160133Y-69809551D01*
X180175601Y-69772208D01*
X180175601Y-69731790D01*
X180160133Y-69694447D01*
X180131553Y-69665867D01*
X180094210Y-69650399D01*
X180053792Y-69650399D01*
X180016449Y-69665867D01*
X179987869Y-69694447D01*
X179972401Y-69731790D01*
X179700241Y-69731790D01*
X179424607Y-69456156D01*
X179424587Y-69456140D01*
X179394889Y-69426442D01*
X179394887Y-69426439D01*
X179195447Y-69226999D01*
X179902553Y-69226999D01*
X180074001Y-69398447D01*
X180245449Y-69226999D01*
X180074001Y-69055551D01*
X179902553Y-69226999D01*
X179195447Y-69226999D01*
X179023999Y-69055551D01*
X179023998Y-69055551D01*
X178699971Y-69379575D01*
X167295700Y-69379575D01*
X167295700Y-69299500D01*
X167315385Y-69232461D01*
X167368189Y-69186706D01*
X167419700Y-69175500D01*
X167469632Y-69175500D01*
X167469635Y-69175500D01*
X167565138Y-69149910D01*
X167650762Y-69100475D01*
X167720675Y-69030562D01*
X167770110Y-68944938D01*
X167779052Y-68911565D01*
X174503500Y-68911565D01*
X174503500Y-69010435D01*
X174529090Y-69105938D01*
X174578525Y-69191562D01*
X174648438Y-69261475D01*
X174734062Y-69310910D01*
X174829565Y-69336500D01*
X174829567Y-69336500D01*
X174928432Y-69336500D01*
X174928435Y-69336500D01*
X175023938Y-69310910D01*
X175109562Y-69261475D01*
X175179475Y-69191562D01*
X175228910Y-69105938D01*
X175254500Y-69010435D01*
X175254500Y-68911565D01*
X175228910Y-68816062D01*
X175221190Y-68802691D01*
X176813500Y-68802691D01*
X176813500Y-68921309D01*
X176844201Y-69035886D01*
X176903511Y-69138613D01*
X176987387Y-69222489D01*
X177090114Y-69281799D01*
X177204691Y-69312500D01*
X177204694Y-69312500D01*
X177323306Y-69312500D01*
X177323309Y-69312500D01*
X177437886Y-69281799D01*
X177540613Y-69222489D01*
X177624489Y-69138613D01*
X177683799Y-69035886D01*
X177714500Y-68921309D01*
X177714500Y-68802691D01*
X177683799Y-68688114D01*
X177649165Y-68628126D01*
X178273999Y-68628126D01*
X178273999Y-68775871D01*
X178302818Y-68920758D01*
X178302821Y-68920767D01*
X178346419Y-69026023D01*
X178670446Y-68701999D01*
X178650237Y-68681790D01*
X178922398Y-68681790D01*
X178922398Y-68722208D01*
X178937866Y-68759551D01*
X178966446Y-68788131D01*
X179003789Y-68803599D01*
X179044207Y-68803599D01*
X179081550Y-68788131D01*
X179110130Y-68759551D01*
X179125598Y-68722208D01*
X179125598Y-68701999D01*
X179377550Y-68701999D01*
X179377550Y-68702000D01*
X179548998Y-68873448D01*
X179720448Y-68701998D01*
X179700240Y-68681790D01*
X179972401Y-68681790D01*
X179972401Y-68722208D01*
X179987869Y-68759551D01*
X180016449Y-68788131D01*
X180053792Y-68803599D01*
X180094210Y-68803599D01*
X180131553Y-68788131D01*
X180160133Y-68759551D01*
X180175601Y-68722208D01*
X180175601Y-68701999D01*
X180427553Y-68701999D01*
X180427553Y-68702000D01*
X180598998Y-68873445D01*
X180770445Y-68701998D01*
X180598999Y-68530552D01*
X180427553Y-68701999D01*
X180175601Y-68701999D01*
X180175601Y-68681790D01*
X180160133Y-68644447D01*
X180131553Y-68615867D01*
X180094210Y-68600399D01*
X180053792Y-68600399D01*
X180016449Y-68615867D01*
X179987869Y-68644447D01*
X179972401Y-68681790D01*
X179700240Y-68681790D01*
X179548999Y-68530549D01*
X179377550Y-68701999D01*
X179125598Y-68701999D01*
X179125598Y-68681790D01*
X179110130Y-68644447D01*
X179081550Y-68615867D01*
X179044207Y-68600399D01*
X179003789Y-68600399D01*
X178966446Y-68615867D01*
X178937866Y-68644447D01*
X178922398Y-68681790D01*
X178650237Y-68681790D01*
X178346420Y-68377973D01*
X178302820Y-68483235D01*
X178302818Y-68483239D01*
X178273999Y-68628126D01*
X177649165Y-68628126D01*
X177624489Y-68585387D01*
X177540613Y-68501511D01*
X177437886Y-68442201D01*
X177323309Y-68411500D01*
X177204691Y-68411500D01*
X177090114Y-68442201D01*
X177090112Y-68442201D01*
X177090112Y-68442202D01*
X176987387Y-68501511D01*
X176987384Y-68501513D01*
X176903513Y-68585384D01*
X176903511Y-68585387D01*
X176844201Y-68688114D01*
X176813500Y-68802691D01*
X175221190Y-68802691D01*
X175179475Y-68730438D01*
X175109562Y-68660525D01*
X175023938Y-68611090D01*
X174928435Y-68585500D01*
X174829565Y-68585500D01*
X174734062Y-68611090D01*
X174734060Y-68611091D01*
X174734059Y-68611091D01*
X174648436Y-68660526D01*
X174578526Y-68730436D01*
X174529091Y-68816059D01*
X174529091Y-68816060D01*
X174529090Y-68816062D01*
X174503500Y-68911565D01*
X167779052Y-68911565D01*
X167795700Y-68849435D01*
X167795700Y-68750565D01*
X167770110Y-68655062D01*
X167720675Y-68569438D01*
X167650762Y-68499525D01*
X167650760Y-68499524D01*
X167648615Y-68497878D01*
X167647261Y-68496024D01*
X167645015Y-68493778D01*
X167645365Y-68493427D01*
X167614065Y-68450565D01*
X168124500Y-68450565D01*
X168124500Y-68549435D01*
X168150090Y-68644938D01*
X168199525Y-68730562D01*
X168269438Y-68800475D01*
X168355062Y-68849910D01*
X168450565Y-68875500D01*
X168450567Y-68875500D01*
X168549432Y-68875500D01*
X168549435Y-68875500D01*
X168644938Y-68849910D01*
X168730562Y-68800475D01*
X168800475Y-68730562D01*
X168849910Y-68644938D01*
X168875500Y-68549435D01*
X168875500Y-68450565D01*
X168849910Y-68355062D01*
X168800475Y-68269438D01*
X168730562Y-68199525D01*
X168644938Y-68150090D01*
X168549435Y-68124500D01*
X168450565Y-68124500D01*
X168355062Y-68150090D01*
X168355060Y-68150091D01*
X168355059Y-68150091D01*
X168269438Y-68199525D01*
X168211698Y-68257264D01*
X168211695Y-68257267D01*
X168199525Y-68269438D01*
X168186921Y-68291268D01*
X168186915Y-68291277D01*
X168150091Y-68355059D01*
X168150091Y-68355060D01*
X168150090Y-68355062D01*
X168124500Y-68450565D01*
X167614065Y-68450565D01*
X167607410Y-68441452D01*
X167603253Y-68371706D01*
X167637463Y-68310785D01*
X167699179Y-68278030D01*
X167724098Y-68275500D01*
X167749432Y-68275500D01*
X167749435Y-68275500D01*
X167844938Y-68249910D01*
X167930562Y-68200475D01*
X168000475Y-68130562D01*
X168049910Y-68044938D01*
X168055408Y-68024421D01*
X178699972Y-68024421D01*
X179023998Y-68348447D01*
X179023999Y-68348447D01*
X179195446Y-68176999D01*
X179902553Y-68176999D01*
X180074001Y-68348447D01*
X180245449Y-68176999D01*
X180074001Y-68005551D01*
X179902553Y-68176999D01*
X179195446Y-68176999D01*
X179334488Y-68037956D01*
X179349555Y-68022889D01*
X179349555Y-68022888D01*
X179433155Y-67939289D01*
X179433159Y-67939286D01*
X179720448Y-67651998D01*
X179700240Y-67631790D01*
X179972401Y-67631790D01*
X179972401Y-67672208D01*
X179987869Y-67709551D01*
X180016449Y-67738131D01*
X180053792Y-67753599D01*
X180094210Y-67753599D01*
X180131553Y-67738131D01*
X180160133Y-67709551D01*
X180175601Y-67672208D01*
X180175601Y-67651998D01*
X180427553Y-67651998D01*
X180427553Y-67652000D01*
X180798429Y-68022876D01*
X180798443Y-68022889D01*
X180828142Y-68052588D01*
X180828146Y-68052596D01*
X181213092Y-68437542D01*
X181246577Y-68498865D01*
X181241593Y-68568557D01*
X181213093Y-68612904D01*
X181195840Y-68630157D01*
X181181550Y-68615867D01*
X181144207Y-68600399D01*
X181103789Y-68600399D01*
X181066446Y-68615867D01*
X181037866Y-68644447D01*
X181022398Y-68681790D01*
X181022398Y-68722208D01*
X181037866Y-68759551D01*
X181066446Y-68788131D01*
X181103789Y-68803599D01*
X181144207Y-68803599D01*
X181181550Y-68788131D01*
X181195840Y-68773841D01*
X181213092Y-68791093D01*
X181246577Y-68852416D01*
X181241593Y-68922108D01*
X181213092Y-68966455D01*
X180836721Y-69342825D01*
X180836709Y-69342841D01*
X180798444Y-69381106D01*
X180427553Y-69751998D01*
X180427553Y-69752000D01*
X180751577Y-70076024D01*
X180795177Y-69970766D01*
X180795179Y-69970758D01*
X180823999Y-69825871D01*
X180824000Y-69825868D01*
X180824000Y-69678130D01*
X180823999Y-69678129D01*
X180804055Y-69577863D01*
X180810282Y-69508271D01*
X180853145Y-69453094D01*
X180919034Y-69429849D01*
X180949863Y-69432054D01*
X181050126Y-69451997D01*
X181050129Y-69451998D01*
X181197867Y-69451998D01*
X181197870Y-69451997D01*
X181342757Y-69423178D01*
X181342766Y-69423175D01*
X181479249Y-69366643D01*
X181479256Y-69366639D01*
X181562771Y-69310836D01*
X181629449Y-69289958D01*
X181696829Y-69308442D01*
X181743520Y-69360421D01*
X181754696Y-69429390D01*
X181751438Y-69446031D01*
X181748729Y-69456140D01*
X181724500Y-69546565D01*
X181724500Y-69645435D01*
X181750090Y-69740938D01*
X181799525Y-69826562D01*
X181869438Y-69896475D01*
X181955062Y-69945910D01*
X182050565Y-69971500D01*
X182050567Y-69971500D01*
X182149432Y-69971500D01*
X182149435Y-69971500D01*
X182244938Y-69945910D01*
X182330562Y-69896475D01*
X182400475Y-69826562D01*
X182449910Y-69740938D01*
X182475500Y-69645435D01*
X182475500Y-69546565D01*
X182449910Y-69451062D01*
X182400475Y-69365438D01*
X182330562Y-69295525D01*
X182324815Y-69289778D01*
X182326271Y-69288321D01*
X182291566Y-69240787D01*
X182287414Y-69171041D01*
X182300867Y-69136848D01*
X182323909Y-69096940D01*
X182349499Y-69001437D01*
X182349499Y-68922630D01*
X182369184Y-68855591D01*
X182421988Y-68809836D01*
X182441401Y-68802856D01*
X182444938Y-68801909D01*
X182530562Y-68752474D01*
X182600475Y-68682561D01*
X182649910Y-68596937D01*
X182675500Y-68501434D01*
X182675500Y-68402564D01*
X182649910Y-68307061D01*
X182600475Y-68221437D01*
X182530562Y-68151524D01*
X182444938Y-68102089D01*
X182444937Y-68102088D01*
X182444931Y-68102086D01*
X182441396Y-68101139D01*
X182438752Y-68099527D01*
X182437431Y-68098980D01*
X182437516Y-68098773D01*
X182381739Y-68064770D01*
X182351214Y-68001921D01*
X182349499Y-67981367D01*
X182349499Y-67902568D01*
X182349499Y-67902566D01*
X182323909Y-67807063D01*
X182274474Y-67721439D01*
X182204561Y-67651526D01*
X182118937Y-67602091D01*
X182023434Y-67576501D01*
X181924564Y-67576501D01*
X181829061Y-67602091D01*
X181829059Y-67602092D01*
X181829058Y-67602092D01*
X181743435Y-67651527D01*
X181673525Y-67721437D01*
X181624090Y-67807060D01*
X181624090Y-67807061D01*
X181624089Y-67807063D01*
X181612433Y-67850565D01*
X181598498Y-67902568D01*
X181597438Y-67910626D01*
X181595786Y-67910408D01*
X181578814Y-67968210D01*
X181526010Y-68013965D01*
X181456852Y-68023909D01*
X181427047Y-68015732D01*
X181342766Y-67980822D01*
X181342757Y-67980819D01*
X181197870Y-67952000D01*
X181050131Y-67952000D01*
X180949862Y-67971944D01*
X180880271Y-67965715D01*
X180825094Y-67922852D01*
X180801850Y-67856962D01*
X180804055Y-67826134D01*
X180823999Y-67725868D01*
X180824000Y-67725868D01*
X180824000Y-67578130D01*
X180823999Y-67578126D01*
X180795179Y-67433239D01*
X180795177Y-67433231D01*
X180751577Y-67327972D01*
X180427553Y-67651998D01*
X180175601Y-67651998D01*
X180175601Y-67631790D01*
X180160133Y-67594447D01*
X180131553Y-67565867D01*
X180094210Y-67550399D01*
X180053792Y-67550399D01*
X180016449Y-67565867D01*
X179987869Y-67594447D01*
X179972401Y-67631790D01*
X179700240Y-67631790D01*
X179396423Y-67327973D01*
X179352823Y-67433235D01*
X179352821Y-67433239D01*
X179324002Y-67578126D01*
X179324002Y-67725871D01*
X179343946Y-67826136D01*
X179337719Y-67895728D01*
X179294856Y-67950905D01*
X179228966Y-67974149D01*
X179198139Y-67971945D01*
X179097865Y-67952000D01*
X178950125Y-67952000D01*
X178805238Y-67980819D01*
X178805234Y-67980821D01*
X178699972Y-68024421D01*
X168055408Y-68024421D01*
X168075500Y-67949435D01*
X168075500Y-67850565D01*
X168049910Y-67755062D01*
X168000475Y-67669438D01*
X167930562Y-67599525D01*
X167930561Y-67599524D01*
X167924116Y-67594579D01*
X167924929Y-67593518D01*
X167882558Y-67549081D01*
X167869335Y-67480474D01*
X167895303Y-67415609D01*
X167952218Y-67375081D01*
X167960664Y-67372491D01*
X168044938Y-67349910D01*
X168130562Y-67300475D01*
X168200475Y-67230562D01*
X168249910Y-67144938D01*
X168275500Y-67049435D01*
X168275500Y-66974421D01*
X179749975Y-66974421D01*
X180074001Y-67298447D01*
X180074002Y-67298447D01*
X180398026Y-66974421D01*
X180292769Y-66930822D01*
X180292760Y-66930819D01*
X180147873Y-66902000D01*
X180000128Y-66902000D01*
X179855241Y-66930819D01*
X179855237Y-66930821D01*
X179749975Y-66974421D01*
X168275500Y-66974421D01*
X168275500Y-66950565D01*
X168249910Y-66855062D01*
X168200475Y-66769438D01*
X168130562Y-66699525D01*
X168044938Y-66650090D01*
X167949435Y-66624500D01*
X167850565Y-66624500D01*
X167755062Y-66650090D01*
X167755060Y-66650091D01*
X167755059Y-66650091D01*
X167669436Y-66699526D01*
X167599526Y-66769436D01*
X167550091Y-66855059D01*
X167550090Y-66855060D01*
X167539475Y-66894679D01*
X167503109Y-66954339D01*
X167440262Y-66984868D01*
X167370887Y-66976573D01*
X167317009Y-66932087D01*
X167295735Y-66865535D01*
X167295700Y-66862585D01*
X167295700Y-66100565D01*
X178274500Y-66100565D01*
X178274500Y-66199435D01*
X178300090Y-66294938D01*
X178349525Y-66380562D01*
X178419438Y-66450475D01*
X178505062Y-66499910D01*
X178600565Y-66525500D01*
X178600567Y-66525500D01*
X178699432Y-66525500D01*
X178699435Y-66525500D01*
X178794938Y-66499910D01*
X178880562Y-66450475D01*
X178950475Y-66380562D01*
X178999910Y-66294938D01*
X179025500Y-66199435D01*
X179025500Y-66100565D01*
X178999910Y-66005062D01*
X178991540Y-65990565D01*
X179964500Y-65990565D01*
X179964500Y-66089435D01*
X179990090Y-66184938D01*
X180039525Y-66270562D01*
X180109438Y-66340475D01*
X180195062Y-66389910D01*
X180290565Y-66415500D01*
X180290567Y-66415500D01*
X180389432Y-66415500D01*
X180389435Y-66415500D01*
X180484938Y-66389910D01*
X180570562Y-66340475D01*
X180640475Y-66270562D01*
X180689910Y-66184938D01*
X180699120Y-66150565D01*
X181424500Y-66150565D01*
X181424500Y-66249435D01*
X181450090Y-66344938D01*
X181499525Y-66430562D01*
X181569438Y-66500475D01*
X181655062Y-66549910D01*
X181750565Y-66575500D01*
X181750567Y-66575500D01*
X181849432Y-66575500D01*
X181849435Y-66575500D01*
X181944938Y-66549910D01*
X182030562Y-66500475D01*
X182100475Y-66430562D01*
X182149910Y-66344938D01*
X182175500Y-66249435D01*
X182175500Y-66249432D01*
X182177603Y-66241584D01*
X182180796Y-66242439D01*
X182202806Y-66192634D01*
X182261115Y-66154141D01*
X182330980Y-66153283D01*
X182358589Y-66165985D01*
X182358947Y-66165316D01*
X182364328Y-66168192D01*
X182546306Y-66243569D01*
X182546318Y-66243572D01*
X182739504Y-66281999D01*
X182739508Y-66282000D01*
X183138000Y-66282000D01*
X183138000Y-65582000D01*
X183638000Y-65582000D01*
X183638000Y-66282000D01*
X184036492Y-66282000D01*
X184036495Y-66281999D01*
X184229681Y-66243572D01*
X184229693Y-66243569D01*
X184411671Y-66168192D01*
X184411684Y-66168185D01*
X184575462Y-66058751D01*
X184575466Y-66058748D01*
X184714748Y-65919466D01*
X184714751Y-65919462D01*
X184824185Y-65755684D01*
X184824192Y-65755671D01*
X184899569Y-65573692D01*
X184899569Y-65573690D01*
X184907862Y-65532000D01*
X184104988Y-65532000D01*
X184122205Y-65522060D01*
X184178060Y-65466205D01*
X184217556Y-65397796D01*
X184238000Y-65321496D01*
X184238000Y-65242504D01*
X184217556Y-65166204D01*
X184178060Y-65097795D01*
X184122205Y-65041940D01*
X184104988Y-65032000D01*
X184907862Y-65032000D01*
X186218138Y-65032000D01*
X187021012Y-65032000D01*
X187003795Y-65041940D01*
X186947940Y-65097795D01*
X186908444Y-65166204D01*
X186888000Y-65242504D01*
X186888000Y-65321496D01*
X186908444Y-65397796D01*
X186947940Y-65466205D01*
X187003795Y-65522060D01*
X187021012Y-65532000D01*
X186218138Y-65532000D01*
X186226430Y-65573690D01*
X186226430Y-65573692D01*
X186301807Y-65755671D01*
X186301814Y-65755684D01*
X186411248Y-65919462D01*
X186411251Y-65919466D01*
X186550533Y-66058748D01*
X186550537Y-66058751D01*
X186714315Y-66168185D01*
X186714328Y-66168192D01*
X186896306Y-66243569D01*
X186896318Y-66243572D01*
X187089504Y-66281999D01*
X187089508Y-66282000D01*
X187338000Y-66282000D01*
X187338000Y-65582000D01*
X187838000Y-65582000D01*
X187838000Y-66282000D01*
X188086492Y-66282000D01*
X188086495Y-66281999D01*
X188279681Y-66243572D01*
X188279693Y-66243569D01*
X188461671Y-66168192D01*
X188461684Y-66168185D01*
X188625462Y-66058751D01*
X188625466Y-66058748D01*
X188764748Y-65919466D01*
X188764751Y-65919462D01*
X188874185Y-65755684D01*
X188874192Y-65755671D01*
X188949569Y-65573692D01*
X188949569Y-65573690D01*
X188957862Y-65532000D01*
X188154988Y-65532000D01*
X188172205Y-65522060D01*
X188228060Y-65466205D01*
X188267556Y-65397796D01*
X188288000Y-65321496D01*
X188288000Y-65242504D01*
X188267556Y-65166204D01*
X188228060Y-65097795D01*
X188172205Y-65041940D01*
X188154988Y-65032000D01*
X188957862Y-65032000D01*
X188949569Y-64990309D01*
X188949569Y-64990307D01*
X188874192Y-64808328D01*
X188874185Y-64808315D01*
X188764751Y-64644537D01*
X188764748Y-64644533D01*
X188625466Y-64505251D01*
X188625462Y-64505248D01*
X188461684Y-64395814D01*
X188461671Y-64395807D01*
X188279693Y-64320430D01*
X188279681Y-64320427D01*
X188086495Y-64282000D01*
X187838000Y-64282000D01*
X187838000Y-64982000D01*
X187338000Y-64982000D01*
X187338000Y-64282000D01*
X187089504Y-64282000D01*
X186896318Y-64320427D01*
X186896306Y-64320430D01*
X186714328Y-64395807D01*
X186714315Y-64395814D01*
X186550537Y-64505248D01*
X186550533Y-64505251D01*
X186411251Y-64644533D01*
X186411248Y-64644537D01*
X186301814Y-64808315D01*
X186301807Y-64808328D01*
X186226430Y-64990307D01*
X186226430Y-64990309D01*
X186218138Y-65032000D01*
X184907862Y-65032000D01*
X184899569Y-64990309D01*
X184899569Y-64990307D01*
X184824192Y-64808328D01*
X184824185Y-64808315D01*
X184714751Y-64644537D01*
X184714748Y-64644533D01*
X184575466Y-64505251D01*
X184575462Y-64505248D01*
X184411684Y-64395814D01*
X184411677Y-64395811D01*
X184367943Y-64377695D01*
X184313540Y-64333853D01*
X184291476Y-64267559D01*
X184308756Y-64199859D01*
X184327715Y-64175454D01*
X184328505Y-64174665D01*
X184397688Y-64054836D01*
X184433500Y-63921183D01*
X184433500Y-63782817D01*
X184397688Y-63649164D01*
X184351657Y-63569436D01*
X184328507Y-63529338D01*
X184328503Y-63529333D01*
X184230666Y-63431496D01*
X184230661Y-63431492D01*
X184110838Y-63362313D01*
X184110837Y-63362312D01*
X184110836Y-63362312D01*
X183977183Y-63326500D01*
X183838817Y-63326500D01*
X183705164Y-63362312D01*
X183705161Y-63362313D01*
X183585338Y-63431492D01*
X183585333Y-63431496D01*
X183487496Y-63529333D01*
X183487492Y-63529338D01*
X183418313Y-63649161D01*
X183418312Y-63649164D01*
X183382500Y-63782817D01*
X183382500Y-63921183D01*
X183390356Y-63950500D01*
X183418312Y-64054835D01*
X183418313Y-64054838D01*
X183487492Y-64174661D01*
X183487496Y-64174666D01*
X183585335Y-64272505D01*
X183589487Y-64275691D01*
X183630689Y-64332119D01*
X183638000Y-64374066D01*
X183638000Y-64982000D01*
X183138000Y-64982000D01*
X183138000Y-64282000D01*
X182739504Y-64282000D01*
X182546318Y-64320427D01*
X182546306Y-64320430D01*
X182364328Y-64395807D01*
X182364315Y-64395814D01*
X182200537Y-64505248D01*
X182200533Y-64505251D01*
X182061251Y-64644533D01*
X182061248Y-64644537D01*
X181951814Y-64808315D01*
X181951807Y-64808328D01*
X181876430Y-64990307D01*
X181876430Y-64990309D01*
X181868138Y-65032000D01*
X182671012Y-65032000D01*
X182653795Y-65041940D01*
X182597940Y-65097795D01*
X182558444Y-65166204D01*
X182538000Y-65242504D01*
X182538000Y-65321496D01*
X182558444Y-65397796D01*
X182597940Y-65466205D01*
X182653795Y-65522060D01*
X182671012Y-65532000D01*
X181868138Y-65532000D01*
X181876430Y-65573690D01*
X181876430Y-65573692D01*
X181909300Y-65653048D01*
X181916769Y-65722518D01*
X181885493Y-65784997D01*
X181825404Y-65820648D01*
X181794739Y-65824500D01*
X181750565Y-65824500D01*
X181655062Y-65850090D01*
X181655060Y-65850091D01*
X181655059Y-65850091D01*
X181569436Y-65899526D01*
X181499526Y-65969436D01*
X181450091Y-66055059D01*
X181450091Y-66055060D01*
X181450090Y-66055062D01*
X181424500Y-66150565D01*
X180699120Y-66150565D01*
X180715500Y-66089435D01*
X180715500Y-65990565D01*
X180689910Y-65895062D01*
X180640475Y-65809438D01*
X180570562Y-65739525D01*
X180484938Y-65690090D01*
X180389435Y-65664500D01*
X180290565Y-65664500D01*
X180195062Y-65690090D01*
X180195060Y-65690091D01*
X180195059Y-65690091D01*
X180109436Y-65739526D01*
X180039526Y-65809436D01*
X179990091Y-65895059D01*
X179990091Y-65895060D01*
X179990090Y-65895062D01*
X179964500Y-65990565D01*
X178991540Y-65990565D01*
X178950475Y-65919438D01*
X178880562Y-65849525D01*
X178794938Y-65800090D01*
X178699435Y-65774500D01*
X178600565Y-65774500D01*
X178505062Y-65800090D01*
X178505060Y-65800091D01*
X178505059Y-65800091D01*
X178419436Y-65849526D01*
X178349526Y-65919436D01*
X178300091Y-66005059D01*
X178300091Y-66005060D01*
X178300090Y-66005062D01*
X178274500Y-66100565D01*
X167295700Y-66100565D01*
X167295700Y-64974565D01*
X173106500Y-64974565D01*
X173106500Y-65073435D01*
X173132090Y-65168938D01*
X173181525Y-65254562D01*
X173251438Y-65324475D01*
X173337062Y-65373910D01*
X173432565Y-65399500D01*
X173432567Y-65399500D01*
X173531432Y-65399500D01*
X173531435Y-65399500D01*
X173626938Y-65373910D01*
X173712562Y-65324475D01*
X173782475Y-65254562D01*
X173831910Y-65168938D01*
X173857500Y-65073435D01*
X173857500Y-64974565D01*
X173831910Y-64879062D01*
X173805138Y-64832691D01*
X176322500Y-64832691D01*
X176322500Y-64951309D01*
X176353201Y-65065886D01*
X176412511Y-65168613D01*
X176496387Y-65252489D01*
X176599114Y-65311799D01*
X176713691Y-65342500D01*
X176713694Y-65342500D01*
X176832306Y-65342500D01*
X176832309Y-65342500D01*
X176946886Y-65311799D01*
X177006299Y-65277496D01*
X177074197Y-65261023D01*
X177140224Y-65283874D01*
X177183416Y-65338795D01*
X177190059Y-65408348D01*
X177188074Y-65416975D01*
X177170500Y-65482563D01*
X177170500Y-65482565D01*
X177170500Y-65581435D01*
X177196090Y-65676938D01*
X177245525Y-65762562D01*
X177315438Y-65832475D01*
X177401062Y-65881910D01*
X177496565Y-65907500D01*
X177496567Y-65907500D01*
X177595432Y-65907500D01*
X177595435Y-65907500D01*
X177690938Y-65881910D01*
X177776562Y-65832475D01*
X177846475Y-65762562D01*
X177895910Y-65676938D01*
X177921500Y-65581435D01*
X177921500Y-65482565D01*
X177895910Y-65387062D01*
X177846475Y-65301438D01*
X177776562Y-65231525D01*
X177714896Y-65195922D01*
X177690942Y-65182092D01*
X177690940Y-65182091D01*
X177690938Y-65182090D01*
X177595435Y-65156500D01*
X177496565Y-65156500D01*
X177401062Y-65182090D01*
X177401060Y-65182091D01*
X177401059Y-65182091D01*
X177377104Y-65195922D01*
X177309203Y-65212395D01*
X177243177Y-65189542D01*
X177199986Y-65134621D01*
X177193345Y-65065067D01*
X177195324Y-65056461D01*
X177223500Y-64951309D01*
X177223500Y-64832691D01*
X177192799Y-64718114D01*
X177133489Y-64615387D01*
X177049613Y-64531511D01*
X176946886Y-64472201D01*
X176832309Y-64441500D01*
X176713691Y-64441500D01*
X176599114Y-64472201D01*
X176599112Y-64472201D01*
X176599112Y-64472202D01*
X176496387Y-64531511D01*
X176496384Y-64531513D01*
X176412513Y-64615384D01*
X176412511Y-64615387D01*
X176353201Y-64718114D01*
X176322500Y-64832691D01*
X173805138Y-64832691D01*
X173782475Y-64793438D01*
X173712562Y-64723525D01*
X173626938Y-64674090D01*
X173531435Y-64648500D01*
X173432565Y-64648500D01*
X173337062Y-64674090D01*
X173337060Y-64674091D01*
X173337059Y-64674091D01*
X173251436Y-64723526D01*
X173181526Y-64793436D01*
X173132091Y-64879059D01*
X173132091Y-64879060D01*
X173132090Y-64879062D01*
X173106500Y-64974565D01*
X167295700Y-64974565D01*
X167295700Y-63050565D01*
X168124500Y-63050565D01*
X168124500Y-63149435D01*
X168150090Y-63244938D01*
X168199525Y-63330562D01*
X168269438Y-63400475D01*
X168355062Y-63449910D01*
X168450565Y-63475500D01*
X168450567Y-63475500D01*
X168549432Y-63475500D01*
X168549435Y-63475500D01*
X168644938Y-63449910D01*
X168730562Y-63400475D01*
X168780472Y-63350565D01*
X171824500Y-63350565D01*
X171824500Y-63449435D01*
X171850090Y-63544938D01*
X171899525Y-63630562D01*
X171969438Y-63700475D01*
X172055062Y-63749910D01*
X172139725Y-63772595D01*
X172199384Y-63808959D01*
X172227404Y-63860273D01*
X172227462Y-63860488D01*
X172250090Y-63944939D01*
X172250091Y-63944940D01*
X172299525Y-64030562D01*
X172369438Y-64100475D01*
X172455062Y-64149910D01*
X172550565Y-64175500D01*
X172550567Y-64175500D01*
X172649432Y-64175500D01*
X172649435Y-64175500D01*
X172744938Y-64149910D01*
X172830562Y-64100475D01*
X172900475Y-64030562D01*
X172949910Y-63944938D01*
X172975500Y-63849435D01*
X172975500Y-63750565D01*
X172949910Y-63655062D01*
X172900475Y-63569438D01*
X172830562Y-63499525D01*
X172744940Y-63450091D01*
X172744939Y-63450090D01*
X172709868Y-63440693D01*
X172709861Y-63440691D01*
X179579500Y-63440691D01*
X179579500Y-63559309D01*
X179610201Y-63673886D01*
X179669511Y-63776613D01*
X179753387Y-63860489D01*
X179856114Y-63919799D01*
X179970691Y-63950500D01*
X179970694Y-63950500D01*
X180089306Y-63950500D01*
X180089309Y-63950500D01*
X180203886Y-63919799D01*
X180306613Y-63860489D01*
X180390489Y-63776613D01*
X180408224Y-63745894D01*
X180427397Y-63712689D01*
X180449797Y-63673889D01*
X180449798Y-63673887D01*
X180449799Y-63673886D01*
X180480500Y-63559309D01*
X180480500Y-63440691D01*
X180449799Y-63326114D01*
X180390489Y-63223387D01*
X180306613Y-63139511D01*
X180203886Y-63080201D01*
X180089309Y-63049500D01*
X179970691Y-63049500D01*
X179856114Y-63080201D01*
X179856112Y-63080201D01*
X179856112Y-63080202D01*
X179753387Y-63139511D01*
X179753384Y-63139513D01*
X179669513Y-63223384D01*
X179669511Y-63223387D01*
X179610201Y-63326114D01*
X179579500Y-63440691D01*
X172709861Y-63440691D01*
X172660273Y-63427404D01*
X172600615Y-63391040D01*
X172572595Y-63339726D01*
X172549910Y-63255062D01*
X172500475Y-63169438D01*
X172430562Y-63099525D01*
X172344938Y-63050090D01*
X172249435Y-63024500D01*
X172150565Y-63024500D01*
X172055062Y-63050090D01*
X172055060Y-63050091D01*
X172055059Y-63050091D01*
X171969436Y-63099526D01*
X171899526Y-63169436D01*
X171850091Y-63255059D01*
X171850091Y-63255060D01*
X171850090Y-63255062D01*
X171824500Y-63350565D01*
X168780472Y-63350565D01*
X168800475Y-63330562D01*
X168849910Y-63244938D01*
X168875500Y-63149435D01*
X168875500Y-63050565D01*
X168849910Y-62955062D01*
X168828511Y-62917998D01*
X168812039Y-62850100D01*
X168834891Y-62784073D01*
X168889812Y-62740883D01*
X168935899Y-62732000D01*
X170446044Y-62732000D01*
X170513083Y-62751685D01*
X170558838Y-62804489D01*
X170565819Y-62823906D01*
X170578421Y-62870939D01*
X170578422Y-62870940D01*
X170627856Y-62956562D01*
X170697769Y-63026475D01*
X170783393Y-63075910D01*
X170878896Y-63101500D01*
X170878898Y-63101500D01*
X170977763Y-63101500D01*
X170977766Y-63101500D01*
X171073269Y-63075910D01*
X171158893Y-63026475D01*
X171228806Y-62956562D01*
X171278241Y-62870938D01*
X171290843Y-62823905D01*
X171327209Y-62764245D01*
X171390056Y-62733717D01*
X171410618Y-62732000D01*
X173059000Y-62732000D01*
X173059000Y-60900565D01*
X176824500Y-60900565D01*
X176824500Y-60999435D01*
X176850090Y-61094938D01*
X176850091Y-61094939D01*
X176850091Y-61094940D01*
X176852136Y-61098482D01*
X176899525Y-61180562D01*
X176969438Y-61250475D01*
X177055062Y-61299910D01*
X177150565Y-61325500D01*
X177150567Y-61325500D01*
X177249432Y-61325500D01*
X177249435Y-61325500D01*
X177344938Y-61299910D01*
X177356065Y-61293485D01*
X177423964Y-61277011D01*
X177489991Y-61299862D01*
X177525453Y-61338869D01*
X177539112Y-61362527D01*
X177549525Y-61380562D01*
X177619438Y-61450475D01*
X177705062Y-61499910D01*
X177800565Y-61525500D01*
X177800567Y-61525500D01*
X177899432Y-61525500D01*
X177899435Y-61525500D01*
X177994938Y-61499910D01*
X178080562Y-61450475D01*
X178150475Y-61380562D01*
X178199910Y-61294938D01*
X178225500Y-61199435D01*
X178225500Y-61100565D01*
X178199910Y-61005062D01*
X178150475Y-60919438D01*
X178080562Y-60849525D01*
X177994938Y-60800090D01*
X177899435Y-60774500D01*
X177800565Y-60774500D01*
X177705062Y-60800090D01*
X177705060Y-60800091D01*
X177705059Y-60800091D01*
X177693925Y-60806519D01*
X177626023Y-60822987D01*
X177559998Y-60800131D01*
X177524545Y-60761130D01*
X177500475Y-60719438D01*
X177430562Y-60649525D01*
X177344938Y-60600090D01*
X177249435Y-60574500D01*
X177150565Y-60574500D01*
X177055062Y-60600090D01*
X177055060Y-60600091D01*
X177055059Y-60600091D01*
X176969436Y-60649526D01*
X176899526Y-60719436D01*
X176850091Y-60805059D01*
X176850091Y-60805060D01*
X176850090Y-60805062D01*
X176824500Y-60900565D01*
X173059000Y-60900565D01*
X173059000Y-58668000D01*
X168487000Y-58668000D01*
X168487000Y-62619589D01*
X168467315Y-62686628D01*
X168414511Y-62732383D01*
X168395100Y-62739361D01*
X168374595Y-62744855D01*
X168355060Y-62750090D01*
X168355059Y-62750091D01*
X168269436Y-62799526D01*
X168199526Y-62869436D01*
X168150091Y-62955059D01*
X168150091Y-62955060D01*
X168150090Y-62955062D01*
X168124500Y-63050565D01*
X167295700Y-63050565D01*
X167295700Y-61018719D01*
X167295699Y-61018716D01*
X167291855Y-61009435D01*
X167265176Y-60945026D01*
X167208774Y-60888624D01*
X167171747Y-60873287D01*
X167117343Y-60829445D01*
X167095279Y-60763151D01*
X167095200Y-60758726D01*
X167095200Y-58370565D01*
X175392500Y-58370565D01*
X175392500Y-58469435D01*
X175415635Y-58555777D01*
X175416682Y-58564845D01*
X175416084Y-58568310D01*
X175417500Y-58579061D01*
X175417500Y-60358938D01*
X175413275Y-60391031D01*
X175397499Y-60449908D01*
X175392500Y-60468565D01*
X175392500Y-60567435D01*
X175418090Y-60662938D01*
X175467525Y-60748562D01*
X175537438Y-60818475D01*
X175623062Y-60867910D01*
X175718565Y-60893500D01*
X175718567Y-60893500D01*
X175817432Y-60893500D01*
X175817435Y-60893500D01*
X175912938Y-60867910D01*
X175998562Y-60818475D01*
X176068475Y-60748562D01*
X176117910Y-60662938D01*
X176143500Y-60567435D01*
X176143500Y-60468565D01*
X176122725Y-60391031D01*
X176118500Y-60358938D01*
X176118500Y-59660500D01*
X176138185Y-59593461D01*
X176190989Y-59547706D01*
X176242500Y-59536500D01*
X176303306Y-59536500D01*
X176303309Y-59536500D01*
X176417886Y-59505799D01*
X176520613Y-59446489D01*
X176604489Y-59362613D01*
X176604495Y-59362601D01*
X176605686Y-59361051D01*
X176607039Y-59360062D01*
X176610236Y-59356866D01*
X176610734Y-59357364D01*
X176662111Y-59319845D01*
X176731857Y-59315685D01*
X176791748Y-59348850D01*
X176873387Y-59430489D01*
X176976114Y-59489799D01*
X177090691Y-59520500D01*
X177090694Y-59520500D01*
X177209306Y-59520500D01*
X177209309Y-59520500D01*
X177323886Y-59489799D01*
X177426613Y-59430489D01*
X177510489Y-59346613D01*
X177569799Y-59243886D01*
X177600500Y-59129309D01*
X177600500Y-59010691D01*
X177569799Y-58896114D01*
X177510489Y-58793387D01*
X177426613Y-58709511D01*
X177323886Y-58650201D01*
X177209309Y-58619500D01*
X177090691Y-58619500D01*
X176976114Y-58650201D01*
X176976112Y-58650201D01*
X176976112Y-58650202D01*
X176873387Y-58709511D01*
X176873384Y-58709513D01*
X176789510Y-58793387D01*
X176788303Y-58794961D01*
X176786947Y-58795950D01*
X176783764Y-58799134D01*
X176783267Y-58798637D01*
X176731872Y-58836160D01*
X176662126Y-58840310D01*
X176602251Y-58807149D01*
X176520615Y-58725513D01*
X176520613Y-58725511D01*
X176417886Y-58666201D01*
X176303309Y-58635500D01*
X176260603Y-58635500D01*
X176193564Y-58615815D01*
X176147809Y-58563011D01*
X176137865Y-58493853D01*
X176140828Y-58479409D01*
X176143499Y-58469439D01*
X176143500Y-58469433D01*
X176143500Y-58370567D01*
X176143500Y-58370565D01*
X176117910Y-58275062D01*
X176068475Y-58189438D01*
X175998562Y-58119525D01*
X175912938Y-58070090D01*
X175817435Y-58044500D01*
X175718565Y-58044500D01*
X175623062Y-58070090D01*
X175623060Y-58070091D01*
X175623059Y-58070091D01*
X175537436Y-58119526D01*
X175467526Y-58189436D01*
X175418091Y-58275059D01*
X175418091Y-58275060D01*
X175418090Y-58275062D01*
X175392500Y-58370565D01*
X167095200Y-58370565D01*
X167095200Y-57796691D01*
X168399500Y-57796691D01*
X168399500Y-57915309D01*
X168430201Y-58029886D01*
X168489511Y-58132613D01*
X168573387Y-58216489D01*
X168676114Y-58275799D01*
X168790691Y-58306500D01*
X168790694Y-58306500D01*
X168909306Y-58306500D01*
X168909309Y-58306500D01*
X169023886Y-58275799D01*
X169126613Y-58216489D01*
X169210489Y-58132613D01*
X169269799Y-58029886D01*
X169300500Y-57915309D01*
X169300500Y-57879565D01*
X172868500Y-57879565D01*
X172868500Y-57978435D01*
X172894090Y-58073938D01*
X172943525Y-58159562D01*
X173013438Y-58229475D01*
X173099062Y-58278910D01*
X173194565Y-58304500D01*
X173194567Y-58304500D01*
X173293432Y-58304500D01*
X173293435Y-58304500D01*
X173388938Y-58278910D01*
X173432001Y-58254047D01*
X173499898Y-58237574D01*
X173555997Y-58254046D01*
X173592004Y-58274835D01*
X173599058Y-58278908D01*
X173599062Y-58278910D01*
X173694565Y-58304500D01*
X173694567Y-58304500D01*
X173793432Y-58304500D01*
X173793435Y-58304500D01*
X173888938Y-58278910D01*
X173974562Y-58229475D01*
X174044475Y-58159562D01*
X174093910Y-58073938D01*
X174119500Y-57978435D01*
X174119500Y-57879565D01*
X174093910Y-57784062D01*
X174044475Y-57698438D01*
X173974562Y-57628525D01*
X173888938Y-57579090D01*
X173793435Y-57553500D01*
X173694565Y-57553500D01*
X173599062Y-57579090D01*
X173599060Y-57579091D01*
X173599059Y-57579091D01*
X173556000Y-57603952D01*
X173488100Y-57620425D01*
X173432000Y-57603952D01*
X173431337Y-57603569D01*
X173388938Y-57579090D01*
X173293435Y-57553500D01*
X173194565Y-57553500D01*
X173099062Y-57579090D01*
X173099060Y-57579091D01*
X173099059Y-57579091D01*
X173013436Y-57628526D01*
X172943526Y-57698436D01*
X172894091Y-57784059D01*
X172894091Y-57784060D01*
X172894090Y-57784062D01*
X172868500Y-57879565D01*
X169300500Y-57879565D01*
X169300500Y-57796691D01*
X169269799Y-57682114D01*
X169210489Y-57579387D01*
X169126613Y-57495511D01*
X169023886Y-57436201D01*
X168909309Y-57405500D01*
X168790691Y-57405500D01*
X168676114Y-57436201D01*
X168676112Y-57436201D01*
X168676112Y-57436202D01*
X168573387Y-57495511D01*
X168573384Y-57495513D01*
X168489513Y-57579384D01*
X168489511Y-57579387D01*
X168431068Y-57680613D01*
X168430201Y-57682114D01*
X168399500Y-57796691D01*
X167095200Y-57796691D01*
X167095200Y-53940691D01*
X168549500Y-53940691D01*
X168549500Y-54059309D01*
X168580201Y-54173886D01*
X168639511Y-54276613D01*
X168723387Y-54360489D01*
X168826114Y-54419799D01*
X168940691Y-54450500D01*
X168940694Y-54450500D01*
X169059306Y-54450500D01*
X169059309Y-54450500D01*
X169173886Y-54419799D01*
X169276613Y-54360489D01*
X169360489Y-54276613D01*
X169419799Y-54173886D01*
X169426048Y-54150565D01*
X169924500Y-54150565D01*
X169924500Y-54249435D01*
X169950090Y-54344938D01*
X169999525Y-54430562D01*
X170069438Y-54500475D01*
X170155062Y-54549910D01*
X170250565Y-54575500D01*
X170250567Y-54575500D01*
X170349432Y-54575500D01*
X170349435Y-54575500D01*
X170444938Y-54549910D01*
X170510011Y-54512339D01*
X170577906Y-54495867D01*
X170643933Y-54518718D01*
X170687125Y-54573639D01*
X170693768Y-54643192D01*
X170691783Y-54651818D01*
X170681000Y-54692060D01*
X170681000Y-54692065D01*
X170681000Y-54790935D01*
X170706590Y-54886438D01*
X170706591Y-54886439D01*
X170706591Y-54886440D01*
X170709565Y-54891591D01*
X170756025Y-54972062D01*
X170825938Y-55041975D01*
X170911562Y-55091410D01*
X171007065Y-55117000D01*
X171007067Y-55117000D01*
X171105932Y-55117000D01*
X171105935Y-55117000D01*
X171201438Y-55091410D01*
X171287062Y-55041975D01*
X171356975Y-54972062D01*
X171406410Y-54886438D01*
X171432000Y-54790935D01*
X171432000Y-54692065D01*
X171406410Y-54596562D01*
X171356975Y-54510938D01*
X171287062Y-54441025D01*
X171201438Y-54391590D01*
X171105935Y-54366000D01*
X171007065Y-54366000D01*
X170911562Y-54391590D01*
X170911560Y-54391591D01*
X170911559Y-54391591D01*
X170846491Y-54429159D01*
X170778591Y-54445632D01*
X170712564Y-54422780D01*
X170669374Y-54367858D01*
X170661092Y-54309577D01*
X170662089Y-54299483D01*
X170675500Y-54249435D01*
X170675500Y-54163779D01*
X170676101Y-54157698D01*
X170686996Y-54130741D01*
X170695185Y-54102854D01*
X170699929Y-54098742D01*
X170702283Y-54092920D01*
X170726021Y-54076133D01*
X170747989Y-54057099D01*
X170754204Y-54056205D01*
X170759331Y-54052580D01*
X170788369Y-54051292D01*
X170817147Y-54047155D01*
X170824478Y-54049692D01*
X170829132Y-54049486D01*
X170836842Y-54053971D01*
X170861495Y-54062504D01*
X170911562Y-54091410D01*
X171007065Y-54117000D01*
X171007067Y-54117000D01*
X171105932Y-54117000D01*
X171105935Y-54117000D01*
X171201438Y-54091410D01*
X171287062Y-54041975D01*
X171356975Y-53972062D01*
X171406410Y-53886438D01*
X171432000Y-53790935D01*
X171432000Y-53692065D01*
X171406410Y-53596562D01*
X171356975Y-53510938D01*
X171287062Y-53441025D01*
X171201438Y-53391590D01*
X171105935Y-53366000D01*
X171007065Y-53366000D01*
X170911562Y-53391590D01*
X170911560Y-53391591D01*
X170911559Y-53391591D01*
X170825936Y-53441026D01*
X170756026Y-53510936D01*
X170706591Y-53596559D01*
X170706591Y-53596560D01*
X170706590Y-53596562D01*
X170681000Y-53692065D01*
X170681000Y-53692067D01*
X170681000Y-53771606D01*
X170661315Y-53838645D01*
X170608511Y-53884400D01*
X170539353Y-53894344D01*
X170495000Y-53878993D01*
X170444940Y-53850091D01*
X170444939Y-53850090D01*
X170444938Y-53850090D01*
X170349435Y-53824500D01*
X170250565Y-53824500D01*
X170155062Y-53850090D01*
X170155060Y-53850091D01*
X170155059Y-53850091D01*
X170069436Y-53899526D01*
X169999526Y-53969436D01*
X169950091Y-54055059D01*
X169950091Y-54055060D01*
X169950090Y-54055062D01*
X169924500Y-54150565D01*
X169426048Y-54150565D01*
X169450500Y-54059309D01*
X169450500Y-53940691D01*
X169419799Y-53826114D01*
X169360489Y-53723387D01*
X169276613Y-53639511D01*
X169173886Y-53580201D01*
X169059309Y-53549500D01*
X168940691Y-53549500D01*
X168826114Y-53580201D01*
X168826112Y-53580201D01*
X168826112Y-53580202D01*
X168723387Y-53639511D01*
X168723384Y-53639513D01*
X168639513Y-53723384D01*
X168639511Y-53723387D01*
X168595226Y-53800091D01*
X168580201Y-53826114D01*
X168549500Y-53940691D01*
X167095200Y-53940691D01*
X167095200Y-52692065D01*
X170681000Y-52692065D01*
X170681000Y-52790935D01*
X170706590Y-52886438D01*
X170756025Y-52972062D01*
X170825938Y-53041975D01*
X170911562Y-53091410D01*
X171007065Y-53117000D01*
X171007067Y-53117000D01*
X171105932Y-53117000D01*
X171105935Y-53117000D01*
X171201438Y-53091410D01*
X171287062Y-53041975D01*
X171356975Y-52972062D01*
X171406410Y-52886438D01*
X171432000Y-52790935D01*
X171432000Y-52692065D01*
X171406410Y-52596562D01*
X171356975Y-52510938D01*
X171287062Y-52441025D01*
X171201438Y-52391590D01*
X171105935Y-52366000D01*
X171007065Y-52366000D01*
X170911562Y-52391590D01*
X170911560Y-52391591D01*
X170911559Y-52391591D01*
X170825936Y-52441026D01*
X170756026Y-52510936D01*
X170706591Y-52596559D01*
X170706591Y-52596560D01*
X170706590Y-52596562D01*
X170681000Y-52692065D01*
X167095200Y-52692065D01*
X167095200Y-50950565D01*
X169624500Y-50950565D01*
X169624500Y-51049435D01*
X169650090Y-51144938D01*
X169699525Y-51230562D01*
X169769438Y-51300475D01*
X169855062Y-51349910D01*
X169950565Y-51375500D01*
X169950567Y-51375500D01*
X170049432Y-51375500D01*
X170049435Y-51375500D01*
X170144938Y-51349910D01*
X170230562Y-51300475D01*
X170300475Y-51230562D01*
X170349910Y-51144938D01*
X170375500Y-51049435D01*
X170375500Y-51004565D01*
X171868500Y-51004565D01*
X171868500Y-51103435D01*
X171894090Y-51198938D01*
X171943525Y-51284562D01*
X172013438Y-51354475D01*
X172099062Y-51403910D01*
X172194565Y-51429500D01*
X172194567Y-51429500D01*
X172293432Y-51429500D01*
X172293435Y-51429500D01*
X172388938Y-51403910D01*
X172432001Y-51379047D01*
X172499898Y-51362574D01*
X172555997Y-51379046D01*
X172581702Y-51393887D01*
X172599058Y-51403908D01*
X172599062Y-51403910D01*
X172694565Y-51429500D01*
X172694567Y-51429500D01*
X172793432Y-51429500D01*
X172793435Y-51429500D01*
X172888938Y-51403910D01*
X172932001Y-51379047D01*
X172999898Y-51362574D01*
X173055997Y-51379046D01*
X173081702Y-51393887D01*
X173099058Y-51403908D01*
X173099062Y-51403910D01*
X173194565Y-51429500D01*
X173194567Y-51429500D01*
X173293432Y-51429500D01*
X173293435Y-51429500D01*
X173388938Y-51403910D01*
X173474562Y-51354475D01*
X173544475Y-51284562D01*
X173593910Y-51198938D01*
X173619500Y-51103435D01*
X173619500Y-51004565D01*
X173593910Y-50909062D01*
X173544475Y-50823438D01*
X173474562Y-50753525D01*
X173388938Y-50704090D01*
X173293435Y-50678500D01*
X173194565Y-50678500D01*
X173099062Y-50704090D01*
X173099060Y-50704091D01*
X173099059Y-50704091D01*
X173056000Y-50728952D01*
X172988100Y-50745425D01*
X172932000Y-50728952D01*
X172893498Y-50706723D01*
X172888938Y-50704090D01*
X172793435Y-50678500D01*
X172694565Y-50678500D01*
X172599062Y-50704090D01*
X172599060Y-50704091D01*
X172599059Y-50704091D01*
X172556000Y-50728952D01*
X172488100Y-50745425D01*
X172432000Y-50728952D01*
X172393498Y-50706723D01*
X172388938Y-50704090D01*
X172293435Y-50678500D01*
X172194565Y-50678500D01*
X172099062Y-50704090D01*
X172099060Y-50704091D01*
X172099059Y-50704091D01*
X172013436Y-50753526D01*
X171943526Y-50823436D01*
X171894091Y-50909059D01*
X171894091Y-50909060D01*
X171894090Y-50909062D01*
X171868500Y-51004565D01*
X170375500Y-51004565D01*
X170375500Y-50950565D01*
X170349910Y-50855062D01*
X170300475Y-50769438D01*
X170230562Y-50699525D01*
X170144938Y-50650090D01*
X170049435Y-50624500D01*
X169950565Y-50624500D01*
X169855062Y-50650090D01*
X169855060Y-50650091D01*
X169855059Y-50650091D01*
X169769436Y-50699526D01*
X169699526Y-50769436D01*
X169650091Y-50855059D01*
X169650091Y-50855060D01*
X169650090Y-50855062D01*
X169624500Y-50950565D01*
X167095200Y-50950565D01*
X167095200Y-49804813D01*
X171413622Y-49804813D01*
X171413622Y-49923431D01*
X171444323Y-50038008D01*
X171503633Y-50140735D01*
X171587509Y-50224611D01*
X171690236Y-50283921D01*
X171804813Y-50314622D01*
X171804816Y-50314622D01*
X171923428Y-50314622D01*
X171923431Y-50314622D01*
X172038008Y-50283921D01*
X172109638Y-50242565D01*
X174368500Y-50242565D01*
X174368500Y-50341435D01*
X174391635Y-50427777D01*
X174392682Y-50436845D01*
X174392084Y-50440310D01*
X174393500Y-50451061D01*
X174393500Y-51130475D01*
X174411845Y-51198938D01*
X174411844Y-51198938D01*
X174411845Y-51198940D01*
X174417385Y-51219617D01*
X174463527Y-51299539D01*
X174463531Y-51299544D01*
X174557181Y-51393194D01*
X174590666Y-51454517D01*
X174593500Y-51480875D01*
X174593500Y-52990143D01*
X174617386Y-53079287D01*
X174617387Y-53079290D01*
X174663527Y-53159208D01*
X174663531Y-53159213D01*
X176813181Y-55308863D01*
X176846666Y-55370186D01*
X176849500Y-55396544D01*
X176849500Y-56670408D01*
X176872916Y-56757796D01*
X176873386Y-56759551D01*
X176873387Y-56759554D01*
X176919527Y-56839472D01*
X176919531Y-56839477D01*
X177288827Y-57208773D01*
X177322312Y-57270096D01*
X177317328Y-57339788D01*
X177288828Y-57384134D01*
X177245526Y-57427436D01*
X177196091Y-57513059D01*
X177196091Y-57513060D01*
X177196090Y-57513062D01*
X177170500Y-57608565D01*
X177170500Y-57707435D01*
X177196090Y-57802938D01*
X177245525Y-57888562D01*
X177315438Y-57958475D01*
X177364386Y-57986735D01*
X177412601Y-58037301D01*
X177425824Y-58105908D01*
X177425324Y-58110307D01*
X177424500Y-58116565D01*
X177424500Y-58215435D01*
X177450090Y-58310938D01*
X177499525Y-58396562D01*
X177569438Y-58466475D01*
X177655062Y-58515910D01*
X177750565Y-58541500D01*
X177750567Y-58541500D01*
X177849427Y-58541500D01*
X177849435Y-58541500D01*
X177849442Y-58541497D01*
X177855682Y-58540676D01*
X177924718Y-58551436D01*
X177976978Y-58597811D01*
X177979247Y-58601584D01*
X178007525Y-58650562D01*
X178077438Y-58720475D01*
X178163062Y-58769910D01*
X178258565Y-58795500D01*
X178258567Y-58795500D01*
X178357432Y-58795500D01*
X178357435Y-58795500D01*
X178452938Y-58769910D01*
X178538562Y-58720475D01*
X178581865Y-58677171D01*
X178643186Y-58643687D01*
X178712877Y-58648671D01*
X178757226Y-58677172D01*
X178989850Y-58909796D01*
X179023335Y-58971119D01*
X179026169Y-58997477D01*
X179026169Y-59694787D01*
X179006484Y-59761826D01*
X178989850Y-59782468D01*
X178789531Y-59982786D01*
X178789530Y-59982788D01*
X178750443Y-60050489D01*
X178743386Y-60062712D01*
X178719500Y-60151856D01*
X178719500Y-60292938D01*
X178715274Y-60325031D01*
X178694500Y-60402565D01*
X178694500Y-60501435D01*
X178720090Y-60596938D01*
X178769525Y-60682562D01*
X178839438Y-60752475D01*
X178888386Y-60780735D01*
X178936601Y-60831301D01*
X178949824Y-60899908D01*
X178949324Y-60904307D01*
X178948500Y-60910565D01*
X178948500Y-61009435D01*
X178974090Y-61104938D01*
X178974091Y-61104939D01*
X178974091Y-61104940D01*
X178983391Y-61121048D01*
X179023525Y-61190562D01*
X179093438Y-61260475D01*
X179179062Y-61309910D01*
X179274565Y-61335500D01*
X179274567Y-61335500D01*
X179373432Y-61335500D01*
X179373435Y-61335500D01*
X179468938Y-61309910D01*
X179554562Y-61260475D01*
X179624475Y-61190562D01*
X179639484Y-61164565D01*
X180218500Y-61164565D01*
X180218500Y-61263435D01*
X180244090Y-61358938D01*
X180293525Y-61444562D01*
X180363438Y-61514475D01*
X180449062Y-61563910D01*
X180544565Y-61589500D01*
X180544567Y-61589500D01*
X180643432Y-61589500D01*
X180643435Y-61589500D01*
X180738938Y-61563910D01*
X180824562Y-61514475D01*
X180894475Y-61444562D01*
X180943910Y-61358938D01*
X180969500Y-61263435D01*
X180969500Y-61164565D01*
X180943910Y-61069062D01*
X180894475Y-60983438D01*
X180824562Y-60913525D01*
X180738938Y-60864090D01*
X180643435Y-60838500D01*
X180544565Y-60838500D01*
X180449062Y-60864090D01*
X180449060Y-60864091D01*
X180449059Y-60864091D01*
X180363436Y-60913526D01*
X180293526Y-60983436D01*
X180244091Y-61069059D01*
X180244091Y-61069060D01*
X180244090Y-61069062D01*
X180218500Y-61164565D01*
X179639484Y-61164565D01*
X179664610Y-61121045D01*
X179684311Y-61095369D01*
X179957138Y-60822543D01*
X180003283Y-60742619D01*
X180027169Y-60653475D01*
X180027169Y-60050565D01*
X180424500Y-60050565D01*
X180424500Y-60149435D01*
X180450090Y-60244938D01*
X180499525Y-60330562D01*
X180569438Y-60400475D01*
X180655062Y-60449910D01*
X180750565Y-60475500D01*
X180750567Y-60475500D01*
X180849432Y-60475500D01*
X180849435Y-60475500D01*
X180944938Y-60449910D01*
X181030562Y-60400475D01*
X181100475Y-60330562D01*
X181149910Y-60244938D01*
X181175500Y-60149435D01*
X181175500Y-60050565D01*
X181149910Y-59955062D01*
X181100475Y-59869438D01*
X181030562Y-59799525D01*
X180944940Y-59750091D01*
X180944939Y-59750090D01*
X180930230Y-59746149D01*
X180916008Y-59742338D01*
X180886352Y-59734391D01*
X180849435Y-59724500D01*
X180750565Y-59724500D01*
X180655062Y-59750090D01*
X180655060Y-59750091D01*
X180655059Y-59750091D01*
X180569436Y-59799526D01*
X180499526Y-59869436D01*
X180450091Y-59955059D01*
X180450091Y-59955060D01*
X180450090Y-59955062D01*
X180424500Y-60050565D01*
X180027169Y-60050565D01*
X180027169Y-59630691D01*
X184207500Y-59630691D01*
X184207500Y-59749309D01*
X184238201Y-59863886D01*
X184297511Y-59966613D01*
X184381387Y-60050489D01*
X184484114Y-60109799D01*
X184598691Y-60140500D01*
X184598694Y-60140500D01*
X184717306Y-60140500D01*
X184717309Y-60140500D01*
X184831886Y-60109799D01*
X184934613Y-60050489D01*
X185018489Y-59966613D01*
X185077799Y-59863886D01*
X185108500Y-59749309D01*
X185108500Y-59630691D01*
X185077799Y-59516114D01*
X185018489Y-59413387D01*
X184934613Y-59329511D01*
X184831886Y-59270201D01*
X184717309Y-59239500D01*
X184598691Y-59239500D01*
X184484114Y-59270201D01*
X184484112Y-59270201D01*
X184484112Y-59270202D01*
X184381387Y-59329511D01*
X184381384Y-59329513D01*
X184297513Y-59413384D01*
X184297511Y-59413387D01*
X184244158Y-59505797D01*
X184238201Y-59516114D01*
X184207500Y-59630691D01*
X180027169Y-59630691D01*
X180027169Y-58630525D01*
X180003283Y-58541381D01*
X179967504Y-58479409D01*
X179957141Y-58461460D01*
X179957137Y-58461455D01*
X178187540Y-56691858D01*
X178154055Y-56630535D01*
X178159039Y-56560843D01*
X178173356Y-56533470D01*
X178179685Y-56524351D01*
X178231975Y-56472062D01*
X178278199Y-56392000D01*
X181868138Y-56392000D01*
X182671012Y-56392000D01*
X182653795Y-56401940D01*
X182597940Y-56457795D01*
X182558444Y-56526204D01*
X182538000Y-56602504D01*
X182538000Y-56681496D01*
X182558444Y-56757796D01*
X182597940Y-56826205D01*
X182653795Y-56882060D01*
X182671012Y-56892000D01*
X181868138Y-56892000D01*
X181876430Y-56933690D01*
X181876430Y-56933692D01*
X181951807Y-57115671D01*
X181951814Y-57115684D01*
X182061248Y-57279462D01*
X182061251Y-57279466D01*
X182200533Y-57418748D01*
X182200537Y-57418751D01*
X182364315Y-57528185D01*
X182364328Y-57528192D01*
X182546306Y-57603569D01*
X182546318Y-57603572D01*
X182739504Y-57641999D01*
X182739508Y-57642000D01*
X183138000Y-57642000D01*
X183138000Y-56942000D01*
X183638000Y-56942000D01*
X183638000Y-57549933D01*
X183618315Y-57616972D01*
X183589488Y-57648307D01*
X183585340Y-57651489D01*
X183487493Y-57749337D01*
X183487492Y-57749338D01*
X183418313Y-57869161D01*
X183418312Y-57869164D01*
X183382500Y-58002817D01*
X183382500Y-58141183D01*
X183402678Y-58216486D01*
X183418312Y-58274835D01*
X183418313Y-58274838D01*
X183487492Y-58394661D01*
X183487494Y-58394664D01*
X183487495Y-58394665D01*
X183585335Y-58492505D01*
X183585336Y-58492506D01*
X183585338Y-58492507D01*
X183625860Y-58515902D01*
X183705164Y-58561688D01*
X183838817Y-58597500D01*
X183838819Y-58597500D01*
X183977181Y-58597500D01*
X183977183Y-58597500D01*
X184110836Y-58561688D01*
X184230665Y-58492505D01*
X184328505Y-58394665D01*
X184397688Y-58274836D01*
X184433500Y-58141183D01*
X184433500Y-58002817D01*
X184427306Y-57979700D01*
X184428969Y-57909853D01*
X184468132Y-57851990D01*
X184532360Y-57824486D01*
X184579171Y-57827833D01*
X184678691Y-57854500D01*
X184678694Y-57854500D01*
X184797306Y-57854500D01*
X184797309Y-57854500D01*
X184911886Y-57823799D01*
X185014613Y-57764489D01*
X185098489Y-57680613D01*
X185157799Y-57577886D01*
X185188500Y-57463309D01*
X185188500Y-57344691D01*
X185157799Y-57230114D01*
X185098489Y-57127387D01*
X185014613Y-57043511D01*
X185012607Y-57042353D01*
X184968778Y-57017047D01*
X184952265Y-56999728D01*
X184932854Y-56985731D01*
X184928593Y-56974902D01*
X184920563Y-56966480D01*
X184916034Y-56942981D01*
X184907273Y-56920713D01*
X184908245Y-56902566D01*
X184907341Y-56897873D01*
X184908151Y-56892351D01*
X184907864Y-56892000D01*
X184104988Y-56892000D01*
X184122205Y-56882060D01*
X184178060Y-56826205D01*
X184217556Y-56757796D01*
X184238000Y-56681496D01*
X184238000Y-56602504D01*
X184217556Y-56526204D01*
X184178060Y-56457795D01*
X184122205Y-56401940D01*
X184104988Y-56392000D01*
X184907862Y-56392000D01*
X186218138Y-56392000D01*
X187021012Y-56392000D01*
X187003795Y-56401940D01*
X186947940Y-56457795D01*
X186908444Y-56526204D01*
X186888000Y-56602504D01*
X186888000Y-56681496D01*
X186908444Y-56757796D01*
X186947940Y-56826205D01*
X187003795Y-56882060D01*
X187021012Y-56892000D01*
X186218138Y-56892000D01*
X186226430Y-56933690D01*
X186226430Y-56933692D01*
X186301807Y-57115671D01*
X186301814Y-57115684D01*
X186411248Y-57279462D01*
X186411251Y-57279466D01*
X186550533Y-57418748D01*
X186550537Y-57418751D01*
X186714315Y-57528185D01*
X186714328Y-57528192D01*
X186896306Y-57603569D01*
X186896318Y-57603572D01*
X187089504Y-57641999D01*
X187089508Y-57642000D01*
X187338000Y-57642000D01*
X187338000Y-56942000D01*
X187838000Y-56942000D01*
X187838000Y-57642000D01*
X188086492Y-57642000D01*
X188086495Y-57641999D01*
X188279681Y-57603572D01*
X188279693Y-57603569D01*
X188461671Y-57528192D01*
X188461684Y-57528185D01*
X188625462Y-57418751D01*
X188625466Y-57418748D01*
X188764748Y-57279466D01*
X188764751Y-57279462D01*
X188874185Y-57115684D01*
X188874192Y-57115671D01*
X188949569Y-56933692D01*
X188949569Y-56933690D01*
X188957862Y-56892000D01*
X188154988Y-56892000D01*
X188172205Y-56882060D01*
X188228060Y-56826205D01*
X188267556Y-56757796D01*
X188288000Y-56681496D01*
X188288000Y-56602504D01*
X188267556Y-56526204D01*
X188228060Y-56457795D01*
X188172205Y-56401940D01*
X188154988Y-56392000D01*
X188957862Y-56392000D01*
X188949569Y-56350309D01*
X188949569Y-56350307D01*
X188874192Y-56168328D01*
X188874185Y-56168315D01*
X188764751Y-56004537D01*
X188764748Y-56004533D01*
X188625466Y-55865251D01*
X188625462Y-55865248D01*
X188461684Y-55755814D01*
X188461671Y-55755807D01*
X188279693Y-55680430D01*
X188279681Y-55680427D01*
X188086495Y-55642000D01*
X187838000Y-55642000D01*
X187838000Y-56342000D01*
X187338000Y-56342000D01*
X187338000Y-55642000D01*
X187089504Y-55642000D01*
X186896318Y-55680427D01*
X186896306Y-55680430D01*
X186714328Y-55755807D01*
X186714315Y-55755814D01*
X186550537Y-55865248D01*
X186550533Y-55865251D01*
X186411251Y-56004533D01*
X186411248Y-56004537D01*
X186301814Y-56168315D01*
X186301807Y-56168328D01*
X186226430Y-56350307D01*
X186226430Y-56350309D01*
X186218138Y-56392000D01*
X184907862Y-56392000D01*
X184899569Y-56350309D01*
X184899569Y-56350307D01*
X184824192Y-56168328D01*
X184824185Y-56168315D01*
X184714751Y-56004537D01*
X184714748Y-56004533D01*
X184575466Y-55865251D01*
X184575462Y-55865248D01*
X184411684Y-55755814D01*
X184411671Y-55755807D01*
X184229693Y-55680430D01*
X184229681Y-55680427D01*
X184036495Y-55642000D01*
X183638000Y-55642000D01*
X183638000Y-56342000D01*
X183138000Y-56342000D01*
X183138000Y-55642000D01*
X182739504Y-55642000D01*
X182546318Y-55680427D01*
X182546306Y-55680430D01*
X182364328Y-55755807D01*
X182364315Y-55755814D01*
X182200537Y-55865248D01*
X182200533Y-55865251D01*
X182061251Y-56004533D01*
X182061248Y-56004537D01*
X181951814Y-56168315D01*
X181951807Y-56168328D01*
X181876430Y-56350307D01*
X181876430Y-56350309D01*
X181868138Y-56392000D01*
X178278199Y-56392000D01*
X178281410Y-56386438D01*
X178307000Y-56290935D01*
X178307000Y-56192065D01*
X178281410Y-56096562D01*
X178231975Y-56010938D01*
X178162062Y-55941025D01*
X178076438Y-55891590D01*
X177980935Y-55866000D01*
X177974500Y-55866000D01*
X177965814Y-55863449D01*
X177956853Y-55864738D01*
X177932812Y-55853759D01*
X177907461Y-55846315D01*
X177901533Y-55839474D01*
X177893297Y-55835713D01*
X177879007Y-55813478D01*
X177861706Y-55793511D01*
X177859418Y-55782996D01*
X177855523Y-55776935D01*
X177850500Y-55742000D01*
X177850500Y-55741000D01*
X177870185Y-55673961D01*
X177922989Y-55628206D01*
X177974500Y-55617000D01*
X177980932Y-55617000D01*
X177980935Y-55617000D01*
X178076438Y-55591410D01*
X178162062Y-55541975D01*
X178231975Y-55472062D01*
X178281410Y-55386438D01*
X178307000Y-55290935D01*
X178307000Y-55192065D01*
X178281410Y-55096562D01*
X178231975Y-55010938D01*
X178162062Y-54941025D01*
X178076438Y-54891590D01*
X177980935Y-54866000D01*
X177882065Y-54866000D01*
X177875403Y-54867785D01*
X177863404Y-54867498D01*
X177852162Y-54871692D01*
X177829124Y-54866680D01*
X177805553Y-54866118D01*
X177793908Y-54859019D01*
X177783889Y-54856840D01*
X177755635Y-54835689D01*
X177737853Y-54817907D01*
X177704368Y-54756584D01*
X177704798Y-54750565D01*
X179724500Y-54750565D01*
X179724500Y-54849435D01*
X179750090Y-54944938D01*
X179799525Y-55030562D01*
X179869438Y-55100475D01*
X179955062Y-55149910D01*
X179957586Y-55150586D01*
X179959475Y-55151737D01*
X179962569Y-55153019D01*
X179962369Y-55153501D01*
X180017248Y-55186945D01*
X180047782Y-55249790D01*
X180049500Y-55270362D01*
X180049500Y-55346309D01*
X180080201Y-55460886D01*
X180139511Y-55563613D01*
X180223387Y-55647489D01*
X180326114Y-55706799D01*
X180440691Y-55737500D01*
X180440694Y-55737500D01*
X180559306Y-55737500D01*
X180559309Y-55737500D01*
X180673886Y-55706799D01*
X180776613Y-55647489D01*
X180860489Y-55563613D01*
X180919799Y-55460886D01*
X180950500Y-55346309D01*
X180950500Y-55227691D01*
X180919799Y-55113114D01*
X180860489Y-55010387D01*
X180776613Y-54926511D01*
X180673886Y-54867201D01*
X180562972Y-54837481D01*
X180503315Y-54801118D01*
X180475296Y-54749805D01*
X180449910Y-54655062D01*
X180400475Y-54569438D01*
X180330562Y-54499525D01*
X180244938Y-54450090D01*
X180149435Y-54424500D01*
X180050565Y-54424500D01*
X179955062Y-54450090D01*
X179928820Y-54465240D01*
X179928819Y-54465241D01*
X179869435Y-54499527D01*
X179799526Y-54569436D01*
X179750091Y-54655059D01*
X179750091Y-54655060D01*
X179750090Y-54655062D01*
X179724500Y-54750565D01*
X177704798Y-54750565D01*
X177709352Y-54686892D01*
X177751224Y-54630959D01*
X177816688Y-54606542D01*
X177857626Y-54610451D01*
X177882065Y-54617000D01*
X177882067Y-54617000D01*
X177980932Y-54617000D01*
X177980935Y-54617000D01*
X178076438Y-54591410D01*
X178162062Y-54541975D01*
X178231975Y-54472062D01*
X178281410Y-54386438D01*
X178307000Y-54290935D01*
X178307000Y-54192065D01*
X178281410Y-54096562D01*
X178231975Y-54010938D01*
X178162062Y-53941025D01*
X178076438Y-53891590D01*
X177980935Y-53866000D01*
X177882065Y-53866000D01*
X177786562Y-53891590D01*
X177786560Y-53891591D01*
X177786559Y-53891591D01*
X177700936Y-53941026D01*
X177631026Y-54010936D01*
X177581591Y-54096559D01*
X177581591Y-54096560D01*
X177581590Y-54096562D01*
X177556000Y-54192065D01*
X177556000Y-54290935D01*
X177557543Y-54296693D01*
X177562548Y-54315372D01*
X177560885Y-54385222D01*
X177521722Y-54443084D01*
X177457493Y-54470588D01*
X177388591Y-54459001D01*
X177355092Y-54435146D01*
X175630819Y-52710873D01*
X175597334Y-52649550D01*
X175594500Y-52623192D01*
X175594500Y-52192065D01*
X177556000Y-52192065D01*
X177556000Y-52290935D01*
X177581590Y-52386438D01*
X177581591Y-52386439D01*
X177581591Y-52386440D01*
X177606452Y-52429500D01*
X177622925Y-52497400D01*
X177606452Y-52553500D01*
X177581591Y-52596559D01*
X177581591Y-52596560D01*
X177581590Y-52596562D01*
X177556000Y-52692065D01*
X177556000Y-52790935D01*
X177581590Y-52886438D01*
X177631025Y-52972062D01*
X177700938Y-53041975D01*
X177786562Y-53091410D01*
X177882065Y-53117000D01*
X177882067Y-53117000D01*
X177980932Y-53117000D01*
X177980935Y-53117000D01*
X178076438Y-53091410D01*
X178162062Y-53041975D01*
X178231975Y-52972062D01*
X178281410Y-52886438D01*
X178307000Y-52790935D01*
X178307000Y-52692065D01*
X178281410Y-52596562D01*
X178256547Y-52553498D01*
X178240074Y-52485602D01*
X178256546Y-52429502D01*
X178281410Y-52386438D01*
X178307000Y-52290935D01*
X178307000Y-52192065D01*
X178281410Y-52096562D01*
X178231975Y-52010938D01*
X178162062Y-51941025D01*
X178076438Y-51891590D01*
X177980935Y-51866000D01*
X177882065Y-51866000D01*
X177786562Y-51891590D01*
X177786560Y-51891591D01*
X177786559Y-51891591D01*
X177700936Y-51941026D01*
X177631026Y-52010936D01*
X177581591Y-52096559D01*
X177581591Y-52096560D01*
X177581590Y-52096562D01*
X177556000Y-52192065D01*
X175594500Y-52192065D01*
X175594500Y-51553500D01*
X175614185Y-51486461D01*
X175666989Y-51440706D01*
X175718500Y-51429500D01*
X175793432Y-51429500D01*
X175793435Y-51429500D01*
X175888938Y-51403910D01*
X175974562Y-51354475D01*
X176044475Y-51284562D01*
X176093910Y-51198938D01*
X176119500Y-51103435D01*
X176119500Y-51004565D01*
X176116854Y-50994691D01*
X177549500Y-50994691D01*
X177549500Y-51113309D01*
X177580201Y-51227886D01*
X177639511Y-51330613D01*
X177723387Y-51414489D01*
X177826114Y-51473799D01*
X177940691Y-51504500D01*
X177940694Y-51504500D01*
X178059306Y-51504500D01*
X178059309Y-51504500D01*
X178173886Y-51473799D01*
X178276613Y-51414489D01*
X178360489Y-51330613D01*
X178368614Y-51316539D01*
X178419180Y-51268326D01*
X178487788Y-51255104D01*
X178552652Y-51281072D01*
X178593180Y-51337986D01*
X178600000Y-51378542D01*
X178600000Y-53100000D01*
X179816642Y-53100000D01*
X179832821Y-53104750D01*
X179849683Y-53104483D01*
X179865652Y-53114391D01*
X179883681Y-53119685D01*
X179894721Y-53132426D01*
X179909054Y-53141319D01*
X179917132Y-53158289D01*
X179929436Y-53172489D01*
X179932034Y-53189596D01*
X179939084Y-53204406D01*
X179937867Y-53227991D01*
X179939645Y-53239696D01*
X179938585Y-53247995D01*
X179924500Y-53300565D01*
X179924500Y-53358382D01*
X179923503Y-53366196D01*
X179912525Y-53391279D01*
X179904815Y-53417539D01*
X179898723Y-53422817D01*
X179895491Y-53430204D01*
X179872696Y-53445369D01*
X179852011Y-53463294D01*
X179842717Y-53465315D01*
X179837320Y-53468907D01*
X179825334Y-53469097D01*
X179808534Y-53472752D01*
X179808625Y-53473439D01*
X179800567Y-53474499D01*
X179752813Y-53487295D01*
X179705062Y-53500090D01*
X179705060Y-53500091D01*
X179705059Y-53500091D01*
X179619436Y-53549526D01*
X179549526Y-53619436D01*
X179500091Y-53705059D01*
X179500091Y-53705060D01*
X179500090Y-53705062D01*
X179494146Y-53727247D01*
X179474499Y-53800567D01*
X179473439Y-53808625D01*
X179470354Y-53808218D01*
X179454815Y-53861140D01*
X179402011Y-53906895D01*
X179332853Y-53916839D01*
X179269297Y-53887814D01*
X179262819Y-53881782D01*
X179230563Y-53849526D01*
X179230562Y-53849525D01*
X179144938Y-53800090D01*
X179049435Y-53774500D01*
X178950565Y-53774500D01*
X178855062Y-53800090D01*
X178855060Y-53800091D01*
X178855059Y-53800091D01*
X178769436Y-53849526D01*
X178699526Y-53919436D01*
X178650091Y-54005059D01*
X178650091Y-54005060D01*
X178650090Y-54005062D01*
X178624500Y-54100565D01*
X178624500Y-54199435D01*
X178650090Y-54294938D01*
X178699525Y-54380562D01*
X178769438Y-54450475D01*
X178855062Y-54499910D01*
X178950565Y-54525500D01*
X178950567Y-54525500D01*
X179049432Y-54525500D01*
X179049435Y-54525500D01*
X179144938Y-54499910D01*
X179230562Y-54450475D01*
X179300475Y-54380562D01*
X179348898Y-54296691D01*
X182287500Y-54296691D01*
X182287500Y-54415309D01*
X182318201Y-54529886D01*
X182377511Y-54632613D01*
X182461387Y-54716489D01*
X182564114Y-54775799D01*
X182678691Y-54806500D01*
X182678694Y-54806500D01*
X182797306Y-54806500D01*
X182797309Y-54806500D01*
X182911886Y-54775799D01*
X183014613Y-54716489D01*
X183098489Y-54632613D01*
X183157799Y-54529886D01*
X183188500Y-54415309D01*
X183188500Y-54296691D01*
X183157799Y-54182114D01*
X183098489Y-54079387D01*
X183014613Y-53995511D01*
X182911886Y-53936201D01*
X182797309Y-53905500D01*
X182678691Y-53905500D01*
X182564114Y-53936201D01*
X182564112Y-53936201D01*
X182564112Y-53936202D01*
X182461387Y-53995511D01*
X182461384Y-53995513D01*
X182377513Y-54079384D01*
X182377511Y-54079387D01*
X182318201Y-54182114D01*
X182287500Y-54296691D01*
X179348898Y-54296691D01*
X179349910Y-54294938D01*
X179375500Y-54199435D01*
X179375500Y-54199432D01*
X179376561Y-54191375D01*
X179379645Y-54191781D01*
X179395185Y-54138860D01*
X179447989Y-54093105D01*
X179517147Y-54083161D01*
X179580703Y-54112186D01*
X179587181Y-54118218D01*
X179619438Y-54150475D01*
X179705062Y-54199910D01*
X179800565Y-54225500D01*
X179800567Y-54225500D01*
X179865346Y-54225500D01*
X179899435Y-54225500D01*
X179994938Y-54199910D01*
X180080562Y-54150475D01*
X180150475Y-54080562D01*
X180199910Y-53994938D01*
X180225500Y-53899435D01*
X180225500Y-53849500D01*
X180245185Y-53782461D01*
X180297989Y-53736706D01*
X180341465Y-53727247D01*
X180341375Y-53726561D01*
X180349432Y-53725500D01*
X180349435Y-53725500D01*
X180444938Y-53699910D01*
X180530562Y-53650475D01*
X180600475Y-53580562D01*
X180649910Y-53494938D01*
X180675500Y-53399435D01*
X180675500Y-53300565D01*
X180663583Y-53256090D01*
X180665246Y-53186244D01*
X180704408Y-53128382D01*
X180768636Y-53100877D01*
X180783358Y-53100000D01*
X182950000Y-53100000D01*
X182950000Y-51457941D01*
X182969685Y-51390902D01*
X183022489Y-51345147D01*
X183091647Y-51335203D01*
X183155203Y-51364228D01*
X183181386Y-51395939D01*
X183239511Y-51496613D01*
X183323387Y-51580489D01*
X183426114Y-51639799D01*
X183540691Y-51670500D01*
X183540694Y-51670500D01*
X183659306Y-51670500D01*
X183659309Y-51670500D01*
X183773886Y-51639799D01*
X183876613Y-51580489D01*
X183960489Y-51496613D01*
X184019799Y-51393886D01*
X184050500Y-51279309D01*
X184050500Y-51160691D01*
X184019799Y-51046114D01*
X183960489Y-50943387D01*
X183876613Y-50859511D01*
X183773886Y-50800201D01*
X183659309Y-50769500D01*
X183540691Y-50769500D01*
X183426114Y-50800201D01*
X183426112Y-50800201D01*
X183426112Y-50800202D01*
X183323387Y-50859511D01*
X183323384Y-50859513D01*
X183239513Y-50943384D01*
X183239507Y-50943393D01*
X183181386Y-51044059D01*
X183130819Y-51092274D01*
X183062212Y-51105496D01*
X182997347Y-51079528D01*
X182956819Y-51022613D01*
X182950000Y-50982058D01*
X182950000Y-49814691D01*
X186149500Y-49814691D01*
X186149500Y-49933309D01*
X186180201Y-50047886D01*
X186239511Y-50150613D01*
X186323387Y-50234489D01*
X186426114Y-50293799D01*
X186540691Y-50324500D01*
X186540694Y-50324500D01*
X186659306Y-50324500D01*
X186659309Y-50324500D01*
X186773886Y-50293799D01*
X186876613Y-50234489D01*
X186960489Y-50150613D01*
X187019799Y-50047886D01*
X187050500Y-49933309D01*
X187050500Y-49814691D01*
X187019799Y-49700114D01*
X186960489Y-49597387D01*
X186876613Y-49513511D01*
X186773886Y-49454201D01*
X186659309Y-49423500D01*
X186540691Y-49423500D01*
X186426114Y-49454201D01*
X186426112Y-49454201D01*
X186426112Y-49454202D01*
X186323387Y-49513511D01*
X186323384Y-49513513D01*
X186239513Y-49597384D01*
X186239511Y-49597387D01*
X186210355Y-49647887D01*
X186180201Y-49700114D01*
X186149500Y-49814691D01*
X182950000Y-49814691D01*
X182950000Y-49216691D01*
X188017500Y-49216691D01*
X188017500Y-49335309D01*
X188048201Y-49449886D01*
X188107511Y-49552613D01*
X188191387Y-49636489D01*
X188294114Y-49695799D01*
X188408691Y-49726500D01*
X188408694Y-49726500D01*
X188527306Y-49726500D01*
X188527309Y-49726500D01*
X188641886Y-49695799D01*
X188744613Y-49636489D01*
X188828489Y-49552613D01*
X188887799Y-49449886D01*
X188918500Y-49335309D01*
X188918500Y-49216691D01*
X188887799Y-49102114D01*
X188828489Y-48999387D01*
X188744613Y-48915511D01*
X188641886Y-48856201D01*
X188527309Y-48825500D01*
X188408691Y-48825500D01*
X188294114Y-48856201D01*
X188294112Y-48856201D01*
X188294112Y-48856202D01*
X188191387Y-48915511D01*
X188191384Y-48915513D01*
X188107513Y-48999384D01*
X188107511Y-48999387D01*
X188048201Y-49102114D01*
X188017500Y-49216691D01*
X182950000Y-49216691D01*
X182950000Y-48100000D01*
X178600000Y-48100000D01*
X178600000Y-49083536D01*
X178580315Y-49150575D01*
X178527511Y-49196330D01*
X178458353Y-49206274D01*
X178394797Y-49177249D01*
X178388319Y-49171217D01*
X178330615Y-49113513D01*
X178330613Y-49113511D01*
X178227886Y-49054201D01*
X178113309Y-49023500D01*
X177994691Y-49023500D01*
X177880114Y-49054201D01*
X177880112Y-49054201D01*
X177880112Y-49054202D01*
X177777387Y-49113511D01*
X177777384Y-49113513D01*
X177693513Y-49197384D01*
X177693511Y-49197387D01*
X177634201Y-49300114D01*
X177603500Y-49414691D01*
X177603500Y-49533309D01*
X177634201Y-49647886D01*
X177693511Y-49750613D01*
X177777387Y-49834489D01*
X177880114Y-49893799D01*
X177994691Y-49924500D01*
X177994694Y-49924500D01*
X178113306Y-49924500D01*
X178113309Y-49924500D01*
X178227886Y-49893799D01*
X178330613Y-49834489D01*
X178388319Y-49776783D01*
X178449642Y-49743298D01*
X178519334Y-49748282D01*
X178575267Y-49790154D01*
X178599684Y-49855618D01*
X178600000Y-49864464D01*
X178600000Y-50729457D01*
X178580315Y-50796496D01*
X178527511Y-50842251D01*
X178458353Y-50852195D01*
X178394797Y-50823170D01*
X178368614Y-50791460D01*
X178360489Y-50777387D01*
X178276613Y-50693511D01*
X178173886Y-50634201D01*
X178059309Y-50603500D01*
X177940691Y-50603500D01*
X177826114Y-50634201D01*
X177826112Y-50634201D01*
X177826112Y-50634202D01*
X177723387Y-50693511D01*
X177723384Y-50693513D01*
X177639513Y-50777384D01*
X177639511Y-50777387D01*
X177580201Y-50880114D01*
X177549500Y-50994691D01*
X176116854Y-50994691D01*
X176093910Y-50909062D01*
X176044475Y-50823438D01*
X175974562Y-50753525D01*
X175888938Y-50704090D01*
X175793435Y-50678500D01*
X175694565Y-50678500D01*
X175599062Y-50704090D01*
X175599060Y-50704091D01*
X175599059Y-50704091D01*
X175556000Y-50728952D01*
X175488100Y-50745425D01*
X175432000Y-50728952D01*
X175393498Y-50706723D01*
X175388938Y-50704090D01*
X175293435Y-50678500D01*
X175218500Y-50678500D01*
X175209814Y-50675949D01*
X175200853Y-50677238D01*
X175176812Y-50666259D01*
X175151461Y-50658815D01*
X175145533Y-50651974D01*
X175137297Y-50648213D01*
X175123007Y-50625978D01*
X175105706Y-50606011D01*
X175103418Y-50595496D01*
X175099523Y-50589435D01*
X175094500Y-50554500D01*
X175094500Y-50451061D01*
X175098725Y-50418968D01*
X175119500Y-50341435D01*
X175119500Y-50242565D01*
X175093910Y-50147062D01*
X175044475Y-50061438D01*
X174974562Y-49991525D01*
X174888938Y-49942090D01*
X174793435Y-49916500D01*
X174694565Y-49916500D01*
X174599062Y-49942090D01*
X174599060Y-49942091D01*
X174599059Y-49942091D01*
X174513436Y-49991526D01*
X174443526Y-50061436D01*
X174394091Y-50147059D01*
X174394091Y-50147060D01*
X174394090Y-50147062D01*
X174368500Y-50242565D01*
X172109638Y-50242565D01*
X172140735Y-50224611D01*
X172224611Y-50140735D01*
X172283921Y-50038008D01*
X172314622Y-49923431D01*
X172314622Y-49804813D01*
X172283921Y-49690236D01*
X172224611Y-49587509D01*
X172140735Y-49503633D01*
X172038008Y-49444323D01*
X171923431Y-49413622D01*
X171804813Y-49413622D01*
X171690236Y-49444323D01*
X171690234Y-49444323D01*
X171690234Y-49444324D01*
X171587509Y-49503633D01*
X171587506Y-49503635D01*
X171503635Y-49587506D01*
X171503633Y-49587509D01*
X171444323Y-49690236D01*
X171413622Y-49804813D01*
X167095200Y-49804813D01*
X167095200Y-48972565D01*
X175392500Y-48972565D01*
X175392500Y-49071435D01*
X175418090Y-49166938D01*
X175467525Y-49252562D01*
X175537438Y-49322475D01*
X175623062Y-49371910D01*
X175718565Y-49397500D01*
X175718567Y-49397500D01*
X175817432Y-49397500D01*
X175817435Y-49397500D01*
X175912938Y-49371910D01*
X175998562Y-49322475D01*
X176068475Y-49252562D01*
X176117910Y-49166938D01*
X176143500Y-49071435D01*
X176143500Y-48972565D01*
X176117910Y-48877062D01*
X176068475Y-48791438D01*
X175998562Y-48721525D01*
X175912938Y-48672090D01*
X175817435Y-48646500D01*
X175718565Y-48646500D01*
X175623062Y-48672090D01*
X175623060Y-48672091D01*
X175623059Y-48672091D01*
X175537436Y-48721526D01*
X175467526Y-48791436D01*
X175418091Y-48877059D01*
X175418091Y-48877060D01*
X175418090Y-48877062D01*
X175392500Y-48972565D01*
X167095200Y-48972565D01*
X167095200Y-47787697D01*
X175815368Y-47787697D01*
X175815368Y-47886567D01*
X175840958Y-47982070D01*
X175890393Y-48067694D01*
X175960306Y-48137607D01*
X176045930Y-48187042D01*
X176141433Y-48212632D01*
X176141435Y-48212632D01*
X176240300Y-48212632D01*
X176240303Y-48212632D01*
X176335806Y-48187042D01*
X176421430Y-48137607D01*
X176491343Y-48067694D01*
X176540778Y-47982070D01*
X176566368Y-47886567D01*
X176566368Y-47787697D01*
X176556418Y-47750565D01*
X186524500Y-47750565D01*
X186524500Y-47849435D01*
X186550090Y-47944938D01*
X186599525Y-48030562D01*
X186669438Y-48100475D01*
X186755062Y-48149910D01*
X186850565Y-48175500D01*
X186850567Y-48175500D01*
X186949432Y-48175500D01*
X186949435Y-48175500D01*
X187044938Y-48149910D01*
X187130562Y-48100475D01*
X187200475Y-48030562D01*
X187249910Y-47944938D01*
X187275500Y-47849435D01*
X187275500Y-47750565D01*
X187249910Y-47655062D01*
X187200475Y-47569438D01*
X187130562Y-47499525D01*
X187044938Y-47450090D01*
X186949435Y-47424500D01*
X186850565Y-47424500D01*
X186755062Y-47450090D01*
X186755060Y-47450091D01*
X186755059Y-47450091D01*
X186669436Y-47499526D01*
X186599526Y-47569436D01*
X186550091Y-47655059D01*
X186550091Y-47655060D01*
X186550090Y-47655062D01*
X186524500Y-47750565D01*
X176556418Y-47750565D01*
X176540778Y-47692194D01*
X176491343Y-47606570D01*
X176421430Y-47536657D01*
X176335806Y-47487222D01*
X176240303Y-47461632D01*
X176141433Y-47461632D01*
X176045930Y-47487222D01*
X176045928Y-47487223D01*
X176045927Y-47487223D01*
X175960304Y-47536658D01*
X175890394Y-47606568D01*
X175840959Y-47692191D01*
X175840959Y-47692192D01*
X175840958Y-47692194D01*
X175815368Y-47787697D01*
X167095200Y-47787697D01*
X167095200Y-46950565D01*
X169124500Y-46950565D01*
X169124500Y-47049435D01*
X169150090Y-47144938D01*
X169199525Y-47230562D01*
X169269438Y-47300475D01*
X169355062Y-47349910D01*
X169450565Y-47375500D01*
X169450567Y-47375500D01*
X169549432Y-47375500D01*
X169549435Y-47375500D01*
X169644938Y-47349910D01*
X169730562Y-47300475D01*
X169800475Y-47230562D01*
X169849910Y-47144938D01*
X169875500Y-47049435D01*
X169875500Y-46950565D01*
X169872854Y-46940691D01*
X172049500Y-46940691D01*
X172049500Y-47059309D01*
X172080201Y-47173886D01*
X172139511Y-47276613D01*
X172223387Y-47360489D01*
X172326114Y-47419799D01*
X172440691Y-47450500D01*
X172440694Y-47450500D01*
X172559306Y-47450500D01*
X172559309Y-47450500D01*
X172673886Y-47419799D01*
X172776613Y-47360489D01*
X172860489Y-47276613D01*
X172907860Y-47194565D01*
X174630500Y-47194565D01*
X174630500Y-47293435D01*
X174656090Y-47388938D01*
X174705525Y-47474562D01*
X174775438Y-47544475D01*
X174861062Y-47593910D01*
X174956565Y-47619500D01*
X174956567Y-47619500D01*
X175055432Y-47619500D01*
X175055435Y-47619500D01*
X175150938Y-47593910D01*
X175236562Y-47544475D01*
X175306475Y-47474562D01*
X175355910Y-47388938D01*
X175381500Y-47293435D01*
X175381500Y-47194565D01*
X175355910Y-47099062D01*
X175306475Y-47013438D01*
X175236562Y-46943525D01*
X175150938Y-46894090D01*
X175055435Y-46868500D01*
X174956565Y-46868500D01*
X174861062Y-46894090D01*
X174861060Y-46894091D01*
X174861059Y-46894091D01*
X174775436Y-46943526D01*
X174705526Y-47013436D01*
X174656091Y-47099059D01*
X174656091Y-47099060D01*
X174656090Y-47099062D01*
X174630500Y-47194565D01*
X172907860Y-47194565D01*
X172919799Y-47173886D01*
X172927556Y-47144939D01*
X172939848Y-47099062D01*
X172950500Y-47059309D01*
X172950500Y-46940691D01*
X172919799Y-46826114D01*
X172860489Y-46723387D01*
X172776613Y-46639511D01*
X172673886Y-46580201D01*
X172559309Y-46549500D01*
X172440691Y-46549500D01*
X172326114Y-46580201D01*
X172326112Y-46580201D01*
X172326112Y-46580202D01*
X172223387Y-46639511D01*
X172223384Y-46639513D01*
X172139513Y-46723384D01*
X172139511Y-46723387D01*
X172080201Y-46826114D01*
X172049500Y-46940691D01*
X169872854Y-46940691D01*
X169849910Y-46855062D01*
X169800475Y-46769438D01*
X169730562Y-46699525D01*
X169644938Y-46650090D01*
X169549435Y-46624500D01*
X169450565Y-46624500D01*
X169355062Y-46650090D01*
X169355060Y-46650091D01*
X169355059Y-46650091D01*
X169269436Y-46699526D01*
X169199526Y-46769436D01*
X169150091Y-46855059D01*
X169150091Y-46855060D01*
X169150090Y-46855062D01*
X169124500Y-46950565D01*
X167095200Y-46950565D01*
X167095200Y-44908565D01*
X172090500Y-44908565D01*
X172090500Y-45007435D01*
X172116090Y-45102938D01*
X172165525Y-45188562D01*
X172235438Y-45258475D01*
X172321062Y-45307910D01*
X172416565Y-45333500D01*
X172416567Y-45333500D01*
X172515432Y-45333500D01*
X172515435Y-45333500D01*
X172610938Y-45307910D01*
X172696562Y-45258475D01*
X172766475Y-45188562D01*
X172781484Y-45162565D01*
X176916500Y-45162565D01*
X176916500Y-45261435D01*
X176942090Y-45356938D01*
X176991525Y-45442562D01*
X177061438Y-45512475D01*
X177147062Y-45561910D01*
X177242565Y-45587500D01*
X177242567Y-45587500D01*
X177341432Y-45587500D01*
X177341435Y-45587500D01*
X177436938Y-45561910D01*
X177522562Y-45512475D01*
X177584472Y-45450565D01*
X188514500Y-45450565D01*
X188514500Y-45549435D01*
X188540090Y-45644938D01*
X188589525Y-45730562D01*
X188659438Y-45800475D01*
X188745062Y-45849910D01*
X188840565Y-45875500D01*
X188840567Y-45875500D01*
X188939432Y-45875500D01*
X188939435Y-45875500D01*
X189034938Y-45849910D01*
X189120562Y-45800475D01*
X189190475Y-45730562D01*
X189239910Y-45644938D01*
X189265500Y-45549435D01*
X189265500Y-45450565D01*
X189239910Y-45355062D01*
X189190475Y-45269438D01*
X189120562Y-45199525D01*
X189034938Y-45150090D01*
X188939435Y-45124500D01*
X188840565Y-45124500D01*
X188745062Y-45150090D01*
X188745060Y-45150091D01*
X188745059Y-45150091D01*
X188659436Y-45199526D01*
X188589526Y-45269436D01*
X188540091Y-45355059D01*
X188540091Y-45355060D01*
X188540090Y-45355062D01*
X188514500Y-45450565D01*
X177584472Y-45450565D01*
X177592475Y-45442562D01*
X177641910Y-45356938D01*
X177667500Y-45261435D01*
X177667500Y-45191463D01*
X177687185Y-45124424D01*
X177739989Y-45078669D01*
X177809147Y-45068725D01*
X177823570Y-45071683D01*
X177889691Y-45089400D01*
X177889695Y-45089400D01*
X178008306Y-45089400D01*
X178008309Y-45089400D01*
X178122886Y-45058699D01*
X178225613Y-44999389D01*
X178309489Y-44915513D01*
X178368799Y-44812786D01*
X178399500Y-44698209D01*
X178399500Y-44579591D01*
X178368799Y-44465014D01*
X178309489Y-44362287D01*
X178225613Y-44278411D01*
X178122886Y-44219101D01*
X178008309Y-44188400D01*
X177889691Y-44188400D01*
X177775114Y-44219101D01*
X177775112Y-44219101D01*
X177775112Y-44219102D01*
X177672387Y-44278411D01*
X177672384Y-44278413D01*
X177588513Y-44362284D01*
X177588511Y-44362287D01*
X177529201Y-44465014D01*
X177498500Y-44579591D01*
X177498500Y-44579593D01*
X177498500Y-44698207D01*
X177498893Y-44701193D01*
X177498500Y-44703712D01*
X177498500Y-44706336D01*
X177498091Y-44706336D01*
X177488125Y-44770228D01*
X177441743Y-44822483D01*
X177374474Y-44841366D01*
X177343861Y-44837150D01*
X177341436Y-44836500D01*
X177341435Y-44836500D01*
X177242565Y-44836500D01*
X177147062Y-44862090D01*
X177147060Y-44862091D01*
X177147059Y-44862091D01*
X177061436Y-44911526D01*
X176991526Y-44981436D01*
X176942091Y-45067059D01*
X176942091Y-45067060D01*
X176942090Y-45067062D01*
X176916500Y-45162565D01*
X172781484Y-45162565D01*
X172815910Y-45102938D01*
X172841500Y-45007435D01*
X172841500Y-44908565D01*
X172841498Y-44908559D01*
X172840676Y-44902316D01*
X172851436Y-44833280D01*
X172897812Y-44781020D01*
X172901550Y-44778771D01*
X172950562Y-44750475D01*
X173020475Y-44680562D01*
X173069910Y-44594938D01*
X173086382Y-44533465D01*
X173955500Y-44533465D01*
X173955500Y-44632335D01*
X173981090Y-44727838D01*
X174030525Y-44813462D01*
X174100438Y-44883375D01*
X174186062Y-44932810D01*
X174281565Y-44958400D01*
X174281567Y-44958400D01*
X174380432Y-44958400D01*
X174380435Y-44958400D01*
X174475938Y-44932810D01*
X174561562Y-44883375D01*
X174631475Y-44813462D01*
X174680910Y-44727838D01*
X174706500Y-44632335D01*
X174706500Y-44533465D01*
X174680910Y-44437962D01*
X174631475Y-44352338D01*
X174561562Y-44282425D01*
X174475938Y-44232990D01*
X174380435Y-44207400D01*
X174281565Y-44207400D01*
X174186062Y-44232990D01*
X174186060Y-44232991D01*
X174186059Y-44232991D01*
X174100436Y-44282426D01*
X174030526Y-44352336D01*
X173981091Y-44437959D01*
X173981091Y-44437960D01*
X173981090Y-44437962D01*
X173955500Y-44533465D01*
X173086382Y-44533465D01*
X173095500Y-44499435D01*
X173095500Y-44400565D01*
X173069910Y-44305062D01*
X173020475Y-44219438D01*
X172950562Y-44149525D01*
X172864938Y-44100090D01*
X172769435Y-44074500D01*
X172670565Y-44074500D01*
X172575062Y-44100090D01*
X172575060Y-44100091D01*
X172575059Y-44100091D01*
X172489436Y-44149526D01*
X172419526Y-44219436D01*
X172370091Y-44305059D01*
X172370091Y-44305060D01*
X172370090Y-44305062D01*
X172344500Y-44400565D01*
X172344500Y-44400567D01*
X172344500Y-44499432D01*
X172345324Y-44505691D01*
X172334559Y-44574726D01*
X172288180Y-44626983D01*
X172284387Y-44629264D01*
X172235436Y-44657526D01*
X172165526Y-44727436D01*
X172116091Y-44813059D01*
X172116091Y-44813060D01*
X172116090Y-44813062D01*
X172090500Y-44908565D01*
X167095200Y-44908565D01*
X167095200Y-44100565D01*
X169042500Y-44100565D01*
X169042500Y-44199435D01*
X169068090Y-44294938D01*
X169117525Y-44380562D01*
X169187438Y-44450475D01*
X169273062Y-44499910D01*
X169368565Y-44525500D01*
X169368567Y-44525500D01*
X169467432Y-44525500D01*
X169467435Y-44525500D01*
X169562938Y-44499910D01*
X169648562Y-44450475D01*
X169718475Y-44380562D01*
X169767910Y-44294938D01*
X169793500Y-44199435D01*
X169793500Y-44100565D01*
X169767910Y-44005062D01*
X169718475Y-43919438D01*
X169648562Y-43849525D01*
X169562938Y-43800090D01*
X169467435Y-43774500D01*
X169368565Y-43774500D01*
X169273062Y-43800090D01*
X169273060Y-43800091D01*
X169273059Y-43800091D01*
X169187436Y-43849526D01*
X169117526Y-43919436D01*
X169068091Y-44005059D01*
X169068091Y-44005060D01*
X169068090Y-44005062D01*
X169042500Y-44100565D01*
X167095200Y-44100565D01*
X167095200Y-43619465D01*
X169992200Y-43619465D01*
X169992200Y-43756534D01*
X170018937Y-43890949D01*
X170018940Y-43890961D01*
X170071386Y-44017578D01*
X170071393Y-44017591D01*
X170147536Y-44131546D01*
X170147539Y-44131550D01*
X170244449Y-44228460D01*
X170244453Y-44228463D01*
X170358408Y-44304606D01*
X170358421Y-44304613D01*
X170485038Y-44357059D01*
X170485043Y-44357061D01*
X170619465Y-44383799D01*
X170619469Y-44383800D01*
X170619470Y-44383800D01*
X170756531Y-44383800D01*
X170756532Y-44383799D01*
X170890957Y-44357061D01*
X171017585Y-44304610D01*
X171131547Y-44228463D01*
X171228463Y-44131547D01*
X171304610Y-44017585D01*
X171357061Y-43890957D01*
X171383800Y-43756530D01*
X171383800Y-43673591D01*
X175230500Y-43673591D01*
X175230500Y-43792209D01*
X175261201Y-43906786D01*
X175320511Y-44009513D01*
X175404387Y-44093389D01*
X175404388Y-44093390D01*
X175404390Y-44093391D01*
X175413478Y-44098638D01*
X175461693Y-44149206D01*
X175474914Y-44217814D01*
X175448945Y-44282678D01*
X175439158Y-44293705D01*
X175380525Y-44352338D01*
X175331091Y-44437959D01*
X175331091Y-44437960D01*
X175331090Y-44437962D01*
X175305500Y-44533465D01*
X175305500Y-44632335D01*
X175331090Y-44727838D01*
X175380525Y-44813462D01*
X175450438Y-44883375D01*
X175536062Y-44932810D01*
X175631565Y-44958400D01*
X175631567Y-44958400D01*
X175730432Y-44958400D01*
X175730435Y-44958400D01*
X175825938Y-44932810D01*
X175911562Y-44883375D01*
X175981475Y-44813462D01*
X176030910Y-44727838D01*
X176056500Y-44632335D01*
X176056500Y-44533465D01*
X176030910Y-44437962D01*
X175981475Y-44352338D01*
X175922842Y-44293705D01*
X175889357Y-44232382D01*
X175894341Y-44162690D01*
X175936213Y-44106757D01*
X175948521Y-44098638D01*
X175957613Y-44093389D01*
X176041489Y-44009513D01*
X176100799Y-43906786D01*
X176131500Y-43792209D01*
X176131500Y-43673591D01*
X176100799Y-43559014D01*
X176041489Y-43456287D01*
X175957613Y-43372411D01*
X175854886Y-43313101D01*
X175740309Y-43282400D01*
X175621691Y-43282400D01*
X175507114Y-43313101D01*
X175507112Y-43313101D01*
X175507112Y-43313102D01*
X175404387Y-43372411D01*
X175404384Y-43372413D01*
X175320513Y-43456284D01*
X175320511Y-43456287D01*
X175303905Y-43485050D01*
X175261201Y-43559014D01*
X175230500Y-43673591D01*
X171383800Y-43673591D01*
X171383800Y-43619470D01*
X171357061Y-43485043D01*
X171345149Y-43456284D01*
X171304613Y-43358421D01*
X171304608Y-43358412D01*
X171299362Y-43350561D01*
X171278483Y-43283884D01*
X171296966Y-43216504D01*
X171348944Y-43169812D01*
X171374677Y-43162173D01*
X171374458Y-43161355D01*
X171382306Y-43159252D01*
X171382309Y-43159252D01*
X171496886Y-43128551D01*
X171599613Y-43069241D01*
X171683489Y-42985365D01*
X171742799Y-42882638D01*
X171773500Y-42768061D01*
X171773500Y-42649443D01*
X171742799Y-42534866D01*
X171683489Y-42432139D01*
X171599613Y-42348263D01*
X171496886Y-42288953D01*
X171382309Y-42258252D01*
X171263691Y-42258252D01*
X171149114Y-42288953D01*
X171149112Y-42288953D01*
X171149112Y-42288954D01*
X171046387Y-42348263D01*
X171046384Y-42348265D01*
X170962513Y-42432136D01*
X170962511Y-42432139D01*
X170921014Y-42504014D01*
X170903201Y-42534866D01*
X170872500Y-42649443D01*
X170872500Y-42649445D01*
X170872500Y-42768060D01*
X170890959Y-42836950D01*
X170889296Y-42906800D01*
X170850133Y-42964662D01*
X170785905Y-42992166D01*
X170759034Y-42992446D01*
X170756535Y-42992200D01*
X170756530Y-42992200D01*
X170619470Y-42992200D01*
X170619465Y-42992200D01*
X170485050Y-43018937D01*
X170485038Y-43018940D01*
X170358421Y-43071386D01*
X170358408Y-43071393D01*
X170244453Y-43147536D01*
X170244449Y-43147539D01*
X170147539Y-43244449D01*
X170147536Y-43244453D01*
X170071393Y-43358408D01*
X170071386Y-43358421D01*
X170018940Y-43485038D01*
X170018937Y-43485050D01*
X169992200Y-43619465D01*
X167095200Y-43619465D01*
X167095200Y-41780565D01*
X169114500Y-41780565D01*
X169114500Y-41879435D01*
X169140090Y-41974938D01*
X169189525Y-42060562D01*
X169259438Y-42130475D01*
X169345062Y-42179910D01*
X169440565Y-42205500D01*
X169440567Y-42205500D01*
X169539432Y-42205500D01*
X169539435Y-42205500D01*
X169634938Y-42179910D01*
X169720562Y-42130475D01*
X169736472Y-42114565D01*
X172852500Y-42114565D01*
X172852500Y-42213435D01*
X172878090Y-42308938D01*
X172927525Y-42394562D01*
X172997438Y-42464475D01*
X173083062Y-42513910D01*
X173178565Y-42539500D01*
X173178567Y-42539500D01*
X173277432Y-42539500D01*
X173277435Y-42539500D01*
X173372938Y-42513910D01*
X173458562Y-42464475D01*
X173528475Y-42394562D01*
X173577910Y-42308938D01*
X173603500Y-42213435D01*
X173603500Y-42114565D01*
X173577910Y-42019062D01*
X173528475Y-41933438D01*
X173458562Y-41863525D01*
X173372938Y-41814090D01*
X173277435Y-41788500D01*
X173178565Y-41788500D01*
X173083062Y-41814090D01*
X173083060Y-41814091D01*
X173083059Y-41814091D01*
X172997436Y-41863526D01*
X172927526Y-41933436D01*
X172878091Y-42019059D01*
X172878091Y-42019060D01*
X172878090Y-42019062D01*
X172852500Y-42114565D01*
X169736472Y-42114565D01*
X169790475Y-42060562D01*
X169839910Y-41974938D01*
X169865500Y-41879435D01*
X169865500Y-41780565D01*
X169839910Y-41685062D01*
X169790475Y-41599438D01*
X169720562Y-41529525D01*
X169634938Y-41480090D01*
X169539435Y-41454500D01*
X169440565Y-41454500D01*
X169345062Y-41480090D01*
X169345060Y-41480091D01*
X169345059Y-41480091D01*
X169259436Y-41529526D01*
X169189526Y-41599436D01*
X169140091Y-41685059D01*
X169140091Y-41685060D01*
X169140090Y-41685062D01*
X169114500Y-41780565D01*
X167095200Y-41780565D01*
X167095200Y-41027778D01*
X182575500Y-41027778D01*
X182575500Y-41248221D01*
X182609985Y-41465952D01*
X182678103Y-41675603D01*
X182678104Y-41675606D01*
X182778187Y-41872025D01*
X182907752Y-42050358D01*
X182907756Y-42050363D01*
X183063636Y-42206243D01*
X183063641Y-42206247D01*
X183219192Y-42319260D01*
X183241978Y-42335815D01*
X183357274Y-42394562D01*
X183438393Y-42435895D01*
X183438396Y-42435896D01*
X183543221Y-42469955D01*
X183648049Y-42504015D01*
X183865778Y-42538500D01*
X183865779Y-42538500D01*
X184086221Y-42538500D01*
X184086222Y-42538500D01*
X184303951Y-42504015D01*
X184513606Y-42435895D01*
X184710022Y-42335815D01*
X184888365Y-42206242D01*
X185044242Y-42050365D01*
X185173815Y-41872022D01*
X185273895Y-41675606D01*
X185342015Y-41465951D01*
X185376500Y-41248222D01*
X185376500Y-41027778D01*
X185342015Y-40810049D01*
X185273895Y-40600394D01*
X185273895Y-40600393D01*
X185220224Y-40495060D01*
X185173815Y-40403978D01*
X185126988Y-40339526D01*
X185044247Y-40225641D01*
X185044243Y-40225636D01*
X184888363Y-40069756D01*
X184888358Y-40069752D01*
X184710025Y-39940187D01*
X184710024Y-39940186D01*
X184710022Y-39940185D01*
X184646387Y-39907761D01*
X184513606Y-39840104D01*
X184513603Y-39840103D01*
X184303952Y-39771985D01*
X184195086Y-39754742D01*
X184086222Y-39737500D01*
X183865778Y-39737500D01*
X183793201Y-39748995D01*
X183648047Y-39771985D01*
X183438396Y-39840103D01*
X183438393Y-39840104D01*
X183241974Y-39940187D01*
X183063641Y-40069752D01*
X183063636Y-40069756D01*
X182907756Y-40225636D01*
X182907752Y-40225641D01*
X182778187Y-40403974D01*
X182678104Y-40600393D01*
X182678103Y-40600396D01*
X182609985Y-40810047D01*
X182575500Y-41027778D01*
X167095200Y-41027778D01*
X167095200Y-40590565D01*
X171582500Y-40590565D01*
X171582500Y-40689435D01*
X171608090Y-40784938D01*
X171657525Y-40870562D01*
X171727438Y-40940475D01*
X171813062Y-40989910D01*
X171908565Y-41015500D01*
X171908567Y-41015500D01*
X172007432Y-41015500D01*
X172007435Y-41015500D01*
X172102938Y-40989910D01*
X172188562Y-40940475D01*
X172258475Y-40870562D01*
X172307910Y-40784938D01*
X172333500Y-40689435D01*
X172333500Y-40590565D01*
X172307910Y-40495062D01*
X172258475Y-40409438D01*
X172188562Y-40339525D01*
X172102938Y-40290090D01*
X172007435Y-40264500D01*
X171908565Y-40264500D01*
X171813062Y-40290090D01*
X171813060Y-40290091D01*
X171813059Y-40290091D01*
X171727436Y-40339526D01*
X171657526Y-40409436D01*
X171608091Y-40495059D01*
X171608091Y-40495060D01*
X171608090Y-40495062D01*
X171582500Y-40590565D01*
X167095200Y-40590565D01*
X167095200Y-40003267D01*
X169552500Y-40003267D01*
X169552500Y-40102137D01*
X169578090Y-40197640D01*
X169627525Y-40283264D01*
X169697438Y-40353177D01*
X169783062Y-40402612D01*
X169878565Y-40428202D01*
X169878567Y-40428202D01*
X169977432Y-40428202D01*
X169977435Y-40428202D01*
X170072938Y-40402612D01*
X170158562Y-40353177D01*
X170228475Y-40283264D01*
X170277910Y-40197640D01*
X170303500Y-40102137D01*
X170303500Y-40003267D01*
X170277910Y-39907764D01*
X170228475Y-39822140D01*
X170158562Y-39752227D01*
X170072938Y-39702792D01*
X169977435Y-39677202D01*
X169878565Y-39677202D01*
X169783062Y-39702792D01*
X169783060Y-39702793D01*
X169783059Y-39702793D01*
X169697436Y-39752228D01*
X169627526Y-39822138D01*
X169578091Y-39907761D01*
X169578091Y-39907762D01*
X169578090Y-39907764D01*
X169552500Y-40003267D01*
X167095200Y-40003267D01*
X167095200Y-39574565D01*
X172852500Y-39574565D01*
X172852500Y-39673435D01*
X172878090Y-39768938D01*
X172927525Y-39854562D01*
X172997438Y-39924475D01*
X173083062Y-39973910D01*
X173178565Y-39999500D01*
X173178567Y-39999500D01*
X173277432Y-39999500D01*
X173277435Y-39999500D01*
X173372938Y-39973910D01*
X173430475Y-39940691D01*
X176549500Y-39940691D01*
X176549500Y-40059309D01*
X176580201Y-40173886D01*
X176639511Y-40276613D01*
X176723387Y-40360489D01*
X176826114Y-40419799D01*
X176940691Y-40450500D01*
X176940694Y-40450500D01*
X177059306Y-40450500D01*
X177059309Y-40450500D01*
X177173886Y-40419799D01*
X177276613Y-40360489D01*
X177360489Y-40276613D01*
X177419799Y-40173886D01*
X177450500Y-40059309D01*
X177450500Y-39940691D01*
X177419799Y-39826114D01*
X177360489Y-39723387D01*
X177276613Y-39639511D01*
X177173886Y-39580201D01*
X177059309Y-39549500D01*
X176940691Y-39549500D01*
X176826114Y-39580201D01*
X176826112Y-39580201D01*
X176826112Y-39580202D01*
X176723387Y-39639511D01*
X176723384Y-39639513D01*
X176639513Y-39723384D01*
X176639511Y-39723387D01*
X176582497Y-39822138D01*
X176580201Y-39826114D01*
X176549500Y-39940691D01*
X173430475Y-39940691D01*
X173458562Y-39924475D01*
X173528475Y-39854562D01*
X173577910Y-39768938D01*
X173603500Y-39673435D01*
X173603500Y-39574565D01*
X173577910Y-39479062D01*
X173528475Y-39393438D01*
X173458562Y-39323525D01*
X173372938Y-39274090D01*
X173277435Y-39248500D01*
X173178565Y-39248500D01*
X173083062Y-39274090D01*
X173083060Y-39274091D01*
X173083059Y-39274091D01*
X172997436Y-39323526D01*
X172927526Y-39393436D01*
X172878091Y-39479059D01*
X172878091Y-39479060D01*
X172878090Y-39479062D01*
X172852500Y-39574565D01*
X167095200Y-39574565D01*
X167095200Y-38539465D01*
X168976200Y-38539465D01*
X168976200Y-38676534D01*
X169002937Y-38810949D01*
X169002940Y-38810961D01*
X169055386Y-38937578D01*
X169055393Y-38937591D01*
X169131536Y-39051546D01*
X169131539Y-39051550D01*
X169228449Y-39148460D01*
X169228453Y-39148463D01*
X169342408Y-39224606D01*
X169342421Y-39224613D01*
X169461870Y-39274090D01*
X169469043Y-39277061D01*
X169603465Y-39303799D01*
X169603469Y-39303800D01*
X169603470Y-39303800D01*
X169740531Y-39303800D01*
X169740532Y-39303799D01*
X169874957Y-39277061D01*
X170001585Y-39224610D01*
X170115547Y-39148463D01*
X170212463Y-39051547D01*
X170288610Y-38937585D01*
X170341061Y-38810957D01*
X170367800Y-38676530D01*
X170367800Y-38539470D01*
X170367799Y-38539465D01*
X171008200Y-38539465D01*
X171008200Y-38676534D01*
X171034937Y-38810949D01*
X171034940Y-38810961D01*
X171087386Y-38937578D01*
X171087393Y-38937591D01*
X171163536Y-39051546D01*
X171163539Y-39051550D01*
X171260449Y-39148460D01*
X171260453Y-39148463D01*
X171374408Y-39224606D01*
X171374421Y-39224613D01*
X171493870Y-39274090D01*
X171501043Y-39277061D01*
X171635465Y-39303799D01*
X171635469Y-39303800D01*
X171635470Y-39303800D01*
X171772531Y-39303800D01*
X171772532Y-39303799D01*
X171906957Y-39277061D01*
X172033585Y-39224610D01*
X172147547Y-39148463D01*
X172244463Y-39051547D01*
X172320610Y-38937585D01*
X172373061Y-38810957D01*
X172399800Y-38676530D01*
X172399800Y-38539470D01*
X172373061Y-38405043D01*
X172373059Y-38405038D01*
X172320613Y-38278421D01*
X172320606Y-38278408D01*
X172244463Y-38164453D01*
X172244460Y-38164449D01*
X172147550Y-38067539D01*
X172147546Y-38067536D01*
X172033591Y-37991393D01*
X172033578Y-37991386D01*
X171906961Y-37938940D01*
X171906949Y-37938937D01*
X171772534Y-37912200D01*
X171772530Y-37912200D01*
X171635470Y-37912200D01*
X171635465Y-37912200D01*
X171501050Y-37938937D01*
X171501038Y-37938940D01*
X171374421Y-37991386D01*
X171374408Y-37991393D01*
X171260453Y-38067536D01*
X171260449Y-38067539D01*
X171163539Y-38164449D01*
X171163536Y-38164453D01*
X171087393Y-38278408D01*
X171087386Y-38278421D01*
X171034940Y-38405038D01*
X171034937Y-38405050D01*
X171008200Y-38539465D01*
X170367799Y-38539465D01*
X170341061Y-38405043D01*
X170341059Y-38405038D01*
X170288613Y-38278421D01*
X170288606Y-38278408D01*
X170212463Y-38164453D01*
X170212460Y-38164449D01*
X170115550Y-38067539D01*
X170115546Y-38067536D01*
X170001591Y-37991393D01*
X170001578Y-37991386D01*
X169874961Y-37938940D01*
X169874949Y-37938937D01*
X169740534Y-37912200D01*
X169740530Y-37912200D01*
X169603470Y-37912200D01*
X169603465Y-37912200D01*
X169469050Y-37938937D01*
X169469038Y-37938940D01*
X169342421Y-37991386D01*
X169342408Y-37991393D01*
X169228453Y-38067536D01*
X169228449Y-38067539D01*
X169131539Y-38164449D01*
X169131536Y-38164453D01*
X169055393Y-38278408D01*
X169055386Y-38278421D01*
X169002940Y-38405038D01*
X169002937Y-38405050D01*
X168976200Y-38539465D01*
X167095200Y-38539465D01*
X167095200Y-37440691D01*
X168049500Y-37440691D01*
X168049500Y-37559309D01*
X168080201Y-37673886D01*
X168139511Y-37776613D01*
X168223387Y-37860489D01*
X168326114Y-37919799D01*
X168440691Y-37950500D01*
X168440694Y-37950500D01*
X168559306Y-37950500D01*
X168559309Y-37950500D01*
X168673886Y-37919799D01*
X168776613Y-37860489D01*
X168860489Y-37776613D01*
X168919799Y-37673886D01*
X168950500Y-37559309D01*
X168950500Y-37542565D01*
X172344500Y-37542565D01*
X172344500Y-37641435D01*
X172370090Y-37736938D01*
X172419525Y-37822562D01*
X172489438Y-37892475D01*
X172575062Y-37941910D01*
X172670565Y-37967500D01*
X172670567Y-37967500D01*
X172769432Y-37967500D01*
X172769435Y-37967500D01*
X172864938Y-37941910D01*
X172950562Y-37892475D01*
X173020475Y-37822562D01*
X173069910Y-37736938D01*
X173095500Y-37641435D01*
X173095500Y-37542565D01*
X173069910Y-37447062D01*
X173020475Y-37361438D01*
X172950562Y-37291525D01*
X172864938Y-37242090D01*
X172769435Y-37216500D01*
X172670565Y-37216500D01*
X172575062Y-37242090D01*
X172575060Y-37242091D01*
X172575059Y-37242091D01*
X172489436Y-37291526D01*
X172419526Y-37361436D01*
X172370091Y-37447059D01*
X172370091Y-37447060D01*
X172370090Y-37447062D01*
X172344500Y-37542565D01*
X168950500Y-37542565D01*
X168950500Y-37440691D01*
X168919799Y-37326114D01*
X168860489Y-37223387D01*
X168776613Y-37139511D01*
X168673886Y-37080201D01*
X168559309Y-37049500D01*
X168440691Y-37049500D01*
X168326114Y-37080201D01*
X168326112Y-37080201D01*
X168326112Y-37080202D01*
X168223387Y-37139511D01*
X168223384Y-37139513D01*
X168139513Y-37223384D01*
X168139511Y-37223387D01*
X168100171Y-37291526D01*
X168080201Y-37326114D01*
X168049500Y-37440691D01*
X167095200Y-37440691D01*
X167095200Y-35983100D01*
X167114885Y-35916061D01*
X167167689Y-35870306D01*
X167219198Y-35859100D01*
X178277046Y-35859148D01*
X178344083Y-35878833D01*
X178389838Y-35931637D01*
X178399781Y-36000796D01*
X178370756Y-36064351D01*
X178333340Y-36093632D01*
X178241974Y-36140186D01*
X178063641Y-36269752D01*
X178063636Y-36269756D01*
X177907756Y-36425636D01*
X177907752Y-36425641D01*
X177778187Y-36603974D01*
X177678104Y-36800393D01*
X177678103Y-36800396D01*
X177609985Y-37010047D01*
X177575500Y-37227778D01*
X177575500Y-37448221D01*
X177609985Y-37665952D01*
X177678103Y-37875603D01*
X177678104Y-37875606D01*
X177737102Y-37991393D01*
X177775899Y-38067536D01*
X177778187Y-38072025D01*
X177907752Y-38250358D01*
X177907756Y-38250363D01*
X178063636Y-38406243D01*
X178063641Y-38406247D01*
X178219192Y-38519260D01*
X178241978Y-38535815D01*
X178370375Y-38601237D01*
X178438393Y-38635895D01*
X178438396Y-38635896D01*
X178543221Y-38669955D01*
X178648049Y-38704015D01*
X178865778Y-38738500D01*
X178865779Y-38738500D01*
X179086221Y-38738500D01*
X179086222Y-38738500D01*
X179303951Y-38704015D01*
X179513606Y-38635895D01*
X179710022Y-38535815D01*
X179888365Y-38406242D01*
X180044242Y-38250365D01*
X180173815Y-38072022D01*
X180273895Y-37875606D01*
X180342015Y-37665951D01*
X180376500Y-37448222D01*
X180376500Y-37227778D01*
X180342015Y-37010049D01*
X180273895Y-36800394D01*
X180273895Y-36800393D01*
X180239237Y-36732375D01*
X180173815Y-36603978D01*
X180136401Y-36552482D01*
X180044247Y-36425641D01*
X180044243Y-36425636D01*
X179888363Y-36269756D01*
X179888358Y-36269752D01*
X179710023Y-36140185D01*
X179618672Y-36093638D01*
X179567876Y-36045663D01*
X179551082Y-35977842D01*
X179573620Y-35911707D01*
X179628336Y-35868256D01*
X179674963Y-35859154D01*
X184485117Y-35859176D01*
X184485118Y-35859177D01*
X184564881Y-35859177D01*
X184564882Y-35859177D01*
X184595405Y-35846534D01*
X184638573Y-35828654D01*
X184694975Y-35772252D01*
X184694976Y-35772251D01*
X184725500Y-35698559D01*
X184725500Y-35124000D01*
X184745185Y-35056961D01*
X184797989Y-35011206D01*
X184849500Y-35000000D01*
X190200500Y-35000000D01*
X190267539Y-35019685D01*
G37*
%TD.AperFunction*%
%TD*%
M02*
