M48
; DRILL file KiCad 10.0.4 date 2026-09-13T16:48:49
; FORMAT={-:-/ absolute / inch / decimal}
; #@! TF.CreationDate,2026-09-13T16:48:49-04:00
; #@! TF.GenerationSoftware,Kicad,Pcbnew,10.0.4
; #@! TF.FileFunction,Plated,1,4,PTH
FMAT,2
INCH
; #@! TA.AperFunction,Plated,PTH,ViaDrill
T1C0.0059
; #@! TA.AperFunction,Plated,PTH,ComponentDrill
T2C0.0079
; #@! TA.AperFunction,Plated,PTH,ComponentDrill
T3C0.0080
; #@! TA.AperFunction,Plated,PTH,ViaDrill
T4C0.0118
; #@! TA.AperFunction,Plated,PTH,ComponentDrill
T5C0.0236
; #@! TA.AperFunction,Plated,PTH,ComponentDrill
T6C0.0256
; #@! TA.AperFunction,Plated,PTH,ComponentDrill
T7C0.0299
; #@! TA.AperFunction,Plated,PTH,ComponentDrill
T8C0.0394
; #@! TA.AperFunction,Plated,PTH,ComponentDrill
T9C0.0512
%
G90
G05
T1
X6.5886Y-1.4213
X6.5886Y-1.4713
X6.5886Y-1.5213
X6.5886Y-1.5713
X6.5886Y-1.6213
X6.5886Y-1.6713
X6.5886Y-1.7213
X6.5886Y-1.7713
X6.5886Y-1.8213
X6.5886Y-1.8713
X6.5886Y-1.9213
X6.5886Y-1.9713
X6.5886Y-2.0213
X6.5886Y-2.0713
X6.5886Y-2.1213
X6.5886Y-2.2713
X6.5913Y-2.7087
X6.6024Y-2.6732
X6.6102Y-2.6378
X6.6142Y-2.5591
X6.6339Y-2.4843
X6.6339Y-2.6969
X6.6388Y-2.1752
X6.6476Y-2.3248
X6.6481Y-2.3728
X6.6483Y-2.4548
X6.6485Y-2.3488
X6.6488Y-2.4209
X6.649Y-2.3969
X6.6614Y-2.1752
X6.6619Y-2.2016
X6.67Y-1.7382
X6.6728Y-1.6469
X6.6732Y-1.8504
X6.6803Y-2.4548
X6.685Y-2.1752
X6.687Y-2.3248
X6.6901Y-1.5769
X6.6929Y-2.0079
X6.6929Y-2.7165
X6.6929Y-2.8346
X6.6929Y-3.0709
X6.6929Y-3.3465
X6.6929Y-3.4646
X6.6929Y-4.0157
X6.6929Y-4.0945
X6.7008Y-2.3681
X6.7047Y-2.1339
X6.7098Y-2.4548
X6.7295Y-2.4695
X6.7323Y-1.4291
X6.7323Y-2.9528
X6.7323Y-3.1496
X6.7323Y-3.2677
X6.7323Y-3.3858
X6.7323Y-3.6614
X6.7323Y-3.7795
X6.7345Y-2.0764
X6.7345Y-2.1158
X6.7345Y-2.1552
X6.7421Y-2.3248
X6.7516Y-2.4548
X6.7559Y-2.4114
X6.77Y-1.6
X6.7795Y-2.4961
X6.7813Y-2.01
X6.7855Y-2.1182
X6.7867Y-2.0629
X6.7868Y-2.2282
X6.7873Y-2.173
X6.79Y-1.77
X6.7953Y-2.5118
X6.7983Y-2.3248
X6.7983Y-2.3563
X6.7983Y-2.3862
X6.7983Y-2.4201
X6.7983Y-2.4548
X6.8Y-1.48
X6.8Y-1.75
X6.8009Y-2.01
X6.82Y-1.56
X6.82Y-1.66
X6.8206Y-2.01
X6.8206Y-2.2807
X6.83Y-2.56
X6.8346Y-3.3047
X6.8403Y-2.2807
X6.8411Y-2.1185
X6.8411Y-2.1718
X6.8415Y-2.0625
X6.8423Y-2.227
X6.8425Y-3.063
X6.8425Y-3.126
X6.8504Y-2.9921
X6.8504Y-3.6614
X6.8634Y-1.7552
X6.8797Y-1.98
X6.885Y-2.715
X6.8898Y-3.7402
X6.8898Y-4.0157
X6.89Y-1.69
X6.89Y-1.86
X6.8962Y-2.1718
X6.8973Y-2.2277
X6.8976Y-2.1181
X6.8992Y-2.2799
X6.8994Y-2.01
X6.9166Y-1.7552
X6.9177Y-2.8815
X6.9191Y-2.01
X6.92Y-1.93
X6.92Y-2.3
X6.92Y-2.3826
X6.9213Y-1.563
X6.9331Y-2.9016
X6.9366Y-1.8834
X6.937Y-2.437
X6.9524Y-2.2285
X6.9529Y-2.1717
X6.9535Y-2.0594
X6.9567Y-2.7835
X6.9685Y-2.6614
X6.9685Y-3.1535
X6.9724Y-1.4567
X6.9744Y-2.3634
X6.9764Y-2.3996
X6.98Y-1.78
X6.99Y-2.27
X6.99Y-2.58
X7.0Y-2.29
X7.002Y-2.4075
X7.0052Y-2.0568
X7.0052Y-2.0764
X7.0052Y-2.1355
X7.0052Y-2.1749
X7.0052Y-2.2142
X7.0079Y-2.8504
X7.0079Y-3.2205
X7.02Y-2.3
X7.0222Y-2.9
X7.0335Y-2.6043
X7.0433Y-1.9055
X7.0433Y-1.9528
X7.0433Y-2.0
X7.0433Y-2.035
X7.0433Y-2.0787
X7.0472Y-2.1319
X7.0472Y-3.4252
X7.0472Y-3.5039
X7.0472Y-3.622
X7.0472Y-3.7402
X7.0472Y-3.937
X7.0472Y-4.0157
X7.05Y-2.38
X7.06Y-2.4
X7.06Y-2.9
X7.0787Y-1.9055
X7.0807Y-2.1201
X7.0827Y-2.8661
X7.0866Y-1.5748
X7.0866Y-1.6732
X7.0866Y-1.811
X7.0866Y-1.8701
X7.0894Y-2.0787
X7.0906Y-2.1575
X7.0957Y-2.8161
X7.0984Y-2.1004
X7.1Y-2.6
X7.1024Y-3.0709
X7.11Y-2.41
X7.1157Y-1.9051
X7.1181Y-2.3661
X7.1181Y-3.1732
X7.12Y-2.81
X7.12Y-2.9988
X7.122Y-2.9094
X7.126Y-1.7323
X7.1449Y-2.0787
X7.1543Y-1.9055
X7.1575Y-2.6063
X7.163Y-3.0575
X7.1643Y-2.6753
X7.1643Y-2.7146
X7.1654Y-4.0945
X7.1693Y-1.8583
X7.1693Y-2.74
X7.1772Y-2.695
X7.185Y-1.6732
X7.185Y-1.7717
X7.1916Y-1.9055
X7.1916Y-1.9453
X7.1916Y-1.9886
X7.1916Y-2.0299
X7.1916Y-2.0787
X7.1929Y-3.0512
X7.2Y-2.78
X7.2Y-2.87
X7.2047Y-3.3465
X7.2165Y-3.6575
X7.2165Y-3.7441
X7.2283Y-3.2165
X7.2441Y-1.4961
X7.2441Y-1.7323
X7.2673Y-3.1378
X7.2835Y-1.7717
X7.2835Y-2.9134
X7.2835Y-3.7795
X7.2835Y-3.937
X7.2835Y-4.0551
X7.2874Y-3.4724
X7.2953Y-3.0984
X7.2992Y-3.6339
X7.3065Y-3.2178
X7.3071Y-1.5276
X7.3228Y-2.3622
X7.3228Y-2.4803
X7.3306Y-2.8106
X7.3386Y-2.6496
X7.3425Y-3.2913
X7.3465Y-3.2178
X7.3583Y-1.8819
X7.3625Y-3.3813
X7.3819Y-1.5748
X7.3819Y-1.6732
X7.4016Y-2.3228
X7.4016Y-2.4409
X7.4016Y-4.0945
X7.4173Y-3.0157
X7.4252Y-2.7913
X7.4366Y-1.7913
X7.4803Y-2.0669
X7.4803Y-2.1654
X7.4803Y-2.2638
X7.4803Y-2.3622
X7.4803Y-2.4606
X7.4803Y-2.5591
X7.4803Y-2.6575
X7.4803Y-2.7559
X7.4803Y-2.8543
X7.4803Y-2.9528
X7.4803Y-3.0512
X7.4803Y-3.1496
X7.4803Y-3.248
X7.4803Y-3.3465
X7.4803Y-3.4449
X7.4803Y-3.5433
X7.4803Y-3.6417
X7.4803Y-3.7402
X7.4803Y-3.8386
X7.4803Y-3.937
X7.4803Y-4.0354
X7.4803Y-4.1339
X7.4803Y-4.2323
T2
X6.5936Y-2.3289
X6.5936Y-2.3589
T3
X7.0482Y-2.7048
X7.0895Y-2.6635
X7.0895Y-2.7048
X7.0895Y-2.7461
X7.1309Y-2.7048
T4
X6.6339Y-1.4764
X6.6343Y-2.0443
X6.6476Y-2.2778
X6.6535Y-2.126
X6.6732Y-2.3019
X6.7209Y-3.0197
X6.7345Y-2.2142
X6.7402Y-3.1102
X6.7447Y-1.5621
X6.745Y-1.6814
X6.7663Y-1.9632
X6.7913Y-1.8504
X6.811Y-1.8898
X6.87Y-2.5174
X6.8701Y-2.7776
X6.8881Y-1.6478
X6.9166Y-1.7218
X6.9291Y-2.8543
X6.9311Y-2.61
X6.9387Y-2.3262
X6.94Y-2.7478
X6.95Y-3.02
X6.9596Y-2.5548
X6.9685Y-1.5748
X6.9706Y-3.11
X6.9744Y-2.3256
X6.9789Y-2.7111
X7.0059Y-1.7574
X7.0079Y-2.01
X7.01Y-1.91
X7.01Y-1.9478
X7.0113Y-3.2835
X7.0123Y-1.6885
X7.05Y-2.53
X7.0511Y-2.57
X7.0551Y-2.4665
X7.0878Y-2.5
X7.1063Y-2.1767
X7.1175Y-1.9921
X7.13Y-2.2
X7.1944Y-2.14
X7.2283Y-2.0165
X7.2283Y-2.0551
X7.2283Y-3.4043
X7.2398Y-3.0504
X7.27Y-2.35
X7.2731Y-2.26
X7.2992Y-1.8465
X7.3008Y-3.1756
X7.311Y-1.9252
X7.3307Y-3.0406
X7.3465Y-1.9635
X7.42Y-1.94
X7.435Y-1.8829
T6
X6.7346Y-3.5606
X6.8346Y-3.4606
X6.9346Y-3.5606
T7
X6.7614Y-3.9567
X6.9614Y-3.9567
X7.1614Y-3.9567
X7.3614Y-3.9567
T8
X6.7906Y-4.1693
X6.8906Y-4.1693
X6.9906Y-4.1693
X7.0906Y-4.1693
X7.1906Y-4.1693
X7.2906Y-4.1693
T9
X7.0463Y-1.47
X7.2431Y-1.6196
X7.44Y-1.47
T5
G00X7.1983Y-2.23
M15
G01X7.2417Y-2.23
M16
G05
G00X7.1983Y-2.5702
M15
G01X7.2417Y-2.5702
M16
G05
G00X7.3696Y-2.23
M15
G01X7.4011Y-2.23
M16
G05
G00X7.3696Y-2.5702
M15
G01X7.4011Y-2.5702
M16
G05
M30
