%TF.GenerationSoftware,KiCad,Pcbnew,10.0.4*%
%TF.CreationDate,2026-09-13T16:48:49-04:00*%
%TF.ProjectId,sensor-board,73656e73-6f72-42d6-926f-6172642e6b69,rev?*%
%TF.SameCoordinates,Original*%
%TF.FileFunction,Copper,L4,Bot*%
%TF.FilePolarity,Positive*%
%FSLAX46Y46*%
G04 Gerber Fmt 4.6, Leading zero omitted, Abs format (unit mm)*
G04 Created by KiCad (PCBNEW 10.0.4) date 2026-09-13 16:48:49*
%MOMM*%
%LPD*%
G01*
G04 APERTURE LIST*
%TA.AperFunction,ComponentPad*%
%ADD10C,2.300000*%
%TD*%
%TA.AperFunction,ComponentPad*%
%ADD11C,0.500000*%
%TD*%
%TA.AperFunction,ComponentPad*%
%ADD12O,2.100000X1.000000*%
%TD*%
%TA.AperFunction,ComponentPad*%
%ADD13O,1.800000X1.000000*%
%TD*%
%TA.AperFunction,ComponentPad*%
%ADD14R,1.700000X1.700000*%
%TD*%
%TA.AperFunction,ComponentPad*%
%ADD15C,1.700000*%
%TD*%
%TA.AperFunction,ComponentPad*%
%ADD16C,0.499999*%
%TD*%
%TA.AperFunction,ComponentPad*%
%ADD17C,1.192000*%
%TD*%
%TA.AperFunction,ComponentPad*%
%ADD18R,1.303000X1.303000*%
%TD*%
%TA.AperFunction,ComponentPad*%
%ADD19C,1.303000*%
%TD*%
%TA.AperFunction,ViaPad*%
%ADD20C,0.400000*%
%TD*%
%TA.AperFunction,ViaPad*%
%ADD21C,0.250000*%
%TD*%
%TA.AperFunction,Conductor*%
%ADD22C,0.400000*%
%TD*%
%TA.AperFunction,Conductor*%
%ADD23C,0.200000*%
%TD*%
G04 APERTURE END LIST*
D10*
%TO.P,BT1,1,+_1*%
%TO.N,Net-(BT1-+)*%
X178976000Y-37338000D03*
X188976000Y-37338000D03*
%TO.P,BT1,2,-_2*%
%TO.N,Net-(BT1--)*%
X183976000Y-41138000D03*
%TD*%
D11*
%TO.P,AE1,2,GND_2*%
%TO.N,GND*%
X167476200Y-59915600D03*
X167476200Y-59153600D03*
%TD*%
D12*
%TO.P,J1,SH,SHIELD_SH*%
%TO.N,GND*%
X183388000Y-65282000D03*
D13*
X187588000Y-65282000D03*
D12*
X183388000Y-56642000D03*
D13*
X187588000Y-56642000D03*
%TD*%
D14*
%TO.P,J2,1,Pin_1_1*%
%TO.N,GND*%
X172480000Y-105900000D03*
D15*
%TO.P,J2,2,Pin_2_2*%
%TO.N,+3V0*%
X175020000Y-105900000D03*
%TO.P,J2,3,Pin_3_3*%
%TO.N,hp1*%
X177560000Y-105900000D03*
%TO.P,J2,4,Pin_4_4*%
%TO.N,hp2*%
X180100000Y-105900000D03*
%TO.P,J2,5,Pin_5_5*%
%TO.N,hp3*%
X182640000Y-105900000D03*
%TO.P,J2,6,Pin_6_6*%
%TO.N,hp4*%
X185180000Y-105900000D03*
%TD*%
D16*
%TO.P,U9,17,PAD_17*%
%TO.N,GND*%
X180074001Y-67651999D03*
X181123998Y-68701999D03*
X180074001Y-68701999D03*
X179023998Y-68701999D03*
X180074001Y-69751999D03*
%TD*%
D17*
%TO.P,U10,1,VDD_1*%
%TO.N,+3V0*%
X176140000Y-90440000D03*
%TO.P,U10,2,out_2*%
%TO.N,motion*%
X173600000Y-87900000D03*
%TO.P,U10,3,GND_3*%
%TO.N,GND*%
X171060000Y-90440000D03*
%TD*%
D18*
%TO.P,K1,1*%
%TO.N,Net-(J7-Pin_1)*%
X171740000Y-100500000D03*
D19*
%TO.P,K1,3*%
%TO.N,+3V0*%
X176820000Y-100500000D03*
%TO.P,K1,5*%
%TO.N,Net-(D2-A)*%
X181900000Y-100500000D03*
%TO.P,K1,7*%
%TO.N,Net-(J7-Pin_2)*%
X186980000Y-100500000D03*
%TD*%
D20*
%TO.N,+3V0*%
X168500000Y-37500000D03*
X178000000Y-51054000D03*
X176773000Y-64892000D03*
X176244000Y-59086000D03*
X178054000Y-49474000D03*
X177264000Y-68862000D03*
X169000000Y-54000000D03*
X176000000Y-72500000D03*
X183600000Y-86469000D03*
X175681000Y-43732900D03*
X180500000Y-55287000D03*
X171864122Y-49864122D03*
X180030000Y-63500000D03*
X182738000Y-54356000D03*
X168850000Y-57856000D03*
X177949000Y-44638900D03*
X183600000Y-51220000D03*
X171323000Y-42708752D03*
X177150000Y-59070000D03*
X177000000Y-40000000D03*
X172500000Y-47000000D03*
X185440000Y-80660000D03*
D21*
%TO.N,GND*%
X185000000Y-103000000D03*
X182667000Y-49410000D03*
D20*
X185700000Y-48900000D03*
D21*
X188000000Y-62000000D03*
X175000000Y-95000000D03*
X171000000Y-93000000D03*
D20*
X174957999Y-41854000D03*
D21*
X179000000Y-102000000D03*
X167350000Y-43720000D03*
X171000000Y-80000000D03*
X190000000Y-57500000D03*
X190000000Y-102500000D03*
X188400000Y-76600000D03*
X167350000Y-48800000D03*
X167350000Y-44990000D03*
X167350000Y-39910000D03*
X190000000Y-52500000D03*
D20*
X174500000Y-70550000D03*
X170710000Y-76700000D03*
D21*
X179000000Y-100000000D03*
X190000000Y-77500000D03*
X169800000Y-55250000D03*
X169200000Y-55250000D03*
X173765166Y-53810199D03*
X167350000Y-46260000D03*
D20*
X171056500Y-56241500D03*
D21*
X176620066Y-52309436D03*
X168000000Y-65000000D03*
X171000000Y-75000000D03*
X188000000Y-104000000D03*
X178900000Y-50800000D03*
X172678000Y-60610000D03*
X169213001Y-55920000D03*
X190000000Y-80000000D03*
X167350000Y-53880000D03*
X180070000Y-52800000D03*
X179000000Y-92000000D03*
X170430000Y-62351000D03*
X167350000Y-51340000D03*
X167350000Y-47530000D03*
X176602816Y-55160024D03*
X177000000Y-67600000D03*
X185000000Y-96000000D03*
X168626002Y-55250000D03*
X173773791Y-52387062D03*
X184590000Y-79700000D03*
D20*
X186200000Y-77230000D03*
D21*
X168872000Y-59660000D03*
D20*
X176050000Y-66294000D03*
D21*
X170000000Y-102000000D03*
X190000000Y-60000000D03*
X182667000Y-52800000D03*
X182100000Y-47200000D03*
X190000000Y-82500000D03*
X190000000Y-87500000D03*
X168884000Y-60880000D03*
X185000000Y-100000000D03*
X174000000Y-93000000D03*
X171250000Y-59050000D03*
X180400000Y-78000000D03*
D20*
X183600000Y-52200000D03*
D21*
X173800000Y-77800000D03*
X170200000Y-60150000D03*
X190000000Y-85000000D03*
D20*
X188850000Y-47825000D03*
D21*
X190000000Y-70000000D03*
X172678000Y-59850000D03*
X172350654Y-53801574D03*
X179800000Y-48400000D03*
X190000000Y-75000000D03*
X190000000Y-72500000D03*
X169850000Y-59050000D03*
X179000000Y-89000000D03*
X186500000Y-83600000D03*
X187500000Y-40000000D03*
X171000000Y-36300000D03*
D20*
X177054000Y-78994000D03*
D21*
X178900000Y-52800000D03*
X190000000Y-65000000D03*
X176700000Y-70700000D03*
X172678000Y-59049000D03*
X190000000Y-97500000D03*
X172398092Y-55194524D03*
X186602000Y-81732000D03*
X190000000Y-107500000D03*
X185300000Y-78700000D03*
X185400000Y-92300000D03*
X175240000Y-57910000D03*
X178900000Y-48400000D03*
X168862000Y-60270000D03*
D20*
X176530000Y-76708000D03*
D21*
X169680000Y-62351000D03*
X175006000Y-42926000D03*
X167350000Y-57690000D03*
D20*
X181102000Y-55880000D03*
X169500000Y-58468000D03*
D21*
X179900000Y-72800000D03*
X171000000Y-96000000D03*
X167350000Y-52610000D03*
D20*
X178054000Y-48514000D03*
X178112050Y-42887950D03*
D21*
X167350000Y-50070000D03*
X180000000Y-47500000D03*
X175000000Y-102000000D03*
X182667000Y-50510000D03*
X183000000Y-85000000D03*
X182500000Y-42500000D03*
X173600000Y-83940000D03*
X188600000Y-70900000D03*
X190000000Y-55000000D03*
X170000000Y-72000000D03*
X178000000Y-81800000D03*
D20*
X178086000Y-83400000D03*
D21*
X186000000Y-63000000D03*
X190000000Y-67500000D03*
D20*
X185400000Y-46900000D03*
D21*
X175800000Y-39700000D03*
X178000000Y-72400000D03*
X190000000Y-95000000D03*
X190000000Y-92500000D03*
X177100000Y-37000000D03*
X172385154Y-56596099D03*
X185100000Y-88200000D03*
X170000000Y-69000000D03*
X167350000Y-41180000D03*
X186197000Y-71388000D03*
X172381556Y-52397056D03*
X179000000Y-95000000D03*
X176589878Y-56604724D03*
X187500000Y-42500000D03*
X190000000Y-62500000D03*
X180000000Y-46000000D03*
X184000000Y-38000000D03*
X188000000Y-59000000D03*
X167350000Y-42450000D03*
X182667000Y-48400000D03*
D20*
X174498000Y-63942000D03*
D21*
X168850000Y-59050000D03*
X181000000Y-44000000D03*
X181720000Y-48400000D03*
X182000000Y-104000000D03*
X168880000Y-61490000D03*
X182500000Y-45000000D03*
X173795354Y-56565911D03*
X177150000Y-60030000D03*
X178900000Y-51690000D03*
X175192616Y-56583161D03*
X172678000Y-62351000D03*
X190000000Y-105000000D03*
X186000000Y-60000000D03*
D20*
X168510000Y-51924000D03*
D21*
X173800000Y-79400000D03*
X187008000Y-85886000D03*
X190000000Y-90000000D03*
D20*
X173000000Y-48000000D03*
X179070000Y-64262000D03*
D21*
X175162428Y-55164336D03*
X174000000Y-76000000D03*
X167350000Y-36100000D03*
X168868000Y-62351000D03*
X170000000Y-78000000D03*
X176200000Y-61900000D03*
X171000000Y-86000000D03*
D20*
X180783500Y-50600000D03*
D21*
X185000000Y-74000000D03*
X182667000Y-51560000D03*
X180740000Y-48390000D03*
X170000000Y-104000000D03*
D20*
X179200000Y-62650000D03*
D21*
X180000000Y-40000000D03*
D20*
X176276000Y-69794000D03*
D21*
X172678000Y-61470000D03*
X171490000Y-62351000D03*
X171000000Y-83000000D03*
D20*
X171200000Y-79000000D03*
D21*
X184000000Y-44000000D03*
D20*
X179098000Y-65278000D03*
D21*
X170000000Y-88000000D03*
X181480000Y-52800000D03*
D20*
X171314721Y-39678000D03*
D21*
X179000000Y-87000000D03*
X180000000Y-42500000D03*
D20*
X183890000Y-77480000D03*
D21*
X175200000Y-53800000D03*
X186400000Y-67300000D03*
X167350000Y-37370000D03*
X173765166Y-55164336D03*
X171600000Y-61250000D03*
X178900000Y-49600000D03*
X190000000Y-100000000D03*
X185000000Y-45000000D03*
X185600000Y-38800000D03*
X167350000Y-38640000D03*
X170000000Y-85000000D03*
X185586000Y-81732000D03*
D20*
%TO.N,Net-(BT1-+)*%
X184738000Y-57404000D03*
X186600000Y-49874000D03*
X188468000Y-49276000D03*
X184658000Y-59690000D03*
D21*
%TO.N,Net-(D2-A)*%
X183300000Y-92900000D03*
X183300000Y-95100000D03*
%TO.N,motion*%
X177000000Y-80100000D03*
X172244000Y-51054000D03*
%TO.N,Net-(J10-Pin_1)*%
X178364000Y-73660000D03*
X182100000Y-69596000D03*
%TO.N,Net-(U9-IN2B)*%
X181973999Y-68952002D03*
X179324000Y-73660000D03*
%TO.N,color_int*%
X170928331Y-62726000D03*
X171056500Y-54741500D03*
%TO.N,Net-(U6-IN2)*%
X173482000Y-65024000D03*
X174879000Y-68961000D03*
%TO.N,Net-(J9-Pin_1)*%
X180848000Y-76169500D03*
X180230000Y-71530000D03*
%TO.N,Net-(J8-Pin_1)*%
X182880000Y-72898000D03*
X182880000Y-70612000D03*
%TO.N,sai1_ck1*%
X172720000Y-44450000D03*
X174331000Y-44582900D03*
%TO.N,sai1_d1*%
X177546000Y-57658000D03*
X175681000Y-44582900D03*
%TO.N,Net-(JP1-B)*%
X175744000Y-51054000D03*
X175768000Y-49022000D03*
X175006000Y-47244000D03*
%TO.N,water2*%
X177931500Y-52241500D03*
X177200000Y-60950000D03*
%TO.N,scl*%
X181800000Y-66200000D03*
X175244000Y-51054000D03*
X179324000Y-60960000D03*
X181940000Y-77660000D03*
X173228000Y-39624000D03*
X177292000Y-45212000D03*
%TO.N,sda*%
X179070000Y-60452000D03*
X182700000Y-77500000D03*
X176190868Y-47837132D03*
X183600000Y-81700000D03*
X174744000Y-50292000D03*
X173228000Y-42164000D03*
X180594000Y-61214000D03*
X180340000Y-66040000D03*
%TO.N,led*%
X171056500Y-52741500D03*
X172720000Y-37592000D03*
%TO.N,Net-(J11-Pin_1)*%
X175710000Y-73190000D03*
X182300000Y-68451999D03*
%TO.N,Net-(U9-IN3B)*%
X181973999Y-67952001D03*
X176100000Y-73700000D03*
%TO.N,dist_shut*%
X177800000Y-58166000D03*
X173244000Y-51054000D03*
%TO.N,dist_int*%
X172744000Y-51054000D03*
X178308000Y-58420000D03*
%TO.N,hp1*%
X170300000Y-54200000D03*
X168500000Y-68500000D03*
X168500000Y-63100000D03*
%TO.N,hp2*%
X173244000Y-57929000D03*
X167900000Y-67000000D03*
%TO.N,hp3*%
X172200000Y-63400000D03*
X167700000Y-67900000D03*
X173744000Y-57929000D03*
%TO.N,hp4*%
X172600000Y-63800000D03*
X167420200Y-68800000D03*
%TO.N,relay*%
X171056500Y-53741500D03*
X180800000Y-80600000D03*
%TO.N,/~{reset}*%
X171958000Y-40640000D03*
X172466000Y-44958000D03*
%TO.N,cap_int*%
X180300000Y-53350000D03*
X178650000Y-66150000D03*
%TO.N,cap_shut*%
X179850000Y-53850000D03*
X177546000Y-65532000D03*
%TO.N,Net-(U9-IN1B)*%
X180900000Y-73900000D03*
X180848000Y-71374000D03*
%TO.N,button*%
X170000000Y-51000000D03*
X169500000Y-47000000D03*
%TO.N,Net-(U2-VLXSMPS)*%
X175768000Y-60518000D03*
X175768000Y-58420000D03*
%TO.N,Net-(J4-SWDIO)*%
X177931500Y-56241500D03*
X169418000Y-44150000D03*
%TO.N,Net-(J4-SWCLK)*%
X169490000Y-41830000D03*
X177931500Y-55241500D03*
%TO.N,mag*%
X180800000Y-60100000D03*
X180100000Y-54800000D03*
%TO.N,Net-(J4-SWO)*%
X177931500Y-54241500D03*
X169928000Y-40052702D03*
%TO.N,water1*%
X177850000Y-61150000D03*
X177931500Y-52741500D03*
X179000000Y-54150000D03*
%TO.N,Net-(Q1-G)*%
X188890000Y-45500000D03*
X186900000Y-47800000D03*
%TD*%
%TO.N,GND*%
D22*
X180248001Y-69751999D02*
X181123998Y-68876002D01*
X180074001Y-69751999D02*
X180248001Y-69751999D01*
X169500000Y-57798000D02*
X171056500Y-56241500D01*
X179023998Y-68348448D02*
X179720447Y-67651999D01*
X179023998Y-68701999D02*
X179023998Y-68348448D01*
X169500000Y-58468000D02*
X169500000Y-57798000D01*
X179720447Y-67651999D02*
X180074001Y-67651999D01*
X181123998Y-68876002D02*
X181123998Y-68701999D01*
%TO.N,Net-(BT1-+)*%
X187198000Y-49276000D02*
X186600000Y-49874000D01*
X188468000Y-49276000D02*
X187198000Y-49276000D01*
X184738000Y-57404000D02*
X184738000Y-57716695D01*
X184738000Y-57716695D02*
X184658000Y-57796695D01*
X184658000Y-57796695D02*
X184658000Y-59690000D01*
%TO.N,Net-(D2-A)*%
D23*
X183300000Y-95100000D02*
X183300000Y-92900000D01*
%TO.N,motion*%
X175554000Y-69266000D02*
X175560000Y-69260000D01*
X171500000Y-51798000D02*
X172244000Y-51054000D01*
X175560000Y-61310000D02*
X176700000Y-60170000D01*
X175335000Y-69819264D02*
X175554000Y-69600264D01*
X177000000Y-80100000D02*
X175300000Y-78400000D01*
X175300000Y-78400000D02*
X175300000Y-72999669D01*
X175335000Y-73034669D02*
X175335000Y-69819264D01*
X176700000Y-58700000D02*
X171500000Y-53500000D01*
X175300000Y-72999669D02*
X175335000Y-73034669D01*
X175554000Y-69600264D02*
X175554000Y-69266000D01*
X175560000Y-69260000D02*
X175560000Y-61310000D01*
X176700000Y-60170000D02*
X176700000Y-58700000D01*
X171500000Y-53500000D02*
X171500000Y-51798000D01*
%TO.N,Net-(J10-Pin_1)*%
X180384661Y-70501998D02*
X180824000Y-70062659D01*
X182025000Y-69671000D02*
X182100000Y-69596000D01*
X180824000Y-69846736D02*
X180999736Y-69671000D01*
X180824000Y-70062659D02*
X180824000Y-69846736D01*
X178800000Y-71700000D02*
X179998002Y-70501998D01*
X178800000Y-73224000D02*
X178800000Y-71700000D01*
X180999736Y-69671000D02*
X182025000Y-69671000D01*
X178364000Y-73660000D02*
X178800000Y-73224000D01*
X179998002Y-70501998D02*
X180384661Y-70501998D01*
%TO.N,Net-(U9-IN2B)*%
X180122266Y-70801998D02*
X180508925Y-70801998D01*
X182527331Y-69971000D02*
X182747000Y-69751331D01*
X181973999Y-68955999D02*
X181973999Y-68952002D01*
X181124000Y-69971000D02*
X182527331Y-69971000D01*
X182747000Y-69751331D02*
X182747000Y-69440669D01*
X182239000Y-69221000D02*
X181973999Y-68955999D01*
X181124000Y-70186923D02*
X181124000Y-69971000D01*
X179324000Y-71600264D02*
X179832000Y-71092264D01*
X182747000Y-69440669D02*
X182527331Y-69221000D01*
X180508925Y-70801998D02*
X181124000Y-70186923D01*
X182527331Y-69221000D02*
X182239000Y-69221000D01*
X179832000Y-71092264D02*
X180122266Y-70801998D01*
X179324000Y-73660000D02*
X179324000Y-71600264D01*
%TO.N,color_int*%
X170875000Y-58894669D02*
X170928331Y-58841338D01*
X170928331Y-62726000D02*
X170928331Y-59258662D01*
X171056500Y-54880764D02*
X171056500Y-54741500D01*
X170928331Y-57006066D02*
X171506500Y-56427897D01*
X171506500Y-56427897D02*
X171506500Y-55330764D01*
X170875000Y-59205331D02*
X170875000Y-58894669D01*
X170928331Y-59258662D02*
X170875000Y-59205331D01*
X170928331Y-58841338D02*
X170928331Y-57006066D01*
X171506500Y-55330764D02*
X171056500Y-54880764D01*
%TO.N,Net-(U6-IN2)*%
X174879000Y-68961000D02*
X173482000Y-67564000D01*
X173482000Y-67564000D02*
X173482000Y-65024000D01*
%TO.N,Net-(J9-Pin_1)*%
X180458118Y-73651882D02*
X180458118Y-71758118D01*
X180848000Y-76169500D02*
X180338000Y-75659500D01*
X180338000Y-73772000D02*
X180458118Y-73651882D01*
X180458118Y-71758118D02*
X180230000Y-71530000D01*
X180338000Y-75659500D02*
X180338000Y-73772000D01*
%TO.N,Net-(J8-Pin_1)*%
X182880000Y-70612000D02*
X182880000Y-72898000D01*
%TO.N,sai1_ck1*%
X174198100Y-44450000D02*
X174331000Y-44582900D01*
X172720000Y-44450000D02*
X174198100Y-44450000D01*
%TO.N,sai1_d1*%
X177550000Y-46451900D02*
X175681000Y-44582900D01*
X178306500Y-56897500D02*
X178306500Y-54086169D01*
X177550000Y-53511472D02*
X177550000Y-46451900D01*
X177546000Y-57658000D02*
X178306500Y-56897500D01*
X178306500Y-54086169D02*
X178086831Y-53866500D01*
X178086831Y-53866500D02*
X177905028Y-53866500D01*
X177905028Y-53866500D02*
X177550000Y-53511472D01*
%TO.N,Net-(JP1-B)*%
X175768000Y-51030000D02*
X175744000Y-51054000D01*
X175768000Y-49022000D02*
X175768000Y-51030000D01*
X175006000Y-48260000D02*
X175006000Y-47244000D01*
X175768000Y-49022000D02*
X175006000Y-48260000D01*
%TO.N,water2*%
X177550000Y-59950000D02*
X178724000Y-58776000D01*
X177961831Y-52241500D02*
X177931500Y-52241500D01*
X178724000Y-58776000D02*
X178724000Y-54688264D01*
X177550000Y-60750000D02*
X177550000Y-59950000D01*
X177200000Y-60950000D02*
X177350000Y-60950000D01*
X178606500Y-53106500D02*
X178306500Y-52806500D01*
X178606500Y-54570764D02*
X178606500Y-53106500D01*
X178306500Y-52586169D02*
X177961831Y-52241500D01*
X178306500Y-52806500D02*
X178306500Y-52586169D01*
X177350000Y-60950000D02*
X177550000Y-60750000D01*
X178724000Y-54688264D02*
X178606500Y-54570764D01*
%TO.N,scl*%
X183800000Y-75800000D02*
X183800000Y-68045405D01*
X183800000Y-68045405D02*
X181954595Y-66200000D01*
X181940000Y-77660000D02*
X183800000Y-75800000D01*
X173555347Y-42852652D02*
X173603000Y-42804999D01*
X173603000Y-39999000D02*
X173228000Y-39624000D01*
X181954595Y-66200000D02*
X181800000Y-66200000D01*
X173603000Y-42804999D02*
X173603000Y-39999000D01*
X174910595Y-44207900D02*
X173555347Y-42852652D01*
X177292000Y-45212000D02*
X176287900Y-44207900D01*
X176287900Y-44207900D02*
X174910595Y-44207900D01*
%TO.N,sda*%
X184100000Y-67600000D02*
X182286000Y-65786000D01*
X182700000Y-77500000D02*
X184100000Y-76100000D01*
X183600000Y-81700000D02*
X183600000Y-78400000D01*
X180594000Y-65786000D02*
X180594000Y-61214000D01*
X176190868Y-47837132D02*
X176190868Y-45912437D01*
X180340000Y-66040000D02*
X180594000Y-65786000D01*
X182286000Y-65786000D02*
X180594000Y-65786000D01*
X183600000Y-78400000D02*
X182700000Y-77500000D01*
X176190868Y-45912437D02*
X173228000Y-42949569D01*
X184100000Y-76100000D02*
X184100000Y-67600000D01*
X173228000Y-42949569D02*
X173228000Y-42164000D01*
%TO.N,led*%
X169043000Y-40007000D02*
X169043000Y-50728000D01*
X169043000Y-50728000D02*
X171056500Y-52741500D01*
X168876700Y-39840700D02*
X168876700Y-38278576D01*
X168876700Y-38278576D02*
X169563276Y-37592000D01*
X169043000Y-40007000D02*
X168876700Y-39840700D01*
X169563276Y-37592000D02*
X172720000Y-37592000D01*
%TO.N,Net-(J11-Pin_1)*%
X179834397Y-69302000D02*
X177168198Y-71968198D01*
X175710000Y-74010000D02*
X175710000Y-73190000D01*
X179898000Y-69302000D02*
X179834397Y-69302000D01*
X177168198Y-73162133D02*
X176255331Y-74075000D01*
X181310394Y-68252000D02*
X180848000Y-68252000D01*
X180524000Y-68888395D02*
X180412395Y-69000000D01*
X180412395Y-69000000D02*
X180260397Y-69151998D01*
X180524000Y-68576000D02*
X180524000Y-68888395D01*
X177168198Y-71968198D02*
X177168198Y-73162133D01*
X180260397Y-69151998D02*
X180048002Y-69151998D01*
X176255331Y-74075000D02*
X175775000Y-74075000D01*
X181510393Y-68451999D02*
X181310394Y-68252000D01*
X180048002Y-69151998D02*
X179898000Y-69302000D01*
X175775000Y-74075000D02*
X175710000Y-74010000D01*
X182300000Y-68451999D02*
X181510393Y-68451999D01*
X180848000Y-68252000D02*
X180524000Y-68576000D01*
%TO.N,Net-(U9-IN3B)*%
X179624002Y-68515603D02*
X179624002Y-69075998D01*
X179887605Y-68252000D02*
X179624002Y-68515603D01*
X176100000Y-73700000D02*
X176800000Y-73000000D01*
X179624002Y-69075998D02*
X176800000Y-71900000D01*
X176800000Y-73000000D02*
X176800000Y-71900000D01*
X181973999Y-67952001D02*
X180560396Y-67952001D01*
X180560396Y-67952001D02*
X180260397Y-68252000D01*
X180260397Y-68252000D02*
X179887605Y-68252000D01*
%TO.N,dist_shut*%
X177390669Y-58033000D02*
X177171000Y-57813331D01*
X177171000Y-57813331D02*
X177171000Y-56642577D01*
X177800000Y-58166000D02*
X177667000Y-58033000D01*
X173388669Y-52860246D02*
X173388669Y-51198669D01*
X177171000Y-56642577D02*
X173388669Y-52860246D01*
X177667000Y-58033000D02*
X177390669Y-58033000D01*
X173388669Y-51198669D02*
X173244000Y-51054000D01*
%TO.N,dist_int*%
X172713669Y-51054000D02*
X173088669Y-51429000D01*
X173088669Y-53938669D02*
X175900000Y-56750000D01*
X177266405Y-58333000D02*
X177436669Y-58333000D01*
X175900000Y-56966595D02*
X177266405Y-58333000D01*
X177436669Y-58333000D02*
X177644669Y-58541000D01*
X175900000Y-56750000D02*
X175900000Y-56966595D01*
X172744000Y-51054000D02*
X172713669Y-51054000D01*
X173088669Y-51429000D02*
X173088669Y-53938669D01*
X178187000Y-58541000D02*
X178308000Y-58420000D01*
X177644669Y-58541000D02*
X178187000Y-58541000D01*
%TO.N,hp1*%
X173237000Y-103700000D02*
X168500000Y-98963000D01*
X168100000Y-54200000D02*
X168563603Y-54200000D01*
X168813603Y-54450000D02*
X169186397Y-54450000D01*
X169436397Y-54200000D02*
X170300000Y-54200000D01*
X168500000Y-98963000D02*
X168500000Y-68500000D01*
X168563603Y-54200000D02*
X168813603Y-54450000D01*
X177560000Y-105900000D02*
X175360000Y-103700000D01*
X175360000Y-103700000D02*
X173237000Y-103700000D01*
X168100000Y-62700000D02*
X168100000Y-54200000D01*
X168500000Y-63100000D02*
X168100000Y-62700000D01*
X169186397Y-54450000D02*
X169436397Y-54200000D01*
%TO.N,hp2*%
X167900000Y-67000000D02*
X172174000Y-62726000D01*
X173244000Y-62315331D02*
X173244000Y-57929000D01*
X172833331Y-62726000D02*
X173244000Y-62315331D01*
X172174000Y-62726000D02*
X172833331Y-62726000D01*
%TO.N,hp3*%
X172200000Y-63400000D02*
X167700000Y-67900000D01*
%TO.N,hp4*%
X171400000Y-65000000D02*
X172600000Y-63800000D01*
X171220200Y-65000000D02*
X171400000Y-65000000D01*
X167420200Y-68800000D02*
X171220200Y-65000000D01*
%TO.N,relay*%
X171431500Y-54831500D02*
X175254000Y-58654000D01*
X175254000Y-58654000D02*
X175254000Y-69476000D01*
X174954000Y-69776000D02*
X174954000Y-78584331D01*
X171056500Y-53741500D02*
X171431500Y-54116500D01*
X176969669Y-80600000D02*
X180800000Y-80600000D01*
X175254000Y-69476000D02*
X174954000Y-69776000D01*
X174954000Y-78584331D02*
X176969669Y-80600000D01*
X171431500Y-54116500D02*
X171431500Y-54831500D01*
%TO.N,/~{reset}*%
X171958000Y-41402000D02*
X172212000Y-41656000D01*
X171958000Y-40640000D02*
X171958000Y-41402000D01*
X172212000Y-41656000D02*
X172212000Y-44704000D01*
X172212000Y-44704000D02*
X172466000Y-44958000D01*
%TO.N,cap_int*%
X178683000Y-62871000D02*
X178000000Y-63554000D01*
X178000000Y-65500000D02*
X178650000Y-66150000D01*
X179700000Y-59200000D02*
X178683000Y-60217000D01*
X180450000Y-53500000D02*
X180450000Y-53800000D01*
X178000000Y-63554000D02*
X178000000Y-65500000D01*
X179700000Y-54550000D02*
X179700000Y-59200000D01*
X178683000Y-60217000D02*
X178683000Y-62871000D01*
X180300000Y-53350000D02*
X180450000Y-53500000D01*
X180450000Y-53800000D02*
X179700000Y-54550000D01*
%TO.N,cap_shut*%
X177292000Y-65278000D02*
X177292000Y-63731669D01*
X179400000Y-54300000D02*
X179850000Y-53850000D01*
X178285669Y-62738000D02*
X178383000Y-62738000D01*
X177292000Y-63731669D02*
X178285669Y-62738000D01*
X178383000Y-60092736D02*
X179400000Y-59075736D01*
X178383000Y-62738000D02*
X178383000Y-60092736D01*
X177546000Y-65532000D02*
X177292000Y-65278000D01*
X179400000Y-59075736D02*
X179400000Y-54300000D01*
%TO.N,Net-(U9-IN1B)*%
X180900000Y-73900000D02*
X180900000Y-71426000D01*
X180900000Y-71426000D02*
X180848000Y-71374000D01*
%TO.N,button*%
X170000000Y-47500000D02*
X169500000Y-47000000D01*
X170000000Y-51000000D02*
X170000000Y-47500000D01*
%TO.N,Net-(J4-SWDIO)*%
X169418000Y-44150000D02*
X169418000Y-44704000D01*
X177785669Y-55626000D02*
X177800000Y-55626000D01*
X177256500Y-55096831D02*
X177785669Y-55626000D01*
X177256500Y-54490764D02*
X177256500Y-55096831D01*
X169418000Y-44704000D02*
X170688000Y-45974000D01*
X177800000Y-56110000D02*
X177931500Y-56241500D01*
X177800000Y-55626000D02*
X177800000Y-56110000D01*
X170688000Y-45974000D02*
X170688000Y-47922264D01*
X170688000Y-47922264D02*
X177256500Y-54490764D01*
%TO.N,Net-(J4-SWCLK)*%
X177556500Y-54366500D02*
X177556500Y-54866500D01*
X169793000Y-43458276D02*
X169793000Y-44654736D01*
X169490000Y-41830000D02*
X169490000Y-43155276D01*
X177556500Y-54866500D02*
X177931500Y-55241500D01*
X170988000Y-45849736D02*
X170988000Y-47798000D01*
X169793000Y-44654736D02*
X170988000Y-45849736D01*
X170988000Y-47798000D02*
X177556500Y-54366500D01*
X169490000Y-43155276D02*
X169793000Y-43458276D01*
%TO.N,mag*%
X180100000Y-54800000D02*
X180050000Y-54850000D01*
X180050000Y-59350000D02*
X180800000Y-60100000D01*
X180050000Y-54850000D02*
X180050000Y-59350000D01*
%TO.N,Net-(J4-SWO)*%
X171970000Y-44886264D02*
X171912000Y-44828264D01*
X171912000Y-44828264D02*
X171912000Y-41886331D01*
X171450000Y-41424331D02*
X171450000Y-41000000D01*
X170875298Y-41000000D02*
X169928000Y-40052702D01*
X171912000Y-41886331D02*
X171450000Y-41424331D01*
X177855764Y-54241500D02*
X171970000Y-48355736D01*
X177931500Y-54241500D02*
X177855764Y-54241500D01*
X171450000Y-41000000D02*
X170875298Y-41000000D01*
X171970000Y-48355736D02*
X171970000Y-44886264D01*
%TO.N,water1*%
X179024000Y-58900264D02*
X179024000Y-54174000D01*
X179024000Y-54174000D02*
X179000000Y-54150000D01*
X177850000Y-61150000D02*
X177850000Y-60074264D01*
X177850000Y-60074264D02*
X179024000Y-58900264D01*
%TO.N,Net-(Q1-G)*%
X188890000Y-45810000D02*
X188890000Y-45500000D01*
X186900000Y-47800000D02*
X188890000Y-45810000D01*
%TD*%
%TA.AperFunction,Conductor*%
%TO.N,GND*%
G36*
X190267539Y-35019685D02*
G01*
X190313294Y-35072489D01*
X190324500Y-35124000D01*
X190324500Y-36429744D01*
X190304815Y-36496783D01*
X190252011Y-36542538D01*
X190182853Y-36552482D01*
X190119297Y-36523457D01*
X190100182Y-36502629D01*
X190044247Y-36425641D01*
X190044243Y-36425636D01*
X189888363Y-36269756D01*
X189888358Y-36269752D01*
X189710025Y-36140187D01*
X189710024Y-36140186D01*
X189710022Y-36140185D01*
X189647096Y-36108122D01*
X189513606Y-36040104D01*
X189513603Y-36040103D01*
X189303952Y-35971985D01*
X189195086Y-35954742D01*
X189086222Y-35937500D01*
X188865778Y-35937500D01*
X188793201Y-35948995D01*
X188648047Y-35971985D01*
X188438396Y-36040103D01*
X188438393Y-36040104D01*
X188241974Y-36140187D01*
X188063641Y-36269752D01*
X188063636Y-36269756D01*
X187907756Y-36425636D01*
X187907752Y-36425641D01*
X187778187Y-36603974D01*
X187678104Y-36800393D01*
X187678103Y-36800396D01*
X187609985Y-37010047D01*
X187575500Y-37227778D01*
X187575500Y-37448221D01*
X187609985Y-37665952D01*
X187678103Y-37875603D01*
X187678104Y-37875606D01*
X187744259Y-38005439D01*
X187773773Y-38063364D01*
X187778187Y-38072025D01*
X187907752Y-38250358D01*
X187907756Y-38250363D01*
X188063636Y-38406243D01*
X188063641Y-38406247D01*
X188219192Y-38519260D01*
X188241978Y-38535815D01*
X188370375Y-38601237D01*
X188438393Y-38635895D01*
X188438396Y-38635896D01*
X188543221Y-38669955D01*
X188648049Y-38704015D01*
X188865778Y-38738500D01*
X188865779Y-38738500D01*
X189086221Y-38738500D01*
X189086222Y-38738500D01*
X189303951Y-38704015D01*
X189513606Y-38635895D01*
X189710022Y-38535815D01*
X189888365Y-38406242D01*
X190044242Y-38250365D01*
X190100181Y-38173370D01*
X190155511Y-38130704D01*
X190225124Y-38124725D01*
X190286919Y-38157330D01*
X190321277Y-38218168D01*
X190324500Y-38246255D01*
X190324500Y-107675535D01*
X190304815Y-107742574D01*
X190252011Y-107788329D01*
X190200500Y-107799535D01*
X172939882Y-107799500D01*
X172860118Y-107799500D01*
X172860116Y-107799500D01*
X172786425Y-107830024D01*
X172730024Y-107886425D01*
X172699500Y-107960116D01*
X172699500Y-108376000D01*
X172679815Y-108443039D01*
X172627011Y-108488794D01*
X172575500Y-108500000D01*
X167424500Y-108500000D01*
X167357461Y-108480315D01*
X167311706Y-108427511D01*
X167300500Y-108376000D01*
X167300500Y-107960116D01*
X167298118Y-107948142D01*
X167300412Y-107947685D01*
X167295700Y-107923866D01*
X167295700Y-105002155D01*
X171130000Y-105002155D01*
X171130000Y-105650000D01*
X172046988Y-105650000D01*
X172014075Y-105707007D01*
X171980000Y-105834174D01*
X171980000Y-105965826D01*
X172014075Y-106092993D01*
X172046988Y-106150000D01*
X171130000Y-106150000D01*
X171130000Y-106797844D01*
X171136401Y-106857372D01*
X171136403Y-106857379D01*
X171186645Y-106992086D01*
X171186649Y-106992093D01*
X171272809Y-107107187D01*
X171272812Y-107107190D01*
X171387906Y-107193350D01*
X171387913Y-107193354D01*
X171522620Y-107243596D01*
X171522627Y-107243598D01*
X171582155Y-107249999D01*
X171582172Y-107250000D01*
X172230000Y-107250000D01*
X172230000Y-106333012D01*
X172287007Y-106365925D01*
X172414174Y-106400000D01*
X172545826Y-106400000D01*
X172672993Y-106365925D01*
X172730000Y-106333012D01*
X172730000Y-107250000D01*
X173377828Y-107250000D01*
X173377844Y-107249999D01*
X173437372Y-107243598D01*
X173437379Y-107243596D01*
X173572086Y-107193354D01*
X173572093Y-107193350D01*
X173687187Y-107107190D01*
X173687190Y-107107187D01*
X173773350Y-106992093D01*
X173773354Y-106992086D01*
X173823596Y-106857379D01*
X173823598Y-106857372D01*
X173829999Y-106797844D01*
X173830000Y-106797827D01*
X173830000Y-106505050D01*
X173849685Y-106438011D01*
X173902489Y-106392256D01*
X173971647Y-106382312D01*
X174035203Y-106411337D01*
X174064485Y-106448756D01*
X174078766Y-106476786D01*
X174109357Y-106518890D01*
X174180586Y-106616928D01*
X174303072Y-106739414D01*
X174443212Y-106841232D01*
X174597555Y-106919873D01*
X174762299Y-106973402D01*
X174933389Y-107000500D01*
X174933390Y-107000500D01*
X175106610Y-107000500D01*
X175106611Y-107000500D01*
X175277701Y-106973402D01*
X175442445Y-106919873D01*
X175596788Y-106841232D01*
X175736928Y-106739414D01*
X175859414Y-106616928D01*
X175961232Y-106476788D01*
X176039873Y-106322445D01*
X176093402Y-106157701D01*
X176120500Y-105986611D01*
X176120500Y-105813389D01*
X176093402Y-105642299D01*
X176039873Y-105477555D01*
X175961232Y-105323212D01*
X175859414Y-105183072D01*
X175736928Y-105060586D01*
X175596788Y-104958768D01*
X175442445Y-104880127D01*
X175277701Y-104826598D01*
X175277699Y-104826597D01*
X175277698Y-104826597D01*
X175146271Y-104805781D01*
X175106611Y-104799500D01*
X174933389Y-104799500D01*
X174893728Y-104805781D01*
X174762302Y-104826597D01*
X174597552Y-104880128D01*
X174443211Y-104958768D01*
X174363256Y-105016859D01*
X174303072Y-105060586D01*
X174303070Y-105060588D01*
X174303069Y-105060588D01*
X174180588Y-105183069D01*
X174180588Y-105183070D01*
X174180586Y-105183072D01*
X174136859Y-105243256D01*
X174078768Y-105323211D01*
X174064485Y-105351244D01*
X174016510Y-105402040D01*
X173948689Y-105418835D01*
X173882554Y-105396297D01*
X173839103Y-105341582D01*
X173830000Y-105294949D01*
X173830000Y-105002172D01*
X173829999Y-105002155D01*
X173823598Y-104942627D01*
X173823596Y-104942620D01*
X173773354Y-104807913D01*
X173773350Y-104807906D01*
X173687190Y-104692812D01*
X173687187Y-104692809D01*
X173572093Y-104606649D01*
X173572086Y-104606645D01*
X173437379Y-104556403D01*
X173437372Y-104556401D01*
X173377844Y-104550000D01*
X172730000Y-104550000D01*
X172730000Y-105466988D01*
X172672993Y-105434075D01*
X172545826Y-105400000D01*
X172414174Y-105400000D01*
X172287007Y-105434075D01*
X172230000Y-105466988D01*
X172230000Y-104550000D01*
X171582155Y-104550000D01*
X171522627Y-104556401D01*
X171522620Y-104556403D01*
X171387913Y-104606645D01*
X171387906Y-104606649D01*
X171272812Y-104692809D01*
X171272809Y-104692812D01*
X171186649Y-104807906D01*
X171186645Y-104807913D01*
X171136403Y-104942620D01*
X171136401Y-104942627D01*
X171130000Y-105002155D01*
X167295700Y-105002155D01*
X167295700Y-69299500D01*
X167315385Y-69232461D01*
X167368189Y-69186706D01*
X167419700Y-69175500D01*
X167469632Y-69175500D01*
X167469635Y-69175500D01*
X167565138Y-69149910D01*
X167650762Y-69100475D01*
X167720675Y-69030562D01*
X167760808Y-68961047D01*
X167780508Y-68935372D01*
X167937821Y-68778059D01*
X167999142Y-68744577D01*
X168068834Y-68749561D01*
X168124767Y-68791433D01*
X168149184Y-68856897D01*
X168149500Y-68865743D01*
X168149500Y-99009143D01*
X168173386Y-99098287D01*
X168173387Y-99098290D01*
X168219527Y-99178208D01*
X168219529Y-99178211D01*
X168219530Y-99178212D01*
X173021788Y-103980470D01*
X173101712Y-104026614D01*
X173190856Y-104050500D01*
X173190857Y-104050500D01*
X173283144Y-104050500D01*
X175163456Y-104050500D01*
X175230495Y-104070185D01*
X175251137Y-104086819D01*
X176511347Y-105347029D01*
X176544832Y-105408352D01*
X176541597Y-105473028D01*
X176486597Y-105642301D01*
X176485378Y-105650000D01*
X176459500Y-105813389D01*
X176459500Y-105986611D01*
X176486598Y-106157701D01*
X176540127Y-106322445D01*
X176618768Y-106476788D01*
X176720586Y-106616928D01*
X176843072Y-106739414D01*
X176983212Y-106841232D01*
X177137555Y-106919873D01*
X177302299Y-106973402D01*
X177473389Y-107000500D01*
X177473390Y-107000500D01*
X177646610Y-107000500D01*
X177646611Y-107000500D01*
X177817701Y-106973402D01*
X177982445Y-106919873D01*
X178136788Y-106841232D01*
X178276928Y-106739414D01*
X178399414Y-106616928D01*
X178501232Y-106476788D01*
X178579873Y-106322445D01*
X178633402Y-106157701D01*
X178660500Y-105986611D01*
X178660500Y-105813389D01*
X178999500Y-105813389D01*
X178999500Y-105986611D01*
X179026598Y-106157701D01*
X179080127Y-106322445D01*
X179158768Y-106476788D01*
X179260586Y-106616928D01*
X179383072Y-106739414D01*
X179523212Y-106841232D01*
X179677555Y-106919873D01*
X179842299Y-106973402D01*
X180013389Y-107000500D01*
X180013390Y-107000500D01*
X180186610Y-107000500D01*
X180186611Y-107000500D01*
X180357701Y-106973402D01*
X180522445Y-106919873D01*
X180676788Y-106841232D01*
X180816928Y-106739414D01*
X180939414Y-106616928D01*
X181041232Y-106476788D01*
X181119873Y-106322445D01*
X181173402Y-106157701D01*
X181200500Y-105986611D01*
X181200500Y-105813389D01*
X181539500Y-105813389D01*
X181539500Y-105986611D01*
X181566598Y-106157701D01*
X181620127Y-106322445D01*
X181698768Y-106476788D01*
X181800586Y-106616928D01*
X181923072Y-106739414D01*
X182063212Y-106841232D01*
X182217555Y-106919873D01*
X182382299Y-106973402D01*
X182553389Y-107000500D01*
X182553390Y-107000500D01*
X182726610Y-107000500D01*
X182726611Y-107000500D01*
X182897701Y-106973402D01*
X183062445Y-106919873D01*
X183216788Y-106841232D01*
X183356928Y-106739414D01*
X183479414Y-106616928D01*
X183581232Y-106476788D01*
X183659873Y-106322445D01*
X183713402Y-106157701D01*
X183740500Y-105986611D01*
X183740500Y-105813389D01*
X184079500Y-105813389D01*
X184079500Y-105986611D01*
X184106598Y-106157701D01*
X184160127Y-106322445D01*
X184238768Y-106476788D01*
X184340586Y-106616928D01*
X184463072Y-106739414D01*
X184603212Y-106841232D01*
X184757555Y-106919873D01*
X184922299Y-106973402D01*
X185093389Y-107000500D01*
X185093390Y-107000500D01*
X185266610Y-107000500D01*
X185266611Y-107000500D01*
X185437701Y-106973402D01*
X185602445Y-106919873D01*
X185756788Y-106841232D01*
X185896928Y-106739414D01*
X186019414Y-106616928D01*
X186121232Y-106476788D01*
X186199873Y-106322445D01*
X186253402Y-106157701D01*
X186280500Y-105986611D01*
X186280500Y-105813389D01*
X186253402Y-105642299D01*
X186199873Y-105477555D01*
X186121232Y-105323212D01*
X186019414Y-105183072D01*
X185896928Y-105060586D01*
X185756788Y-104958768D01*
X185602445Y-104880127D01*
X185437701Y-104826598D01*
X185437699Y-104826597D01*
X185437698Y-104826597D01*
X185306271Y-104805781D01*
X185266611Y-104799500D01*
X185093389Y-104799500D01*
X185053728Y-104805781D01*
X184922302Y-104826597D01*
X184757552Y-104880128D01*
X184603211Y-104958768D01*
X184523256Y-105016859D01*
X184463072Y-105060586D01*
X184463070Y-105060588D01*
X184463069Y-105060588D01*
X184340588Y-105183069D01*
X184340588Y-105183070D01*
X184340586Y-105183072D01*
X184296859Y-105243256D01*
X184238768Y-105323211D01*
X184160128Y-105477552D01*
X184106597Y-105642302D01*
X184105378Y-105650000D01*
X184079500Y-105813389D01*
X183740500Y-105813389D01*
X183713402Y-105642299D01*
X183659873Y-105477555D01*
X183581232Y-105323212D01*
X183479414Y-105183072D01*
X183356928Y-105060586D01*
X183216788Y-104958768D01*
X183062445Y-104880127D01*
X182897701Y-104826598D01*
X182897699Y-104826597D01*
X182897698Y-104826597D01*
X182766271Y-104805781D01*
X182726611Y-104799500D01*
X182553389Y-104799500D01*
X182513728Y-104805781D01*
X182382302Y-104826597D01*
X182217552Y-104880128D01*
X182063211Y-104958768D01*
X181983256Y-105016859D01*
X181923072Y-105060586D01*
X181923070Y-105060588D01*
X181923069Y-105060588D01*
X181800588Y-105183069D01*
X181800588Y-105183070D01*
X181800586Y-105183072D01*
X181756859Y-105243256D01*
X181698768Y-105323211D01*
X181620128Y-105477552D01*
X181566597Y-105642302D01*
X181565378Y-105650000D01*
X181539500Y-105813389D01*
X181200500Y-105813389D01*
X181173402Y-105642299D01*
X181119873Y-105477555D01*
X181041232Y-105323212D01*
X180939414Y-105183072D01*
X180816928Y-105060586D01*
X180676788Y-104958768D01*
X180522445Y-104880127D01*
X180357701Y-104826598D01*
X180357699Y-104826597D01*
X180357698Y-104826597D01*
X180226271Y-104805781D01*
X180186611Y-104799500D01*
X180013389Y-104799500D01*
X179973728Y-104805781D01*
X179842302Y-104826597D01*
X179677552Y-104880128D01*
X179523211Y-104958768D01*
X179443256Y-105016859D01*
X179383072Y-105060586D01*
X179383070Y-105060588D01*
X179383069Y-105060588D01*
X179260588Y-105183069D01*
X179260588Y-105183070D01*
X179260586Y-105183072D01*
X179216859Y-105243256D01*
X179158768Y-105323211D01*
X179080128Y-105477552D01*
X179026597Y-105642302D01*
X179025378Y-105650000D01*
X178999500Y-105813389D01*
X178660500Y-105813389D01*
X178633402Y-105642299D01*
X178579873Y-105477555D01*
X178501232Y-105323212D01*
X178399414Y-105183072D01*
X178276928Y-105060586D01*
X178136788Y-104958768D01*
X177982445Y-104880127D01*
X177817701Y-104826598D01*
X177817699Y-104826597D01*
X177817698Y-104826597D01*
X177686271Y-104805781D01*
X177646611Y-104799500D01*
X177473389Y-104799500D01*
X177441192Y-104804599D01*
X177302301Y-104826597D01*
X177133028Y-104881597D01*
X177063186Y-104883592D01*
X177007029Y-104851347D01*
X175575213Y-103419531D01*
X175575208Y-103419527D01*
X175495290Y-103373387D01*
X175495289Y-103373386D01*
X175495288Y-103373386D01*
X175406144Y-103349500D01*
X175406143Y-103349500D01*
X173433544Y-103349500D01*
X173366505Y-103329815D01*
X173345863Y-103313181D01*
X171646363Y-101613681D01*
X171612878Y-101552358D01*
X171617862Y-101482666D01*
X171659734Y-101426733D01*
X171725198Y-101402316D01*
X171734044Y-101402000D01*
X172416176Y-101402000D01*
X172416177Y-101401999D01*
X172489240Y-101387466D01*
X172572101Y-101332101D01*
X172627466Y-101249240D01*
X172642000Y-101176174D01*
X172642000Y-100588841D01*
X175917999Y-100588841D01*
X175952662Y-100763098D01*
X175952665Y-100763108D01*
X176020654Y-100927250D01*
X176020661Y-100927263D01*
X176119370Y-101074990D01*
X176119373Y-101074994D01*
X176245005Y-101200626D01*
X176245009Y-101200629D01*
X176392736Y-101299338D01*
X176392749Y-101299345D01*
X176556891Y-101367334D01*
X176556896Y-101367336D01*
X176556900Y-101367336D01*
X176556901Y-101367337D01*
X176731158Y-101402000D01*
X176731161Y-101402000D01*
X176908841Y-101402000D01*
X177026077Y-101378679D01*
X177083104Y-101367336D01*
X177247257Y-101299342D01*
X177394991Y-101200629D01*
X177520629Y-101074991D01*
X177619342Y-100927257D01*
X177687336Y-100763104D01*
X177714072Y-100628694D01*
X177722000Y-100588841D01*
X180997999Y-100588841D01*
X181032662Y-100763098D01*
X181032665Y-100763108D01*
X181100654Y-100927250D01*
X181100661Y-100927263D01*
X181199370Y-101074990D01*
X181199373Y-101074994D01*
X181325005Y-101200626D01*
X181325009Y-101200629D01*
X181472736Y-101299338D01*
X181472749Y-101299345D01*
X181636891Y-101367334D01*
X181636896Y-101367336D01*
X181636900Y-101367336D01*
X181636901Y-101367337D01*
X181811158Y-101402000D01*
X181811161Y-101402000D01*
X181988841Y-101402000D01*
X182106077Y-101378679D01*
X182163104Y-101367336D01*
X182327257Y-101299342D01*
X182474991Y-101200629D01*
X182600629Y-101074991D01*
X182699342Y-100927257D01*
X182767336Y-100763104D01*
X182794072Y-100628694D01*
X182802000Y-100588841D01*
X186077999Y-100588841D01*
X186112662Y-100763098D01*
X186112665Y-100763108D01*
X186180654Y-100927250D01*
X186180661Y-100927263D01*
X186279370Y-101074990D01*
X186279373Y-101074994D01*
X186405005Y-101200626D01*
X186405009Y-101200629D01*
X186552736Y-101299338D01*
X186552749Y-101299345D01*
X186716891Y-101367334D01*
X186716896Y-101367336D01*
X186716900Y-101367336D01*
X186716901Y-101367337D01*
X186891158Y-101402000D01*
X186891161Y-101402000D01*
X187068841Y-101402000D01*
X187186077Y-101378679D01*
X187243104Y-101367336D01*
X187407257Y-101299342D01*
X187554991Y-101200629D01*
X187680629Y-101074991D01*
X187779342Y-100927257D01*
X187847336Y-100763104D01*
X187874072Y-100628694D01*
X187882000Y-100588841D01*
X187882000Y-100411158D01*
X187847337Y-100236901D01*
X187847336Y-100236900D01*
X187847336Y-100236896D01*
X187847334Y-100236891D01*
X187779345Y-100072749D01*
X187779338Y-100072736D01*
X187680629Y-99925009D01*
X187680626Y-99925005D01*
X187554994Y-99799373D01*
X187554990Y-99799370D01*
X187407263Y-99700661D01*
X187407250Y-99700654D01*
X187243108Y-99632665D01*
X187243098Y-99632662D01*
X187068841Y-99598000D01*
X187068839Y-99598000D01*
X186891161Y-99598000D01*
X186891159Y-99598000D01*
X186716901Y-99632662D01*
X186716891Y-99632665D01*
X186552749Y-99700654D01*
X186552736Y-99700661D01*
X186405009Y-99799370D01*
X186405005Y-99799373D01*
X186279373Y-99925005D01*
X186279370Y-99925009D01*
X186180661Y-100072736D01*
X186180654Y-100072749D01*
X186112665Y-100236891D01*
X186112662Y-100236901D01*
X186078000Y-100411158D01*
X186078000Y-100411161D01*
X186078000Y-100588839D01*
X186078000Y-100588841D01*
X186077999Y-100588841D01*
X182802000Y-100588841D01*
X182802000Y-100411158D01*
X182767337Y-100236901D01*
X182767336Y-100236900D01*
X182767336Y-100236896D01*
X182767334Y-100236891D01*
X182699345Y-100072749D01*
X182699338Y-100072736D01*
X182600629Y-99925009D01*
X182600626Y-99925005D01*
X182474994Y-99799373D01*
X182474990Y-99799370D01*
X182327263Y-99700661D01*
X182327250Y-99700654D01*
X182163108Y-99632665D01*
X182163098Y-99632662D01*
X181988841Y-99598000D01*
X181988839Y-99598000D01*
X181811161Y-99598000D01*
X181811159Y-99598000D01*
X181636901Y-99632662D01*
X181636891Y-99632665D01*
X181472749Y-99700654D01*
X181472736Y-99700661D01*
X181325009Y-99799370D01*
X181325005Y-99799373D01*
X181199373Y-99925005D01*
X181199370Y-99925009D01*
X181100661Y-100072736D01*
X181100654Y-100072749D01*
X181032665Y-100236891D01*
X181032662Y-100236901D01*
X180998000Y-100411158D01*
X180998000Y-100411161D01*
X180998000Y-100588839D01*
X180998000Y-100588841D01*
X180997999Y-100588841D01*
X177722000Y-100588841D01*
X177722000Y-100411158D01*
X177687337Y-100236901D01*
X177687336Y-100236900D01*
X177687336Y-100236896D01*
X177687334Y-100236891D01*
X177619345Y-100072749D01*
X177619338Y-100072736D01*
X177520629Y-99925009D01*
X177520626Y-99925005D01*
X177394994Y-99799373D01*
X177394990Y-99799370D01*
X177247263Y-99700661D01*
X177247250Y-99700654D01*
X177083108Y-99632665D01*
X177083098Y-99632662D01*
X176908841Y-99598000D01*
X176908839Y-99598000D01*
X176731161Y-99598000D01*
X176731159Y-99598000D01*
X176556901Y-99632662D01*
X176556891Y-99632665D01*
X176392749Y-99700654D01*
X176392736Y-99700661D01*
X176245009Y-99799370D01*
X176245005Y-99799373D01*
X176119373Y-99925005D01*
X176119370Y-99925009D01*
X176020661Y-100072736D01*
X176020654Y-100072749D01*
X175952665Y-100236891D01*
X175952662Y-100236901D01*
X175918000Y-100411158D01*
X175918000Y-100411161D01*
X175918000Y-100588839D01*
X175918000Y-100588841D01*
X175917999Y-100588841D01*
X172642000Y-100588841D01*
X172642000Y-99823826D01*
X172642000Y-99823823D01*
X172641999Y-99823821D01*
X172627467Y-99750764D01*
X172627466Y-99750760D01*
X172593989Y-99700658D01*
X172572101Y-99667899D01*
X172489240Y-99612534D01*
X172489239Y-99612533D01*
X172489235Y-99612532D01*
X172416177Y-99598000D01*
X172416174Y-99598000D01*
X171063826Y-99598000D01*
X171063823Y-99598000D01*
X170990764Y-99612532D01*
X170990760Y-99612533D01*
X170907899Y-99667899D01*
X170852533Y-99750760D01*
X170852532Y-99750764D01*
X170838000Y-99823821D01*
X170838000Y-100505956D01*
X170818315Y-100572995D01*
X170765511Y-100618750D01*
X170696353Y-100628694D01*
X170632797Y-100599669D01*
X170626319Y-100593637D01*
X168886819Y-98854137D01*
X168853334Y-98792814D01*
X168850500Y-98766456D01*
X168850500Y-92850565D01*
X182924500Y-92850565D01*
X182924500Y-92949435D01*
X182947635Y-93035777D01*
X182948682Y-93044845D01*
X182948084Y-93048310D01*
X182949500Y-93059061D01*
X182949500Y-94940938D01*
X182945274Y-94973031D01*
X182924500Y-95050565D01*
X182924500Y-95149435D01*
X182950090Y-95244938D01*
X182999525Y-95330562D01*
X183069438Y-95400475D01*
X183155062Y-95449910D01*
X183250565Y-95475500D01*
X183250567Y-95475500D01*
X183349432Y-95475500D01*
X183349435Y-95475500D01*
X183444938Y-95449910D01*
X183530562Y-95400475D01*
X183600475Y-95330562D01*
X183649910Y-95244938D01*
X183675500Y-95149435D01*
X183675500Y-95050565D01*
X183654725Y-94973031D01*
X183650500Y-94940938D01*
X183650500Y-93059061D01*
X183654725Y-93026968D01*
X183675500Y-92949435D01*
X183675500Y-92850565D01*
X183649910Y-92755062D01*
X183600475Y-92669438D01*
X183530562Y-92599525D01*
X183444938Y-92550090D01*
X183349435Y-92524500D01*
X183250565Y-92524500D01*
X183155062Y-92550090D01*
X183155060Y-92550091D01*
X183155059Y-92550091D01*
X183069436Y-92599526D01*
X182999526Y-92669436D01*
X182950091Y-92755059D01*
X182950091Y-92755060D01*
X182950090Y-92755062D01*
X182924500Y-92850565D01*
X168850500Y-92850565D01*
X168850500Y-91373426D01*
X170480125Y-91373426D01*
X170485571Y-91377383D01*
X170639277Y-91455701D01*
X170803352Y-91509013D01*
X170973738Y-91536000D01*
X171146262Y-91536000D01*
X171316647Y-91509013D01*
X171480722Y-91455701D01*
X171634423Y-91377385D01*
X171639872Y-91373425D01*
X171060001Y-90793554D01*
X171060000Y-90793554D01*
X170480125Y-91373426D01*
X168850500Y-91373426D01*
X168850500Y-90353737D01*
X169964000Y-90353737D01*
X169964000Y-90526262D01*
X169990986Y-90696647D01*
X170044300Y-90860727D01*
X170122613Y-91014423D01*
X170122623Y-91014438D01*
X170126570Y-91019872D01*
X170126573Y-91019872D01*
X170706446Y-90440000D01*
X170663659Y-90397213D01*
X170735000Y-90397213D01*
X170735000Y-90482787D01*
X170757149Y-90565445D01*
X170799936Y-90639554D01*
X170860446Y-90700064D01*
X170934555Y-90742851D01*
X171017213Y-90765000D01*
X171102787Y-90765000D01*
X171185445Y-90742851D01*
X171259554Y-90700064D01*
X171320064Y-90639554D01*
X171362851Y-90565445D01*
X171385000Y-90482787D01*
X171385000Y-90439999D01*
X171413554Y-90439999D01*
X171413554Y-90440000D01*
X171993425Y-91019872D01*
X171997385Y-91014423D01*
X172075701Y-90860722D01*
X172129013Y-90696647D01*
X172156000Y-90526262D01*
X172156000Y-90356622D01*
X175293500Y-90356622D01*
X175293500Y-90523377D01*
X175326028Y-90686907D01*
X175326030Y-90686915D01*
X175389839Y-90840965D01*
X175389844Y-90840974D01*
X175482479Y-90979611D01*
X175482482Y-90979615D01*
X175600384Y-91097517D01*
X175600388Y-91097520D01*
X175739025Y-91190155D01*
X175739031Y-91190158D01*
X175739032Y-91190159D01*
X175893085Y-91253970D01*
X176056622Y-91286499D01*
X176056626Y-91286500D01*
X176056627Y-91286500D01*
X176223374Y-91286500D01*
X176223375Y-91286499D01*
X176386915Y-91253970D01*
X176540968Y-91190159D01*
X176679612Y-91097520D01*
X176797520Y-90979612D01*
X176890159Y-90840968D01*
X176953970Y-90686915D01*
X176986500Y-90523373D01*
X176986500Y-90356627D01*
X176953970Y-90193085D01*
X176890159Y-90039032D01*
X176890158Y-90039031D01*
X176890155Y-90039025D01*
X176797520Y-89900388D01*
X176797517Y-89900384D01*
X176679615Y-89782482D01*
X176679611Y-89782479D01*
X176540974Y-89689844D01*
X176540965Y-89689839D01*
X176386915Y-89626030D01*
X176386907Y-89626028D01*
X176223377Y-89593500D01*
X176223373Y-89593500D01*
X176056627Y-89593500D01*
X176056622Y-89593500D01*
X175893092Y-89626028D01*
X175893084Y-89626030D01*
X175739034Y-89689839D01*
X175739025Y-89689844D01*
X175600388Y-89782479D01*
X175600384Y-89782482D01*
X175482482Y-89900384D01*
X175482479Y-89900388D01*
X175389844Y-90039025D01*
X175389839Y-90039034D01*
X175326030Y-90193084D01*
X175326028Y-90193092D01*
X175293500Y-90356622D01*
X172156000Y-90356622D01*
X172156000Y-90353737D01*
X172129013Y-90183352D01*
X172075701Y-90019277D01*
X171997383Y-89865571D01*
X171993426Y-89860125D01*
X171413554Y-90439999D01*
X171385000Y-90439999D01*
X171385000Y-90397213D01*
X171362851Y-90314555D01*
X171320064Y-90240446D01*
X171259554Y-90179936D01*
X171185445Y-90137149D01*
X171102787Y-90115000D01*
X171017213Y-90115000D01*
X170934555Y-90137149D01*
X170860446Y-90179936D01*
X170799936Y-90240446D01*
X170757149Y-90314555D01*
X170735000Y-90397213D01*
X170663659Y-90397213D01*
X170126572Y-89860126D01*
X170122616Y-89865571D01*
X170122614Y-89865575D01*
X170044298Y-90019277D01*
X169990986Y-90183352D01*
X169964000Y-90353737D01*
X168850500Y-90353737D01*
X168850500Y-89506572D01*
X170480126Y-89506572D01*
X171060000Y-90086446D01*
X171060001Y-90086446D01*
X171639872Y-89506573D01*
X171639872Y-89506570D01*
X171634438Y-89502623D01*
X171634423Y-89502613D01*
X171480727Y-89424300D01*
X171316647Y-89370986D01*
X171146262Y-89344000D01*
X170973738Y-89344000D01*
X170803352Y-89370986D01*
X170639277Y-89424298D01*
X170485575Y-89502614D01*
X170485571Y-89502616D01*
X170480126Y-89506572D01*
X168850500Y-89506572D01*
X168850500Y-87816622D01*
X172753500Y-87816622D01*
X172753500Y-87983377D01*
X172786028Y-88146907D01*
X172786030Y-88146915D01*
X172849839Y-88300965D01*
X172849844Y-88300974D01*
X172942479Y-88439611D01*
X172942482Y-88439615D01*
X173060384Y-88557517D01*
X173060388Y-88557520D01*
X173199025Y-88650155D01*
X173199031Y-88650158D01*
X173199032Y-88650159D01*
X173353085Y-88713970D01*
X173516622Y-88746499D01*
X173516626Y-88746500D01*
X173516627Y-88746500D01*
X173683374Y-88746500D01*
X173683375Y-88746499D01*
X173846915Y-88713970D01*
X174000968Y-88650159D01*
X174139612Y-88557520D01*
X174257520Y-88439612D01*
X174350159Y-88300968D01*
X174413970Y-88146915D01*
X174446500Y-87983373D01*
X174446500Y-87816627D01*
X174413970Y-87653085D01*
X174350159Y-87499032D01*
X174350158Y-87499031D01*
X174350155Y-87499025D01*
X174257520Y-87360388D01*
X174257517Y-87360384D01*
X174139615Y-87242482D01*
X174139611Y-87242479D01*
X174000974Y-87149844D01*
X174000965Y-87149839D01*
X173846915Y-87086030D01*
X173846907Y-87086028D01*
X173683377Y-87053500D01*
X173683373Y-87053500D01*
X173516627Y-87053500D01*
X173516622Y-87053500D01*
X173353092Y-87086028D01*
X173353084Y-87086030D01*
X173199034Y-87149839D01*
X173199025Y-87149844D01*
X173060388Y-87242479D01*
X173060384Y-87242482D01*
X172942482Y-87360384D01*
X172942479Y-87360388D01*
X172849844Y-87499025D01*
X172849839Y-87499034D01*
X172786030Y-87653084D01*
X172786028Y-87653092D01*
X172753500Y-87816622D01*
X168850500Y-87816622D01*
X168850500Y-86409691D01*
X183149500Y-86409691D01*
X183149500Y-86528309D01*
X183180201Y-86642886D01*
X183239511Y-86745613D01*
X183323387Y-86829489D01*
X183426114Y-86888799D01*
X183540691Y-86919500D01*
X183540694Y-86919500D01*
X183659306Y-86919500D01*
X183659309Y-86919500D01*
X183773886Y-86888799D01*
X183876613Y-86829489D01*
X183960489Y-86745613D01*
X184019799Y-86642886D01*
X184050500Y-86528309D01*
X184050500Y-86409691D01*
X184019799Y-86295114D01*
X183960489Y-86192387D01*
X183876613Y-86108511D01*
X183773886Y-86049201D01*
X183659309Y-86018500D01*
X183540691Y-86018500D01*
X183426114Y-86049201D01*
X183426112Y-86049201D01*
X183426112Y-86049202D01*
X183323387Y-86108511D01*
X183323384Y-86108513D01*
X183239513Y-86192384D01*
X183239511Y-86192387D01*
X183180201Y-86295114D01*
X183149500Y-86409691D01*
X168850500Y-86409691D01*
X168850500Y-68659061D01*
X168854725Y-68626968D01*
X168875500Y-68549435D01*
X168875500Y-68450565D01*
X168849910Y-68355062D01*
X168800475Y-68269438D01*
X168730562Y-68199525D01*
X168730561Y-68199524D01*
X168724116Y-68194579D01*
X168725718Y-68192490D01*
X168686495Y-68151357D01*
X168673270Y-68082750D01*
X168699236Y-68017884D01*
X168709019Y-68006861D01*
X171329063Y-65386819D01*
X171384616Y-65354734D01*
X171400399Y-65350500D01*
X171446144Y-65350500D01*
X171535288Y-65326614D01*
X171560948Y-65311799D01*
X171615212Y-65280470D01*
X172735367Y-64160312D01*
X172761046Y-64140609D01*
X172830562Y-64100475D01*
X172900475Y-64030562D01*
X172949910Y-63944938D01*
X172975500Y-63849435D01*
X172975500Y-63750565D01*
X172949910Y-63655062D01*
X172900475Y-63569438D01*
X172830562Y-63499525D01*
X172744940Y-63450091D01*
X172744939Y-63450090D01*
X172709868Y-63440693D01*
X172660273Y-63427404D01*
X172651002Y-63421752D01*
X172640263Y-63420151D01*
X172621693Y-63403888D01*
X172600615Y-63391040D01*
X172594487Y-63380061D01*
X172587701Y-63374118D01*
X172574884Y-63344938D01*
X172573209Y-63341936D01*
X172572903Y-63340876D01*
X172549910Y-63255062D01*
X172546494Y-63249146D01*
X172542366Y-63234806D01*
X172542515Y-63206565D01*
X172539496Y-63178484D01*
X172542697Y-63172088D01*
X172542735Y-63164938D01*
X172558128Y-63141261D01*
X172570771Y-63116004D01*
X172576921Y-63112354D01*
X172580819Y-63106360D01*
X172606569Y-63094764D01*
X172630860Y-63080352D01*
X172641557Y-63079008D01*
X172644527Y-63077671D01*
X172648036Y-63078194D01*
X172661526Y-63076500D01*
X172879473Y-63076500D01*
X172879475Y-63076500D01*
X172968619Y-63052614D01*
X173048543Y-63006470D01*
X173524470Y-62530543D01*
X173570614Y-62450619D01*
X173587526Y-62387501D01*
X173594500Y-62361475D01*
X173594500Y-58428500D01*
X173614185Y-58361461D01*
X173666989Y-58315706D01*
X173718500Y-58304500D01*
X173793432Y-58304500D01*
X173793435Y-58304500D01*
X173888938Y-58278910D01*
X173974562Y-58229475D01*
X174044475Y-58159562D01*
X174044477Y-58159557D01*
X174049421Y-58153116D01*
X174050648Y-58154057D01*
X174094549Y-58112198D01*
X174163156Y-58098974D01*
X174228021Y-58124942D01*
X174239051Y-58134732D01*
X174867181Y-58762862D01*
X174900666Y-58824185D01*
X174903500Y-58850543D01*
X174903500Y-68190456D01*
X174883815Y-68257495D01*
X174831011Y-68303250D01*
X174761853Y-68313194D01*
X174698297Y-68284169D01*
X174691819Y-68278137D01*
X173868819Y-67455137D01*
X173835334Y-67393814D01*
X173832500Y-67367456D01*
X173832500Y-65183061D01*
X173836725Y-65150968D01*
X173857500Y-65073435D01*
X173857500Y-64974565D01*
X173831910Y-64879062D01*
X173782475Y-64793438D01*
X173712562Y-64723525D01*
X173626938Y-64674090D01*
X173531435Y-64648500D01*
X173432565Y-64648500D01*
X173337062Y-64674090D01*
X173337060Y-64674091D01*
X173337059Y-64674091D01*
X173251436Y-64723526D01*
X173181526Y-64793436D01*
X173132091Y-64879059D01*
X173132091Y-64879060D01*
X173132090Y-64879062D01*
X173106500Y-64974565D01*
X173106500Y-64974567D01*
X173106500Y-65073434D01*
X173127275Y-65150968D01*
X173131500Y-65183061D01*
X173131500Y-67610144D01*
X173135585Y-67625388D01*
X173147388Y-67669439D01*
X173147388Y-67669440D01*
X173155384Y-67699285D01*
X173155385Y-67699286D01*
X173201527Y-67779208D01*
X173201529Y-67779211D01*
X173201530Y-67779212D01*
X173864520Y-68442202D01*
X174518684Y-69096365D01*
X174538387Y-69122041D01*
X174578525Y-69191562D01*
X174648438Y-69261475D01*
X174714154Y-69299416D01*
X174726374Y-69312232D01*
X174741727Y-69321056D01*
X174749982Y-69336991D01*
X174762369Y-69349982D01*
X174765720Y-69367371D01*
X174773866Y-69383095D01*
X174772195Y-69400964D01*
X174775592Y-69418589D01*
X174769003Y-69435092D01*
X174767361Y-69452661D01*
X174753710Y-69473400D01*
X174749774Y-69483262D01*
X174745141Y-69489176D01*
X174673530Y-69560788D01*
X174634371Y-69628614D01*
X174629999Y-69636185D01*
X174629996Y-69636190D01*
X174627386Y-69640710D01*
X174603500Y-69729856D01*
X174603500Y-78630474D01*
X174627386Y-78719618D01*
X174627387Y-78719621D01*
X174673527Y-78799539D01*
X174673529Y-78799542D01*
X174673530Y-78799543D01*
X176754456Y-80880469D01*
X176789104Y-80900473D01*
X176798526Y-80905913D01*
X176798527Y-80905914D01*
X176834375Y-80926611D01*
X176834376Y-80926611D01*
X176834381Y-80926614D01*
X176923525Y-80950500D01*
X180640938Y-80950500D01*
X180673031Y-80954725D01*
X180687674Y-80958648D01*
X180750565Y-80975500D01*
X180750567Y-80975500D01*
X180849432Y-80975500D01*
X180849435Y-80975500D01*
X180944938Y-80949910D01*
X181030562Y-80900475D01*
X181100475Y-80830562D01*
X181149910Y-80744938D01*
X181175500Y-80649435D01*
X181175500Y-80550565D01*
X181149910Y-80455062D01*
X181100475Y-80369438D01*
X181030562Y-80299525D01*
X180944938Y-80250090D01*
X180849435Y-80224500D01*
X180750565Y-80224500D01*
X180673031Y-80245275D01*
X180640938Y-80249500D01*
X177499500Y-80249500D01*
X177432461Y-80229815D01*
X177386706Y-80177011D01*
X177375500Y-80125500D01*
X177375500Y-80050567D01*
X177375500Y-80050565D01*
X177349910Y-79955062D01*
X177300475Y-79869438D01*
X177230562Y-79799525D01*
X177161048Y-79759391D01*
X177135367Y-79739685D01*
X175686819Y-78291137D01*
X175653334Y-78229814D01*
X175650500Y-78203456D01*
X175650500Y-74549500D01*
X175670185Y-74482461D01*
X175722989Y-74436706D01*
X175774500Y-74425500D01*
X176301473Y-74425500D01*
X176301475Y-74425500D01*
X176390619Y-74401614D01*
X176470543Y-74355470D01*
X177448668Y-73377345D01*
X177494812Y-73297421D01*
X177499354Y-73280469D01*
X177518698Y-73208277D01*
X177518698Y-72164742D01*
X177538383Y-72097703D01*
X177555017Y-72077061D01*
X178723384Y-70908694D01*
X179900287Y-69731790D01*
X179972401Y-69731790D01*
X179972401Y-69772208D01*
X179987869Y-69809551D01*
X180016449Y-69838131D01*
X180053792Y-69853599D01*
X180094210Y-69853599D01*
X180131553Y-69838131D01*
X180160133Y-69809551D01*
X180175601Y-69772208D01*
X180175601Y-69731790D01*
X180160133Y-69694447D01*
X180131553Y-69665867D01*
X180094210Y-69650399D01*
X180053792Y-69650399D01*
X180016449Y-69665867D01*
X179987869Y-69694447D01*
X179972401Y-69731790D01*
X179900287Y-69731790D01*
X179969055Y-69663022D01*
X179972526Y-69661127D01*
X179974635Y-69657776D01*
X180024644Y-69630929D01*
X180033288Y-69628614D01*
X180047342Y-69620500D01*
X180113212Y-69582470D01*
X180156865Y-69538817D01*
X180218188Y-69505332D01*
X180244546Y-69502498D01*
X180306538Y-69502498D01*
X180306541Y-69502498D01*
X180365667Y-69486655D01*
X180435514Y-69488318D01*
X180493376Y-69527480D01*
X180520881Y-69591708D01*
X180509295Y-69660611D01*
X180485440Y-69694111D01*
X180250778Y-69928775D01*
X180250777Y-69928775D01*
X180064373Y-70115179D01*
X180003050Y-70148664D01*
X179976692Y-70151498D01*
X179951858Y-70151498D01*
X179883691Y-70169763D01*
X179883690Y-70169762D01*
X179862716Y-70175383D01*
X179862711Y-70175385D01*
X179782793Y-70221525D01*
X179782788Y-70221529D01*
X178519531Y-71484786D01*
X178519529Y-71484789D01*
X178499815Y-71518936D01*
X178499814Y-71518938D01*
X178473386Y-71564710D01*
X178449500Y-71653856D01*
X178449500Y-73027455D01*
X178429815Y-73094494D01*
X178413181Y-73115136D01*
X178228633Y-73299684D01*
X178202953Y-73319389D01*
X178133444Y-73359521D01*
X178133435Y-73359527D01*
X178063526Y-73429436D01*
X178014091Y-73515059D01*
X178014091Y-73515060D01*
X178014090Y-73515062D01*
X177988500Y-73610565D01*
X177988500Y-73709435D01*
X178014090Y-73804938D01*
X178063525Y-73890562D01*
X178133438Y-73960475D01*
X178219062Y-74009910D01*
X178314565Y-74035500D01*
X178314567Y-74035500D01*
X178413432Y-74035500D01*
X178413435Y-74035500D01*
X178508938Y-74009910D01*
X178594562Y-73960475D01*
X178664475Y-73890562D01*
X178704608Y-73821047D01*
X178724311Y-73795369D01*
X178767417Y-73752263D01*
X178828738Y-73718780D01*
X178898430Y-73723764D01*
X178954363Y-73765636D01*
X178970005Y-73797834D01*
X178970981Y-73797431D01*
X178974089Y-73804936D01*
X178974090Y-73804938D01*
X179023525Y-73890562D01*
X179093438Y-73960475D01*
X179179062Y-74009910D01*
X179274565Y-74035500D01*
X179274567Y-74035500D01*
X179373432Y-74035500D01*
X179373435Y-74035500D01*
X179468938Y-74009910D01*
X179554562Y-73960475D01*
X179624475Y-73890562D01*
X179673910Y-73804938D01*
X179699500Y-73709435D01*
X179699500Y-73610565D01*
X179678725Y-73533031D01*
X179678897Y-73525782D01*
X179675853Y-73519204D01*
X179674500Y-73500938D01*
X179674500Y-71796808D01*
X179694185Y-71729769D01*
X179710811Y-71709135D01*
X179716372Y-71703573D01*
X179777690Y-71670084D01*
X179847382Y-71675062D01*
X179903319Y-71716929D01*
X179911440Y-71729238D01*
X179929525Y-71760562D01*
X179999438Y-71830475D01*
X180045617Y-71857136D01*
X180093832Y-71907701D01*
X180107618Y-71964523D01*
X180107618Y-73455338D01*
X180087933Y-73522377D01*
X180071299Y-73543019D01*
X180057531Y-73556786D01*
X180057529Y-73556788D01*
X180032857Y-73599524D01*
X180032855Y-73599526D01*
X180011388Y-73636706D01*
X180011387Y-73636709D01*
X179987500Y-73725856D01*
X179987500Y-75705643D01*
X180011175Y-75794001D01*
X180011181Y-75794023D01*
X180011386Y-75794789D01*
X180011386Y-75794790D01*
X180057527Y-75874708D01*
X180057531Y-75874713D01*
X180487685Y-76304867D01*
X180507391Y-76330548D01*
X180547525Y-76400062D01*
X180617438Y-76469975D01*
X180703062Y-76519410D01*
X180798565Y-76545000D01*
X180798567Y-76545000D01*
X180897432Y-76545000D01*
X180897435Y-76545000D01*
X180992938Y-76519410D01*
X181078562Y-76469975D01*
X181148475Y-76400062D01*
X181197910Y-76314438D01*
X181223500Y-76218935D01*
X181223500Y-76120065D01*
X181197910Y-76024562D01*
X181148475Y-75938938D01*
X181078562Y-75869025D01*
X181009048Y-75828891D01*
X180983367Y-75809185D01*
X180724819Y-75550637D01*
X180691334Y-75489314D01*
X180688500Y-75462956D01*
X180688500Y-74393674D01*
X180708185Y-74326635D01*
X180760989Y-74280880D01*
X180830147Y-74270936D01*
X180844583Y-74273897D01*
X180850565Y-74275500D01*
X180850568Y-74275500D01*
X180949432Y-74275500D01*
X180949435Y-74275500D01*
X181044938Y-74249910D01*
X181130562Y-74200475D01*
X181200475Y-74130562D01*
X181249910Y-74044938D01*
X181275500Y-73949435D01*
X181275500Y-73850565D01*
X181254725Y-73773031D01*
X181250500Y-73740938D01*
X181250500Y-71379858D01*
X181250500Y-71379856D01*
X181226614Y-71290712D01*
X181222737Y-71283998D01*
X181214387Y-71269534D01*
X181214385Y-71269531D01*
X181212037Y-71265464D01*
X181199650Y-71235557D01*
X181197910Y-71229062D01*
X181148475Y-71143438D01*
X181078562Y-71073525D01*
X180999482Y-71027868D01*
X180951268Y-70977301D01*
X180938046Y-70908694D01*
X180964014Y-70843830D01*
X180973797Y-70832807D01*
X181404469Y-70402135D01*
X181415228Y-70383499D01*
X181465795Y-70335284D01*
X181522615Y-70321500D01*
X182407494Y-70321500D01*
X182474533Y-70341185D01*
X182520288Y-70393989D01*
X182530232Y-70463147D01*
X182527272Y-70477577D01*
X182504500Y-70562565D01*
X182504500Y-70562567D01*
X182504500Y-70661434D01*
X182525275Y-70738968D01*
X182529500Y-70771061D01*
X182529500Y-72738938D01*
X182525274Y-72771031D01*
X182504500Y-72848565D01*
X182504500Y-72947435D01*
X182530090Y-73042938D01*
X182579525Y-73128562D01*
X182649438Y-73198475D01*
X182735062Y-73247910D01*
X182830565Y-73273500D01*
X182830567Y-73273500D01*
X182929432Y-73273500D01*
X182929435Y-73273500D01*
X183024938Y-73247910D01*
X183110562Y-73198475D01*
X183180475Y-73128562D01*
X183218114Y-73063368D01*
X183268680Y-73015154D01*
X183337287Y-73001931D01*
X183402152Y-73027899D01*
X183442680Y-73084814D01*
X183449500Y-73125370D01*
X183449500Y-75603455D01*
X183429815Y-75670494D01*
X183413181Y-75691136D01*
X181804632Y-77299684D01*
X181778953Y-77319389D01*
X181709441Y-77359523D01*
X181709435Y-77359527D01*
X181639526Y-77429436D01*
X181590091Y-77515059D01*
X181590091Y-77515060D01*
X181590090Y-77515062D01*
X181564500Y-77610565D01*
X181564500Y-77709435D01*
X181590090Y-77804938D01*
X181639525Y-77890562D01*
X181709438Y-77960475D01*
X181795062Y-78009910D01*
X181890565Y-78035500D01*
X181890567Y-78035500D01*
X181989432Y-78035500D01*
X181989435Y-78035500D01*
X182084938Y-78009910D01*
X182170562Y-77960475D01*
X182240475Y-77890562D01*
X182276454Y-77828242D01*
X182327020Y-77780026D01*
X182395627Y-77766802D01*
X182449204Y-77784866D01*
X182461384Y-77792421D01*
X182469438Y-77800475D01*
X182540661Y-77841595D01*
X182542313Y-77842620D01*
X182543934Y-77844431D01*
X182564632Y-77860314D01*
X183213181Y-78508863D01*
X183246666Y-78570186D01*
X183249500Y-78596544D01*
X183249500Y-81540938D01*
X183245274Y-81573031D01*
X183224500Y-81650565D01*
X183224500Y-81749435D01*
X183250090Y-81844938D01*
X183299525Y-81930562D01*
X183369438Y-82000475D01*
X183455062Y-82049910D01*
X183550565Y-82075500D01*
X183550567Y-82075500D01*
X183649432Y-82075500D01*
X183649435Y-82075500D01*
X183744938Y-82049910D01*
X183830562Y-82000475D01*
X183900475Y-81930562D01*
X183949910Y-81844938D01*
X183975500Y-81749435D01*
X183975500Y-81650565D01*
X183954725Y-81573031D01*
X183950500Y-81540938D01*
X183950500Y-80600691D01*
X184989500Y-80600691D01*
X184989500Y-80719309D01*
X185020201Y-80833886D01*
X185079511Y-80936613D01*
X185163387Y-81020489D01*
X185266114Y-81079799D01*
X185380691Y-81110500D01*
X185380694Y-81110500D01*
X185499306Y-81110500D01*
X185499309Y-81110500D01*
X185613886Y-81079799D01*
X185716613Y-81020489D01*
X185800489Y-80936613D01*
X185859799Y-80833886D01*
X185890500Y-80719309D01*
X185890500Y-80600691D01*
X185859799Y-80486114D01*
X185800489Y-80383387D01*
X185716613Y-80299511D01*
X185613886Y-80240201D01*
X185499309Y-80209500D01*
X185380691Y-80209500D01*
X185266114Y-80240201D01*
X185266112Y-80240201D01*
X185266112Y-80240202D01*
X185163387Y-80299511D01*
X185163384Y-80299513D01*
X185079513Y-80383384D01*
X185079511Y-80383387D01*
X185020201Y-80486114D01*
X184989500Y-80600691D01*
X183950500Y-80600691D01*
X183950500Y-78353858D01*
X183950500Y-78353856D01*
X183926614Y-78264712D01*
X183908785Y-78233832D01*
X183908784Y-78233830D01*
X183908784Y-78233829D01*
X183880474Y-78184794D01*
X183880468Y-78184786D01*
X183283363Y-77587681D01*
X183249878Y-77526358D01*
X183254862Y-77456666D01*
X183283363Y-77412319D01*
X183395998Y-77299684D01*
X184380470Y-76315212D01*
X184426614Y-76235288D01*
X184430996Y-76218935D01*
X184450500Y-76146144D01*
X184450500Y-67553856D01*
X184426614Y-67464712D01*
X184408443Y-67433239D01*
X184380473Y-67384794D01*
X184380470Y-67384791D01*
X184380469Y-67384788D01*
X184315212Y-67319531D01*
X183926500Y-66930819D01*
X183489363Y-66493681D01*
X183455878Y-66432358D01*
X183460862Y-66362666D01*
X183502734Y-66306733D01*
X183568198Y-66282316D01*
X183577044Y-66282000D01*
X184036492Y-66282000D01*
X184036495Y-66281999D01*
X184229681Y-66243572D01*
X184229693Y-66243569D01*
X184411671Y-66168192D01*
X184411684Y-66168185D01*
X184575462Y-66058751D01*
X184575466Y-66058748D01*
X184714748Y-65919466D01*
X184714751Y-65919462D01*
X184824185Y-65755684D01*
X184824192Y-65755671D01*
X184899569Y-65573692D01*
X184899569Y-65573690D01*
X184907862Y-65532000D01*
X184104988Y-65532000D01*
X184122205Y-65522060D01*
X184178060Y-65466205D01*
X184217556Y-65397796D01*
X184238000Y-65321496D01*
X184238000Y-65242504D01*
X184217556Y-65166204D01*
X184178060Y-65097795D01*
X184122205Y-65041940D01*
X184104988Y-65032000D01*
X184907862Y-65032000D01*
X186218138Y-65032000D01*
X187021012Y-65032000D01*
X187003795Y-65041940D01*
X186947940Y-65097795D01*
X186908444Y-65166204D01*
X186888000Y-65242504D01*
X186888000Y-65321496D01*
X186908444Y-65397796D01*
X186947940Y-65466205D01*
X187003795Y-65522060D01*
X187021012Y-65532000D01*
X186218138Y-65532000D01*
X186226430Y-65573690D01*
X186226430Y-65573692D01*
X186301807Y-65755671D01*
X186301814Y-65755684D01*
X186411248Y-65919462D01*
X186411251Y-65919466D01*
X186550533Y-66058748D01*
X186550537Y-66058751D01*
X186714315Y-66168185D01*
X186714328Y-66168192D01*
X186896306Y-66243569D01*
X186896318Y-66243572D01*
X187089504Y-66281999D01*
X187089508Y-66282000D01*
X187338000Y-66282000D01*
X187338000Y-65582000D01*
X187838000Y-65582000D01*
X187838000Y-66282000D01*
X188086492Y-66282000D01*
X188086495Y-66281999D01*
X188279681Y-66243572D01*
X188279693Y-66243569D01*
X188461671Y-66168192D01*
X188461684Y-66168185D01*
X188625462Y-66058751D01*
X188625466Y-66058748D01*
X188764748Y-65919466D01*
X188764751Y-65919462D01*
X188874185Y-65755684D01*
X188874192Y-65755671D01*
X188949569Y-65573692D01*
X188949569Y-65573690D01*
X188957862Y-65532000D01*
X188154988Y-65532000D01*
X188172205Y-65522060D01*
X188228060Y-65466205D01*
X188267556Y-65397796D01*
X188288000Y-65321496D01*
X188288000Y-65242504D01*
X188267556Y-65166204D01*
X188228060Y-65097795D01*
X188172205Y-65041940D01*
X188154988Y-65032000D01*
X188957862Y-65032000D01*
X188949569Y-64990309D01*
X188949569Y-64990307D01*
X188874192Y-64808328D01*
X188874185Y-64808315D01*
X188764751Y-64644537D01*
X188764748Y-64644533D01*
X188625466Y-64505251D01*
X188625462Y-64505248D01*
X188461684Y-64395814D01*
X188461671Y-64395807D01*
X188279693Y-64320430D01*
X188279681Y-64320427D01*
X188086495Y-64282000D01*
X187838000Y-64282000D01*
X187838000Y-64982000D01*
X187338000Y-64982000D01*
X187338000Y-64282000D01*
X187089504Y-64282000D01*
X186896318Y-64320427D01*
X186896306Y-64320430D01*
X186714328Y-64395807D01*
X186714315Y-64395814D01*
X186550537Y-64505248D01*
X186550533Y-64505251D01*
X186411251Y-64644533D01*
X186411248Y-64644537D01*
X186301814Y-64808315D01*
X186301807Y-64808328D01*
X186226430Y-64990307D01*
X186226430Y-64990309D01*
X186218138Y-65032000D01*
X184907862Y-65032000D01*
X184899569Y-64990309D01*
X184899569Y-64990307D01*
X184824192Y-64808328D01*
X184824185Y-64808315D01*
X184714751Y-64644537D01*
X184714748Y-64644533D01*
X184575466Y-64505251D01*
X184575462Y-64505248D01*
X184411684Y-64395814D01*
X184411677Y-64395811D01*
X184367943Y-64377695D01*
X184313540Y-64333853D01*
X184291476Y-64267559D01*
X184308756Y-64199859D01*
X184327715Y-64175454D01*
X184328505Y-64174665D01*
X184397688Y-64054836D01*
X184433500Y-63921183D01*
X184433500Y-63782817D01*
X184397688Y-63649164D01*
X184351657Y-63569436D01*
X184328507Y-63529338D01*
X184328503Y-63529333D01*
X184230666Y-63431496D01*
X184230661Y-63431492D01*
X184110838Y-63362313D01*
X184110837Y-63362312D01*
X184110836Y-63362312D01*
X183977183Y-63326500D01*
X183838817Y-63326500D01*
X183705164Y-63362312D01*
X183705161Y-63362313D01*
X183585338Y-63431492D01*
X183585333Y-63431496D01*
X183487496Y-63529333D01*
X183487492Y-63529338D01*
X183418313Y-63649161D01*
X183418312Y-63649164D01*
X183382500Y-63782817D01*
X183382500Y-63921183D01*
X183390356Y-63950500D01*
X183418312Y-64054835D01*
X183418313Y-64054838D01*
X183487492Y-64174661D01*
X183487496Y-64174666D01*
X183585335Y-64272505D01*
X183589487Y-64275691D01*
X183630689Y-64332119D01*
X183638000Y-64374066D01*
X183638000Y-64982000D01*
X183138000Y-64982000D01*
X183138000Y-64282000D01*
X182739504Y-64282000D01*
X182546318Y-64320427D01*
X182546306Y-64320430D01*
X182364328Y-64395807D01*
X182364315Y-64395814D01*
X182200537Y-64505248D01*
X182200533Y-64505251D01*
X182061251Y-64644533D01*
X182061248Y-64644537D01*
X181951814Y-64808315D01*
X181951807Y-64808328D01*
X181876430Y-64990307D01*
X181876430Y-64990309D01*
X181868138Y-65032000D01*
X182671012Y-65032000D01*
X182653795Y-65041940D01*
X182597940Y-65097795D01*
X182558444Y-65166204D01*
X182538000Y-65242504D01*
X182538000Y-65321496D01*
X182558444Y-65397796D01*
X182597940Y-65466205D01*
X182653795Y-65522060D01*
X182671012Y-65532000D01*
X182577800Y-65532000D01*
X182510761Y-65512315D01*
X182502308Y-65506372D01*
X182501205Y-65505525D01*
X182421290Y-65459387D01*
X182421289Y-65459386D01*
X182421288Y-65459386D01*
X182332144Y-65435500D01*
X182332143Y-65435500D01*
X181068500Y-65435500D01*
X181059814Y-65432949D01*
X181050853Y-65434238D01*
X181026812Y-65423259D01*
X181001461Y-65415815D01*
X180995533Y-65408974D01*
X180987297Y-65405213D01*
X180973007Y-65382978D01*
X180955706Y-65363011D01*
X180953418Y-65352496D01*
X180949523Y-65346435D01*
X180944500Y-65311500D01*
X180944500Y-61373061D01*
X180948725Y-61340968D01*
X180952166Y-61328127D01*
X180969500Y-61263435D01*
X180969500Y-61164565D01*
X180943910Y-61069062D01*
X180894475Y-60983438D01*
X180824562Y-60913525D01*
X180738938Y-60864090D01*
X180643435Y-60838500D01*
X180544565Y-60838500D01*
X180449062Y-60864090D01*
X180449060Y-60864091D01*
X180449059Y-60864091D01*
X180363436Y-60913526D01*
X180293526Y-60983436D01*
X180244091Y-61069059D01*
X180244091Y-61069060D01*
X180244090Y-61069062D01*
X180218500Y-61164565D01*
X180218500Y-61263435D01*
X180235130Y-61325499D01*
X180239275Y-61340968D01*
X180243500Y-61373061D01*
X180243500Y-62929215D01*
X180223815Y-62996254D01*
X180171011Y-63042009D01*
X180101853Y-63051953D01*
X180090933Y-63049714D01*
X180089310Y-63049500D01*
X180089309Y-63049500D01*
X179970691Y-63049500D01*
X179856114Y-63080201D01*
X179856112Y-63080201D01*
X179856112Y-63080202D01*
X179753387Y-63139511D01*
X179753384Y-63139513D01*
X179669513Y-63223384D01*
X179669511Y-63223387D01*
X179610201Y-63326114D01*
X179579500Y-63440691D01*
X179579500Y-63559309D01*
X179610201Y-63673886D01*
X179669511Y-63776613D01*
X179753387Y-63860489D01*
X179856114Y-63919799D01*
X179970691Y-63950500D01*
X179970694Y-63950500D01*
X180089307Y-63950500D01*
X180089309Y-63950500D01*
X180089310Y-63950499D01*
X180097365Y-63949439D01*
X180097603Y-63951252D01*
X180157252Y-63952671D01*
X180215116Y-63991831D01*
X180242623Y-64056058D01*
X180243500Y-64070784D01*
X180243500Y-65589455D01*
X180234853Y-65618901D01*
X180228321Y-65648903D01*
X180224575Y-65653904D01*
X180223815Y-65656494D01*
X180207164Y-65677153D01*
X180204617Y-65679699D01*
X180178956Y-65699387D01*
X180109436Y-65739526D01*
X180039525Y-65809438D01*
X179990091Y-65895059D01*
X179990091Y-65895060D01*
X179990090Y-65895062D01*
X179964500Y-65990565D01*
X179964500Y-66089435D01*
X179990090Y-66184938D01*
X179990091Y-66184939D01*
X179990091Y-66184940D01*
X179998458Y-66199432D01*
X180039525Y-66270562D01*
X180109438Y-66340475D01*
X180195062Y-66389910D01*
X180290565Y-66415500D01*
X180290567Y-66415500D01*
X180389432Y-66415500D01*
X180389435Y-66415500D01*
X180484938Y-66389910D01*
X180570562Y-66340475D01*
X180640475Y-66270562D01*
X180680610Y-66201045D01*
X180700328Y-66175352D01*
X180702879Y-66172802D01*
X180764209Y-66139329D01*
X180790543Y-66136500D01*
X181300887Y-66136500D01*
X181367926Y-66156185D01*
X181413681Y-66208989D01*
X181423826Y-66244314D01*
X181424499Y-66249431D01*
X181424500Y-66249434D01*
X181424500Y-66249435D01*
X181450090Y-66344938D01*
X181499525Y-66430562D01*
X181569438Y-66500475D01*
X181655062Y-66549910D01*
X181750565Y-66575500D01*
X181783051Y-66575500D01*
X181850090Y-66595185D01*
X181870732Y-66611819D01*
X183413181Y-68154268D01*
X183446666Y-68215591D01*
X183449500Y-68241949D01*
X183449500Y-70384629D01*
X183429815Y-70451668D01*
X183377011Y-70497423D01*
X183307853Y-70507367D01*
X183244297Y-70478342D01*
X183218114Y-70446632D01*
X183180475Y-70381438D01*
X183110562Y-70311525D01*
X183024938Y-70262090D01*
X183024936Y-70262089D01*
X183024935Y-70262089D01*
X183001297Y-70255755D01*
X182941638Y-70219389D01*
X182911110Y-70156542D01*
X182919406Y-70087167D01*
X182945707Y-70048305D01*
X183027470Y-69966543D01*
X183073614Y-69886619D01*
X183079295Y-69865412D01*
X183079298Y-69865408D01*
X183079297Y-69865408D01*
X183097500Y-69797475D01*
X183097500Y-69394525D01*
X183073614Y-69305381D01*
X183059999Y-69281799D01*
X183059999Y-69281798D01*
X183027474Y-69225463D01*
X183027468Y-69225455D01*
X182742544Y-68940531D01*
X182742539Y-68940527D01*
X182662621Y-68894387D01*
X182662620Y-68894386D01*
X182662619Y-68894386D01*
X182660876Y-68893919D01*
X182653999Y-68892076D01*
X182594339Y-68855710D01*
X182563811Y-68792862D01*
X182572108Y-68723487D01*
X182598414Y-68684621D01*
X182600475Y-68682561D01*
X182649910Y-68596937D01*
X182675500Y-68501434D01*
X182675500Y-68402564D01*
X182649910Y-68307061D01*
X182600475Y-68221437D01*
X182530562Y-68151524D01*
X182444938Y-68102089D01*
X182444937Y-68102088D01*
X182444931Y-68102086D01*
X182441396Y-68101139D01*
X182438752Y-68099527D01*
X182437431Y-68098980D01*
X182437516Y-68098773D01*
X182381739Y-68064770D01*
X182351214Y-68001921D01*
X182349499Y-67981367D01*
X182349499Y-67902568D01*
X182349499Y-67902566D01*
X182323909Y-67807063D01*
X182274474Y-67721439D01*
X182204561Y-67651526D01*
X182118937Y-67602091D01*
X182023434Y-67576501D01*
X181924564Y-67576501D01*
X181847030Y-67597276D01*
X181814937Y-67601501D01*
X180930413Y-67601501D01*
X180863374Y-67581816D01*
X180817619Y-67529012D01*
X180808796Y-67501692D01*
X180795179Y-67433239D01*
X180795177Y-67433231D01*
X180751577Y-67327972D01*
X180488293Y-67591257D01*
X180432709Y-67623350D01*
X180425108Y-67625386D01*
X180425104Y-67625388D01*
X180345187Y-67671528D01*
X180345182Y-67671532D01*
X180151534Y-67865181D01*
X180090211Y-67898666D01*
X180063853Y-67901500D01*
X179841459Y-67901500D01*
X179782334Y-67917342D01*
X179712484Y-67915678D01*
X179654622Y-67876515D01*
X179627119Y-67812286D01*
X179638706Y-67743384D01*
X179662562Y-67709885D01*
X179720449Y-67651999D01*
X179700240Y-67631790D01*
X179972401Y-67631790D01*
X179972401Y-67672208D01*
X179987869Y-67709551D01*
X180016449Y-67738131D01*
X180053792Y-67753599D01*
X180094210Y-67753599D01*
X180131553Y-67738131D01*
X180160133Y-67709551D01*
X180175601Y-67672208D01*
X180175601Y-67631790D01*
X180160133Y-67594447D01*
X180131553Y-67565867D01*
X180094210Y-67550399D01*
X180053792Y-67550399D01*
X180016449Y-67565867D01*
X179987869Y-67594447D01*
X179972401Y-67631790D01*
X179700240Y-67631790D01*
X179396423Y-67327973D01*
X179352823Y-67433235D01*
X179352821Y-67433239D01*
X179324002Y-67578126D01*
X179324002Y-67725871D01*
X179343946Y-67826136D01*
X179337719Y-67895728D01*
X179294856Y-67950905D01*
X179228966Y-67974149D01*
X179198139Y-67971945D01*
X179097865Y-67952000D01*
X178950125Y-67952000D01*
X178805238Y-67980819D01*
X178805234Y-67980821D01*
X178699972Y-68024421D01*
X179023998Y-68348447D01*
X179081888Y-68290556D01*
X179143211Y-68257070D01*
X179212902Y-68262054D01*
X179268836Y-68303925D01*
X179293254Y-68369389D01*
X179289345Y-68410327D01*
X179273502Y-68469455D01*
X179273502Y-68879453D01*
X179264857Y-68908890D01*
X179258334Y-68938881D01*
X179254578Y-68943897D01*
X179253817Y-68946492D01*
X179237183Y-68967135D01*
X179174063Y-69030254D01*
X179112739Y-69063738D01*
X179043048Y-69058753D01*
X179038066Y-69055551D01*
X179023998Y-69055551D01*
X178699971Y-69379575D01*
X178707742Y-69418639D01*
X178701514Y-69488231D01*
X178673805Y-69530511D01*
X176519532Y-71684785D01*
X176519528Y-71684791D01*
X176484106Y-71746142D01*
X176484107Y-71746143D01*
X176473386Y-71764711D01*
X176473386Y-71764712D01*
X176449500Y-71853856D01*
X176449500Y-72024553D01*
X176429815Y-72091592D01*
X176377011Y-72137347D01*
X176307853Y-72147291D01*
X176263500Y-72131940D01*
X176173886Y-72080201D01*
X176059309Y-72049500D01*
X175940691Y-72049500D01*
X175841593Y-72076053D01*
X175771743Y-72074390D01*
X175713881Y-72035227D01*
X175686377Y-71970998D01*
X175685500Y-71956278D01*
X175685500Y-70015808D01*
X175705185Y-69948769D01*
X175721819Y-69928127D01*
X175763328Y-69886618D01*
X175834470Y-69815476D01*
X175880614Y-69735552D01*
X175904500Y-69646408D01*
X175904500Y-69554120D01*
X175904500Y-69344860D01*
X175908725Y-69312767D01*
X175908797Y-69312500D01*
X175910500Y-69306144D01*
X175910500Y-68802691D01*
X176813500Y-68802691D01*
X176813500Y-68921309D01*
X176844201Y-69035886D01*
X176903511Y-69138613D01*
X176987387Y-69222489D01*
X177090114Y-69281799D01*
X177204691Y-69312500D01*
X177204694Y-69312500D01*
X177323306Y-69312500D01*
X177323309Y-69312500D01*
X177437886Y-69281799D01*
X177540613Y-69222489D01*
X177624489Y-69138613D01*
X177683799Y-69035886D01*
X177714500Y-68921309D01*
X177714500Y-68802691D01*
X177683799Y-68688114D01*
X177682689Y-68686193D01*
X177681446Y-68684038D01*
X177659495Y-68646019D01*
X177649164Y-68628126D01*
X178273999Y-68628126D01*
X178273999Y-68775871D01*
X178302818Y-68920758D01*
X178302821Y-68920767D01*
X178346419Y-69026023D01*
X178670446Y-68701999D01*
X178650237Y-68681790D01*
X178922398Y-68681790D01*
X178922398Y-68722208D01*
X178937866Y-68759551D01*
X178966446Y-68788131D01*
X179003789Y-68803599D01*
X179044207Y-68803599D01*
X179081550Y-68788131D01*
X179110130Y-68759551D01*
X179125598Y-68722208D01*
X179125598Y-68681790D01*
X179110130Y-68644447D01*
X179081550Y-68615867D01*
X179044207Y-68600399D01*
X179003789Y-68600399D01*
X178966446Y-68615867D01*
X178937866Y-68644447D01*
X178922398Y-68681790D01*
X178650237Y-68681790D01*
X178346420Y-68377973D01*
X178302820Y-68483235D01*
X178302818Y-68483239D01*
X178273999Y-68628126D01*
X177649164Y-68628126D01*
X177624489Y-68585387D01*
X177540613Y-68501511D01*
X177437886Y-68442201D01*
X177323309Y-68411500D01*
X177204691Y-68411500D01*
X177090114Y-68442201D01*
X177090112Y-68442201D01*
X177090112Y-68442202D01*
X176987387Y-68501511D01*
X176987384Y-68501513D01*
X176903513Y-68585384D01*
X176903511Y-68585387D01*
X176859980Y-68660785D01*
X176844201Y-68688114D01*
X176813500Y-68802691D01*
X175910500Y-68802691D01*
X175910500Y-66974421D01*
X179749975Y-66974421D01*
X180074001Y-67298447D01*
X180074002Y-67298447D01*
X180398026Y-66974421D01*
X180292769Y-66930822D01*
X180292760Y-66930819D01*
X180147873Y-66902000D01*
X180000128Y-66902000D01*
X179855241Y-66930819D01*
X179855237Y-66930821D01*
X179749975Y-66974421D01*
X175910500Y-66974421D01*
X175910500Y-61506544D01*
X175930185Y-61439505D01*
X175946819Y-61418863D01*
X176270744Y-61094938D01*
X176628815Y-60736866D01*
X176690136Y-60703383D01*
X176759827Y-60708367D01*
X176815761Y-60750238D01*
X176840178Y-60815703D01*
X176836269Y-60856641D01*
X176824500Y-60900563D01*
X176824500Y-60900565D01*
X176824500Y-60999435D01*
X176850090Y-61094938D01*
X176899525Y-61180562D01*
X176969438Y-61250475D01*
X177055062Y-61299910D01*
X177150565Y-61325500D01*
X177150567Y-61325500D01*
X177249433Y-61325500D01*
X177249435Y-61325500D01*
X177314939Y-61307948D01*
X177326969Y-61304725D01*
X177351175Y-61300751D01*
X177355113Y-61300500D01*
X177396144Y-61300500D01*
X177408950Y-61297068D01*
X177421245Y-61296285D01*
X177443782Y-61301371D01*
X177466878Y-61301919D01*
X177477219Y-61308917D01*
X177489400Y-61311666D01*
X177505608Y-61328127D01*
X177524744Y-61341076D01*
X177536515Y-61358029D01*
X177549525Y-61380562D01*
X177619438Y-61450475D01*
X177705062Y-61499910D01*
X177800565Y-61525500D01*
X177800567Y-61525500D01*
X177907562Y-61525500D01*
X177907562Y-61528825D01*
X177961290Y-61537174D01*
X178013571Y-61583526D01*
X178032500Y-61649376D01*
X178032500Y-62444125D01*
X178012815Y-62511164D01*
X177996181Y-62531806D01*
X177011531Y-63516455D01*
X177011529Y-63516458D01*
X176980942Y-63569438D01*
X176980941Y-63569440D01*
X176965386Y-63596381D01*
X176941500Y-63685525D01*
X176941500Y-64317500D01*
X176921815Y-64384539D01*
X176869011Y-64430294D01*
X176817500Y-64441500D01*
X176713691Y-64441500D01*
X176599114Y-64472201D01*
X176599112Y-64472201D01*
X176599112Y-64472202D01*
X176496387Y-64531511D01*
X176496384Y-64531513D01*
X176412513Y-64615384D01*
X176412511Y-64615387D01*
X176353201Y-64718114D01*
X176322500Y-64832691D01*
X176322500Y-64951309D01*
X176353201Y-65065886D01*
X176412511Y-65168613D01*
X176496387Y-65252489D01*
X176599114Y-65311799D01*
X176713691Y-65342500D01*
X176713694Y-65342500D01*
X176832300Y-65342500D01*
X176832309Y-65342500D01*
X176832317Y-65342497D01*
X176836353Y-65341966D01*
X176839779Y-65342500D01*
X176840436Y-65342500D01*
X176840436Y-65342602D01*
X176905389Y-65352726D01*
X176957650Y-65399101D01*
X176961442Y-65406456D01*
X176965385Y-65413286D01*
X176965386Y-65413288D01*
X177011530Y-65493212D01*
X177100318Y-65582000D01*
X177185684Y-65667365D01*
X177205387Y-65693041D01*
X177245525Y-65762562D01*
X177315438Y-65832475D01*
X177401062Y-65881910D01*
X177496565Y-65907500D01*
X177496567Y-65907500D01*
X177595432Y-65907500D01*
X177595435Y-65907500D01*
X177690938Y-65881910D01*
X177732346Y-65858002D01*
X177800246Y-65841530D01*
X177866273Y-65864382D01*
X177882027Y-65877709D01*
X178289685Y-66285367D01*
X178309391Y-66311048D01*
X178349525Y-66380562D01*
X178419438Y-66450475D01*
X178505062Y-66499910D01*
X178600565Y-66525500D01*
X178600567Y-66525500D01*
X178699432Y-66525500D01*
X178699435Y-66525500D01*
X178794938Y-66499910D01*
X178880562Y-66450475D01*
X178950475Y-66380562D01*
X178999910Y-66294938D01*
X179025500Y-66199435D01*
X179025500Y-66100565D01*
X178999910Y-66005062D01*
X178950475Y-65919438D01*
X178880562Y-65849525D01*
X178811048Y-65809391D01*
X178785367Y-65789685D01*
X178386819Y-65391137D01*
X178353334Y-65329814D01*
X178350500Y-65303456D01*
X178350500Y-63750544D01*
X178370185Y-63683505D01*
X178386819Y-63662863D01*
X178669621Y-63380061D01*
X178963470Y-63086212D01*
X179009614Y-63006288D01*
X179033500Y-62917144D01*
X179033500Y-61432506D01*
X179053185Y-61365467D01*
X179105989Y-61319712D01*
X179175147Y-61309768D01*
X179189577Y-61312727D01*
X179274565Y-61335500D01*
X179274568Y-61335500D01*
X179373432Y-61335500D01*
X179373435Y-61335500D01*
X179468938Y-61309910D01*
X179554562Y-61260475D01*
X179624475Y-61190562D01*
X179673910Y-61104938D01*
X179699500Y-61009435D01*
X179699500Y-60910565D01*
X179673910Y-60815062D01*
X179624475Y-60729438D01*
X179554562Y-60659525D01*
X179505611Y-60631263D01*
X179457398Y-60580697D01*
X179444176Y-60512090D01*
X179444676Y-60507682D01*
X179445497Y-60501442D01*
X179445500Y-60501435D01*
X179445500Y-60402565D01*
X179419910Y-60307062D01*
X179370475Y-60221438D01*
X179360040Y-60211003D01*
X179326555Y-60149680D01*
X179331539Y-60079988D01*
X179360040Y-60035641D01*
X179531795Y-59863886D01*
X179712322Y-59683359D01*
X179773641Y-59649877D01*
X179843332Y-59654861D01*
X179887680Y-59683362D01*
X180439685Y-60235367D01*
X180459391Y-60261048D01*
X180499525Y-60330562D01*
X180569438Y-60400475D01*
X180655062Y-60449910D01*
X180750565Y-60475500D01*
X180750567Y-60475500D01*
X180849432Y-60475500D01*
X180849435Y-60475500D01*
X180944938Y-60449910D01*
X181030562Y-60400475D01*
X181100475Y-60330562D01*
X181149910Y-60244938D01*
X181175500Y-60149435D01*
X181175500Y-60050565D01*
X181149910Y-59955062D01*
X181100475Y-59869438D01*
X181030562Y-59799525D01*
X180961048Y-59759391D01*
X180935367Y-59739685D01*
X180436819Y-59241137D01*
X180403334Y-59179814D01*
X180400500Y-59153456D01*
X180400500Y-56392000D01*
X181868138Y-56392000D01*
X182671012Y-56392000D01*
X182653795Y-56401940D01*
X182597940Y-56457795D01*
X182558444Y-56526204D01*
X182538000Y-56602504D01*
X182538000Y-56681496D01*
X182558444Y-56757796D01*
X182597940Y-56826205D01*
X182653795Y-56882060D01*
X182671012Y-56892000D01*
X181868138Y-56892000D01*
X181876430Y-56933690D01*
X181876430Y-56933692D01*
X181951807Y-57115671D01*
X181951814Y-57115684D01*
X182061248Y-57279462D01*
X182061251Y-57279466D01*
X182200533Y-57418748D01*
X182200537Y-57418751D01*
X182364315Y-57528185D01*
X182364328Y-57528192D01*
X182546306Y-57603569D01*
X182546318Y-57603572D01*
X182739504Y-57641999D01*
X182739508Y-57642000D01*
X183138000Y-57642000D01*
X183138000Y-56942000D01*
X183638000Y-56942000D01*
X183638000Y-57549933D01*
X183618315Y-57616972D01*
X183589488Y-57648307D01*
X183585340Y-57651489D01*
X183487493Y-57749337D01*
X183487492Y-57749338D01*
X183418313Y-57869161D01*
X183418312Y-57869164D01*
X183382500Y-58002817D01*
X183382500Y-58141183D01*
X183408329Y-58237576D01*
X183418312Y-58274835D01*
X183418313Y-58274838D01*
X183487492Y-58394661D01*
X183487494Y-58394664D01*
X183487495Y-58394665D01*
X183585335Y-58492505D01*
X183585336Y-58492506D01*
X183585338Y-58492507D01*
X183645249Y-58527096D01*
X183705164Y-58561688D01*
X183838817Y-58597500D01*
X183838819Y-58597500D01*
X183977180Y-58597500D01*
X183977183Y-58597500D01*
X184051409Y-58577611D01*
X184121256Y-58579274D01*
X184179119Y-58618436D01*
X184206623Y-58682664D01*
X184207500Y-58697386D01*
X184207500Y-59749309D01*
X184238201Y-59863886D01*
X184297511Y-59966613D01*
X184381387Y-60050489D01*
X184484114Y-60109799D01*
X184598691Y-60140500D01*
X184598694Y-60140500D01*
X184717306Y-60140500D01*
X184717309Y-60140500D01*
X184831886Y-60109799D01*
X184934613Y-60050489D01*
X185018489Y-59966613D01*
X185077799Y-59863886D01*
X185108500Y-59749309D01*
X185108500Y-58009195D01*
X185125114Y-57947194D01*
X185157796Y-57890587D01*
X185157797Y-57890586D01*
X185157797Y-57890584D01*
X185157799Y-57890582D01*
X185175693Y-57823799D01*
X185188500Y-57776004D01*
X185188500Y-57344691D01*
X185157799Y-57230114D01*
X185098489Y-57127387D01*
X185014613Y-57043511D01*
X185012607Y-57042353D01*
X184968778Y-57017047D01*
X184952265Y-56999728D01*
X184932854Y-56985731D01*
X184928593Y-56974902D01*
X184920563Y-56966480D01*
X184916034Y-56942981D01*
X184907273Y-56920713D01*
X184908245Y-56902566D01*
X184907341Y-56897873D01*
X184908151Y-56892351D01*
X184907864Y-56892000D01*
X184104988Y-56892000D01*
X184122205Y-56882060D01*
X184178060Y-56826205D01*
X184217556Y-56757796D01*
X184238000Y-56681496D01*
X184238000Y-56602504D01*
X184217556Y-56526204D01*
X184178060Y-56457795D01*
X184122205Y-56401940D01*
X184104988Y-56392000D01*
X184907862Y-56392000D01*
X186218138Y-56392000D01*
X187021012Y-56392000D01*
X187003795Y-56401940D01*
X186947940Y-56457795D01*
X186908444Y-56526204D01*
X186888000Y-56602504D01*
X186888000Y-56681496D01*
X186908444Y-56757796D01*
X186947940Y-56826205D01*
X187003795Y-56882060D01*
X187021012Y-56892000D01*
X186218138Y-56892000D01*
X186226430Y-56933690D01*
X186226430Y-56933692D01*
X186301807Y-57115671D01*
X186301814Y-57115684D01*
X186411248Y-57279462D01*
X186411251Y-57279466D01*
X186550533Y-57418748D01*
X186550537Y-57418751D01*
X186714315Y-57528185D01*
X186714328Y-57528192D01*
X186896306Y-57603569D01*
X186896318Y-57603572D01*
X187089504Y-57641999D01*
X187089508Y-57642000D01*
X187338000Y-57642000D01*
X187338000Y-56942000D01*
X187838000Y-56942000D01*
X187838000Y-57642000D01*
X188086492Y-57642000D01*
X188086495Y-57641999D01*
X188279681Y-57603572D01*
X188279693Y-57603569D01*
X188461671Y-57528192D01*
X188461684Y-57528185D01*
X188625462Y-57418751D01*
X188625466Y-57418748D01*
X188764748Y-57279466D01*
X188764751Y-57279462D01*
X188874185Y-57115684D01*
X188874192Y-57115671D01*
X188949569Y-56933692D01*
X188949569Y-56933690D01*
X188957862Y-56892000D01*
X188154988Y-56892000D01*
X188172205Y-56882060D01*
X188228060Y-56826205D01*
X188267556Y-56757796D01*
X188288000Y-56681496D01*
X188288000Y-56602504D01*
X188267556Y-56526204D01*
X188228060Y-56457795D01*
X188172205Y-56401940D01*
X188154988Y-56392000D01*
X188957862Y-56392000D01*
X188949569Y-56350309D01*
X188949569Y-56350307D01*
X188874192Y-56168328D01*
X188874185Y-56168315D01*
X188764751Y-56004537D01*
X188764748Y-56004533D01*
X188625466Y-55865251D01*
X188625462Y-55865248D01*
X188461684Y-55755814D01*
X188461671Y-55755807D01*
X188279693Y-55680430D01*
X188279681Y-55680427D01*
X188086495Y-55642000D01*
X187838000Y-55642000D01*
X187838000Y-56342000D01*
X187338000Y-56342000D01*
X187338000Y-55642000D01*
X187089504Y-55642000D01*
X186896318Y-55680427D01*
X186896306Y-55680430D01*
X186714328Y-55755807D01*
X186714315Y-55755814D01*
X186550537Y-55865248D01*
X186550533Y-55865251D01*
X186411251Y-56004533D01*
X186411248Y-56004537D01*
X186301814Y-56168315D01*
X186301807Y-56168328D01*
X186226430Y-56350307D01*
X186226430Y-56350309D01*
X186218138Y-56392000D01*
X184907862Y-56392000D01*
X184899569Y-56350309D01*
X184899569Y-56350307D01*
X184824192Y-56168328D01*
X184824185Y-56168315D01*
X184714751Y-56004537D01*
X184714748Y-56004533D01*
X184575466Y-55865251D01*
X184575462Y-55865248D01*
X184411684Y-55755814D01*
X184411671Y-55755807D01*
X184229693Y-55680430D01*
X184229681Y-55680427D01*
X184036495Y-55642000D01*
X183638000Y-55642000D01*
X183638000Y-56342000D01*
X183138000Y-56342000D01*
X183138000Y-55642000D01*
X182739504Y-55642000D01*
X182546318Y-55680427D01*
X182546306Y-55680430D01*
X182364328Y-55755807D01*
X182364315Y-55755814D01*
X182200537Y-55865248D01*
X182200533Y-55865251D01*
X182061251Y-56004533D01*
X182061248Y-56004537D01*
X181951814Y-56168315D01*
X181951807Y-56168328D01*
X181876430Y-56350307D01*
X181876430Y-56350309D01*
X181868138Y-56392000D01*
X180400500Y-56392000D01*
X180400500Y-55861500D01*
X180420185Y-55794461D01*
X180472989Y-55748706D01*
X180524500Y-55737500D01*
X180559306Y-55737500D01*
X180559309Y-55737500D01*
X180673886Y-55706799D01*
X180776613Y-55647489D01*
X180860489Y-55563613D01*
X180919799Y-55460886D01*
X180950500Y-55346309D01*
X180950500Y-55227691D01*
X180919799Y-55113114D01*
X180860489Y-55010387D01*
X180776613Y-54926511D01*
X180673886Y-54867201D01*
X180562972Y-54837481D01*
X180503315Y-54801118D01*
X180475296Y-54749805D01*
X180449910Y-54655062D01*
X180400475Y-54569438D01*
X180376040Y-54545003D01*
X180371701Y-54537057D01*
X180364454Y-54531632D01*
X180355219Y-54506872D01*
X180342555Y-54483680D01*
X180343200Y-54474650D01*
X180340037Y-54466168D01*
X180345653Y-54440347D01*
X180347539Y-54413988D01*
X180353357Y-54404934D01*
X180354889Y-54397895D01*
X180376040Y-54369641D01*
X180448990Y-54296691D01*
X182287500Y-54296691D01*
X182287500Y-54415309D01*
X182318201Y-54529886D01*
X182377511Y-54632613D01*
X182461387Y-54716489D01*
X182564114Y-54775799D01*
X182678691Y-54806500D01*
X182678694Y-54806500D01*
X182797306Y-54806500D01*
X182797309Y-54806500D01*
X182911886Y-54775799D01*
X183014613Y-54716489D01*
X183098489Y-54632613D01*
X183157799Y-54529886D01*
X183188500Y-54415309D01*
X183188500Y-54296691D01*
X183157799Y-54182114D01*
X183098489Y-54079387D01*
X183014613Y-53995511D01*
X182911886Y-53936201D01*
X182797309Y-53905500D01*
X182678691Y-53905500D01*
X182564114Y-53936201D01*
X182564112Y-53936201D01*
X182564112Y-53936202D01*
X182461387Y-53995511D01*
X182461384Y-53995513D01*
X182377513Y-54079384D01*
X182377511Y-54079387D01*
X182318201Y-54182114D01*
X182287500Y-54296691D01*
X180448990Y-54296691D01*
X180496246Y-54249435D01*
X180730470Y-54015212D01*
X180776614Y-53935288D01*
X180781782Y-53916000D01*
X180800500Y-53846144D01*
X180800500Y-53453856D01*
X180776614Y-53364712D01*
X180731170Y-53286000D01*
X180714697Y-53218099D01*
X180737550Y-53152073D01*
X180792471Y-53108882D01*
X180838557Y-53100000D01*
X182950000Y-53100000D01*
X182950000Y-51457941D01*
X182969685Y-51390902D01*
X183022489Y-51345147D01*
X183091647Y-51335203D01*
X183155203Y-51364228D01*
X183181386Y-51395939D01*
X183239511Y-51496613D01*
X183323387Y-51580489D01*
X183426114Y-51639799D01*
X183540691Y-51670500D01*
X183540694Y-51670500D01*
X183659306Y-51670500D01*
X183659309Y-51670500D01*
X183773886Y-51639799D01*
X183876613Y-51580489D01*
X183960489Y-51496613D01*
X184019799Y-51393886D01*
X184050500Y-51279309D01*
X184050500Y-51160691D01*
X184019799Y-51046114D01*
X183960489Y-50943387D01*
X183876613Y-50859511D01*
X183773886Y-50800201D01*
X183659309Y-50769500D01*
X183540691Y-50769500D01*
X183426114Y-50800201D01*
X183426112Y-50800201D01*
X183426112Y-50800202D01*
X183323387Y-50859511D01*
X183323384Y-50859513D01*
X183239513Y-50943384D01*
X183239507Y-50943393D01*
X183181386Y-51044059D01*
X183130819Y-51092274D01*
X183062212Y-51105496D01*
X182997347Y-51079528D01*
X182956819Y-51022613D01*
X182950000Y-50982058D01*
X182950000Y-49814691D01*
X186149500Y-49814691D01*
X186149500Y-49933309D01*
X186151853Y-49942090D01*
X186165099Y-49991525D01*
X186180201Y-50047888D01*
X186206837Y-50094021D01*
X186239511Y-50150614D01*
X186323386Y-50234489D01*
X186426113Y-50293799D01*
X186450321Y-50300284D01*
X186450324Y-50300286D01*
X186450325Y-50300286D01*
X186480447Y-50308357D01*
X186540691Y-50324500D01*
X186540693Y-50324500D01*
X186659308Y-50324500D01*
X186659309Y-50324500D01*
X186749673Y-50300286D01*
X186773887Y-50293799D01*
X186876614Y-50234489D01*
X187348285Y-49762819D01*
X187409608Y-49729334D01*
X187435966Y-49726500D01*
X188527306Y-49726500D01*
X188527309Y-49726500D01*
X188641886Y-49695799D01*
X188744613Y-49636489D01*
X188828489Y-49552613D01*
X188887799Y-49449886D01*
X188918500Y-49335309D01*
X188918500Y-49216691D01*
X188887799Y-49102114D01*
X188828489Y-48999387D01*
X188744613Y-48915511D01*
X188641886Y-48856201D01*
X188527309Y-48825500D01*
X187138691Y-48825500D01*
X187048325Y-48849713D01*
X187048324Y-48849712D01*
X187024115Y-48856200D01*
X187024106Y-48856204D01*
X186921392Y-48915505D01*
X186921384Y-48915511D01*
X186239513Y-49597383D01*
X186239509Y-49597389D01*
X186180200Y-49700114D01*
X186175309Y-49718366D01*
X186175288Y-49718448D01*
X186175030Y-49719413D01*
X186149500Y-49814691D01*
X182950000Y-49814691D01*
X182950000Y-48100000D01*
X178600000Y-48100000D01*
X178600000Y-49083536D01*
X178580315Y-49150575D01*
X178527511Y-49196330D01*
X178458353Y-49206274D01*
X178394797Y-49177249D01*
X178388319Y-49171217D01*
X178330615Y-49113513D01*
X178330613Y-49113511D01*
X178227886Y-49054201D01*
X178113309Y-49023500D01*
X178024500Y-49023500D01*
X177957461Y-49003815D01*
X177911706Y-48951011D01*
X177900500Y-48899500D01*
X177900500Y-47750565D01*
X186524500Y-47750565D01*
X186524500Y-47849435D01*
X186550090Y-47944938D01*
X186599525Y-48030562D01*
X186669438Y-48100475D01*
X186755062Y-48149910D01*
X186850565Y-48175500D01*
X186850567Y-48175500D01*
X186949432Y-48175500D01*
X186949435Y-48175500D01*
X187044938Y-48149910D01*
X187130562Y-48100475D01*
X187200475Y-48030562D01*
X187240608Y-47961047D01*
X187260311Y-47935369D01*
X189170470Y-46025212D01*
X189216614Y-45945288D01*
X189221285Y-45927856D01*
X189240500Y-45856144D01*
X189240500Y-45659061D01*
X189244725Y-45626968D01*
X189255300Y-45587500D01*
X189265500Y-45549435D01*
X189265500Y-45450565D01*
X189239910Y-45355062D01*
X189190475Y-45269438D01*
X189120562Y-45199525D01*
X189034938Y-45150090D01*
X188939435Y-45124500D01*
X188840565Y-45124500D01*
X188745062Y-45150090D01*
X188745060Y-45150091D01*
X188745059Y-45150091D01*
X188659436Y-45199526D01*
X188589526Y-45269436D01*
X188540091Y-45355059D01*
X188540091Y-45355060D01*
X188540090Y-45355062D01*
X188514500Y-45450565D01*
X188514500Y-45450567D01*
X188514500Y-45549436D01*
X188525637Y-45591001D01*
X188523974Y-45660851D01*
X188493543Y-45710774D01*
X186764632Y-47439684D01*
X186738953Y-47459389D01*
X186669441Y-47499523D01*
X186669435Y-47499527D01*
X186599526Y-47569436D01*
X186550091Y-47655059D01*
X186550091Y-47655060D01*
X186550090Y-47655062D01*
X186524500Y-47750565D01*
X177900500Y-47750565D01*
X177900500Y-46405758D01*
X177900500Y-46405756D01*
X177876614Y-46316612D01*
X177830470Y-46236688D01*
X177366994Y-45773212D01*
X177333509Y-45711889D01*
X177338493Y-45642197D01*
X177380365Y-45586264D01*
X177422581Y-45565756D01*
X177436938Y-45561910D01*
X177522562Y-45512475D01*
X177592475Y-45442562D01*
X177641910Y-45356938D01*
X177667500Y-45261435D01*
X177667500Y-45191463D01*
X177687185Y-45124424D01*
X177739989Y-45078669D01*
X177809147Y-45068725D01*
X177823570Y-45071683D01*
X177889691Y-45089400D01*
X177889695Y-45089400D01*
X178008306Y-45089400D01*
X178008309Y-45089400D01*
X178122886Y-45058699D01*
X178225613Y-44999389D01*
X178309489Y-44915513D01*
X178368799Y-44812786D01*
X178399500Y-44698209D01*
X178399500Y-44579591D01*
X178368799Y-44465014D01*
X178309489Y-44362287D01*
X178225613Y-44278411D01*
X178122886Y-44219101D01*
X178008309Y-44188400D01*
X177889691Y-44188400D01*
X177775114Y-44219101D01*
X177775112Y-44219101D01*
X177775112Y-44219102D01*
X177672387Y-44278411D01*
X177672384Y-44278413D01*
X177588513Y-44362284D01*
X177588511Y-44362287D01*
X177529201Y-44465014D01*
X177498500Y-44579591D01*
X177498500Y-44579593D01*
X177498500Y-44623456D01*
X177478815Y-44690495D01*
X177426011Y-44736250D01*
X177356853Y-44746194D01*
X177293297Y-44717169D01*
X177286819Y-44711137D01*
X176503113Y-43927431D01*
X176503108Y-43927427D01*
X176423190Y-43881287D01*
X176423189Y-43881286D01*
X176423188Y-43881286D01*
X176334044Y-43857400D01*
X176334043Y-43857400D01*
X176255500Y-43857400D01*
X176188461Y-43837715D01*
X176142706Y-43784911D01*
X176131500Y-43733400D01*
X176131500Y-43673593D01*
X176131500Y-43673591D01*
X176100799Y-43559014D01*
X176041489Y-43456287D01*
X175957613Y-43372411D01*
X175854886Y-43313101D01*
X175740309Y-43282400D01*
X175621691Y-43282400D01*
X175507114Y-43313101D01*
X175507112Y-43313101D01*
X175507112Y-43313102D01*
X175404387Y-43372411D01*
X175404384Y-43372413D01*
X175320513Y-43456284D01*
X175320511Y-43456287D01*
X175261201Y-43559014D01*
X175230500Y-43673591D01*
X175230500Y-43673593D01*
X175230500Y-43732761D01*
X175210815Y-43799800D01*
X175158011Y-43845555D01*
X175088853Y-43855499D01*
X175025297Y-43826474D01*
X175018819Y-43820442D01*
X173989819Y-42791442D01*
X173956334Y-42730119D01*
X173953500Y-42703761D01*
X173953500Y-41027778D01*
X182575500Y-41027778D01*
X182575500Y-41248222D01*
X182580607Y-41280468D01*
X182609985Y-41465952D01*
X182678103Y-41675603D01*
X182678104Y-41675606D01*
X182778187Y-41872025D01*
X182907752Y-42050358D01*
X182907756Y-42050363D01*
X183063636Y-42206243D01*
X183063641Y-42206247D01*
X183177479Y-42288954D01*
X183241978Y-42335815D01*
X183370375Y-42401237D01*
X183438393Y-42435895D01*
X183438396Y-42435896D01*
X183543221Y-42469955D01*
X183648049Y-42504015D01*
X183865778Y-42538500D01*
X183865779Y-42538500D01*
X184086221Y-42538500D01*
X184086222Y-42538500D01*
X184303951Y-42504015D01*
X184513606Y-42435895D01*
X184710022Y-42335815D01*
X184888365Y-42206242D01*
X185044242Y-42050365D01*
X185173815Y-41872022D01*
X185273895Y-41675606D01*
X185342015Y-41465951D01*
X185376500Y-41248222D01*
X185376500Y-41027778D01*
X185342015Y-40810049D01*
X185289850Y-40649500D01*
X185273896Y-40600396D01*
X185273895Y-40600393D01*
X185220224Y-40495060D01*
X185173815Y-40403978D01*
X185126988Y-40339526D01*
X185044247Y-40225641D01*
X185044243Y-40225636D01*
X184888363Y-40069756D01*
X184888358Y-40069752D01*
X184710025Y-39940187D01*
X184710024Y-39940186D01*
X184710022Y-39940185D01*
X184612028Y-39890254D01*
X184513606Y-39840104D01*
X184513603Y-39840103D01*
X184303952Y-39771985D01*
X184195086Y-39754742D01*
X184086222Y-39737500D01*
X183865778Y-39737500D01*
X183793201Y-39748995D01*
X183648047Y-39771985D01*
X183438396Y-39840103D01*
X183438393Y-39840104D01*
X183241974Y-39940187D01*
X183063641Y-40069752D01*
X183063636Y-40069756D01*
X182907756Y-40225636D01*
X182907752Y-40225641D01*
X182778187Y-40403974D01*
X182678104Y-40600393D01*
X182678103Y-40600396D01*
X182609985Y-40810047D01*
X182609985Y-40810049D01*
X182575500Y-41027778D01*
X173953500Y-41027778D01*
X173953500Y-39957419D01*
X173953500Y-39952856D01*
X173950240Y-39940691D01*
X176549500Y-39940691D01*
X176549500Y-40059309D01*
X176580201Y-40173886D01*
X176639511Y-40276613D01*
X176723387Y-40360489D01*
X176826114Y-40419799D01*
X176940691Y-40450500D01*
X176940694Y-40450500D01*
X177059306Y-40450500D01*
X177059309Y-40450500D01*
X177173886Y-40419799D01*
X177276613Y-40360489D01*
X177360489Y-40276613D01*
X177419799Y-40173886D01*
X177450500Y-40059309D01*
X177450500Y-39940691D01*
X177419799Y-39826114D01*
X177360489Y-39723387D01*
X177276613Y-39639511D01*
X177173886Y-39580201D01*
X177059309Y-39549500D01*
X176940691Y-39549500D01*
X176826114Y-39580201D01*
X176826112Y-39580201D01*
X176826112Y-39580202D01*
X176723387Y-39639511D01*
X176723384Y-39639513D01*
X176639513Y-39723384D01*
X176639511Y-39723387D01*
X176582497Y-39822138D01*
X176580201Y-39826114D01*
X176549500Y-39940691D01*
X173950240Y-39940691D01*
X173929614Y-39863712D01*
X173919049Y-39845413D01*
X173883470Y-39783788D01*
X173588314Y-39488632D01*
X173568607Y-39462950D01*
X173528475Y-39393438D01*
X173458562Y-39323525D01*
X173372938Y-39274090D01*
X173277435Y-39248500D01*
X173178565Y-39248500D01*
X173083062Y-39274090D01*
X173083060Y-39274091D01*
X173083059Y-39274091D01*
X172997436Y-39323526D01*
X172927526Y-39393436D01*
X172878091Y-39479059D01*
X172878091Y-39479060D01*
X172878090Y-39479062D01*
X172852500Y-39574565D01*
X172852500Y-39673435D01*
X172878090Y-39768938D01*
X172927525Y-39854562D01*
X172997438Y-39924475D01*
X173066952Y-39964608D01*
X173092632Y-39984314D01*
X173216181Y-40107863D01*
X173249666Y-40169186D01*
X173252500Y-40195544D01*
X173252500Y-41673540D01*
X173232815Y-41740579D01*
X173180011Y-41786334D01*
X173160595Y-41793314D01*
X173083066Y-41814088D01*
X173083059Y-41814091D01*
X172997436Y-41863526D01*
X172927526Y-41933436D01*
X172878091Y-42019059D01*
X172878091Y-42019060D01*
X172878090Y-42019062D01*
X172852500Y-42114565D01*
X172852500Y-42213435D01*
X172864509Y-42258252D01*
X172873275Y-42290968D01*
X172877500Y-42323061D01*
X172877500Y-42995713D01*
X172897779Y-43071393D01*
X172901386Y-43084856D01*
X172901387Y-43084859D01*
X172947527Y-43164777D01*
X172947531Y-43164782D01*
X173670568Y-43887819D01*
X173704053Y-43949142D01*
X173699069Y-44018834D01*
X173657197Y-44074767D01*
X173591733Y-44099184D01*
X173582887Y-44099500D01*
X172879062Y-44099500D01*
X172863097Y-44098468D01*
X172854925Y-44097407D01*
X172769435Y-44074500D01*
X172678484Y-44074500D01*
X172670535Y-44073468D01*
X172645597Y-44062489D01*
X172619461Y-44054815D01*
X172614092Y-44048619D01*
X172606588Y-44045316D01*
X172591542Y-44022595D01*
X172573706Y-44002011D01*
X172571648Y-43992552D01*
X172568012Y-43987061D01*
X172567848Y-43975083D01*
X172562500Y-43950500D01*
X172562500Y-41609858D01*
X172562500Y-41609856D01*
X172538614Y-41520712D01*
X172538611Y-41520706D01*
X172492473Y-41440794D01*
X172492470Y-41440791D01*
X172492469Y-41440788D01*
X172427212Y-41375531D01*
X172344818Y-41293136D01*
X172322954Y-41253094D01*
X172311333Y-41231812D01*
X172311333Y-41231806D01*
X172308500Y-41205455D01*
X172308500Y-40799061D01*
X172312725Y-40766968D01*
X172333500Y-40689435D01*
X172333500Y-40590565D01*
X172307910Y-40495062D01*
X172258475Y-40409438D01*
X172188562Y-40339525D01*
X172102938Y-40290090D01*
X172007435Y-40264500D01*
X171908565Y-40264500D01*
X171813062Y-40290090D01*
X171813060Y-40290091D01*
X171813059Y-40290091D01*
X171727436Y-40339526D01*
X171657526Y-40409436D01*
X171608091Y-40495059D01*
X171608090Y-40495060D01*
X171591335Y-40557594D01*
X171554970Y-40617254D01*
X171492123Y-40647783D01*
X171471560Y-40649500D01*
X171071842Y-40649500D01*
X171004803Y-40629815D01*
X170984161Y-40613181D01*
X170288314Y-39917334D01*
X170268607Y-39891652D01*
X170267800Y-39890254D01*
X170228475Y-39822140D01*
X170158562Y-39752227D01*
X170072938Y-39702792D01*
X169977435Y-39677202D01*
X169878565Y-39677202D01*
X169783062Y-39702792D01*
X169783060Y-39702793D01*
X169783059Y-39702793D01*
X169697436Y-39752228D01*
X169627526Y-39822138D01*
X169591119Y-39885196D01*
X169585813Y-39890254D01*
X169583277Y-39897133D01*
X169560866Y-39914040D01*
X169540551Y-39933410D01*
X169533353Y-39934797D01*
X169527500Y-39939213D01*
X169499504Y-39941320D01*
X169471944Y-39946632D01*
X169465139Y-39943907D01*
X169457828Y-39944458D01*
X169433137Y-39931095D01*
X169407080Y-39920663D01*
X169401314Y-39913872D01*
X169396380Y-39911202D01*
X169386346Y-39896244D01*
X169375124Y-39883027D01*
X169370299Y-39874268D01*
X169369614Y-39871712D01*
X169354430Y-39845413D01*
X169353826Y-39844367D01*
X169353814Y-39844345D01*
X169323472Y-39791791D01*
X169323468Y-39791786D01*
X169263519Y-39731837D01*
X169230034Y-39670514D01*
X169227200Y-39644156D01*
X169227200Y-39362465D01*
X169246885Y-39295426D01*
X169299689Y-39249671D01*
X169368847Y-39239727D01*
X169398649Y-39247902D01*
X169469043Y-39277061D01*
X169561371Y-39295426D01*
X169603465Y-39303799D01*
X169603469Y-39303800D01*
X169603470Y-39303800D01*
X169740531Y-39303800D01*
X169740532Y-39303799D01*
X169874957Y-39277061D01*
X170001585Y-39224610D01*
X170115547Y-39148463D01*
X170212463Y-39051547D01*
X170288610Y-38937585D01*
X170341061Y-38810957D01*
X170367800Y-38676530D01*
X170367800Y-38539470D01*
X170341061Y-38405043D01*
X170341059Y-38405038D01*
X170288613Y-38278421D01*
X170288606Y-38278408D01*
X170212463Y-38164453D01*
X170212460Y-38164449D01*
X170202192Y-38154181D01*
X170168707Y-38092858D01*
X170173691Y-38023166D01*
X170215563Y-37967233D01*
X170281027Y-37942816D01*
X170289873Y-37942500D01*
X171086127Y-37942500D01*
X171153166Y-37962185D01*
X171198921Y-38014989D01*
X171208865Y-38084147D01*
X171179840Y-38147703D01*
X171173808Y-38154181D01*
X171163539Y-38164449D01*
X171163536Y-38164453D01*
X171087393Y-38278408D01*
X171087386Y-38278421D01*
X171034940Y-38405038D01*
X171034937Y-38405050D01*
X171008200Y-38539465D01*
X171008200Y-38676534D01*
X171034937Y-38810949D01*
X171034940Y-38810961D01*
X171087386Y-38937578D01*
X171087393Y-38937591D01*
X171163536Y-39051546D01*
X171163539Y-39051550D01*
X171260449Y-39148460D01*
X171260453Y-39148463D01*
X171374408Y-39224606D01*
X171374421Y-39224613D01*
X171493870Y-39274090D01*
X171501043Y-39277061D01*
X171593371Y-39295426D01*
X171635465Y-39303799D01*
X171635469Y-39303800D01*
X171635470Y-39303800D01*
X171772531Y-39303800D01*
X171772532Y-39303799D01*
X171906957Y-39277061D01*
X172033585Y-39224610D01*
X172147547Y-39148463D01*
X172244463Y-39051547D01*
X172320610Y-38937585D01*
X172373061Y-38810957D01*
X172399800Y-38676530D01*
X172399800Y-38539470D01*
X172373061Y-38405043D01*
X172373059Y-38405038D01*
X172320613Y-38278421D01*
X172320606Y-38278408D01*
X172244463Y-38164453D01*
X172244460Y-38164449D01*
X172234192Y-38154181D01*
X172223579Y-38134744D01*
X172209079Y-38118011D01*
X172207162Y-38104679D01*
X172200707Y-38092858D01*
X172202286Y-38070771D01*
X172199135Y-38048853D01*
X172204730Y-38036601D01*
X172205691Y-38023166D01*
X172218961Y-38005439D01*
X172228160Y-37985297D01*
X172239491Y-37978014D01*
X172247563Y-37967233D01*
X172268308Y-37959495D01*
X172286938Y-37947523D01*
X172308856Y-37944371D01*
X172313027Y-37942816D01*
X172321873Y-37942500D01*
X172560938Y-37942500D01*
X172593031Y-37946725D01*
X172607120Y-37950500D01*
X172670565Y-37967500D01*
X172670567Y-37967500D01*
X172769432Y-37967500D01*
X172769435Y-37967500D01*
X172864938Y-37941910D01*
X172950562Y-37892475D01*
X173020475Y-37822562D01*
X173069910Y-37736938D01*
X173095500Y-37641435D01*
X173095500Y-37542565D01*
X173069910Y-37447062D01*
X173020475Y-37361438D01*
X172950562Y-37291525D01*
X172864938Y-37242090D01*
X172769435Y-37216500D01*
X172670565Y-37216500D01*
X172593031Y-37237275D01*
X172560938Y-37241500D01*
X169517132Y-37241500D01*
X169427988Y-37265386D01*
X169427985Y-37265387D01*
X169348067Y-37311527D01*
X169348062Y-37311531D01*
X169159088Y-37500505D01*
X169097765Y-37533990D01*
X169028073Y-37529006D01*
X168972140Y-37487134D01*
X168951632Y-37444918D01*
X168950500Y-37440693D01*
X168950500Y-37440691D01*
X168919799Y-37326114D01*
X168860489Y-37223387D01*
X168776613Y-37139511D01*
X168673886Y-37080201D01*
X168559309Y-37049500D01*
X168440691Y-37049500D01*
X168326114Y-37080201D01*
X168326112Y-37080201D01*
X168326112Y-37080202D01*
X168223387Y-37139511D01*
X168223384Y-37139513D01*
X168139513Y-37223384D01*
X168139511Y-37223387D01*
X168088621Y-37311531D01*
X168080201Y-37326114D01*
X168049500Y-37440691D01*
X168049500Y-37559309D01*
X168080201Y-37673886D01*
X168139511Y-37776613D01*
X168223387Y-37860489D01*
X168326114Y-37919799D01*
X168440691Y-37950500D01*
X168440694Y-37950500D01*
X168446617Y-37950500D01*
X168513656Y-37970185D01*
X168559411Y-38022989D01*
X168569355Y-38092147D01*
X168554006Y-38136497D01*
X168550088Y-38143283D01*
X168550087Y-38143285D01*
X168550086Y-38143288D01*
X168526200Y-38232432D01*
X168526200Y-39886844D01*
X168528719Y-39896244D01*
X168546032Y-39960858D01*
X168546032Y-39960859D01*
X168550085Y-39975986D01*
X168596227Y-40055908D01*
X168596231Y-40055913D01*
X168656181Y-40115863D01*
X168689666Y-40177186D01*
X168692500Y-40203544D01*
X168692500Y-50774145D01*
X168711965Y-50846791D01*
X168716385Y-50863286D01*
X168716387Y-50863291D01*
X168762527Y-50943208D01*
X168762531Y-50943213D01*
X170696185Y-52876867D01*
X170715891Y-52902548D01*
X170756025Y-52972062D01*
X170825938Y-53041975D01*
X170911562Y-53091410D01*
X171007065Y-53117000D01*
X171007067Y-53117000D01*
X171025500Y-53117000D01*
X171034185Y-53119550D01*
X171043147Y-53118262D01*
X171067187Y-53129240D01*
X171092539Y-53136685D01*
X171098466Y-53143525D01*
X171106703Y-53147287D01*
X171120992Y-53169521D01*
X171138294Y-53189489D01*
X171140581Y-53200003D01*
X171144477Y-53206065D01*
X171149500Y-53241000D01*
X171149500Y-53242000D01*
X171129815Y-53309039D01*
X171077011Y-53354794D01*
X171025500Y-53366000D01*
X171007065Y-53366000D01*
X170911562Y-53391590D01*
X170911560Y-53391591D01*
X170911559Y-53391591D01*
X170825936Y-53441026D01*
X170756026Y-53510936D01*
X170706591Y-53596559D01*
X170706591Y-53596560D01*
X170706590Y-53596562D01*
X170681000Y-53692065D01*
X170681000Y-53692067D01*
X170681000Y-53771606D01*
X170661315Y-53838645D01*
X170608511Y-53884400D01*
X170539353Y-53894344D01*
X170495000Y-53878993D01*
X170444940Y-53850091D01*
X170444939Y-53850090D01*
X170444938Y-53850090D01*
X170349435Y-53824500D01*
X170250565Y-53824500D01*
X170173031Y-53845275D01*
X170140938Y-53849500D01*
X169504892Y-53849500D01*
X169437853Y-53829815D01*
X169397505Y-53787500D01*
X169360491Y-53723390D01*
X169360486Y-53723384D01*
X169276615Y-53639513D01*
X169276613Y-53639511D01*
X169173886Y-53580201D01*
X169059309Y-53549500D01*
X168940691Y-53549500D01*
X168826114Y-53580201D01*
X168826112Y-53580201D01*
X168826112Y-53580202D01*
X168723387Y-53639511D01*
X168723384Y-53639513D01*
X168639513Y-53723384D01*
X168639508Y-53723390D01*
X168602495Y-53787500D01*
X168551928Y-53835716D01*
X168495108Y-53849500D01*
X168146144Y-53849500D01*
X168053856Y-53849500D01*
X167964712Y-53873386D01*
X167964711Y-53873386D01*
X167964709Y-53873387D01*
X167964706Y-53873388D01*
X167884794Y-53919526D01*
X167884785Y-53919533D01*
X167819533Y-53984785D01*
X167819526Y-53984794D01*
X167773388Y-54064706D01*
X167773387Y-54064709D01*
X167773386Y-54064711D01*
X167773386Y-54064712D01*
X167749500Y-54153856D01*
X167749500Y-62746144D01*
X167750985Y-62751685D01*
X167770590Y-62824853D01*
X167773386Y-62835288D01*
X167819527Y-62915208D01*
X167819529Y-62915211D01*
X167819530Y-62915212D01*
X167984670Y-63080352D01*
X168139684Y-63235365D01*
X168159387Y-63261041D01*
X168199525Y-63330562D01*
X168269438Y-63400475D01*
X168355062Y-63449910D01*
X168450565Y-63475500D01*
X168450567Y-63475500D01*
X168549432Y-63475500D01*
X168549435Y-63475500D01*
X168644938Y-63449910D01*
X168730562Y-63400475D01*
X168800475Y-63330562D01*
X168849910Y-63244938D01*
X168875500Y-63149435D01*
X168875500Y-63050565D01*
X168849910Y-62955062D01*
X168828511Y-62917998D01*
X168812039Y-62850100D01*
X168834891Y-62784073D01*
X168889812Y-62740883D01*
X168935899Y-62732000D01*
X170446044Y-62732000D01*
X170513083Y-62751685D01*
X170558838Y-62804489D01*
X170565818Y-62823903D01*
X170568869Y-62835288D01*
X170578421Y-62870939D01*
X170578422Y-62870940D01*
X170627856Y-62956562D01*
X170697769Y-63026475D01*
X170783393Y-63075910D01*
X170878896Y-63101500D01*
X170878898Y-63101500D01*
X170977764Y-63101500D01*
X170977766Y-63101500D01*
X170977767Y-63101499D01*
X170985822Y-63100439D01*
X170986102Y-63102569D01*
X171044623Y-63103954D01*
X171102492Y-63143108D01*
X171130005Y-63207332D01*
X171118428Y-63276236D01*
X171094565Y-63309752D01*
X167764632Y-66639684D01*
X167738953Y-66659389D01*
X167669441Y-66699523D01*
X167669435Y-66699527D01*
X167599526Y-66769436D01*
X167550091Y-66855059D01*
X167550090Y-66855060D01*
X167539475Y-66894679D01*
X167503109Y-66954339D01*
X167440262Y-66984868D01*
X167370887Y-66976573D01*
X167317009Y-66932087D01*
X167295735Y-66865535D01*
X167295700Y-66862585D01*
X167295700Y-61457114D01*
X167603200Y-61468026D01*
X167603200Y-35859102D01*
X178277046Y-35859148D01*
X178344083Y-35878833D01*
X178389838Y-35931637D01*
X178399781Y-36000796D01*
X178370756Y-36064351D01*
X178333340Y-36093632D01*
X178241974Y-36140186D01*
X178063641Y-36269752D01*
X178063636Y-36269756D01*
X177907756Y-36425636D01*
X177907752Y-36425641D01*
X177778187Y-36603974D01*
X177678104Y-36800393D01*
X177678103Y-36800396D01*
X177609985Y-37010047D01*
X177575500Y-37227778D01*
X177575500Y-37448221D01*
X177609985Y-37665952D01*
X177678103Y-37875603D01*
X177678104Y-37875606D01*
X177744259Y-38005439D01*
X177773773Y-38063364D01*
X177778187Y-38072025D01*
X177907752Y-38250358D01*
X177907756Y-38250363D01*
X178063636Y-38406243D01*
X178063641Y-38406247D01*
X178219192Y-38519260D01*
X178241978Y-38535815D01*
X178370375Y-38601237D01*
X178438393Y-38635895D01*
X178438396Y-38635896D01*
X178543221Y-38669955D01*
X178648049Y-38704015D01*
X178865778Y-38738500D01*
X178865779Y-38738500D01*
X179086221Y-38738500D01*
X179086222Y-38738500D01*
X179303951Y-38704015D01*
X179513606Y-38635895D01*
X179710022Y-38535815D01*
X179888365Y-38406242D01*
X180044242Y-38250365D01*
X180173815Y-38072022D01*
X180273895Y-37875606D01*
X180342015Y-37665951D01*
X180376500Y-37448222D01*
X180376500Y-37227778D01*
X180342015Y-37010049D01*
X180273895Y-36800394D01*
X180273895Y-36800393D01*
X180239237Y-36732375D01*
X180173815Y-36603978D01*
X180136401Y-36552482D01*
X180044247Y-36425641D01*
X180044243Y-36425636D01*
X179888363Y-36269756D01*
X179888358Y-36269752D01*
X179710023Y-36140185D01*
X179618672Y-36093638D01*
X179567876Y-36045663D01*
X179551082Y-35977842D01*
X179573620Y-35911707D01*
X179628336Y-35868256D01*
X179674963Y-35859154D01*
X184485117Y-35859176D01*
X184485118Y-35859177D01*
X184564881Y-35859177D01*
X184564882Y-35859177D01*
X184595405Y-35846534D01*
X184638573Y-35828654D01*
X184694975Y-35772252D01*
X184694976Y-35772251D01*
X184725500Y-35698559D01*
X184725500Y-35124000D01*
X184745185Y-35056961D01*
X184797989Y-35011206D01*
X184849500Y-35000000D01*
X190200500Y-35000000D01*
X190267539Y-35019685D01*
G37*
%TD.AperFunction*%
%TA.AperFunction,Conductor*%
G36*
X181037644Y-68644981D02*
G01*
X181022398Y-68681790D01*
X181022398Y-68722208D01*
X181037866Y-68759551D01*
X181066446Y-68788131D01*
X181103789Y-68803599D01*
X181144207Y-68803599D01*
X181181550Y-68788131D01*
X181195840Y-68773841D01*
X181213092Y-68791093D01*
X181246577Y-68852416D01*
X181241593Y-68922108D01*
X181213092Y-68966455D01*
X181066114Y-69113433D01*
X181004791Y-69146918D01*
X180935099Y-69141934D01*
X180879166Y-69100062D01*
X180854749Y-69034598D01*
X180858659Y-68993657D01*
X180867397Y-68961048D01*
X180874500Y-68934539D01*
X180874500Y-68772544D01*
X180883142Y-68743109D01*
X180889665Y-68713122D01*
X180893422Y-68708102D01*
X180894185Y-68705505D01*
X180910815Y-68684867D01*
X180913892Y-68681790D01*
X180921157Y-68674524D01*
X180982476Y-68641038D01*
X181037644Y-68644981D01*
G37*
%TD.AperFunction*%
%TA.AperFunction,Conductor*%
G36*
X170643933Y-54518718D02*
G01*
X170687125Y-54573639D01*
X170693768Y-54643192D01*
X170691783Y-54651818D01*
X170681000Y-54692060D01*
X170681000Y-54692065D01*
X170681000Y-54790935D01*
X170701436Y-54867202D01*
X170701775Y-54868468D01*
X170703960Y-54878160D01*
X170706000Y-54889266D01*
X170706000Y-54926908D01*
X170726697Y-55004150D01*
X170727983Y-55008949D01*
X170729886Y-55016053D01*
X170776027Y-55095972D01*
X170776031Y-55095977D01*
X171119681Y-55439627D01*
X171153166Y-55500950D01*
X171156000Y-55527308D01*
X171156000Y-56231353D01*
X171136315Y-56298392D01*
X171119681Y-56319034D01*
X170647862Y-56790852D01*
X170647860Y-56790855D01*
X170624507Y-56831305D01*
X170624506Y-56831307D01*
X170601717Y-56870777D01*
X170577831Y-56959922D01*
X170577831Y-58544000D01*
X170558146Y-58611039D01*
X170505342Y-58656794D01*
X170453831Y-58668000D01*
X168574500Y-58668000D01*
X168507461Y-58648315D01*
X168461706Y-58595511D01*
X168450500Y-58544000D01*
X168450500Y-58360314D01*
X168470185Y-58293275D01*
X168522989Y-58247520D01*
X168592147Y-58237576D01*
X168636497Y-58252925D01*
X168676114Y-58275799D01*
X168790691Y-58306500D01*
X168790694Y-58306500D01*
X168909306Y-58306500D01*
X168909309Y-58306500D01*
X169023886Y-58275799D01*
X169126613Y-58216489D01*
X169210489Y-58132613D01*
X169269799Y-58029886D01*
X169300500Y-57915309D01*
X169300500Y-57796691D01*
X169269799Y-57682114D01*
X169210489Y-57579387D01*
X169126613Y-57495511D01*
X169023886Y-57436201D01*
X168909309Y-57405500D01*
X168790691Y-57405500D01*
X168676114Y-57436201D01*
X168676112Y-57436201D01*
X168676112Y-57436202D01*
X168636501Y-57459072D01*
X168568601Y-57475545D01*
X168502574Y-57452693D01*
X168459383Y-57397772D01*
X168450500Y-57351685D01*
X168450500Y-54859858D01*
X168470185Y-54792819D01*
X168522989Y-54747064D01*
X168592147Y-54737120D01*
X168636497Y-54752469D01*
X168678315Y-54776614D01*
X168767459Y-54800500D01*
X168767461Y-54800500D01*
X169232539Y-54800500D01*
X169232541Y-54800500D01*
X169321685Y-54776614D01*
X169332765Y-54770217D01*
X169401609Y-54730470D01*
X169545260Y-54586817D01*
X169606581Y-54553334D01*
X169632940Y-54550500D01*
X170140938Y-54550500D01*
X170173031Y-54554725D01*
X170187674Y-54558648D01*
X170250565Y-54575500D01*
X170250567Y-54575500D01*
X170349432Y-54575500D01*
X170349435Y-54575500D01*
X170444938Y-54549910D01*
X170510011Y-54512339D01*
X170577906Y-54495867D01*
X170643933Y-54518718D01*
G37*
%TD.AperFunction*%
%TA.AperFunction,Conductor*%
G36*
X172062203Y-55958330D02*
G01*
X172068681Y-55964362D01*
X173463962Y-57359643D01*
X173497447Y-57420966D01*
X173492463Y-57490658D01*
X173450591Y-57546591D01*
X173385127Y-57571008D01*
X173344189Y-57567099D01*
X173293436Y-57553500D01*
X173293435Y-57553500D01*
X173194565Y-57553500D01*
X173099062Y-57579090D01*
X173099060Y-57579091D01*
X173099059Y-57579091D01*
X173013436Y-57628526D01*
X172943526Y-57698436D01*
X172894091Y-57784059D01*
X172894091Y-57784060D01*
X172894090Y-57784062D01*
X172868500Y-57879565D01*
X172868500Y-57978435D01*
X172883305Y-58033689D01*
X172889275Y-58055968D01*
X172893500Y-58088061D01*
X172893500Y-58544000D01*
X172873815Y-58611039D01*
X172821011Y-58656794D01*
X172769500Y-58668000D01*
X171402831Y-58668000D01*
X171335792Y-58648315D01*
X171290037Y-58595511D01*
X171278831Y-58544000D01*
X171278831Y-57202610D01*
X171298516Y-57135571D01*
X171315150Y-57114929D01*
X171548019Y-56882060D01*
X171786969Y-56643110D01*
X171833114Y-56563185D01*
X171848091Y-56507289D01*
X171857000Y-56474041D01*
X171857000Y-56052043D01*
X171876685Y-55985004D01*
X171929489Y-55939249D01*
X171998647Y-55929305D01*
X172062203Y-55958330D01*
G37*
%TD.AperFunction*%
%TA.AperFunction,Conductor*%
G36*
X171987203Y-54483331D02*
G01*
X171993681Y-54489363D01*
X175492959Y-57988641D01*
X175497297Y-57996586D01*
X175504545Y-58002012D01*
X175513779Y-58026771D01*
X175526444Y-58049964D01*
X175525798Y-58058993D01*
X175528962Y-58067476D01*
X175523345Y-58093296D01*
X175521460Y-58119656D01*
X175515641Y-58128709D01*
X175514110Y-58135749D01*
X175492959Y-58164003D01*
X175464003Y-58192959D01*
X175402680Y-58226444D01*
X175332988Y-58221460D01*
X175288641Y-58192959D01*
X171818319Y-54722637D01*
X171784834Y-54661314D01*
X171782000Y-54634956D01*
X171782000Y-54577044D01*
X171801685Y-54510005D01*
X171854489Y-54464250D01*
X171923647Y-54454306D01*
X171987203Y-54483331D01*
G37*
%TD.AperFunction*%
%TA.AperFunction,Conductor*%
G36*
X173644372Y-53612077D02*
G01*
X173650850Y-53618109D01*
X176784181Y-56751440D01*
X176817666Y-56812763D01*
X176820500Y-56839121D01*
X176820500Y-57092051D01*
X176800815Y-57159090D01*
X176748011Y-57204845D01*
X176678853Y-57214789D01*
X176615297Y-57185764D01*
X176608819Y-57179732D01*
X176286819Y-56857732D01*
X176253334Y-56796409D01*
X176250500Y-56770051D01*
X176250500Y-56703858D01*
X176250500Y-56703856D01*
X176226614Y-56614712D01*
X176219566Y-56602504D01*
X176180473Y-56534794D01*
X176180470Y-56534791D01*
X176180469Y-56534788D01*
X176115212Y-56469531D01*
X174853059Y-55207378D01*
X173475488Y-53829806D01*
X173460784Y-53802878D01*
X173444192Y-53777060D01*
X173443300Y-53770859D01*
X173442003Y-53768483D01*
X173439169Y-53742125D01*
X173439169Y-53705790D01*
X173458854Y-53638751D01*
X173511658Y-53592996D01*
X173580816Y-53583052D01*
X173644372Y-53612077D01*
G37*
%TD.AperFunction*%
%TA.AperFunction,Conductor*%
G36*
X173944372Y-51674764D02*
G01*
X173950850Y-51680796D01*
X176869681Y-54599627D01*
X176903166Y-54660950D01*
X176906000Y-54687308D01*
X176906000Y-55142974D01*
X176923257Y-55207379D01*
X176923257Y-55207380D01*
X176929884Y-55232115D01*
X176929885Y-55232117D01*
X176976027Y-55312039D01*
X176976031Y-55312044D01*
X177413181Y-55749194D01*
X177446666Y-55810517D01*
X177449500Y-55836875D01*
X177449500Y-56126033D01*
X177429815Y-56193072D01*
X177377011Y-56238827D01*
X177307853Y-56248771D01*
X177244297Y-56219746D01*
X177237819Y-56213714D01*
X173775488Y-52751383D01*
X173742003Y-52690060D01*
X173739169Y-52663702D01*
X173739169Y-51768477D01*
X173758854Y-51701438D01*
X173811658Y-51655683D01*
X173880816Y-51645739D01*
X173944372Y-51674764D01*
G37*
%TD.AperFunction*%
%TA.AperFunction,Conductor*%
G36*
X172553919Y-51392360D02*
G01*
X172569673Y-51405686D01*
X172701850Y-51537863D01*
X172735335Y-51599186D01*
X172738169Y-51625544D01*
X172738169Y-53943125D01*
X172718484Y-54010164D01*
X172665680Y-54055919D01*
X172596522Y-54065863D01*
X172532966Y-54036838D01*
X172526488Y-54030806D01*
X171886819Y-53391137D01*
X171853334Y-53329814D01*
X171850500Y-53303456D01*
X171850500Y-51994543D01*
X171870185Y-51927504D01*
X171886815Y-51906866D01*
X172379369Y-51414311D01*
X172405044Y-51394610D01*
X172419993Y-51385979D01*
X172487893Y-51369507D01*
X172553919Y-51392360D01*
G37*
%TD.AperFunction*%
%TA.AperFunction,Conductor*%
G36*
X174033239Y-44820185D02*
G01*
X174053880Y-44836818D01*
X174080292Y-44863229D01*
X174100438Y-44883375D01*
X174186062Y-44932810D01*
X174281565Y-44958400D01*
X174281567Y-44958400D01*
X174380432Y-44958400D01*
X174380435Y-44958400D01*
X174475938Y-44932810D01*
X174545451Y-44892676D01*
X174613349Y-44876203D01*
X174679376Y-44899055D01*
X174695131Y-44912382D01*
X175804049Y-46021300D01*
X175837534Y-46082623D01*
X175840368Y-46108981D01*
X175840368Y-47678070D01*
X175836142Y-47710163D01*
X175815368Y-47787697D01*
X175815368Y-47886567D01*
X175840958Y-47982070D01*
X175890393Y-48067694D01*
X175960306Y-48137607D01*
X176045930Y-48187042D01*
X176141433Y-48212632D01*
X176141435Y-48212632D01*
X176240300Y-48212632D01*
X176240303Y-48212632D01*
X176335806Y-48187042D01*
X176421430Y-48137607D01*
X176491343Y-48067694D01*
X176540778Y-47982070D01*
X176566368Y-47886567D01*
X176566368Y-47787697D01*
X176545593Y-47710163D01*
X176541368Y-47678070D01*
X176541368Y-46238312D01*
X176561053Y-46171273D01*
X176613857Y-46125518D01*
X176683015Y-46115574D01*
X176746571Y-46144599D01*
X176753049Y-46150631D01*
X177163181Y-46560763D01*
X177196666Y-46622086D01*
X177199500Y-46648444D01*
X177199500Y-52790192D01*
X177179815Y-52857231D01*
X177127011Y-52902986D01*
X177057853Y-52912930D01*
X176994297Y-52883905D01*
X176987819Y-52877873D01*
X175744987Y-51635042D01*
X175711502Y-51573719D01*
X175716486Y-51504027D01*
X175758358Y-51448094D01*
X175800571Y-51427587D01*
X175888938Y-51403910D01*
X175974562Y-51354475D01*
X176044475Y-51284562D01*
X176093910Y-51198938D01*
X176119500Y-51103435D01*
X176119500Y-51004565D01*
X176119500Y-51004109D01*
X176118500Y-50988843D01*
X176118500Y-49181061D01*
X176122725Y-49148968D01*
X176132225Y-49113513D01*
X176143500Y-49071435D01*
X176143500Y-48972565D01*
X176117910Y-48877062D01*
X176068475Y-48791438D01*
X175998562Y-48721525D01*
X175929048Y-48681391D01*
X175903367Y-48661685D01*
X175392819Y-48151137D01*
X175359334Y-48089814D01*
X175356500Y-48063456D01*
X175356500Y-47403061D01*
X175360725Y-47370968D01*
X175363533Y-47360488D01*
X175381500Y-47293435D01*
X175381500Y-47194565D01*
X175355910Y-47099062D01*
X175306475Y-47013438D01*
X175236562Y-46943525D01*
X175150938Y-46894090D01*
X175055435Y-46868500D01*
X174956565Y-46868500D01*
X174861062Y-46894090D01*
X174861060Y-46894091D01*
X174861059Y-46894091D01*
X174775436Y-46943526D01*
X174705526Y-47013436D01*
X174656091Y-47099059D01*
X174656091Y-47099060D01*
X174656090Y-47099062D01*
X174630500Y-47194565D01*
X174630500Y-47194567D01*
X174630500Y-47293434D01*
X174651275Y-47370968D01*
X174655500Y-47403061D01*
X174655500Y-48306143D01*
X174679386Y-48395287D01*
X174679387Y-48395290D01*
X174725527Y-48475208D01*
X174725531Y-48475213D01*
X175381181Y-49130863D01*
X175414666Y-49192186D01*
X175417500Y-49218544D01*
X175417500Y-50554500D01*
X175397815Y-50621539D01*
X175345011Y-50667294D01*
X175293500Y-50678500D01*
X175293435Y-50678500D01*
X175194565Y-50678500D01*
X175194563Y-50678500D01*
X175186509Y-50679561D01*
X175186147Y-50676816D01*
X175129791Y-50675466D01*
X175071935Y-50636294D01*
X175044441Y-50572062D01*
X175056038Y-50503161D01*
X175060172Y-50495372D01*
X175093910Y-50436938D01*
X175119500Y-50341435D01*
X175119500Y-50242565D01*
X175093910Y-50147062D01*
X175044475Y-50061438D01*
X174974562Y-49991525D01*
X174888938Y-49942090D01*
X174793435Y-49916500D01*
X174694565Y-49916500D01*
X174599062Y-49942090D01*
X174599060Y-49942091D01*
X174599059Y-49942091D01*
X174513436Y-49991526D01*
X174443526Y-50061436D01*
X174424713Y-50094021D01*
X174374145Y-50142236D01*
X174305538Y-50155457D01*
X174240674Y-50129488D01*
X174229646Y-50119700D01*
X172356819Y-48246873D01*
X172323334Y-48185550D01*
X172320500Y-48159192D01*
X172320500Y-47574500D01*
X172340185Y-47507461D01*
X172392989Y-47461706D01*
X172444500Y-47450500D01*
X172559306Y-47450500D01*
X172559309Y-47450500D01*
X172673886Y-47419799D01*
X172776613Y-47360489D01*
X172860489Y-47276613D01*
X172919799Y-47173886D01*
X172950500Y-47059309D01*
X172950500Y-46940691D01*
X172919799Y-46826114D01*
X172860489Y-46723387D01*
X172776613Y-46639511D01*
X172673886Y-46580201D01*
X172559309Y-46549500D01*
X172444500Y-46549500D01*
X172377461Y-46529815D01*
X172331706Y-46477011D01*
X172320500Y-46425500D01*
X172320500Y-45457500D01*
X172340185Y-45390461D01*
X172392989Y-45344706D01*
X172444500Y-45333500D01*
X172515432Y-45333500D01*
X172515435Y-45333500D01*
X172610938Y-45307910D01*
X172696562Y-45258475D01*
X172766475Y-45188562D01*
X172815910Y-45102938D01*
X172841500Y-45007435D01*
X172841500Y-44924500D01*
X172861185Y-44857461D01*
X172913989Y-44811706D01*
X172965500Y-44800500D01*
X173966200Y-44800500D01*
X174033239Y-44820185D01*
G37*
%TD.AperFunction*%
%TD*%
%TA.AperFunction,Conductor*%
%TO.N,GND*%
G36*
X167603200Y-35859102D02*
G01*
X167603200Y-61468026D01*
X167295700Y-61457114D01*
X167295700Y-61018719D01*
X167295699Y-61018716D01*
X167265176Y-60945026D01*
X167208774Y-60888624D01*
X167171747Y-60873287D01*
X167117343Y-60829445D01*
X167095279Y-60763151D01*
X167095200Y-60758726D01*
X167095200Y-35983100D01*
X167114885Y-35916061D01*
X167167689Y-35870306D01*
X167219197Y-35859100D01*
X167603200Y-35859102D01*
G37*
%TD.AperFunction*%
%TD*%
M02*
